<svg xmlns="http://www.w3.org/2000/svg" width="62.311" height="62.312" viewBox="0 0 62.311 62.312">
  <path id="Path_503" data-name="Path 503" d="M17.436,53.961a55.47,55.47,0,0,1,32.386-20.4h.007a54.241,54.241,0,0,1,11.265-1.187,1.217,1.217,0,0,0,0-2.434,57.268,57.268,0,0,0-10.3.936V28.244a18.025,18.025,0,0,0,6.813-13.8c0-5.372-2.581-10.406-7.268-14.175a1.218,1.218,0,0,0-1.526,0c-4.686,3.768-7.268,8.8-7.268,14.175a18.026,18.026,0,0,0,6.813,13.8v3.125a57.624,57.624,0,0,0-6.823,2V26.247a1.213,1.213,0,0,0-.354-.858h0L34.37,18.534a1.218,1.218,0,0,0-.863-.359H19.592a1.217,1.217,0,0,0-.863.359l-6.815,6.856h0a1.213,1.213,0,0,0-.354.858V30.9Q10.288,30.662,9,30.486V26.148a13.89,13.89,0,0,0,5.151-10.569A14.018,14.018,0,0,0,8.55,4.63a1.217,1.217,0,0,0-1.525,0A14.018,14.018,0,0,0,1.419,15.579,13.89,13.89,0,0,0,6.57,26.147v4.059q-2.662-.249-5.355-.251a1.217,1.217,0,0,0,0,2.434,54.891,54.891,0,0,1,27.641,7.459,57.451,57.451,0,0,0-5.748,4.465A48.418,48.418,0,0,0,1.215,39.021a1.217,1.217,0,0,0,0,2.434A45.944,45.944,0,0,1,21.2,46.081,57.517,57.517,0,0,0,16.02,51.81a38.069,38.069,0,0,0-14.8-2.991,1.217,1.217,0,0,0,0,2.434A35.618,35.618,0,0,1,14.5,53.822q-1.261,1.753-2.392,3.6l-1.855,3.038a1.217,1.217,0,1,0,2.077,1.268l1.855-3.038a54.031,54.031,0,0,1,3.126-4.573,1.151,1.151,0,0,0,.12-.157ZM43.983,14.444a15.53,15.53,0,0,1,5.6-11.634,15.53,15.53,0,0,1,5.6,11.634A15.151,15.151,0,0,1,50.8,24.9v-9.32a1.217,1.217,0,1,0-2.434,0V24.9a15.148,15.148,0,0,1-4.379-10.454ZM3.853,15.579a11.389,11.389,0,0,1,3.934-8.4,11.388,11.388,0,0,1,3.934,8.4A11,11,0,0,1,9,22.7V14.6a1.217,1.217,0,1,0-2.434,0v8.1a11,11,0,0,1-2.717-7.125ZM37.4,25.03H26.914l-4.4-4.422H33Zm-17.8-3.913,3.89,3.913H15.7Zm-5.6,6.347h11.2V35.2q-.846-.389-1.7-.752V30.365a1.217,1.217,0,0,0-1.217-1.217H16.915A1.218,1.218,0,0,0,15.7,30.365v1.447q-.849-.221-1.7-.417Zm7.059,6.028q-1.448-.533-2.921-.988v-.922h2.921Zm6.572,2.9v-8.93H39.106v6.853a57.119,57.119,0,0,0-6.1,2.958q-.947.531-1.872,1.1-1.726-1.054-3.513-1.981Zm0,0" transform="translate(0.002 -0.001)" fill="#dd1964"/>
</svg>
