<?xml version="1.0" encoding="utf-8"?>
<!-- Generator: Adobe Illustrator 25.2.0, SVG Export Plug-In . SVG Version: 6.00 Build 0)  -->
<svg version="1.1" id="Layer_1" xmlns="http://www.w3.org/2000/svg" xmlns:xlink="http://www.w3.org/1999/xlink" x="0px" y="0px"
	 viewBox="0 0 1920 1080" style="enable-background:new 0 0 1920 1080;" xml:space="preserve">
<style type="text/css">
	.st0{fill:#DD1964;}
	.st1{opacity:0.2;enable-background:new    ;}
	.st2{opacity:0.5;fill:#FFFFFF;enable-background:new    ;}
	.st3{opacity:0.2;fill:#FFFFFF;enable-background:new    ;}
	.st4{fill:#263238;}
	.st5{opacity:0.3;fill:#FFFFFF;enable-background:new    ;}
	.st6{opacity:0.6;fill:#FFFFFF;enable-background:new    ;}
	.st7{fill:#E4897B;}
	.st8{opacity:0.1;enable-background:new    ;}
	.st9{fill:#FFFFFF;}
	.st10{fill:#DE5753;}
	.st11{opacity:0.4;enable-background:new    ;}
	.st12{opacity:0.2;}
	.st13{opacity:0.1;fill:#FFFFFF;enable-background:new    ;}
	.st14{opacity:0.4;fill:#FFFFFF;enable-background:new    ;}
</style>
<g id="Contact_us-rafiki_1" transform="translate(-124.6 -157.1)">
	<g id="freepik--Plant--inject-3" transform="translate(605.038 485.526)">
		<path id="Path_316" class="st0" d="M1361.6,670.6c0.2-2.4,8.5-59.4-8-79c-3.3-4.2-8.3-6.7-13.7-6.8c-33.5-0.7-38,25.9-38,26.2
			l4,0.7c0.2-0.9,4-23.6,34-22.9c4.3,0.1,8.2,2.1,10.8,5.4c15.3,18.4,7.1,75.2,7.1,75.9L1361.6,670.6z"/>
		<path id="Path_317" class="st0" d="M1363.5,668l4-0.2c0-0.5-1.4-52.3,24.3-63.2c25-10.6,36.3,11.1,36.8,12l3.5-1.9
			c0-0.2-13.4-25.9-42-13.9C1362.1,612.8,1363.5,665.9,1363.5,668z"/>
		<path id="Path_318" class="st0" d="M1363.3,672.2c0-0.9,0.2-83,16.3-107c15.3-23.1,40.1-12.3,41.3-11.8l1.7-3.5
			c-0.2,0-29-12.7-46.2,13.2c-16.7,25-17,105.9-17,109.2L1363.3,672.2z"/>
		<path id="Path_319" class="st0" d="M1335,586.9c0,0,14.6,5.4,10.1,17.9s-50.5,33.5-50.5,33.5s-19.3-17.7-1.7-46.4
			C1310.7,563.1,1334.8,577.7,1335,586.9z"/>
		<path id="Path_320" class="st0" d="M1380.5,560.7c0,0-10.4-1.2-9.4-7.3c0.9-6.1,40.3-22.4,63.4,3.8c0,0-14.9,25.5-36.3,25.9
			C1376.7,583.6,1380.5,560.7,1380.5,560.7z"/>
		<path id="Path_321" class="st0" d="M1391.1,602.9c0,0-7.1-5.7,0.5-8.5c7.5-2.8,45.5-2.1,46,35.4c0,0-44.1,7.3-49.5-6.8
			C1382.6,608.8,1391.1,602.9,1391.1,602.9z"/>
		<path id="Path_322" class="st1" d="M1335,586.9c0,0,14.6,5.4,10.1,17.9s-50.5,33.5-50.5,33.5s-19.3-17.7-1.7-46.4
			C1310.7,563.1,1334.8,577.7,1335,586.9z"/>
		<path id="Path_323" class="st1" d="M1380.5,560.7c0,0-10.4-1.2-9.4-7.3c0.9-6.1,40.3-22.4,63.4,3.8c0,0-14.9,25.5-36.3,25.9
			C1376.7,583.6,1380.5,560.7,1380.5,560.7z"/>
		<path id="Path_324" class="st1" d="M1391.1,602.9c0,0-7.1-5.7,0.5-8.5c7.5-2.8,45.5-2.1,46,35.4c0,0-44.1,7.3-49.5-6.8
			C1382.6,608.8,1391.1,602.9,1391.1,602.9z"/>
		<path id="Path_325" class="st0" d="M1327.2,747h68.4l7.3-74.7h-83L1327.2,747z"/>
		<path id="Path_326" class="st2" d="M1327.2,747h68.4l7.3-74.7h-83L1327.2,747z"/>
		<rect id="Rectangle_123" x="1316.1" y="663.8" class="st0" width="90.3" height="16.5"/>
		<rect id="Rectangle_124" x="1316.1" y="663.8" class="st3" width="90.3" height="16.5"/>
	</g>
	<g id="freepik--Chair--inject-3" transform="translate(427.479 297.837)">
		<path id="Path_327" class="st4" d="M1427.4,880.9l-67.9-6.6v-95.5h-26.9v95.5l-68.1,6.6c-6.8,0.7-12,6.4-12,13.2v10.1h187v-10.1
			C1439.4,887.3,1434.2,881.6,1427.4,880.9z"/>
		<path id="Path_328" class="st3" d="M1427.4,880.9l-67.9-6.6v-95.5h-26.9v95.5l-68.1,6.6c-6.8,0.7-12,6.4-12,13.2v10.1h187v-10.1
			C1439.4,887.3,1434.2,881.6,1427.4,880.9z"/>
		<circle id="Ellipse_9" class="st4" cx="1259.8" cy="917" r="17.7"/>
		<ellipse id="Ellipse_10" class="st4" cx="1432.6" cy="917.3" rx="18.3" ry="16.9"/>
		<path id="Path_329" class="st4" d="M1327.9,714.2h36.3v75.2c0.1,5.3-4.2,9.6-9.5,9.7c-0.1,0-0.1,0-0.2,0h-16.7
			c-5.3,0.1-9.6-4.2-9.7-9.5c0-0.1,0-0.1,0-0.2l0,0v-75.2H1327.9z"/>
		<path id="Path_330" class="st5" d="M1327.9,714.2h36.3v75.2c0.1,5.3-4.2,9.6-9.5,9.7c-0.1,0-0.1,0-0.2,0h-16.7
			c-5.3,0.1-9.6-4.2-9.7-9.5c0-0.1,0-0.1,0-0.2l0,0v-75.2H1327.9z"/>
		<path id="Path_331" class="st4" d="M1410.5,565.2c0,0,5.2,127.3-30.4,149.2h40.6c0,0,31.4-43.4,22.4-149.2H1410.5z"/>
		<path id="Path_332" class="st5" d="M1410.5,565.2c0,0,5.2,127.3-30.4,149.2h40.6c0,0,31.4-43.4,22.4-149.2H1410.5z"/>
		<path id="Path_333" class="st4" d="M1434.3,724.1H1253v-15.8c-0.1-6.4,5.1-11.7,11.6-11.8c0.1,0,0.2,0,0.2,0h157.7
			c6.4-0.1,11.7,5.1,11.8,11.6c0,0.1,0,0.2,0,0.2V724.1L1434.3,724.1z"/>
		<path id="Path_334" class="st4" d="M1437.1,724.1h-187c-2.6,0-4.7-2.1-4.7-4.7v-4.2c0-2.6,2.1-4.7,4.7-4.7h187
			c2.6,0,4.7,2.1,4.7,4.7v4.2c0.1,2.5-1.9,4.6-4.4,4.7C1437.3,724.1,1437.2,724.1,1437.1,724.1z"/>
		<path id="Path_335" class="st6" d="M1437.1,724.1h-187c-2.6,0-4.7-2.1-4.7-4.7v-4.2c0-2.6,2.1-4.7,4.7-4.7h187
			c2.6,0,4.7,2.1,4.7,4.7v4.2c0.1,2.5-1.9,4.6-4.4,4.7C1437.3,724.1,1437.2,724.1,1437.1,724.1z"/>
		<path id="Path_336" class="st4" d="M1388.3,496.8h64.8c19-0.1,34.4,15.3,34.4,34.2c0,0.1,0,0.1,0,0.2v25.5
			c0.1,19-15.3,34.4-34.2,34.4c-0.1,0-0.1,0-0.2,0h-64.8c-19,0.1-34.4-15.3-34.4-34.2c0-0.1,0-0.1,0-0.2v-25.5
			c-0.1-19,15.3-34.4,34.2-34.4C1388.2,496.8,1388.2,496.8,1388.3,496.8z"/>
	</g>
	<g id="freepik--Character--inject-3" transform="translate(311.248 164.431)">
		<path id="Path_337" class="st7" d="M1307.7,526.3l-13-34.2c0,0,5.7-5.2,1.7-10.4c-4-5.2-27.6-19.8-32.1-17.2s-13.9,12.3-8.7,17.7
			c5.2,5.4,28.3,14.4,28.3,14.4l11.6,44.8L1307.7,526.3z"/>
		<path id="Path_338" class="st0" d="M1398.2,591.1c0,0-58.9-12-65.3-15.1s-29.9-72.1-29.9-72.1l-18.2,8.5c0,0,14.6,69.6,29.5,86.3
			s78.7,30.6,78.7,30.6L1398.2,591.1z"/>
		<path id="Path_339" class="st1" d="M1393,629.1l-1.2-0.2c-3.3-0.7-13.2-3.1-25.2-6.6c-19.3-5.7-43.9-14.1-52.3-23.8
			c-14.9-16.5-29.5-86.3-29.5-86.3l18.2-8.5c0,0,23.6,69.3,30.2,72.4c6.6,3.1,65.3,15.1,65.3,15.1L1393,629.1z"/>
		<path id="Path_340" class="st0" d="M1303.2,502.5l3.8,7.3l-23.3,8l0.7-9L1303.2,502.5z"/>
		<path id="Path_341" class="st1" d="M1393.5,628.1c-3.3-0.5-13.4-2.1-25.7-4.7c7.1-12,27.3-18.2,27.3-18.2L1393.5,628.1z"/>
		<path id="Path_342" class="st4" d="M1481.2,543c0,0,3.5,32.5-8.5,40.6c-12,8-71.4-1.4-78.3-14.4c-6.8-13,18.6-48.8,18.6-48.8
			L1481.2,543z"/>
		<path id="Path_343" class="st7" d="M1240.7,972.1l15.6,3.8l7.8-21.5l7.1-19.6l-17.7-7.3l-6.8,23.6L1240.7,972.1z"/>
		<path id="Path_344" class="st1" d="M1246.6,951.1l17.4,3.3l7.1-19.6l-17.7-7.3L1246.6,951.1z"/>
		<path id="Path_345" class="st0" d="M1248.2,939.8l21.5,8c0,0,57.3-143.3,69.1-143.8c11.8-0.5,131.8,54.7,162,24
			s-13.4-104.4-13.4-104.4s-72.4-10.4-77.8,5.9c-1.4,4.8-2.4,9.7-3.1,14.6c-0.9,5-1.4,9.2-1.4,9.2l0,0c-2.4-0.5-75-19.3-103.5,0
			C1272.5,773.1,1248.2,939.8,1248.2,939.8z"/>
		<path id="Path_346" class="st6" d="M1248.2,939.8l21.5,8c0,0,57.3-143.3,69.1-143.8c11.8-0.5,131.8,54.7,162,24
			s-13.4-104.4-13.4-104.4s-72.4-10.4-77.8,5.9c-1.4,4.8-2.4,9.7-3.1,14.6c-0.9,5-1.4,9.2-1.4,9.2l0,0c-2.4-0.5-75-19.3-103.5,0
			C1272.5,773.1,1248.2,939.8,1248.2,939.8z"/>
		<path id="Path_347" class="st7" d="M1372,1033.2l15.3-3.8l-2.8-22.2l-2.8-20.5l-19.1,1.9l5,23.6L1372,1033.2z"/>
		<path id="Path_348" class="st1" d="M1367.5,1012.7l17-5.2l-2.8-20.5l-19.1,1.7L1367.5,1012.7z"/>
		<path id="Path_349" class="st0" d="M1278.7,939.8l-31.4-10.6l-1.4,12.7l23.8,8.5L1278.7,939.8z"/>
		<path id="Path_350" class="st0" d="M1448.9,835.4c0,0-5,0-80.9-3.5c0,0,11.3,94.8,17.4,166l-22.6,3.8c0,0-54.2-152.1-53.8-176.4
			c0.5-24.3,28.3-31.1,28.3-31.1S1391.6,825.5,1448.9,835.4z"/>
		<path id="Path_351" class="st6" d="M1448.9,835.4c0,0-5,0-80.9-3.5c0,0,11.3,94.8,17.4,166l-22.6,3.8c0,0-54.2-152.1-53.8-176.4
			c0.5-24.3,28.3-31.1,28.3-31.1S1391.6,825.5,1448.9,835.4z"/>
		<path id="Path_352" class="st8" d="M1448.9,835.4c0,0-5,0-80.9-3.5c0,0,11.3,94.8,17.4,166l-22.6,3.8c0,0-54.2-152.1-53.8-176.4
			c0.5-24.3,28.3-31.1,28.3-31.1S1391.6,825.5,1448.9,835.4z"/>
		<path id="Path_353" class="st0" d="M1389,991l-31.4,3.5l6.1,12l25.2-3.1V991z"/>
		<path id="Path_354" class="st8" d="M1405.3,753.6l42.4,8.7c0,0-23.3-13-41-17.9C1405.7,749.3,1405.3,753.6,1405.3,753.6z"/>
		<path id="Path_355" class="st4" d="M1485.7,712.3l1.7,11.3l-77.8,5.9l-1.9-13.2L1485.7,712.3z"/>
		<path id="Path_356" class="st1" d="M1485.7,712.3l1.7,11.3l-77.8,5.9l-1.9-13.2L1485.7,712.3z"/>
		
			<rect id="Rectangle_125" x="1460.3" y="711.4" transform="matrix(0.9948 -0.102 0.102 0.9948 -65.9306 152.8667)" class="st0" width="3.8" height="19.8"/>
		
			<rect id="Rectangle_126" x="1426" y="715.8" transform="matrix(0.9979 -6.418397e-02 6.418397e-02 0.9979 -43.4031 93.5598)" class="st9" width="17" height="13"/>
		
			<rect id="Rectangle_127" x="1412.4" y="713.5" transform="matrix(0.9948 -0.102 0.102 0.9948 -66.3979 147.9975)" class="st0" width="3.8" height="19.8"/>
		
			<rect id="Rectangle_128" x="1460.3" y="711.4" transform="matrix(0.9948 -0.102 0.102 0.9948 -65.9306 152.8667)" class="st6" width="3.8" height="19.8"/>
		
			<rect id="Rectangle_129" x="1412.4" y="713.5" transform="matrix(0.9948 -0.102 0.102 0.9948 -66.3979 147.9975)" class="st6" width="3.8" height="19.8"/>
		<path id="Path_357" class="st0" d="M1396.8,589.9c14.6,4,29.7,5.7,44.8,5c25-1.2,54.7,10.8,54.7,10.8l-10.6,106.6l-78,4
			C1407.4,716.3,1381.2,627.4,1396.8,589.9z"/>
		<path id="Path_358" class="st4" d="M1409.3,529.8c0,0,4.5-51.6,47.6-33c54.2,23.6,11.1,86.5-15.3,73.8
			C1415.2,557.9,1409.3,529.8,1409.3,529.8z"/>
		<path id="Path_359" class="st1" d="M1421.3,598l1.2,29.2l9.7-13.7c0,0-3.5,32.3-1.4,50c0,0,1.9-31.6,6.1-50l10.4,13.7l14.9-29
			C1462.3,598,1438.3,589.5,1421.3,598z"/>
		<path id="Path_360" class="st7" d="M1434.7,603.4l22.4-6.4c-13.9-9.4-6.8-30.6-6.8-30.6l-22.2,7.8c1,3.1,1.8,6.2,2.4,9.4
			c2.4,13.9-4,14.9-4,14.9L1434.7,603.4z"/>
		<path id="Path_361" class="st1" d="M1428.1,574.1c1,3.1,1.8,6.2,2.4,9.4c10.6-4.2,19.8-17.2,19.8-17.2L1428.1,574.1z"/>
		<path id="Path_362" class="st7" d="M1442.8,507.7c-19.6-4.2-28.3,4.7-34.2,24.8c-7.3,25-5.7,44.1,20,44.1
			C1463.3,576.5,1475.3,515,1442.8,507.7z"/>
		<path id="Path_363" class="st10" d="M1421.3,534.1c-2.2,2.6-4.7,4.9-7.5,6.8c0.7,2,2.6,3.3,4.7,3.3L1421.3,534.1z"/>
		<path id="Path_364" class="st4" d="M1433.8,535.2c-0.5,1.7,0.2,3.1,1.2,3.3c0.9,0.2,2.4-0.9,2.6-2.4c0.2-1.4-0.2-3.1-1.2-3.3
			C1435.4,532.6,1434.3,533.6,1433.8,535.2z"/>
		<path id="Path_365" class="st4" d="M1436.9,532.9l-3.1-2.1C1433.8,530.8,1434.7,534.1,1436.9,532.9z"/>
		<path id="Path_366" class="st4" d="M1414,530.1c-0.5,1.7,0.2,3.1,1.2,3.3s2.4-0.9,2.6-2.4c0.2-1.4-0.2-3.1-1.2-3.3
			C1415.6,527.5,1414.2,528.4,1414,530.1z"/>
		<path id="Path_367" class="st4" d="M1417.1,527.7l-3.3-2.1C1413.8,525.6,1414.9,528.9,1417.1,527.7z"/>
		<path id="Path_368" class="st4" d="M1444.9,527.5c-0.2,0-0.7-0.2-0.7-0.5c-1.7-2.4-4.2-4-7.1-4.5c-0.5,0-0.7-0.5-0.7-0.9
			s0.5-0.7,0.9-0.7c3.5,0.3,6.7,2.3,8.5,5.4c0.2,0.4,0,0.9-0.4,1.1c0,0,0,0-0.1,0L1444.9,527.5L1444.9,527.5z"/>
		<path id="Path_369" class="st4" d="M1423,518.5c-0.2,0-0.2,0-0.5-0.2c-2.3-1.2-5-1.2-7.3,0c-0.4,0.2-0.9,0-1.1-0.4c0,0,0,0,0-0.1
			l0,0c-0.2-0.4,0-0.9,0.4-1.1c0,0,0,0,0.1,0l0,0c2.9-1.3,6.2-1.3,9,0.2c0.5,0.2,0.5,0.7,0.2,1.2l0,0
			C1423.4,518.3,1423.2,518.5,1423,518.5z"/>
		<path id="Path_370" class="st4" d="M1456.7,545.6c0,0-5.7-18.2-1.4-30.4c0,0-35.4-24.5-46,14.6c0,0,4-35.8,38-29.2
			s22.9,56.1,2.1,67C1449.4,567.5,1460.2,556.9,1456.7,545.6z"/>
		<path id="Path_371" class="st7" d="M1452.7,549.1c1.4-4.7,6.4-7.3,11-5.9c0,0,0,0,0,0c5.9,2.1,6.1,15.1-9.7,14.9
			C1451.7,557.9,1451,555.5,1452.7,549.1z"/>
		<path id="Path_372" class="st4" d="M1414.9,551.7c0.5,2.4,0.9,4.8,0.9,7.3h1.2c5.9,0.5,8.7-1.2,10.1-3.3c0.7-0.9,1.1-2.1,1.2-3.3
			v-2.1c-3.8,1.4-7.8,1.9-11.8,1.4C1416,551.9,1415.5,551.9,1414.9,551.7z"/>
		<path id="Path_373" class="st9" d="M1417.1,552l0.2,2.1c5.4,0.5,9.4,0,11.3-1.4v-2.1C1424.9,552,1421,552.5,1417.1,552z"/>
		<path id="Path_374" class="st10" d="M1417.3,559.3c5.9,0.5,8.7-1.2,10.1-3.3c-2.2-0.2-4.5,0-6.6,0.7
			C1419.4,557.2,1418.2,558.1,1417.3,559.3z"/>
		<path id="Path_375" class="st4" d="M1442.8,509.3c0,0,0.7,34,21.2,38.2c20.5,4.2-1.9-43.9-1.9-43.9s-30.4-19.8-50.7-5.9
			s-2.1,32.1-2.1,32.1S1413.5,504.6,1442.8,509.3z"/>
		<path id="Path_376" class="st4" d="M1450.5,540.4c-0.2,0-0.2,0-0.5-0.2c-14.6-11.3-7.3-33.2-7.3-33.5s0.5-0.5,0.7-0.5
			c0.2,0.1,0.4,0.3,0.3,0.6c0,0.1,0,0.1-0.1,0.1c0,0.2-7.1,21.2,6.8,32.1c0.2,0.1,0.2,0.4,0.1,0.6c0,0-0.1,0.1-0.1,0.1l0,0
			C1450.8,540.4,1450.8,540.4,1450.5,540.4z"/>
		<path id="Path_377" class="st0" d="M1469.9,554.3c-2.6,6.8-9.2,10.8-14.9,8.7c-5.7-2.1-8-9.4-5.4-16.3c2.6-6.8,9.2-10.8,14.9-8.7
			C1470.1,540.2,1472.5,547.5,1469.9,554.3z"/>
		<path id="Path_378" class="st11" d="M1469.9,554.3c-2.6,6.8-9.2,10.8-14.9,8.7c-5.7-2.1-8-9.4-5.4-16.3c2.6-6.8,9.2-10.8,14.9-8.7
			C1470.1,540.2,1472.5,547.5,1469.9,554.3z"/>
		<path id="Path_379" class="st0" d="M1463.3,543c0,0,8.5-38-10.6-47.9c2.1,0.3,4.3,0.7,6.4,1.2c2.4,0.7,17.7,16,9.9,50.2
			L1463.3,543z"/>
		<path id="Path_380" class="st1" d="M1463.3,543c0,0,8.5-38-10.6-47.9c2.1,0.3,4.3,0.7,6.4,1.2c2.4,0.7,17.7,16,9.9,50.2
			L1463.3,543z"/>
		<path id="Path_381" class="st0" d="M1427.9,564.7l-1.4-0.2l0.5-2.4c10.4,1.6,21.1-0.7,29.9-6.4l1.4,1.9
			C1449.4,563.7,1438.6,566.2,1427.9,564.7z"/>
		<g id="Group_34" transform="translate(170.973 73.55)" class="st12">
			<path id="Path_382" d="M1256.9,491.2l-1.4-0.2l0.5-2.4c10.4,1.6,21.1-0.7,29.9-6.4l1.4,1.9
				C1278.4,490.1,1267.6,492.6,1256.9,491.2z"/>
		</g>
		<path id="Path_383" class="st0" d="M1469.2,553.6c-1.7,4.5-6.1,7.1-9.9,5.7c-3.8-1.4-5.4-6.1-3.5-10.8c1.9-4.7,6.1-7.1,9.9-5.7
			C1469.4,544.2,1470.8,548.9,1469.2,553.6z"/>
		<path id="Path_384" class="st0" d="M1425.8,565.7l-1.9-0.2c-1.3-0.2-2.3-1.4-2.1-2.7c0,0,0-0.1,0-0.1l0,0c0.2-1.3,1.4-2.3,2.7-2.1
			c0,0,0.1,0,0.1,0l0,0l1.9,0.2c1.3,0.2,2.3,1.4,2.1,2.7c0,0,0,0.1,0,0.1l0,0c-0.2,1.3-1.4,2.3-2.7,2.1
			C1425.9,565.7,1425.8,565.7,1425.8,565.7z"/>
		<path id="Path_385" class="st11" d="M1425.8,565.7l-1.9-0.2c-1.3-0.2-2.3-1.4-2.1-2.7c0,0,0-0.1,0-0.1l0,0
			c0.2-1.3,1.4-2.3,2.7-2.1c0,0,0.1,0,0.1,0l0,0l1.9,0.2c1.3,0.2,2.3,1.4,2.1,2.7c0,0,0,0.1,0,0.1l0,0c-0.2,1.3-1.4,2.3-2.7,2.1
			C1425.9,565.7,1425.8,565.7,1425.8,565.7z"/>
		<path id="Path_386" class="st0" d="M1451.2,589l-14.1,13.7l5.7,16.7l19.6-21.5L1451.2,589z"/>
		<path id="Path_387" class="st0" d="M1431,591.8l2.1,10.6l-7.1,14.9l-4.7-19.3L1431,591.8z"/>
		<path id="Path_388" class="st7" d="M1448.2,600.8l8.3-29.7c0,0-4-7.3-3.1-9s5.2-21.5,8-23.8s15.3,1.4,16.7,3.5
			c1.4,2.1-11.8,29.2-11.8,29.2l-4.7,32.3L1448.2,600.8z"/>
		<path id="Path_389" class="st0" d="M1496.3,605.7c22.4,22.9-22.4,74.7-48.1,72.6c-25.7-2.1,0.7-96.4,0.7-96.4l16.5,2.6
			c0,0-5.9,40.8-4,43.9S1489,598.2,1496.3,605.7z"/>
		<path id="Path_390" class="st1" d="M1496.3,605.7c22.4,22.9-22.4,74.7-48.1,72.6c-25.7-2.1,0.7-96.4,0.7-96.4l16.5,2.6
			c0,0-5.9,40.8-4,43.9S1489,598.2,1496.3,605.7z"/>
		<path id="Path_391" class="st0" d="M1447.5,579.1l-2.4,7.8l22.9,2.1v-6.8L1447.5,579.1z"/>
		<path id="Path_392" class="st6" d="M1403.4,640.6h9.2c1,0.1,1.8,0.9,1.9,1.9V660c-0.1,1-0.9,1.8-1.9,1.9h-9.2
			c-1-0.1-1.8-0.9-1.9-1.9v-17.4C1401.6,641.5,1402.4,640.7,1403.4,640.6z"/>
		<rect id="Rectangle_130" x="1402.2" y="642" class="st1" width="10.6" height="14.4"/>
		<rect id="Rectangle_131" x="1406.7" y="635.4" class="st4" width="2.4" height="8.5"/>
		<path id="Path_393" class="st0" d="M1215,1002.3c2.4-1.1,4.9-1.7,7.5-1.9l0,0c0,0,9-5.2,17.9-25.7h9.9c3.5,0,6.6,2.1,7.8,5.4
			c0.2,0.4,0.3,0.9,0.2,1.4l-0.7,7.1c-1.4,8-3.3,15.9-5.9,23.6l-1.7-0.5l3.1-14.9c0.9-5-4.2-0.2-6.8,5s-6.1,10.4-17.2,7.8
			C1216.2,1006.3,1211,1004.4,1215,1002.3z"/>
		<path id="Path_394" class="st7" d="M1242.1,969.3c0,0-12.5,26.2-19.6,31.1c0,0,9.7,5.7,19.6-7.1c13-16.5,16-11.8,16-11.8
			c-0.2-2.9-0.8-5.7-1.7-8.5C1254.8,967.6,1242.1,969.3,1242.1,969.3z"/>
		<path id="Path_395" class="st0" d="M1352.2,1064.3c2-1.6,4.3-2.8,6.8-3.5l0,0c0,0,7.5-7.3,11.3-29.2l9.7-2.4
			c3.4-0.7,6.8,0.7,8.7,3.5c0.2,0.5,0.5,0.7,0.7,1.2c0.5,2.4,0.7,4.7,0.9,7.1c0.5,8.1,0.5,16.2,0,24.3h-1.7l-0.5-15.1
			c-0.2-5.2-4.2,0.9-5.4,6.4c-1.2,5.4-3.5,11.3-14.9,11.6C1354.3,1068.1,1348.9,1067.6,1352.2,1064.3z"/>
		<path id="Path_396" class="st7" d="M1370.8,1025.9c0,0-5.9,28.3-11.8,34.9c0,0,10.6,3.3,17.4-11.6c8.7-19.1,13-15.3,13-15.3
			c-0.9-2.7-2.1-5.3-3.5-7.8C1382.6,1021.4,1370.8,1025.9,1370.8,1025.9z"/>
	</g>
	<g id="freepik--speech-bubble--inject-3" transform="translate(537.91 157.1)">
		<path id="Path_397" class="st0" d="M1281.2,462.4h82.3c6.6,0,12,5.4,12,12v35.1c0,6.6-5.4,12-12,12h-82.3c-6.6,0-12-5.4-12-12
			v-35.1c-0.1-6.6,5.2-12,11.8-12C1281,462.4,1281.1,462.4,1281.2,462.4z"/>
		<path id="Path_398" class="st0" d="M1297.7,515l-25,33.7l40.1-31.6L1297.7,515z"/>
		<path id="Path_399" class="st9" d="M1298.4,492.1c0,2-1.6,3.5-3.5,3.5s-3.5-1.6-3.5-3.5s1.6-3.5,3.5-3.5l0,0
			c1.9,0,3.5,1.5,3.5,3.4C1298.4,492,1298.4,492.1,1298.4,492.1z"/>
		<path id="Path_400" class="st9" d="M1316.5,492.1c0,2-1.6,3.5-3.5,3.5s-3.5-1.6-3.5-3.5s1.6-3.5,3.5-3.5l0,0
			c1.9,0,3.5,1.5,3.5,3.4C1316.5,492,1316.5,492.1,1316.5,492.1z"/>
		<path id="Path_401" class="st9" d="M1334.7,492.1c0,2-1.6,3.5-3.5,3.5s-3.5-1.6-3.5-3.5s1.6-3.5,3.5-3.5l0,0
			c1.9,0,3.5,1.5,3.5,3.4C1334.7,492,1334.7,492.1,1334.7,492.1z"/>
		<path id="Path_402" class="st9" d="M1352.8,492.1c0,2-1.6,3.5-3.5,3.5s-3.5-1.6-3.5-3.5s1.6-3.5,3.5-3.5l0,0
			c1.9,0,3.5,1.5,3.5,3.4C1352.8,492,1352.8,492.1,1352.8,492.1z"/>
	</g>
	<g id="freepik--Desk--inject-3" transform="translate(124.6 222.449)">
		<rect id="Rectangle_132" x="1208.8" y="613.7" class="st9" width="89.6" height="18.4"/>
		<rect id="Rectangle_133" x="1208.8" y="613.7" class="st8" width="89.6" height="18.4"/>
		<rect id="Rectangle_134" x="1208.8" y="613.7" class="st8" width="37.7" height="18.4"/>
		<path id="Path_403" class="st8" d="M1208.8,616.6h79.5l-79.5,2.1V616.6z"/>
		<path id="Path_404" class="st8" d="M1298.1,619.6l-69.1,1.7h69.1V619.6z"/>
		<path id="Path_405" class="st8" d="M1212.3,624.8l34-1.4l50.2,1.4l-50.2,0.7L1212.3,624.8z"/>
		<path id="Path_406" class="st8" d="M1208.8,628.6h58.9l-58.9,1.4V628.6z"/>
		<path id="Path_407" class="st8" d="M1298.1,630l-39.6,0.7h39.6V630z"/>
		<rect id="Rectangle_135" x="1196.3" y="595.6" class="st9" width="89.6" height="18.4"/>
		<rect id="Rectangle_136" x="1196.3" y="595.6" class="st8" width="89.6" height="18.4"/>
		<rect id="Rectangle_137" x="1196.3" y="595.6" class="st8" width="37.7" height="18.4"/>
		<path id="Path_408" class="st8" d="M1196.3,598.2h79.7l-79.7,2.1V598.2z"/>
		<path id="Path_409" class="st8" d="M1285.7,601.2l-69.1,1.9h69.1V601.2z"/>
		<path id="Path_410" class="st8" d="M1199.8,606.4l34.2-1.4l50,1.4l-50,0.7L1199.8,606.4z"/>
		<path id="Path_411" class="st8" d="M1196.3,610.4h58.9l-58.9,1.2V610.4z"/>
		<path id="Path_412" class="st8" d="M1285.7,611.6l-39.4,0.9h39.4V611.6z"/>
		<rect id="Rectangle_138" x="1206.4" y="577.2" class="st9" width="89.6" height="18.4"/>
		<rect id="Rectangle_139" x="1206.4" y="577.2" class="st8" width="89.6" height="18.4"/>
		<rect id="Rectangle_140" x="1206.4" y="577.2" class="st8" width="37.7" height="18.4"/>
		<path id="Path_413" class="st8" d="M1206.4,579.8h79.7l-79.7,2.4V579.8z"/>
		<path id="Path_414" class="st8" d="M1296,582.8l-69.1,1.9h69.1V582.8z"/>
		<path id="Path_415" class="st8" d="M1210,588l34.2-1.4l50,1.4l-50,0.7L1210,588z"/>
		<path id="Path_416" class="st8" d="M1206.4,592h58.9l-58.9,1.4V592z"/>
		<path id="Path_417" class="st8" d="M1295.8,593.5l-39.4,0.7h39.6L1295.8,593.5z"/>
		<path id="Path_418" class="st4" d="M1355.4,631.9l2.4-9h95.7l44.1,4.5l1.7,4.5H1355.4z"/>
		<path id="Path_419" class="st11" d="M1453.5,622.9v9h-98.1l2.4-9L1453.5,622.9z"/>
		<path id="Path_420" class="st4" d="M1434.2,581c0.5,4.1-2.4,7.8-6.5,8.2c0,0-0.1,0-0.1,0h-147.4c-4.8-0.1-8.7-3.7-9.2-8.5
			l-8.7-93.8c0-0.9,0-1.9,0.2-2.8c0.9-3.3,3.9-5.6,7.3-5.7h146.6c4.8,0.1,8.7,3.7,9.2,8.5L1434.2,581z"/>
		<path id="Path_421" class="st11" d="M1426.2,589.2h-145.9c-4.8-0.1-8.7-3.7-9.2-8.5l-8.7-93.8c0-0.9,0-1.9,0.2-2.8h145.9
			c4.8,0.1,8.7,3.7,9.2,8.5l8.7,93.8C1426.5,587.3,1426.4,588.3,1426.2,589.2z"/>
		<path id="Path_422" class="st4" d="M1325.5,531.9h30.4l-8,86.8l47.9,7.1v6.1h-100.9v-6.1l20.5-7.1L1325.5,531.9z"/>
		<path id="Path_423" class="st13" d="M1355.9,531.9l-22.4,98.6l-18.2-0.5l10.1-98.1H1355.9z"/>
		<path id="Path_424" class="st4" d="M1355.7,1010.1h-14.4l-25.9-361.4h19.1L1355.7,1010.1z"/>
		<path id="Path_425" class="st14" d="M1355.7,1010.1h-14.4l-24.8-343.5l-1.2-17.2h19.1l0.9,17.2L1355.7,1010.1z"/>
		<path id="Path_426" class="st1" d="M1335.4,665.8h-18.9l-1.2-16.5h19.1L1335.4,665.8z"/>
		<path id="Path_427" class="st4" d="M1461.8,1010.1h-14.4l-2.4-361.4h19.1L1461.8,1010.1z"/>
		<path id="Path_428" class="st2" d="M1464.1,649.3l-0.5,58.2l-1.9,302.5h-14.4l-2.1-302.5l-0.2-58.2H1464.1z"/>
		<path id="Path_429" class="st1" d="M1464.1,649.3l-0.5,58.9h-18.4l-0.2-58.9H1464.1z"/>
		<path id="Path_430" class="st4" d="M1615,1010.1h-14.4l-25.9-361.4h19.1L1615,1010.1z"/>
		<path id="Path_431" class="st2" d="M1615,1010.1h-14.4l-24.8-343.5l-1.2-17.2h19.1l0.9,17.2L1615,1010.1z"/>
		<path id="Path_432" class="st1" d="M1594.7,665.8h-18.9l-1.2-16.5h19.1L1594.7,665.8z"/>
		<path id="Path_433" class="st4" d="M1190.4,1010.1H1176l21.2-361.4h19.1L1190.4,1010.1z"/>
		<path id="Path_434" class="st2" d="M1216.3,649.3l-1.2,17.2l-24.8,343.5H1176l20.3-343.5l0.9-17.2H1216.3z"/>
		<path id="Path_435" class="st1" d="M1197.2,649.3h19.1l-1.2,16.5h-18.9L1197.2,649.3z"/>
		<path id="Path_436" class="st0" d="M1182.1,639.7h427v13c0,2.9-2.3,5.2-5.2,5.2h-416.8c-2.9,0-5.2-2.3-5.2-5.2l0,0L1182.1,639.7z"
			/>
		<path id="Path_437" class="st6" d="M1182.1,639.7h427v13c0,2.9-2.3,5.2-5.2,5.2h-416.8c-2.9,0-5.2-2.3-5.2-5.2l0,0L1182.1,639.7z"
			/>
		<rect id="Rectangle_141" x="1182.1" y="639.7" class="st1" width="427" height="9"/>
		<path id="Path_438" class="st0" d="M1618.1,642h-444.9c-2.9,0-5.2-2.3-5.2-5.2l0,0c0-2.9,2.3-5.2,5.2-5.2h444.9
			c2.9,0,5.2,2.3,5.2,5.2l0,0C1623.1,639.6,1620.9,641.8,1618.1,642z"/>
		<path id="Path_439" class="st6" d="M1618.1,642h-444.9c-2.9,0-5.2-2.3-5.2-5.2l0,0c0-2.9,2.3-5.2,5.2-5.2h444.9
			c2.9,0,5.2,2.3,5.2,5.2l0,0C1623.1,639.6,1620.9,641.8,1618.1,642z"/>
		<path id="Path_440" class="st0" d="M1512.7,616.1l5.4-8.3c1.1-1.7,3-2.6,5-2.6h6.8c0.6,0,1.1,0,1.7,0.2l24.8,7.5
			c1.4,0.4,2.5,1.4,3.3,2.6l3.5,5.9L1512.7,616.1z"/>
		<path id="Path_441" class="st1" d="M1563.4,621.5l-36.1-4l-14.6-1.7l5.4-8.3c1.1-1.7,3-2.6,5-2.6h6.8c0.6,0,1.1,0,1.7,0.2l0.5,0.2
			l24,7.3c1.4,0.4,2.5,1.4,3.3,2.6L1563.4,621.5z"/>
		<path id="Path_442" class="st1" d="M1563.4,621.5l-36.1-4l5-12l24,7.3c1.4,0.4,2.5,1.4,3.3,2.6L1563.4,621.5z"/>
		<path id="Path_443" class="st0" d="M1580.4,630.9v0.7H1504l2.8-11.1c1.1-4.2,4.9-7.1,9.2-7.1h34c1.1,0,2.2,0.2,3.3,0.5l4.2,1.7
			l16.7,6.4C1578,623.3,1580.5,626.9,1580.4,630.9z"/>
		<path id="Path_444" class="st1" d="M1580.4,630.9v0.7H1549l1.7-12c0.4-2.7,2.9-4.6,5.6-4.2c0,0,0,0,0,0c0.2,0,0.7,0.2,0.9,0.2
			l16.7,6.4C1577.9,623.2,1580.5,626.9,1580.4,630.9z"/>
		<path id="Path_445" class="st4" d="M1554,623.6l9.9-29.9c0.4-1.2,1.6-1.8,2.8-1.4c0,0,0.1,0,0.1,0c0.2,0,0.2,0,0.5,0.2l0,0
			c0.9,0.5,1.4,1.6,1.2,2.6l-8.5,32.1C1559.9,626.9,1554.2,629.3,1554,623.6z"/>
		<path id="Path_446" class="st1" d="M1512.7,629.3h-4.5l0.9-4.2h4.5L1512.7,629.3z"/>
		<path id="Path_447" class="st1" d="M1519.3,629.1h-4.5l0.9-4.2h4.5L1519.3,629.1z"/>
	</g>
</g>
</svg>
