<?xml version="1.0" encoding="utf-8"?>
<!-- Generator: Adobe Illustrator 25.2.0, SVG Export Plug-In . SVG Version: 6.00 Build 0)  -->
<svg version="1.1" id="Layer_1" xmlns="http://www.w3.org/2000/svg" xmlns:xlink="http://www.w3.org/1999/xlink" x="0px" y="0px"
	 viewBox="0 0 904.5 785" style="enable-background:new 0 0 904.5 785;" xml:space="preserve">
<style type="text/css">
	.st0{fill:#A8D29F;}
	.st1{fill:#FFB93E;}
	.st2{fill:#FFA412;}
	.st3{clip-path:url(#SVGID_2_);}
	.st4{fill:#82B378;}
	.st5{fill:#4C85D8;}
	.st6{fill:#699FF0;}
	.st7{fill:#719E67;}
	.st8{fill:#FFB973;}
	.st9{fill:#E2810E;}
	.st10{opacity:0.5;fill:#82B378;enable-background:new    ;}
	.st11{fill:#2C3A64;}
	.st12{opacity:0.5;fill:#AFCDFB;enable-background:new    ;}
	.st13{fill:#2B478B;}
	.st14{fill:#233862;}
	.st15{fill:#FFB27D;}
	.st16{fill:#ED985F;}
	.st17{fill:#699DEE;}
	.st18{fill:#4A75CB;}
	.st19{fill:#C94C43;}
	.st20{fill:#B23B38;}
	.st21{fill:#FFFFFF;}
</style>
<g id="Group_104" transform="translate(-505.553 -194.073)">
	<g id="Group_103" transform="translate(505.553 194.073)">
		<path id="Path_197" class="st0" d="M900.5,786.1L779.4,788c-4.3-3.7,19.6-15.2,50.7-14.5c4.2,0.1,8.3,0.6,12.4,1.5
			c1.1-14.8,7.5-81.5,31.5-78.8c27,3,0,29.4-7.6,45c-5.7,11.6-11.6,28.1-14.4,36c2.2,0.5,4.5,0.9,6.8,1.4c3.6-11,16.9-48,33.9-45.8
			c19.9,2.5,11.9,17.4-2.2,26.2c-10.3,6.5-23.1,15.7-29.1,20.1c5.2,0.9,10.6,1.3,15.9,1.3C891.1,779.8,897.9,783.9,900.5,786.1z"/>
		<path id="Path_198" class="st0" d="M28.5,783.3C25.7,778.7,17,767,5.4,768.6c-12.6,1.7,13.9,10,22,14.7c-1.5,0.1-3-0.1-4.5-0.5
			c-5.4-1.9-14.7,1.8-17.7,3.1h51.6c-0.6-2-1.9-3.7-3.7-4.7c-0.8-0.5-2.5-0.6-4.7-0.4c3.1-3.6,5.2-15.2-3.3-12.2
			c-6.2,2.2-6.2,9.2-5.6,13.4c-1.3,0.2-2.7,0.4-4,0.6c-2.6-13.1-11.6-51.4-30.1-52.5c-18.7-1,15.8,39.8,27.3,52.8
			C31.3,783.1,29.8,783.2,28.5,783.3z"/>
		<g id="Group_102" transform="translate(88.311)">
			<g id="Group_35" transform="translate(25.26 765.43)">
				<path id="Path_199" class="st1" d="M164.5,6.8v9.9c0,0.8-0.2,1.5-0.7,2.1c-0.4,0.6-1.1,1.1-1.8,1.4c-0.2,0.1-0.4,0.1-0.5,0.2
					l0,0h-0.1c-0.2,0-0.4,0.1-0.7,0.1H3.8c-0.2,0-0.3,0-0.5,0c-0.1,0-0.1,0-0.2,0c-1.7-0.3-3-1.8-3.1-3.5c0-0.1,0-0.1,0-0.2v-10
					c0-0.1,0-0.1,0-0.2C0.1,4.6,1.8,3,3.8,3h156.9c0.1,0,0.2,0,0.3,0h0.1h0.1h0.1c0.2,0,0.5,0.1,0.7,0.2h0.1h0.1
					c0.1,0,0.1,0.1,0.2,0.1s0.1,0.1,0.2,0.1s0.1,0.1,0.2,0.1s0.1,0.1,0.2,0.1s0.1,0.1,0.1,0.1l0,0l0.1,0.1c0.1,0.1,0.2,0.2,0.3,0.3
					l0.1,0.1l0.1,0.1c0,0.1,0.1,0.1,0.1,0.2C164.3,5.3,164.5,6.1,164.5,6.8z"/>
				<path id="Path_200" class="st2" d="M87.5,20.5H3.4c-0.1,0-0.1,0-0.2,0s-0.1,0-0.2,0c-1.7-0.3-3-1.8-3-3.6c0-0.1,0-0.1,0-0.2V6.8
					c0-0.1,0-0.1,0-0.2C0,4.7,1.5,3.1,3.4,3h73.8c0,0.1,0.1,0.3,0.1,0.4c1.2,5.1,4,11.8,10.1,16.9C87.4,20.4,87.4,20.4,87.5,20.5z"
					/>
				<g id="Group_34" transform="translate(57.662 0.009)">
					<rect id="Rectangle_3" x="86" y="3" class="st2" width="1.8" height="17.4"/>
					<rect id="Rectangle_4" x="80" y="3" class="st2" width="1.8" height="17.4"/>
					<rect id="Rectangle_5" x="72.7" y="3" class="st2" width="1.8" height="17.4"/>
					<rect id="Rectangle_6" x="61.6" y="3" class="st2" width="1.8" height="17.4"/>
					<rect id="Rectangle_7" x="49.9" y="3" class="st2" width="1.8" height="17.4"/>
					<rect id="Rectangle_8" x="31.9" y="3" class="st2" width="1.8" height="17.4"/>
					<rect id="Rectangle_9" x="15" y="3" class="st2" width="1.8" height="17.4"/>
					<rect id="Rectangle_10" x="0" y="3" class="st2" width="1.8" height="17.4"/>
					<rect id="Rectangle_11" x="91.7" y="3" class="st2" width="1.8" height="17.4"/>
					<rect id="Rectangle_12" x="95.5" y="3" class="st2" width="1.8" height="17.4"/>
					<rect id="Rectangle_13" x="99.2" y="3" class="st2" width="1.8" height="17.4"/>
					<path id="Path_201" class="st2" d="M103.7,3.1v17.3c-0.2,0-0.4,0.1-0.7,0.1h-1V3h1.1C103.3,3,103.5,3,103.7,3.1z"/>
					<path id="Path_202" class="st2" d="M106.2,4.7v14.1c-0.4,0.6-1.1,1.1-1.8,1.4V3.3C105.2,3.5,105.8,4,106.2,4.7z"/>
				</g>
			</g>
			<g id="Group_37" transform="translate(33.371 748.415)">
				<path id="Path_203" class="st1" d="M164.5,6.8v9.9c0,0.8-0.2,1.5-0.7,2.1c-0.4,0.6-1.1,1.1-1.8,1.4c-0.2,0.1-0.5,0.2-0.7,0.2
					s-0.4,0.1-0.7,0.1H3.7c-0.6,0-1.2-0.1-1.8-0.4c-1.1-0.6-1.9-1.7-2-3c0-0.1,0-0.1,0-0.2s0-0.1,0-0.2V6.8c0-0.1,0-0.1,0-0.2
					C0.1,4.6,1.8,3,3.8,3h156.9c0.2,0,0.4,0,0.7,0.1c0.2,0,0.5,0.1,0.7,0.2c0.7,0.3,1.3,0.8,1.8,1.4C164.3,5.3,164.5,6.1,164.5,6.8z
					"/>
				<path id="Path_204" class="st2" d="M87.5,20.5H3.4c-0.5,0-1.1-0.1-1.6-0.4c-1.1-0.6-1.7-1.8-1.8-3C0,17,0,17,0,16.9s0-0.1,0-0.2
					V6.8c0-0.1,0-0.1,0-0.2C0,4.7,1.5,3.1,3.4,3h73.8C78.3,8,81,14.9,87,20C87.1,20.2,87.3,20.3,87.5,20.5z"/>
				<g id="Group_36" transform="translate(57.663 0.009)">
					<rect id="Rectangle_14" x="86" y="3" class="st2" width="1.8" height="17.4"/>
					<rect id="Rectangle_15" x="80" y="3" class="st2" width="1.8" height="17.4"/>
					<rect id="Rectangle_16" x="72.7" y="3" class="st2" width="1.8" height="17.4"/>
					<rect id="Rectangle_17" x="61.6" y="3" class="st2" width="1.8" height="17.4"/>
					<rect id="Rectangle_18" x="49.9" y="3" class="st2" width="1.8" height="17.4"/>
					<rect id="Rectangle_19" x="31.9" y="3" class="st2" width="1.8" height="17.4"/>
					<rect id="Rectangle_20" x="15" y="3" class="st2" width="1.8" height="17.4"/>
					<rect id="Rectangle_21" x="0" y="3" class="st2" width="1.8" height="17.4"/>
					<rect id="Rectangle_22" x="91.7" y="3" class="st2" width="1.8" height="17.4"/>
					<rect id="Rectangle_23" x="95.5" y="3" class="st2" width="1.8" height="17.4"/>
					<rect id="Rectangle_24" x="99.2" y="3" class="st2" width="1.8" height="17.4"/>
					<path id="Path_205" class="st2" d="M103.7,3.1v17.3c-0.2,0-0.4,0.1-0.7,0.1h-1V3h1.1C103.3,3,103.5,3,103.7,3.1z"/>
					<path id="Path_206" class="st2" d="M106.2,4.7v14.1c-0.4,0.6-1.1,1.1-1.8,1.4V3.3C105.2,3.6,105.8,4.1,106.2,4.7z"/>
				</g>
			</g>
			<g id="Group_86">
				<g>
					<g>
						<defs>
							<rect id="SVGID_1_" x="0" y="3" width="792.7" height="782.8"/>
						</defs>
						<clipPath id="SVGID_2_">
							<use xlink:href="#SVGID_1_"  style="overflow:visible;"/>
						</clipPath>
						<g id="Group_85" class="st3">
							<g id="Group_84" transform="translate(-68.452 70.093)">
								<g id="Group_40" transform="translate(270.311 605.501)">
									<g id="Group_38">
										<path id="Path_207" class="st4" d="M162.7,143l-2.7,0.9c-10.9-22.7-27.1-39.3-42.9-53.2C100.3,75.8,66.9,57.5,25.4,61
											c-12.2,0.9-24.3,3.3-35.9,6.9l-1.4-3.1c80.3-33.4,127.6,3,152.3,36.4C149.8,114.1,157.3,128.1,162.7,143z"/>
										<path id="Path_208" class="st0" d="M253.8,93.8L162.7,143c-7-14.3-17.5-27.6-26.3-37.4c-4.9-5.6-10.3-10.9-15.8-15.9
											C64.9,40.5-11.9,64.8-11.9,64.8L54.4-4.7c40.6-14.6,76.4-8.1,106.2,7C218.9,31.8,253.8,93.8,253.8,93.8z"/>
										<path id="Path_209" class="st4" d="M253.8,93.8L162.7,143c-7-14.3-17.5-27.6-26.3-37.4c-4.9-5.6-10.3-10.9-15.8-15.9
											C64.9,40.5,21.9,29.3,21.9,29.3l42.1,0.8c15.7,0.3,26-10,39.1-18.6c3-2,6-9.9,8.6-11.7c15-10.8,30-6.9,48.9,2.6
											C218.9,31.8,253.8,93.8,253.8,93.8z"/>
									</g>
									<g id="Group_39" transform="translate(13.99 4.647)">
										<path id="Path_210" class="st4" d="M231,86.7L231,86.7c-8.8-21.9-42.1-53.6-43.5-54.9C170.2,16.1,151.9,4.4,133.1-3
											c-14.6-5.8-30.2-9-46-9.4C60.8-13,44-5.2,43.3-4.8L43-4.7l-53.9,55.4l4.6-0.8c29.9-5,56.8-3.7,79.7,3.8
											c18.1,5.9,34.4,16.1,47.7,29.9c22.6,23.5,30.2,47,30.3,47.3L231,86.7z M147.3,116.6c-6-12.8-14-24.7-23.8-34.9
											C110,67.5,93.2,57,74.5,51c-20.1-6.6-43.1-8.6-68.4-5.8c-1.7,0.2-3.1-1-3.3-2.7c0-0.9,0.3-1.8,0.9-2.4L41.1,1.7
											c2.8-2.9,6.1-4.9,9.9-6.1C62.7-8,74.8-9.6,87.1-9.4C102.5-9,117.7-5.8,132-0.1c18.5,7.3,36.4,18.8,53.4,34.2
											c0.1,0.1,8.3,7.4,17.5,17.4c12,13,20.3,24.6,23.8,33.3l-74.5,42.7C151.4,124.9,150.5,123.5,147.3,116.6L147.3,116.6z"/>
									</g>
									<path id="Path_211" class="st4" d="M161.4,28.1c6.2,13.8,1.8,25.9-12,32c-13.8,6.2-31.9,4.2-38.1-9.6
										C105,36.7,109,25,122.9,18.8C136.8,12.7,155.1,14.3,161.4,28.1z"/>
								</g>
								<g id="Group_43" transform="translate(174.719 643.834)">
									<g id="Group_41">
										<path id="Path_212" class="st4" d="M172,164l-3,1c-11.4-25.3-29.1-44-46.3-59.8c-18.4-16.9-54.9-37.8-100.9-35
											C8.3,70.9-5.1,73.2-18,77.1l-1.4-3.4c89.5-35.1,141,6.1,167.7,43.7C158.4,131.6,166.4,147.3,172,164z"/>
										<path id="Path_213" class="st0" d="M273.8,111.7L172,164c-7.4-16-18.8-30.9-28.2-41.9c-5.3-6.3-11.1-12.2-17.1-18
											C66.1,48.5-19.5,73.7-19.5,73.7L55.3-1.7C100.4-16.9,140-8.9,172.7,8.4C236.6,42.2,273.8,111.7,273.8,111.7z"/>
									</g>
									<g id="Group_42" transform="translate(15.669 5.113)">
										<path id="Path_214" class="st4" d="M159.5,150.7c-0.1-0.3-8-26.5-32.5-53c-14.3-15.5-32.2-27.1-52-34.1
											c-25.3-8.9-55-11-88.1-6.1l-5.1,0.8l60.8-60l0.3-0.2c0.8-0.4,19.5-8.6,48.6-7.4c17.5,0.8,34.5,4.6,50.6,11.4
											c20.6,8.6,40.7,21.9,59.4,39.8c1.5,1.4,37.7,37.2,46.9,61.6l0,0L159.5,150.7z M160.4,147l83.3-45.7
											c-3.7-9.8-12.5-22.7-25.7-37.3c-10-11.2-18.9-19.4-18.9-19.5c-18.5-17.5-38-30.6-58.3-39C125.2-1.3,108.5-5,91.4-5.9
											c-13.5-0.6-27,1-40.1,4.6c-4.1,1.2-8,3.5-11.1,6.5L-1.8,47c-1.3,1.3-1.3,3.4,0,4.6c0.7,0.7,1.7,1.1,2.7,1
											c28-2.5,53.4,0.2,75.5,8c20.4,7.1,38.8,19.1,53.4,35c10.6,11.5,19.1,24.8,25.5,39.1C158.6,142.5,159.6,144,160.4,147
											L160.4,147z"/>
									</g>
									<path id="Path_215" class="st4" d="M173,36.9c6.5,15.4,1.5,28.6-14,35.1S123.6,76,117,60.6c-6.6-15.4-1.9-28.3,13.5-34.8
										S166.5,21.5,173,36.9z"/>
								</g>
								<path id="Path_216" class="st5" d="M413.1,630.8c0,0-5.1,35.9,0.7,58.8h-85.2c0,0,40.8-149.1,124.2-234.4
									c24-24.5,46-59.4,67.2-97.7c52.8-95.2,100.8-211.8,161.7-243.6c0,0-120.2,176.6-143.4,278.4
									C515,494.1,432,491.1,413.1,630.8z"/>
								<path id="Path_217" class="st6" d="M509.5,392.2c2.8-11.8,6.3-23.4,10.5-34.8c-21.2,38.4-43.3,73.2-67.2,97.7
									c-12.4,12.8-23.8,26.6-34.1,41.2c-3.1-22.5-8.7-44.6-17-65.8c-13.1-32.8-35.5-65.9-73-68.8c0,0,90.8,69.6,44.7,212.2
									c-30,61.7-52.3,115.7-52.3,115.7h65.5c-5.8-22.9-0.7-58.8-0.7-58.8C404.8,491.1,486.2,494.1,509.5,392.2z"/>
								<path id="Path_218" class="st5" d="M418.7,496.3c0,0-0.1,0.2-0.4,0.6c-2.4,3.9-16.1,26.5-14.8,12.6
									c1.4-15.1-15.7-72-15.7-72l13.8-7C410.1,451.7,415.7,473.8,418.7,496.3z"/>
								<path id="Path_219" class="st4" d="M830.4,237.4L830.4,237.4l-2.5,3.8c-15.2-7.7-31.2-13.5-47.8-17.6
									c-42-10.4-80.4-3.2-108.2,8.1c-8.4,3.4-16.6,7.5-24.3,12.2c-24.8,15.6-50.8,34.7-70.7,63.4l-3.4-1.9l-94.1-72.2L459.7,218
									c0,0,13.3-16.8,36.4-37.4c26.5-23.8,65.5-52.7,111.8-67.3c26.6-8.5,55.8-12.1,86.1-7.4c21.5,3.5,42.1,10.8,61.1,21.4
									L830.4,237.4L830.4,237.4z"/>
								<g id="Group_46" transform="translate(304.503 657.371)">
									<g id="Group_44">
										<path id="Path_220" class="st4" d="M81.9,147.1l2.7,0.9c10.9-22.7,27.1-39.3,42.9-53.2c16.9-14.9,50.2-33.2,91.8-29.7
											c12.2,0.9,24.3,3.3,35.9,6.9l1.4-3.1c-80.3-33.4-127.6,3-152.3,36.4C94.8,118.1,87.3,132.2,81.9,147.1z"/>
										<path id="Path_221" class="st0" d="M-9.2,98l91.1,49.1c7-14.3,17.5-27.6,26.3-37.4c4.9-5.6,10.3-10.9,15.8-15.9
											c55.9-49.2,132.6-24.9,132.6-24.9L190.2-0.5c-40.6-14.6-76.4-8.1-106.2,7C25.6,35.9-9.2,98-9.2,98z"/>
									</g>
									<g id="Group_45" transform="translate(8.243 4.647)">
										<path id="Path_222" class="st4" d="M-8.5,90.7L-8.5,90.7C0.2,68.8,33.6,37.1,35,35.9C52.1,20.2,70.5,8.5,89.4,1.1
											c14.6-5.8,30.2-9,46-9.4c26.3-0.6,43,7.2,43.7,7.6l0.3,0.1l53.9,55.4l-4.6-0.8c-29.9-5-56.8-3.7-79.7,3.8
											c-18.1,5.9-34.4,16.1-47.7,29.9c-22.6,23.5-30.2,47-30.3,47.3L-8.5,90.7z M75.1,120.6c6-12.8,14-24.7,23.8-34.9
											c13.5-14.1,30.3-24.7,49-30.7c20.1-6.6,43.1-8.6,68.4-5.8c1.7,0.2,3.1-1,3.3-2.7c0.1-0.9-0.2-1.8-0.8-2.4L181.2,5.8
											c-2.8-2.9-6.1-4.9-9.9-6.1c-11.7-3.6-23.9-5.2-36.1-4.9C119.9-4.9,104.7-1.7,90.3,4c-18.5,7.3-36.4,18.8-53.4,34.2
											c-0.1,0.1-8.3,7.4-17.5,17.4C7.4,68.5-0.9,80.1-4.3,88.9l74.5,42.7C70.9,128.9,71.9,127.7,75.1,120.6L75.1,120.6z"/>
									</g>
									<path id="Path_223" class="st4" d="M83.2,32.3c-6.2,13.8-1.8,25.8,12,32s31.9,4.2,38.1-9.6c6.2-13.8,2.3-25.6-11.6-31.7
										C107.8,16.9,89.5,18.5,83.2,32.3z"/>
								</g>
								<g id="Group_49" transform="translate(421.733 642.019)">
									<g id="Group_47">
										<path id="Path_224" class="st4" d="M174.7,145.9l-2.7,0.9c-10.9-22.7-27.1-39.3-42.9-53.2c-16.9-14.9-50.2-33.2-91.8-29.7
											C25.1,64.7,13,67.1,1.4,70.8l-1.4-3c80.3-33.4,127.6,3,152.3,36.4C161.8,117,169.3,131,174.7,145.9z"/>
										<path id="Path_225" class="st0" d="M265.8,96.7l-91.1,49.2c-7-14.3-17.5-27.6-26.3-37.4c-4.9-5.6-10.3-10.9-15.8-15.9
											C76.9,43.4,0,67.8,0,67.8L66.3-1.8c40.6-14.6,76.4-8.1,106.2,7C230.9,34.6,265.8,96.7,265.8,96.7z"/>
									</g>
									<g id="Group_48" transform="translate(13.99 4.647)">
										<path id="Path_226" class="st4" d="M242.9,89.6L242.9,89.6c-8.8-21.9-42.1-53.6-43.5-54.9C182.1,19,163.9,7.2,145-0.2
											c-14.6-5.8-30.2-9-46-9.4c-26.3-0.6-43,7.2-43.7,7.6L55-1.8L1.1,53.5l4.6-0.7c29.9-5,56.8-3.7,79.7,3.8
											c18.1,5.9,34.4,16.1,47.7,29.9c22.6,23.5,30.2,47,30.3,47.3L242.9,89.6z M159.2,119.5c-6-12.8-14-24.7-23.8-34.9
											c-13.5-14.1-30.3-24.7-49-30.7c-20.1-6.6-43.1-8.6-68.4-5.8c-1.7,0.2-3.1-1-3.3-2.7c-0.1-0.9,0.2-1.8,0.8-2.4L53.1,4.6
											c2.8-2.9,6.1-4.9,9.9-6.1c11.7-3.6,23.9-5.2,36.2-4.9c15.4,0.4,30.6,3.6,44.9,9.3c18.5,7.3,36.4,18.8,53.4,34.2
											c0.1,0.1,8.3,7.4,17.5,17.4c12,13,20.3,24.6,23.8,33.3l-74.6,42.7C163.5,127.8,162.5,126.4,159.2,119.5L159.2,119.5z"/>
									</g>
									<path id="Path_227" class="st4" d="M173.3,31.1c6.2,13.8,1.8,25.9-12,32c-13.8,6.2-31.9,4.2-38.1-9.6
										c-6.2-13.8-2.3-25.6,11.6-31.7C148.6,15.5,167.1,17.2,173.3,31.1z"/>
								</g>
								<path id="Path_228" class="st7" d="M671.9,231.8c-8.4,3.4-16.6,7.5-24.3,12.2c-24.8,15.6-50.8,34.7-70.7,63.4l-3.4-1.9
									l-94.1-72.2c4.4-17.9,9.9-35.5,16.5-52.8c26.5-23.8,65.5-52.7,111.8-67.3c26.6-8.5,55.8-12.1,86.1-7.4c1,0.7,1.6,1,1.6,1
									S648.1,164.5,671.9,231.8z"/>
								<path id="Path_229" class="st4" d="M550.1,204l-142.8,16.4l-3.8-0.2c-0.9-12.5-3-24.9-6.3-36.9
									c-5.3-19.6-13.3-37.5-21.6-53.9c-6.2-11.9-13.8-23.1-22.7-33.2c-21.4-24.7-49.2-42.8-80.3-52.5c-16.2-5.1-33-8.3-49.9-9.6
									l-0.2-4.5l0,0L343.6-26c20.9,0.6,41.7,4.7,61.2,12.2c29.5,11.4,53.2,30,72.2,51.5c27.7,31.5,45.4,69.3,56.5,100.9
									C546.4,175.6,550.1,204,550.1,204z"/>
								<path id="Path_230" class="st7" d="M533.5,138.6c-2.1,26.5-15.6,48.2-43.4,56.1c-30.5,8.6-64.2,1.8-92.9-11.5
									c-5.3-19.6-13.3-37.5-21.6-53.9c-6.2-11.9-13.8-23.1-22.7-33.2c63.2-14.8,52-109.9,52-109.9c29.5,11.4,53.2,30,72.2,51.5
									C504.8,69.3,522.5,107.1,533.5,138.6z"/>
								<path id="Path_231" class="st4" d="M365.5,122.3c0,0-2.6-27-53.2-16.1C312.3,106.2,332.3,130.7,365.5,122.3z"/>
								<path id="Path_232" class="st4" d="M755.7,383.8L755.7,383.8l-75.4-110c-52.3-29-103-28-147.2-14
									c-86.6,27.4-148.2,104.7-148.2,104.7l114,87.5l0,0l3.4,1.9c19.8-28.6,45.9-47.9,70.7-63.4c26.5-16.7,76.3-34.2,132.5-20.4
									c16.6,3.9,32.6,9.9,47.8,17.5L755.7,383.8L755.7,383.8z"/>
								<path id="Path_233" class="st7" d="M199.5,260.2L199.5,260.2l75.4-110c52.3-29,103-28,147.2-14
									c86.6,27.4,148.2,104.7,148.2,104.7l-114,87.5l0,0l-3.4,1.9c-19.8-28.6-45.9-47.9-70.7-63.4
									c-26.5-16.7-76.3-34.2-132.5-20.4c-16.6,3.9-32.6,9.9-47.8,17.5L199.5,260.2L199.5,260.2z"/>
								<g id="Group_50" transform="translate(0 676.658)">
									<path id="Path_234" class="st8" d="M-33.3-7.2c0,0,0.1,0.1,0.2,0.1C-33.2-7.2-33.3-7.3-33.3-7.2z"/>
								</g>
								<g id="Group_53" transform="translate(361.53 11.23)">
									<g id="Group_51">
										<path id="Path_235" class="st4" d="M83.8,191.4l-3.5-1.8c12.7-32.5,14.1-64.7,13.2-94.1c-1-31.3-14.2-82.4-57.1-121.2
											C23.9-37.2,10.1-47.1-4.7-55.5l1.8-4.2c110,49.7,118.1,132.2,107.8,189C98.1,165.5,83.8,191.4,83.8,191.4z"/>
										<path id="Path_236" class="st0" d="M220.2,237.1L83.8,191.4c7.9-20.6,11.4-43.9,12.9-62.1c0.9-10.4,1.3-20.7,1.2-31.1
											C94.6-5-3-59.7-3-59.7l133.3,1.1c53.3,27.2,80.7,69.8,93.9,114.3C249.9,142.7,220.2,237.1,220.2,237.1z"/>
									</g>
									<g id="Group_52" transform="translate(23.899 5.768)">
										<path id="Path_237" class="st4" d="M70.1,181.5c0.2-0.3,16.8-30.4,19.1-75.6c1.4-26.5-3.8-52.7-15.1-76.7
											C60-1.3,35.8-29.8,2.3-55.3l-5.1-3.9l107.3,2l0.4,0.1c1,0.4,24.9,10,49.2,37.1c14.6,16.4,26.2,35.1,34.1,55.6
											c10.4,26.2,15.9,55.8,16.4,88.2c0.1,2.5-0.4,66.5-14.2,96.1l0,0L70.1,181.5z M74.2,178.9l114.1,34.8
											c5.5-11.8,9.4-31.1,11.1-55.8c1.3-18.8,1-34,1-34.1c-0.5-31.9-5.8-61-16.1-86.6C176.4,17.3,165.2-1,151-17
											c-11.3-12.7-24.6-23.5-39.4-32c-4.7-2.7-10.1-4.1-15.6-4.2l-74.4-1.4c-2.3,0-4.1,1.8-4.2,4c0,1.3,0.5,2.4,1.5,3.3
											c27,23,46.8,48.1,59.2,74.8c11.5,24.6,16.8,51.6,15.3,78.8c-1.1,19.6-5.4,39-12.7,57.2C76.7,173.4,76.2,175.6,74.2,178.9
											L74.2,178.9z"/>
									</g>
									<path id="Path_238" class="st4" d="M171.7,33.1c-19.4-8.1-35-1.1-43.1,18.4s7,39.6,26.5,47.7s35.7,1.2,43.8-18.3
										S191.2,41.2,171.7,33.1z"/>
								</g>
								<g id="Group_56" transform="translate(155.122 176.488)">
									<g id="Group_54">
										<path id="Path_239" class="st4" d="M219.3,171.5l-3.7,1.2c-14.4-31.8-36.6-55.3-58.1-75.1C134.4,76.4,88.6,50.2,30.9,53.7
											c-17,0.9-33.9,3.8-50.1,8.6l-1.8-4.2C91.4,14,156.1,65.8,189.5,113C210.8,143.2,219.3,171.5,219.3,171.5z"/>
										<path id="Path_240" class="st0" d="M347.2,105.8l-127.9,65.6c-9.3-20-23.5-38.8-35.4-52.6c-6.7-7.9-13.9-15.4-21.4-22.5
											C86.4,26.5-21,58.2-21,58.2l94-94.7c56.7-19.1,106.4-9.1,147.4,12.6C300.5,18.6,347.2,105.8,347.2,105.8z"/>
									</g>
									<g id="Group_55" transform="translate(19.671 6.419)">
										<path id="Path_241" class="st4" d="M203.7,154.8c-0.1-0.4-10.1-33.3-40.8-66.5c-18-19.4-40.4-34.1-65.3-42.8
											C65.8,34.4,28.6,31.8-13.1,38l-6.4,1l76.4-75.4l0.4-0.2c1-0.4,24.5-10.9,61-9.3c21.9,1,43.4,5.8,63.6,14.3
											c26,10.8,51,27.5,74.6,49.8c1.9,1.7,47.3,46.7,58.9,77.4l0,0L203.7,154.8z M204.9,150.1l104.6-57.3
											c-4.6-12.2-15.8-28.4-32.2-46.9c-12.4-14-23.7-24.5-23.8-24.6c-23.1-21.9-47.8-38.4-73.1-49
											c-19.7-8.3-40.7-13.1-62.1-14.1c-17-0.8-34.1,1.2-50.3,5.8c-5.2,1.6-10,4.3-13.9,8.2L1.1,24.5c-1.6,1.6-1.7,4.2,0,5.8
											c0.9,0.9,2.1,1.3,3.4,1.2c35.1-3.2,67,0.2,94.7,10c25.7,8.9,48.7,24.1,67.1,44c13.2,14.5,24.1,31.1,32,49.2
											C202.5,144.5,203.8,146.4,204.9,150.1L204.9,150.1z"/>
									</g>
									<path id="Path_242" class="st4" d="M220.6,12c-8.2-19.3-33.9-22.2-53.2-14s-25.2,24.4-17,43.7s33.3,22.6,52.6,14.4
										S228.8,31.3,220.6,12z"/>
								</g>
								<g id="Group_59" transform="translate(444.428 64.957)">
									<g id="Group_57">
										<path id="Path_243" class="st4" d="M142.1,183.3l3.8,0.2c5.9-34.3,21.3-62.8,37.2-87.3c17-26.4,54.6-63.4,111.4-74.5
											c16.7-3.4,33.7-4.8,50.6-4.3l0.7-4.5C226-1.4,176.6,65.2,156.2,119.2C143.2,153.8,142.1,183.3,142.1,183.3z"/>
										<path id="Path_244" class="st0" d="M1.8,152.3l140.3,31.1c3.9-21.7,12.9-43.5,20.9-59.8c4.5-9.4,9.6-18.5,15-27.2
											c56-86.9,167.9-83.5,167.9-83.5L231-55C171.4-59.1,125.8-36.7,91.8-5.3C24.9,56.1,1.8,152.3,1.8,152.3z"/>
									</g>
									<g id="Group_58" transform="translate(10.117 6.159)">
										<path id="Path_245" class="st4" d="M2.6,139.3L2.6,139.3c3.5-32.6,36-87.6,37.3-89.8C57,21.9,77-0.7,99.5-17.7
											c17.4-13.3,36.9-23.5,57.8-30c34.9-10.8,60.3-6.6,61.4-6.4l0.4,0.1l93,53.6l-6.5,0.7c-41.8,4.6-77.2,16.6-105.1,35.4
											c-22,14.7-40,34.6-52.3,57.9c-21.3,40-22.6,74.3-22.5,74.6L2.6,139.3z M125.7,147.5c3.2-19.4,9.4-38.2,18.6-55.7
											c12.7-24,31.2-44.4,53.7-59.5c24.4-16.5,54.3-27.8,89.1-33.8c2.3-0.4,3.8-2.5,3.4-4.7c-0.2-1.2-1-2.3-2-2.9L224-46.2
											c-4.7-2.8-10.1-4.2-15.5-4.4c-17-0.4-34,2.1-50.2,7.1c-20.4,6.4-39.5,16.3-56.5,29.4C80,2.6,60.4,24.7,43.5,51.9
											c-0.1,0.1-8.3,13-16.8,29.8c-11.2,21.9-17.8,40.5-19.1,53.4L123.2,164C123.3,160.2,124,158.1,125.7,147.5L125.7,147.5z"/>
									</g>
									<path id="Path_246" class="st4" d="M148.3,2.3c-20.8-3.1-44.9,6.2-47.9,27c-3.1,20.8,7.4,35.2,28.2,38.2
										c20.8,3.1,44.2-6.4,47.3-27.2S169.3,5.3,148.3,2.3z"/>
								</g>
								<g id="Group_62" transform="translate(404.354 139.289)">
									<path id="Path_247" class="st9" d="M49.7,66.5c12.6-51.9,64.9-83.9,117-71.3c51.9,12.6,83.9,64.9,71.3,117
										c-12.6,51.9-64.9,83.9-117,71.3l0,0C68.9,170.8,37,118.4,49.7,66.5L49.7,66.5z"/>
									<circle id="Ellipse_5" class="st1" cx="135.5" cy="87.3" r="96.8"/>
									<g id="Group_60" transform="translate(44.864 46.146)">
										<path id="Path_248" class="st2" d="M90.5,130.5c-7.1,0-14.1-0.9-21-2.6c-47-11.4-75.7-59-64.3-106
											c11.5-47.1,59-75.8,106.1-64.3s75.8,59,64.3,106.1C166,102.9,130.9,130.5,90.5,130.5z M90.2-40.7
											C44.4-40.7,7.1-3.5,7.1,42.4s37.2,83.1,83.1,83.1s83.1-37.2,83.1-83.1c0-38.3-26.2-71.6-63.4-80.6
											C103.6-39.9,97-40.7,90.2-40.7L90.2-40.7z"/>
									</g>
									<g id="Group_61" transform="translate(86.666 70.25)">
										<path id="Path_249" class="st2" d="M54.4,45.9c0.6-1.6,1-3.3,1-5c0-1.6-0.4-3.2-1.1-4.6c-0.9-1.8-2-3.4-3.4-4.7
											c-1.8-1.9-3.7-3.7-5.6-5.2c-3.7-3-7.1-6.2-10.5-9.6c-2.8-2.8-5.1-6-7.1-9.5C25.9,4.1,24.9,0.6,24.6-3
											c-0.4-7.7,2.4-15.2,7.5-20.8c2.4-2.5,5.2-4.4,8.4-5.7c3.4-1.4,7-2.1,10.7-2.2c4.1-0.1,8.2,0.4,12.2,1.5L68.5-44l11.1,4.1
											l-5.1,13.9c3.6,1.9,6.8,4.2,9.6,7.1c5.2,5.3,8,12.6,7.8,20.1c-0.1,4.2-1,8.4-2.5,12.2L69.3,6c1.9-5.1,2.2-9.4,0.9-12.8
											c-1.4-3.5-4.2-6.1-7.7-7.2c-1.8-0.7-3.8-1.1-5.6-1.1c-1.6,0-3.2,0.3-4.5,1c-1.4,0.7-2.6,1.6-3.5,2.8
											c-1,1.3-1.8,2.7-2.4,4.1s-0.9,3-0.9,4.5s0.4,3.1,1.1,4.4c0.9,1.8,2,3.4,3.4,4.7c1.9,2,3.8,3.8,5.8,5.5
											c3.8,3.4,7.3,6.5,10.3,9.7c2.8,2.9,5.2,6.1,7.2,9.6c3.8,6.7,4.2,14.7,1.3,21.8c-1.3,3.5-3.2,6.7-5.7,9.4
											c-2.7,2.6-5.5,4.5-8.7,5.8c-3.4,1.3-7,2-10.7,2.1c-4.1,0-8.3-0.5-12.2-1.7l-4.7,12.7l-11-4l4.7-12.7
											c-3.7-1.8-7-4-10.2-6.6c-3.1-2.6-5.5-5.6-7.4-9.1c-1.9-3.6-3-7.5-3.3-11.6C5.3,32.6,6.2,27.7,8,23.2l19.9,7.4
											c-1.1,2.6-1.6,5.3-1.6,8.1c0,2.2,0.6,4.2,1.6,6.1c1,1.8,2.3,3.3,3.9,4.3c1.7,1.2,3.5,2.1,5.3,2.8c1.9,0.8,3.9,1.2,6,1.3
											c1.7,0.1,3.4-0.2,4.9-0.8c1.5-0.6,2.8-1.5,3.8-2.6C53,48.9,53.9,47.4,54.4,45.9z"/>
									</g>
								</g>
								<g id="Group_65" transform="translate(114.167 290.383)">
									<g id="Group_64" transform="translate(0 0.001)">
										
											<rect id="Rectangle_25" x="-9.9" y="10.6" transform="matrix(0.9624 -0.2717 0.2717 0.9624 -17.6627 51.98)" class="st0" width="377.6" height="158.3"/>
										<g id="Group_63" transform="translate(22.724 18.449)">
											<path id="Path_250" class="st4" d="M-22.4,54.4l34.2,121.5l321-90.6L298.5-36.2L-22.4,54.4z M321.6,63.3
												c3,10.4-3.1,21-13.4,24l0,0L31.8,165.3c-9.3,2.6-18.9-2.8-21.5-12l0,0l-21.8-77.2c-2.9-10.2,3.1-20.7,13.2-23.7l0,0
												l275.4-77.8c10-2.8,20.3,3,23.1,12.9L321.6,63.3z"/>
										</g>
										<path id="Path_251" class="st4" d="M216.3,77.4c-5.9-20.9-27.6-33.1-48.6-27.1s-33.1,27.6-27.1,48.6s27.6,33.1,48.6,27.1
											C210.1,120.1,222.2,98.3,216.3,77.4L216.3,77.4z"/>
									</g>
									<path id="Path_252" class="st10" d="M339.1-37.7l43,152.4L98.1,195c13.1-8.3,133.5-47.9,158.3-102.7
										c30-66.7,6.4-103.2,7.1-108.6L339.1-37.7z"/>
								</g>
								<g id="Group_68" transform="translate(492.616 329.994)">
									<g id="Group_67" transform="translate(0 0)">
										
											<rect id="Rectangle_26" x="6" y="-33.7" transform="matrix(1 -4.380720e-03 4.380720e-03 1 -0.1971 0.8538)" class="st0" width="377.6" height="158.3"/>
										<g id="Group_66" transform="translate(19.931 13.341)">
											<path id="Path_253" class="st4" d="M7.2-32L7.7,94.2l333.6-1.5l-0.6-126.2L7.2-32z M336.4,68.5
												c0.1,10.8-8.6,19.4-19.3,19.5l0,0L29.8,89.4c-9.6,0-17.5-7.7-17.5-17.4l0,0L11.9-8.1c0-10.6,8.5-19.2,19-19.2l0,0
												l286.1-1.3c10.4,0,18.8,8.3,18.9,18.7L336.4,68.5z"/>
										</g>
										<path id="Path_254" class="st4" d="M194.6,4.4c-21.7,0.1-39.2,17.8-39.2,39.5c0.1,21.7,17.8,39.2,39.5,39.2
											c21.7-0.1,39.2-17.8,39.2-39.5C234,21.8,216.3,4.3,194.6,4.4L194.6,4.4z"/>
									</g>
									<path id="Path_255" class="st10" d="M383.2-34.5l0.7,158.3l-295.2,1.3c14.9-4.4,141.4-10.4,180-56.8
										c46.8-56.2,33.9-97.6,35.8-102.5L383.2-34.5z"/>
								</g>
								<g id="Group_71" transform="translate(454.373 389.796)">
									<path id="Path_256" class="st9" d="M191.6,20.3c-25.9-46.8-84.7-63.9-131.6-38C13.3,8-3.8,66.9,22.1,113.7
										s84.7,63.9,131.6,38C200.4,126,217.4,67,191.6,20.3z"/>
									<path id="Path_257" class="st1" d="M184.2,24.3C158.4-22.5,99.6-39.5,52.7-13.8C5.9,12.1-11.2,71,14.7,117.8
										s84.7,63.9,131.6,38.1l0,0C193,130,210,71.2,184.2,24.3z"/>
									<g id="Group_69" transform="translate(8.467 12.663)">
										<path id="Path_258" class="st2" d="M91.6,147.7c-8.3,0-16.7-1.2-24.7-3.6C20.5,130.5-6.2,81.9,7.5,35.4
											s62.3-73.1,108.8-59.6c46.5,13.6,73.1,62.3,59.6,108.8C164.8,122,130.5,147.6,91.6,147.7z M91.4-23.6
											c-45.9,0-83.2,37.2-83.2,83.2s37.2,83.2,83.1,83.2c46,0,83.2-37.2,83.2-83.1c0-37-24.4-69.6-60-79.9
											C107-22.4,99.2-23.5,91.4-23.6L91.4-23.6z"/>
									</g>
									<g id="Group_70" transform="translate(52.584 35.452)">
										<path id="Path_259" class="st2" d="M70.3,53.2c-0.6-1.6-1.5-3.1-2.7-4.3c-1.1-1.2-2.5-2.1-3.9-2.7
											c-1.8-0.7-3.7-1.2-5.6-1.3c-2.6-0.2-5.1-0.2-7.7-0.1c-4.7,0.3-9.5,0.3-14.1,0c-4-0.2-8-0.9-11.7-2.2
											c-3.5-1.2-6.6-3-9.3-5.4c-5.4-5.3-8.5-12.6-8.5-20.3c0-3.5,0.8-6.8,2.3-10c1.6-3.3,3.8-6.3,6.3-8.8
											c3-2.9,6.3-5.2,10.1-7.1l-5.5-13.6l11-4.4l5.5,13.8c3.8-1.1,7.9-1.5,11.9-1.2c7.5,0.4,14.4,3.8,19.3,9.6
											c2.8,3.2,4.9,6.8,6.4,10.7l-19.7,8c-2.1-5-4.7-8.4-8-10C43,2.2,39.2,2.1,35.8,3.7c-1.8,0.7-3.5,1.7-4.9,3
											c-1.2,1.1-2.1,2.4-2.7,3.8c-0.6,1.4-0.8,2.9-0.7,4.3c0.1,1.6,0.5,3.2,1.1,4.6c0.6,1.5,1.4,2.8,2.4,3.9
											c1.1,1.2,2.4,2,3.8,2.6c1.8,0.7,3.8,1.1,5.6,1.3c2.7,0.2,5.3,0.3,8.1,0.2c5-0.1,9.8-0.1,14.1,0.2c4,0.2,8,1,11.7,2.2
											c7.3,2.4,13.1,8,15.7,15.2c1.5,3.5,2.2,7.1,2.2,10.8c-0.1,3.5-0.9,6.8-2.4,9.9c-1.6,3.3-3.8,6.2-6.4,8.7
											c-3.1,2.9-6.4,5.2-10.2,7.1l5.1,12.6l-10.9,4.4l-5.1-12.6c-3.8,1.2-7.9,1.8-11.9,2c-3.9,0.2-7.9-0.4-11.6-1.7
											c-3.8-1.4-7.3-3.6-10.3-6.4c-3.5-3.5-6-7.5-7.8-12l19.7-8c1,2.6,2.5,4.9,4.3,7c1.5,1.6,3.4,2.8,5.3,3.5
											c1.9,0.6,3.8,0.8,5.8,0.6c2-0.2,3.9-0.8,5.8-1.5c1.9-0.8,3.8-1.8,5.3-3.2c1.3-1.1,2.4-2.5,3.2-3.9
											c0.7-1.4,1.1-2.9,1.1-4.4C71.3,56.2,71,54.6,70.3,53.2z"/>
									</g>
								</g>
								<g id="Group_74" transform="translate(318.165 292.156)">
									<path id="Path_260" class="st9" d="M143.4,28.9c-3.5-40.1-38.7-69.7-78.8-66.2C24.6-33.8-5.1,1.4-1.6,41.5
										s38.7,69.7,78.8,66.2l0,0C117.2,104.2,146.8,68.9,143.4,28.9z"/>
									<path id="Path_261" class="st1" d="M137.1,29.4c-3.5-40-38.7-69.6-78.8-66.1C18.3-33.2-11.4,2-7.9,42.1
										s38.7,69.7,78.8,66.2C110.9,104.7,140.5,69.5,137.1,29.4z"/>
									<g id="Group_72" transform="translate(6.064 7.293)">
										<path id="Path_262" class="st2" d="M58.5,95.6c-34.3,0-63-26.4-65.9-60.5l0,0c-3.2-36.5,23.9-68.6,60.3-71.8
											c36.5-3.2,68.6,23.9,71.8,60.3c3.2,36.5-23.9,68.6-60.3,71.8C62.4,95.6,60.5,95.6,58.5,95.6z M-3.5,34.7
											c3,34.2,33.2,59.7,67.5,56.8c34.3-3,59.6-33.2,56.7-67.5c-3-34.2-33.2-59.7-67.5-56.8l0,0C18.9-29.8-6.4,0.4-3.5,34.7z"/>
									</g>
									<g id="Group_73" transform="translate(41.771 23.26)">
										<path id="Path_263" class="st2" d="M33.7,31.7c0.1-1.3-0.1-2.6-0.5-3.8c-0.4-1.2-1.1-2.2-1.9-3.1c-1-1-2.2-1.9-3.5-2.6
											c-1.7-0.9-3.5-1.7-5.2-2.4c-3.4-1.3-6.5-2.7-9.7-4.3c-2.9-1.2-5.3-3-7.6-4.9c-2-1.9-3.6-4-4.6-6.5
											C-1.4-1.4-1.3-7.3,1-12.6c1.1-2.4,2.7-4.4,4.6-6.1c2.1-1.8,4.4-3.2,7-4.1c2.9-1.1,5.9-1.7,9.1-1.9l0.4-11l8.9,0.3
											l-0.4,11.2c3,0.5,5.8,1.4,8.6,2.8c5,2.6,8.8,7.1,10.4,12.4c0.9,3.1,1.3,6.2,1.2,9.3L34.7-0.2c0.1-4.1-0.7-7.2-2.5-9.3
											c-1.8-2.1-4.4-3.4-7.2-3.3c-1.5-0.1-3,0.1-4.3,0.6c-1.1,0.4-2.2,1-3.1,1.8c-0.8,0.8-1.4,1.8-1.8,2.8
											c-0.4,1.1-0.6,2.4-0.7,3.6c-0.1,1.2,0.1,2.4,0.5,3.5c0.4,1.1,1,2.1,1.8,3c1.1,1,2.3,1.9,3.6,2.6c1.8,1,3.7,1.8,5.5,2.6
											c3.6,1.5,6.7,3,9.7,4.4c2.7,1.4,5.1,3.1,7.4,5.1c4.2,3.8,6.6,9.5,6.1,15.2c0,2.8-0.7,5.5-1.9,8.1
											c-1.1,2.4-2.7,4.4-4.6,6.1c-2.1,1.8-4.5,3.1-7.1,3.9c-3,1-6,1.6-9.1,1.8l-0.3,10.3l-8.8-0.3l0.3-10.4
											c-3.1-0.4-6-1.2-8.8-2.3s-5.3-2.7-7.5-4.6c-2.2-2.1-3.9-4.6-5-7.5c-1.3-3.4-1.9-7-1.7-10.7l16,0.5
											c-0.1,2.1,0.2,4.1,0.8,6.1c0.6,1.5,1.5,2.9,2.6,3.9c1.1,1,2.4,1.8,3.8,2.2c1.5,0.4,3,0.7,4.4,0.7c1.6,0.1,3.1-0.1,4.5-0.5
											c1.2-0.4,2.4-1,3.4-1.8c0.9-0.7,1.6-1.7,2.1-2.8C33.4,34.2,33.6,33,33.7,31.7z"/>
									</g>
								</g>
								<g id="Group_77" transform="translate(370.839 155.374)">
									<path id="Path_264" class="st9" d="M69.5-29.9c-10.8-18-34.1-23.9-52.1-13C-0.7-32.1-6.5-8.8,4.2,9.2s34.2,23.9,52.2,13.1
										l0,0C74.4,11.5,80.3-11.9,69.5-29.9z"/>
									<path id="Path_265" class="st1" d="M66.6-28.2c-10.8-18-34.1-23.8-52.1-13C-3.6-30.4-9.4-7.1,1.5,11
										c10.8,18,34.1,23.9,52.2,13S77.4-10.1,66.6-28.2L66.6-28.2z"/>
									<g id="Group_75" transform="translate(3.359 5.084)">
										<path id="Path_266" class="st2" d="M30.9,21.3C18.8,21.4,7.4,15,1.2,4.5l0,0c-9.9-16.4-4.5-37.7,11.8-47.6
											s37.7-4.5,47.6,11.8c9.9,16.5,4.5,37.7-11.8,47.6C43.4,19.6,37.2,21.3,30.9,21.3z M3,3.4c9.2,15.5,29.2,20.4,44.7,11.3
											C63.1,5.4,68.1-14.6,58.8-30S29.5-50.5,14.1-41.2l0,0C-1.3-32-6.3-12,3,3.4z"/>
									</g>
									<g id="Group_76" transform="translate(20.41 14.247)">
										<path id="Path_267" class="st2" d="M23.1-16.3c-0.3-0.6-0.6-1.2-1.1-1.7c-0.5-0.5-1-0.8-1.6-1c-0.7-0.2-1.5-0.4-2.3-0.4
											c-1,0-2,0-3.1,0.1c-1.9,0.2-3.7,0.2-5.5,0.2c-1.6,0-3.2-0.2-4.6-0.7c-1.4-0.4-2.7-1.1-3.7-2c-2.2-2.1-3.6-4.9-3.7-7.9
											c0-1.4,0.2-2.7,0.8-3.9s1.4-2.5,2.4-3.6c1.1-1.2,2.4-2.2,3.8-3l-2.4-5.2l4.2-1.9l2.4,5.3c1.5-0.5,3.1-0.7,4.6-0.7
											c3,0.1,5.7,1.3,7.7,3.5c1.1,1.2,2.1,2.6,2.7,4.1l-7.6,3.5c-0.6-1.7-1.8-3-3.3-3.8c-1.3-0.6-2.9-0.5-4.1,0.1
											C8.2-35,7.5-34.6,7-34c-0.4,0.4-0.8,1-1,1.6c-0.2,0.6-0.3,1.2-0.2,1.7C5.9-30.2,6-29.5,6.3-29c0.2,0.6,0.6,1.1,1,1.5
											c0.4,0.4,1,0.8,1.5,1c0.7,0.2,1.5,0.4,2.3,0.4c1.1,0,2.1,0,3.2-0.1c2-0.1,3.8-0.2,5.5-0.1c1.6,0,3.2,0.3,4.6,0.7
											c2.9,0.8,5.2,3,6.4,5.7c0.6,1.3,1,2.8,1,4.2c0,1.4-0.3,2.7-0.8,3.9c-0.6,1.3-1.4,2.5-2.4,3.5c-1.2,1.2-2.5,2.2-3.8,3
											l2.2,4.8l-4.2,1.9l-2.2-4.8c-1.5,0.5-3.1,0.8-4.6,1c-1.6,0.1-3.1,0-4.5-0.5s-3-1.3-4.1-2.4C5.8-6.6,4.7-8.2,3.9-9.9
											l7.6-3.5c0.4,1,1,1.9,1.8,2.7c0.6,0.6,1.4,1,2.2,1.3c0.8,0.2,1.6,0.3,2.3,0.1c0.8-0.1,1.6-0.4,2.3-0.7
											c0.8-0.3,1.4-0.8,2.1-1.3c0.5-0.5,0.9-1,1.2-1.6c0.3-0.6,0.4-1.2,0.4-1.8C23.5-15.2,23.4-15.8,23.1-16.3z"/>
									</g>
								</g>
								<g id="Group_80" transform="translate(518.887 46.363)">
									<path id="Path_268" class="st9" d="M58.4-54.9C38.1-60.1,17.4-48,12.1-27.7C6.8-7.3,19,13.4,39.3,18.7
										c20.3,5.2,41.1-6.9,46.4-27.2l0,0C91-28.9,78.8-49.7,58.4-54.9L58.4-54.9z"/>
									<path id="Path_269" class="st1" d="M55.3-55.7C35-60.9,14.2-48.8,8.9-28.5C3.7-8.1,15.8,12.6,36.1,17.9
										C56.5,23.2,77.2,11,82.5-9.3l0,0C87.8-29.7,75.6-50.5,55.3-55.7z"/>
									<g id="Group_78" transform="translate(3.023 3.53)">
										<path id="Path_270" class="st2" d="M42.6,12.7C23.5,12.7,8-2.9,8-22c0-3,0.4-5.8,1.1-8.7l0,0
											c4.8-18.6,23.7-29.6,42.2-24.9c18.6,4.8,29.6,23.7,24.9,42.2C72.1,2,58.3,12.7,42.6,12.7z M42.5-54.6
											c-14.8,0-27.7,10.1-31.5,24.4l0,0C6.5-12.8,17,5.1,34.4,9.5C51.8,14,69.7,3.6,74.1-13.9c4.5-17.4-5.9-35.2-23.4-39.7
											C48-54.3,45.3-54.6,42.5-54.6L42.5-54.6z"/>
									</g>
									<g id="Group_79" transform="translate(19.344 13.109)">
										<path id="Path_271" class="st2" d="M28.4-20.6c0.3-0.6,0.4-1.3,0.4-2c0-0.6-0.1-1.3-0.4-1.9c-0.3-0.7-0.8-1.3-1.3-1.9
											c-0.7-0.8-1.4-1.5-2.2-2.1c-1.4-1.2-2.8-2.5-4-3.8c-1.1-1.1-2.1-2.4-2.8-3.8c-0.7-1.3-1.1-2.7-1.2-4
											c-0.1-3.1,1-5.9,3.1-8.2c1-1,2.1-1.7,3.4-2.2c1.4-0.5,2.8-0.8,4.1-0.8c1.6,0,3.3,0.2,4.7,0.7l2.1-5.3l4.3,1.7l-2.1,5.4
											c1.4,0.8,2.7,1.7,3.8,2.9c2,2.2,3.1,5,3,7.9c-0.1,1.7-0.4,3.3-1.1,4.8l-7.8-3.1c0.8-1.6,0.9-3.4,0.4-5
											c-0.5-1.4-1.6-2.4-3-2.9c-0.7-0.3-1.5-0.5-2.2-0.5c-0.6,0-1.3,0.1-1.8,0.4c-0.5,0.3-1,0.6-1.4,1.1c-0.4,0.5-0.7,1-1,1.6
											c-0.2,0.6-0.4,1.2-0.4,1.8c0,0.6,0.1,1.2,0.4,1.8c0.3,0.7,0.8,1.3,1.3,1.9c0.7,0.8,1.5,1.5,2.3,2.2
											c1.5,1.3,2.9,2.6,3.9,3.8c1.1,1.2,2,2.4,2.8,3.8c1.5,2.7,1.6,5.8,0.4,8.6c-0.5,1.4-1.3,2.6-2.3,3.7c-1,1-2.1,1.7-3.4,2.2
											c-1.4,0.5-2.8,0.8-4.1,0.7c-1.6,0-3.3-0.3-4.8-0.7l-2,4.9l-4.3-1.5l2-4.9c-1.4-0.7-2.8-1.6-3.9-2.7
											c-1.2-1-2.2-2.3-2.9-3.7c-0.7-1.4-1.2-3-1.2-4.5c-0.1-1.9,0.3-3.8,1.1-5.5l7.8,3.1c-0.4,1-0.7,2.1-0.7,3.2
											c0,0.9,0.2,1.7,0.6,2.5c0.4,0.7,0.9,1.3,1.5,1.8c0.6,0.5,1.3,0.9,2.1,1.1c0.8,0.3,1.6,0.5,2.4,0.5c0.7,0,1.3-0.1,2-0.3
											c0.6-0.2,1.1-0.6,1.5-1C27.8-19.5,28.1-20,28.4-20.6z"/>
									</g>
								</g>
								<g id="Group_83" transform="translate(628.591 303.127)">
									<path id="Path_272" class="st9" d="M22.9,8.7c-8.5-14.2-3.9-32.6,10.3-41.1s32.6-3.9,41.1,10.3s3.9,32.6-10.3,41.1
										S31.4,22.9,22.9,8.7z"/>
									<path id="Path_273" class="st1" d="M20.6,10C12.1-4.2,16.6-22.5,30.9-31S63.4-35,71.9-20.8s3.9,32.6-10.3,41.1
										C47.5,28.8,29.1,24.2,20.6,10z"/>
									<g id="Group_81" transform="translate(2.645 4.004)">
										<path id="Path_274" class="st2" d="M43.9,18.2c-9.6,0-18.5-5-23.4-13.2l0,0C12.7-8,16.9-24.8,29.8-32.5s29.7-3.6,37.5,9.4
											c7.6,12.9,3.5,29.7-9.5,37.4C53.6,16.8,48.8,18.2,43.9,18.2z M21.8,4.1c7.3,12.1,23.1,16.1,35.2,8.8s16.1-23.1,8.8-35.2
											s-23-16.1-35.2-8.8C18.5-23.8,14.5-8.1,21.8,4.1z"/>
									</g>
									<g id="Group_82" transform="translate(16.073 11.219)">
										<path id="Path_275" class="st2" d="M37.7-11.4c-0.2-0.5-0.5-1-0.9-1.3c-0.4-0.4-0.8-0.6-1.3-0.8c-0.6-0.2-1.2-0.3-1.8-0.3
											c-0.8,0-1.6,0-2.4,0.1c-1.5,0.1-2.9,0.2-4.3,0.2c-1.3,0-2.5-0.2-3.7-0.5c-1.1-0.3-2.1-0.9-3-1.6c-1.8-1.6-2.8-3.8-2.9-6.2
											c0-1.1,0.2-2.1,0.6-3.1c0.5-1,1.1-2,1.9-2.8c0.9-0.9,1.9-1.7,3.1-2.3L21.2-34l3.4-1.5l1.9,4.1c1.2-0.4,2.5-0.5,3.7-0.5
											c2.3,0.1,4.5,1,6.1,2.8c0.9,1,1.6,2.1,2.1,3.3l-6,2.7c-0.5-1.3-1.4-2.4-2.6-3c-1.1-0.5-2.3-0.4-3.3,0.1
											c-0.6,0.2-1.1,0.6-1.5,1c-0.4,0.3-0.6,0.8-0.8,1.2c-0.2,0.4-0.2,0.9-0.2,1.4c0.1,0.5,0.2,1,0.4,1.4
											c0.2,0.4,0.5,0.9,0.8,1.2c0.3,0.3,0.8,0.6,1.2,0.8c0.6,0.2,1.2,0.3,1.8,0.3c0.8,0,1.7,0,2.5,0c1.6-0.1,3.1-0.1,4.3-0.1
											c1.3,0,2.5,0.2,3.7,0.6c2.3,0.7,4.1,2.4,5,4.5c0.5,1.1,0.8,2.2,0.8,3.4c0,1.1-0.2,2.1-0.6,3.1c-0.5,1-1.1,2-1.9,2.8
											c-0.9,0.9-2,1.7-3.1,2.3l1.7,3.8L37.3,3l-1.7-4.2c-1.2,0.4-2.5,0.7-3.7,0.8c-1.2,0.1-2.5,0-3.7-0.4S26-1.8,25-2.7
											c-1.1-1-2-2.3-2.6-3.7l6-2.7c0.3,0.8,0.8,1.5,1.4,2.1c0.5,0.5,1.1,0.8,1.7,1c0.6,0.2,1.2,0.2,1.8,0.1
											c0.6-0.1,1.2-0.3,1.8-0.5c0.6-0.3,1.1-0.6,1.6-1c0.4-0.4,0.7-0.8,0.9-1.3c0.2-0.4,0.3-0.9,0.3-1.4
											C38.1-10.5,37.9-11,37.7-11.4z"/>
									</g>
								</g>
								<path id="Path_276" class="st2" d="M309.7,282.7c0,0-20.9-14.7-36.5-11.8c-15.6,2.9-32.6,23-32.6,23s31.2,3.5,42.8-0.9
									C295,288.6,309.7,282.7,309.7,282.7z"/>
								<path id="Path_277" class="st4" d="M653.8,252.4c0,0,35.6-19.3,49.2-12.9c13.6,6.4,20.8,21.6,20.8,21.6s-16.5,1.7-29.2,1
									C681.9,261.5,673.2,250.1,653.8,252.4z"/>
								<path id="Path_278" class="st2" d="M710.7,103.9c0,0,23.8-11.7,34.4-9.1c10.7,2.8,21.4,9.1,21.4,9.1s-13.2,8-26.2,7.4
									C727.6,110.8,710.7,103.9,710.7,103.9z"/>
								<path id="Path_279" class="st2" d="M555.4-17.4c0,0-12.2-15.2-8-26.4c2.2-5.8,4.8-11.5,8-16.9c0,0,11.3,12.7,10.8,21.6
									C565.7-30.1,555.4-17.4,555.4-17.4z"/>
								<path id="Path_280" class="st4" d="M605.9,9.5c0,0-2.9-19.1,6-24.7s23.2-5.5,23.2-5.5S632.9-4.6,626.9-1
									C620.8,2.6,608.5,4.6,605.9,9.5z"/>
								<path id="Path_281" class="st4" d="M468.8,520.3c0,0,12,17,12.5,23.1c0.6,6-17,21.4-17,21.4s-5.6-14.8-3.2-22.2
									C463.6,535.1,468.8,520.3,468.8,520.3z"/>
								<path id="Path_282" class="st4" d="M446.4,423.1c0,0-17.9,6-20.3,15.9c-1.5,5.5-2.1,11.3-1.7,17
									C424.4,456,450.3,443.3,446.4,423.1z"/>
								<path id="Path_283" class="st4" d="M451.8,423.1c0,0,5.5,6.3,5.6,10.7c-0.1,3-1.1,5.8-2.9,8.2
									C454.7,441.9,448.1,436.7,451.8,423.1z"/>
							</g>
						</g>
					</g>
				</g>
			</g>
			<g id="Group_88" transform="translate(426.469 765.403)">
				<path id="Path_284" class="st1" d="M164.5,6.8v9.9c0,0.8-0.2,1.5-0.7,2.1c-0.4,0.6-1.1,1.1-1.8,1.4c-0.2,0.1-0.5,0.2-0.7,0.2
					s-0.4,0.1-0.7,0.1H3.7c-0.6,0-1.2-0.1-1.8-0.4c-1.1-0.6-1.9-1.7-2-3c0-0.1,0-0.1,0-0.2s0-0.1,0-0.2V6.8c0-0.1,0-0.1,0-0.2
					C0.1,4.6,1.8,3,3.8,3h156.9c0.2,0,0.4,0,0.7,0.1c0.2,0,0.5,0.1,0.7,0.2c0.7,0.3,1.3,0.8,1.8,1.4C164.3,5.3,164.5,6.1,164.5,6.8z
					"/>
				<path id="Path_285" class="st2" d="M87.5,20.5H3.4c-0.5,0-1.1-0.1-1.6-0.4c-1.1-0.7-1.7-1.8-1.8-3C0,17,0,17,0,16.9s0-0.1,0-0.2
					V6.8c0-0.1,0-0.1,0-0.2C0,4.7,1.5,3.1,3.4,3h73.8C78.3,8,81,14.9,87,20C87.1,20.2,87.3,20.3,87.5,20.5z"/>
				<g id="Group_87" transform="translate(57.663 0.009)">
					<rect id="Rectangle_28" x="86" y="3" class="st2" width="1.8" height="17.4"/>
					<rect id="Rectangle_29" x="80" y="3" class="st2" width="1.8" height="17.4"/>
					<rect id="Rectangle_30" x="72.7" y="3" class="st2" width="1.8" height="17.4"/>
					<rect id="Rectangle_31" x="61.6" y="3" class="st2" width="1.8" height="17.4"/>
					<rect id="Rectangle_32" x="49.9" y="3" class="st2" width="1.8" height="17.4"/>
					<rect id="Rectangle_33" x="31.9" y="3" class="st2" width="1.8" height="17.4"/>
					<rect id="Rectangle_34" x="15" y="3" class="st2" width="1.8" height="17.4"/>
					<rect id="Rectangle_35" x="0" y="3" class="st2" width="1.8" height="17.4"/>
					<rect id="Rectangle_36" x="91.7" y="3" class="st2" width="1.8" height="17.4"/>
					<rect id="Rectangle_37" x="95.5" y="3" class="st2" width="1.8" height="17.4"/>
					<rect id="Rectangle_38" x="99.2" y="3" class="st2" width="1.8" height="17.4"/>
					<path id="Path_286" class="st2" d="M103.7,3.1v17.3c-0.2,0-0.4,0.1-0.7,0.1h-1V3h1.1C103.3,3,103.5,3,103.7,3.1z"/>
					<path id="Path_287" class="st2" d="M106.2,4.7v14.1c-0.4,0.6-1.1,1.1-1.8,1.4V3.3C105.2,3.6,105.8,4,106.2,4.7z"/>
				</g>
			</g>
			<g id="Group_90" transform="translate(409.298 747.957)">
				<path id="Path_288" class="st1" d="M164.5,6.8v9.9c0,0.8-0.2,1.5-0.7,2.1c-0.4,0.6-1.1,1.1-1.8,1.4c-0.2,0.1-0.5,0.2-0.7,0.2
					s-0.4,0.1-0.7,0.1H3.7c-2,0-3.7-1.6-3.8-3.6c0-0.1,0-0.1,0-0.2V6.8c0-0.1,0-0.1,0-0.2C0.1,4.8,1.5,3.3,3.3,3c0.1,0,0.3,0,0.4,0
					h156.9c0.2,0,0.4,0,0.7,0.1c0.2,0,0.5,0.1,0.7,0.2c0.7,0.3,1.3,0.8,1.8,1.4C164.3,5.3,164.5,6.1,164.5,6.8z"/>
				<path id="Path_289" class="st2" d="M87.5,20.5H3.4C1.5,20.3,0,18.8,0,16.8c0-0.1,0-0.1,0-0.2V6.8c0-0.1,0-0.1,0-0.2
					C0,4.8,1.3,3.4,3,3c0.1,0,0.3,0,0.4,0h73.8l0,0C78.3,8.2,81.1,15.3,87.5,20.5z"/>
				<g id="Group_89" transform="translate(57.663 0.008)">
					<rect id="Rectangle_39" x="86" y="3" class="st2" width="1.8" height="17.4"/>
					<rect id="Rectangle_40" x="80" y="3" class="st2" width="1.8" height="17.4"/>
					<rect id="Rectangle_41" x="72.7" y="3" class="st2" width="1.8" height="17.4"/>
					<rect id="Rectangle_42" x="61.6" y="3" class="st2" width="1.8" height="17.4"/>
					<rect id="Rectangle_43" x="49.9" y="3" class="st2" width="1.8" height="17.4"/>
					<rect id="Rectangle_44" x="31.9" y="3" class="st2" width="1.8" height="17.4"/>
					<rect id="Rectangle_45" x="15" y="3" class="st2" width="1.8" height="17.4"/>
					<rect id="Rectangle_46" x="0" y="3" class="st2" width="1.8" height="17.4"/>
					<rect id="Rectangle_47" x="91.7" y="3" class="st2" width="1.8" height="17.4"/>
					<rect id="Rectangle_48" x="95.5" y="3" class="st2" width="1.8" height="17.4"/>
					<rect id="Rectangle_49" x="99.2" y="3" class="st2" width="1.8" height="17.4"/>
					<path id="Path_290" class="st2" d="M103.7,3.1v17.3c-0.2,0-0.4,0.1-0.7,0.1h-1V3h1.1C103.3,3,103.5,3,103.7,3.1z"/>
					<path id="Path_291" class="st2" d="M106.2,4.7v14.1c-0.4,0.6-1.1,1.1-1.8,1.4V3.3C105.2,3.6,105.8,4,106.2,4.7z"/>
				</g>
			</g>
			<g id="Group_92" transform="translate(425.674 730.535)">
				<path id="Path_292" class="st1" d="M164.5,6.8v9.9c0,0.8-0.2,1.5-0.7,2.1c-0.4,0.6-1.1,1.1-1.8,1.4c-0.2,0.1-0.5,0.2-0.7,0.2
					c-0.1,0-0.1,0-0.2,0H161h-0.1c-0.1,0-0.1,0-0.2,0H3.8c-2,0-3.7-1.6-3.8-3.6c0-0.1,0-0.1,0-0.2V6.8c0-0.1,0-0.1,0-0.2
					s0-0.1,0-0.2c0.2-1.6,1.3-2.9,2.8-3.3h0.1C3.2,3,3.5,3,3.8,3h156.9c0.1,0,0.2,0,0.3,0c0,0,0.1,0,0.2,0l0,0h0.2
					c0.2,0,0.5,0.1,0.7,0.2c0.7,0.3,1.3,0.8,1.8,1.4C164.3,5.3,164.5,6.1,164.5,6.8z"/>
				<path id="Path_293" class="st2" d="M87.5,20.5H3.4C1.5,20.3,0,18.8,0,16.8c0-0.1,0-0.1,0-0.2V6.8c0-0.1,0-0.1,0-0.2s0-0.1,0-0.2
					c0.1-1.6,1.1-2.9,2.6-3.3h0.1C3,3,3.2,3,3.4,3h73.8v0.1C78.4,8.2,81.1,15.3,87.5,20.5L87.5,20.5z"/>
				<g id="Group_91" transform="translate(57.663 0.008)">
					<rect id="Rectangle_50" x="86" y="3" class="st2" width="1.8" height="17.4"/>
					<rect id="Rectangle_51" x="80" y="3" class="st2" width="1.8" height="17.4"/>
					<rect id="Rectangle_52" x="72.7" y="3" class="st2" width="1.8" height="17.4"/>
					<rect id="Rectangle_53" x="61.6" y="3" class="st2" width="1.8" height="17.4"/>
					<rect id="Rectangle_54" x="49.9" y="3" class="st2" width="1.8" height="17.4"/>
					<rect id="Rectangle_55" x="31.9" y="3" class="st2" width="1.8" height="17.4"/>
					<rect id="Rectangle_56" x="15" y="3" class="st2" width="1.8" height="17.4"/>
					<rect id="Rectangle_57" x="0" y="3" class="st2" width="1.8" height="17.4"/>
					<rect id="Rectangle_58" x="91.7" y="3" class="st2" width="1.8" height="17.4"/>
					<rect id="Rectangle_59" x="95.5" y="3" class="st2" width="1.8" height="17.4"/>
					<rect id="Rectangle_60" x="99.2" y="3" class="st2" width="1.8" height="17.4"/>
					<path id="Path_294" class="st2" d="M103.7,3.1v17.3c-0.2,0-0.4,0.1-0.7,0.1h-1V3h1.1C103.3,3,103.5,3,103.7,3.1z"/>
					<path id="Path_295" class="st2" d="M106.2,4.7v14.1c-0.4,0.6-1.1,1.1-1.8,1.4V3.3C105.2,3.6,105.8,4,106.2,4.7z"/>
				</g>
			</g>
			<rect id="Rectangle_61" x="35.3" y="767.6" class="st2" width="67.2" height="5.7"/>
			<rect id="Rectangle_62" x="429.1" y="750.5" class="st2" width="57.3" height="25.7"/>
			<path id="Path_296" class="st2" d="M495.1,767l3.8,3.4l-0.5,5l-22-0.6l-2.1-9.3L495.1,767z"/>
			<g id="Group_93" transform="translate(38.809 300.539)">
				<path id="Path_297" class="st11" d="M93.5,17.1C93.4,16,92.6,3.6,73.7,3c0,0,6.9,1,10.3,4.8c0,0-5.7-4.6-10.9-3S65,15.4,65,18.3
					s2.8,12.5,6.1,13.3c1.3,0.3,2.6,0.3,3.9,0c-0.9,1.5-1.8,3-2.5,4.5C65,51.6,72.7,66.6,79.1,65c4.1-1.1,5.2,5.9,5.2,5.9l39.6-32.1
					C123.9,38.8,109.4,8.7,93.5,17.1z"/>
				<path id="Path_298" class="st12" d="M282.8,254.6l0.9,5.8c30.8,80.1,9.4,222.6,10.1,224.8l128.4,0.2
					C382.4,298,282.8,254.6,282.8,254.6z"/>
				<path id="Path_299" class="st13" d="M107.3,471.3l-8.4,3.1c0,0-36.6-50.7-41.1-95.3c-0.9-7.6-0.5-15.3,1.2-22.8c0,0-0.4-2-1-5.6
					c-0.3-1.7-0.6-3.7-1.1-6c-1.2-6.8-2.8-16.1-4.7-26.7c-4.3-24.4-9.9-55.6-14.2-78.6l2.3-0.7l24.5-7.9l5.1-16.1l18.3-4.8
					c0,0,4.1,8,7.7,45.7c0.7,4.9,1.3,10.4,1.7,16.3c1.7,22,1.1,44.2-1.7,66.1c-0.8,6.6-1.9,13.3-3.2,20.3c-1,5.1-1.1,12-0.7,20
					C93.9,414.7,107.3,471.3,107.3,471.3z"/>
				<path id="Path_300" class="st14" d="M97.7,271.9L58,350.7c-0.3-1.7-0.6-3.7-1.1-6c-1.2-6.8-2.8-16.1-4.7-26.7
					c-4.3-24.4-9.9-55.6-14.2-78.6l2.3-0.7l24.5-7.9l5.1-16.1l18.3-4.8c0,0,4.1,8,7.7,45.7C96.6,260.5,97.2,266,97.7,271.9z"/>
				<path id="Path_301" class="st13" d="M80.3,220l-0.9-7.9c-15.4,4.1-56.5-11.4-56.5-11.4s-15,13.1-13,44.5
					c1,15.3,2.7,80.5,4.5,99.7c0.7,7,1.2,12,1.5,13.9l0,0c0,0.6-0.1,1.2-0.4,1.7c-2.6,4.5-4.9,9.2-6.7,14.1
					C-9.1,422.3,11.6,481,11.6,481l5.4-2.2c0,0,11.7-65.3,21.3-94.2c1.1-3.8,2.7-7.5,4.6-11c4.1-6.7,8-17.6,11.5-30.7
					c6.6-24.6,11.9-56.6,15.5-81.3C70.2,261.8,80.3,220,80.3,220z"/>
				<path id="Path_302" class="st15" d="M101.4,122.5c0.9-3.4,2.5-6.6,4.7-9.4c0.2-0.4,0.5-0.8,0.9-1.1c1.7-2.1,3.7-3.8,6-5.2
					c1.5-0.6,3.2,0.1,4.9,2v0.1c1.8,2,3.2,4.1,4.4,6.5c0.1,0.1,0.1,0.1,0.1,0.2c0.3,0.6,0.6,1.2,1,1.9c0.1,0.1,0.2,0.3,0.3,0.4
					c0.7,1.5,1.4,3,2.1,4.6c7.8,17.1,16.2,42.9,23.1,50.6c3,3.3,16.7,9.8,27.6,14.6c7.8,3.4,14.2,6,14.2,6s7.8-1.5,9.6,0
					s10.3,10.2,8.5,13s-10.6-2.4-12.4-2.8s-6.9-2.5-6.9-2.5s-0.5,0-1.4-0.1c-2.8-0.2-9.6-0.6-17.3-1.4c-11.6-1.1-25.3-3.2-30.8-6.6
					c-8.3-5.1-22-20.7-31-36.3c-0.2-0.4-0.4-0.8-0.6-1.1c-4.6-8.3-7.9-16.5-8.2-23.1C100.1,129.5,100.4,125.9,101.4,122.5z"/>
				<path id="Path_303" class="st15" d="M109.6,124.5c-5.6,2.5-11.6,3.9-17.7,4.2c-26.5,1.4-32.5-21.7-33.5-37.1
					c2.9-1,6-1.4,9.1-1.1c1.9,0.1,3.8,0.3,5.4,0.5c3.2-1.7,9-9.9,12.4-23.6l1.1,0.5l19.1,9c0,0-2,6.2-3.5,12.2
					c-1.2,4.7-2,9.1-1.3,10.4c1.5,0.6,2.4,1,2.4,1l0,0C106.1,108.1,108.2,116.2,109.6,124.5z"/>
				<path id="Path_304" class="st16" d="M105.5,76.7c0,0-2,6.2-3.5,12.2C90.9,85.7,87.5,74,86.5,67.7L105.5,76.7z"/>
				<path id="Path_305" class="st15" d="M107.9,83.3c0,0-26.7-6.2-22.6-22.7s3.4-28.5,20.6-25.3s18.9,10.4,18.9,16.2
					S114.9,84.5,107.9,83.3z"/>
				<path id="Path_306" class="st11" d="M126.4,42.1c-2.9-6-6.2-5.7-8.4-4.6c-12.5-11.6-33.6-8.7-33.6-8.7
					c-2.9,7.3-5.1,14.9-6.3,22.7c0,0,4.1,4.2,16,4.1c3.6,0,7.3-1.7,10.6-4c-4.1,4.1-8.8,7.6-13.9,10.4c14.9-2.8,24.9-20.1,25.9-21.9
					c1.3,1.9,3.7,5.8,3.9,9.2c0.3,4.5-1.3,13.4,1.3,13.7C121.9,62.9,130.7,51.1,126.4,42.1z"/>
				<path id="Path_307" class="st17" d="M125.9,122.5c-0.7-2.2-4.7-9.4-6.5-12.5c-0.6-1.1-1.5-2.1-2.6-2.9
					c-4.3-2.8-8.8-5.1-13.6-6.8l0,0c0.2,0.7,5,18.1,3.2,21.8c-1.8,3.8-35.6-8.4-37.4-11.2c-1.5-2.2-1.5-14.1-1.5-18.7
					c0-1.1,0-1.8,0-1.8s-12.6-1.7-19.7,1.2c1.8,4.1,3.1,8.4,3.8,12.8c0.1,0.6,0.2,1.3,0.2,1.9c0.1,1.3,0.2,2.7,0.1,4
					c-0.2,1.8-1.1,3.5-2.4,4.8c-1.6,1.6-3.3,3-5.1,4.2c-1.3,0.9-2.7,1.9-4.2,3l0,0c-0.1,7.9,0.4,20.9-1,34.8
					c-0.4,3.5-1.5,6.9-3.4,9.9c-0.7,1.2-1.6,2.3-2.5,3.4c-7.5,8.4-20.7,25-17.8,35.4c0.2,9.8,82.7,22.6,81,11.9
					c0,0,12.4-59.8,19.1-74.2c0.2-0.5,0.5-1,0.7-1.6c2.1-5.7,1.8-11.6,1.1-16.8C119.9,123.4,122.8,122.5,125.9,122.5z"/>
				<path id="Path_308" class="st18" d="M74.3,197.5c-16.3-0.2-30.1-17.1-38.5-30.6c1.9-3,3-6.4,3.4-9.9c1.5-13.9,0.9-26.9,1-34.8
					l0,0c1.5-1.1,2.9-2.1,4.2-3c1.8-1.3,3.5-2.7,5.1-4.2C62.8,137.6,96.4,197.7,74.3,197.5z"/>
				<path id="Path_309" class="st14" d="M42.6,485.5H0.2c0,0-1-6.5,1.2-11.4c2.1-4.7,5.4-6.8,4.6-12.5c2.7,2.8,7.1,5.9,13.2,5.1
					c0.8,1.2,4.8,7.7,7.4,9.5C29.4,478.2,41.8,477.4,42.6,485.5z"/>
				<path id="Path_310" class="st14" d="M133.6,485.5H91.2c0,0-1.6-6.8,1.2-11.4c2.5-4.1,1.5-6.4-0.3-9.8c2.2,1,4.7,1.4,7.1,1.3
					c2.2-0.3,4.4-1,6.3-2.2c1.8,2.1,9.6,10.9,12.1,12.7C120.4,478.2,132.8,477.4,133.6,485.5z"/>
				<path id="Path_311" class="st19" d="M138.3,244.1l10.1-24.6c1.3-3.2,4.8-4.9,8.1-4c3.1-6,7.6-11.1,13.1-14.9
					c5.2-3.7,11.4-5.7,17.7-5.8c3.2,0,6.5,0.6,9.5,1.9c14.3,5.9,20.7,24,15.5,41.7l0.8,0.3c0,0,2.4-0.2,6.6-0.2
					c13,0,42.5,1.7,63.1,16.1c0.8,1,1.3,2.2,1.4,3.5c0,0.8-0.1,1.6-0.4,2.3c0,0-33.2-21.5-63.9,0.6c-1.9,1.4-3.7,2.6-5.5,3.8
					l-2.8,6.7c-4.6,11.2-17.4,16.5-28.6,12L154.8,272l-5.9-2.4C139,265.5,134.3,254.1,138.3,244.1z M192.9,224.2l11.5,4.7
					c3.1,1.3,4.8,4.6,3.9,7.8l1.2,0.5c4.7-16.2-1-32.5-13.8-37.8c-1.8-0.7-3.6-1.2-5.5-1.5c-6.2-0.7-12.4,0.8-17.5,4.2
					c-5.6,3.6-10.2,8.5-13.3,14.4l1.7,0.7c1.7-2.9,5.2-4.1,8.3-2.8l11.5,4.7c1.2-2.9,4.5-4.3,7.4-3.1l1.6,0.7
					C192.7,218,194,221.3,192.9,224.2L192.9,224.2z"/>
				<path id="Path_312" class="st20" d="M214.3,264.8c1.8-1.2,3.6-2.4,5.5-3.8c30.7-22.1,63.9-0.6,63.9-0.6c0.3-0.7,0.5-1.5,0.4-2.3
					c-4.6-3.1-22.1-13.2-43.7-9.8C215.2,252.5,210.6,256,214.3,264.8z"/>
				<path id="Path_313" class="st20" d="M149,269.6l5.9,2.4c-8.8-4.8,2.1-25.1,8.5-38.4s16-7.3,16-7.3c1.3-2.6,4-4.3,6.9-4.2
					c0.2-4.3,3.5-5.2,3.5-5.2l-1.6-0.7c-2.9-1.2-6.2,0.2-7.4,3.1l-11.5-4.7c-3.1-1.2-6.6-0.1-8.3,2.8l-1.7-0.7
					c3.1-5.9,7.7-10.8,13.3-14.4c5.2-3.4,11.4-4.9,17.5-4.2c-1.1-0.9-2.1-2-2.8-3.2c-6.4,0.1-12.6,2.1-17.7,5.8
					c-5.5,3.9-10,9-13.1,14.9c-3.3-0.9-6.8,0.8-8.1,4l-10.1,24.6C134.3,254.1,139,265.5,149,269.6z"/>
				<path id="Path_314" class="st15" d="M38.4,112.5c0.1-18.5,9.3-21,9.3-21c0.2-0.1,0.4-0.1,0.6-0.2c1.6-0.3,3.2,0.8,5,2.9
					c2.2,2.6,4.5,6.9,6.8,12c3.6,8.2,7.5,18.8,11,29.4c2,5.8,3.9,11.6,5.8,16.9c1.1,3.2,2.2,6.3,3.2,9.1c1.5,4.3,3.2,8.4,5.3,12.4
					c1,1.8,3.9,4.3,7.8,7.1c8.1,5.7,16.5,10.9,25.2,15.7c3.6,2,6.9,3.9,9.7,5.4c2.4,0.5,14.3,3.1,19.9,1.8
					c6.3-1.5,16.9,6.1,16.9,6.1s1.1,2.4-2.9,4.1c-4.1,1.7-9.8,7.7-19,4.1c-5.5-2.1-11.1-3.8-16.9-5.2c-1.3-0.3-2.1-0.4-2.1-0.4
					c-3.6-0.7-7.8-1.7-12.5-2.7h-0.1c-8-1.9-16.9-4.2-24.4-6.8c-4.5-1.5-8.9-3.4-13-5.8c-0.3-0.2-0.6-0.4-0.9-0.6
					c-7.5-5.4-16.3-21.3-23.2-38.4c-1-2.4-1.8-4.7-2.7-7c-3-7.9-5.4-16-7.3-24.2c-0.9-3.8-1.5-7.6-1.7-11.5
					C38.4,114.6,38.4,113.6,38.4,112.5z"/>
				<path id="Path_315" class="st17" d="M62.2,107.1c-12.3-3.4-23.8,5.3-23.8,5.3c0.2-18.4,9.3-21,9.3-21
					C52.3,88.9,57.8,97.2,62.2,107.1z"/>
			</g>
			<g id="Group_95" transform="translate(211.561 765.379)">
				<path id="Path_316" class="st1" d="M164.5,6.8v9.9c0,0.8-0.2,1.5-0.7,2.1c-0.4,0.6-1.1,1.1-1.8,1.4c-0.2,0.1-0.5,0.2-0.7,0.2
					s-0.4,0.1-0.7,0.1H3.7c-2,0-3.7-1.6-3.8-3.6c0-0.1,0-0.1,0-0.2V6.8c0-0.1,0-0.1,0-0.2C0.1,4.7,1.5,3.2,3.3,3c0.1,0,0.3,0,0.4,0
					h156.9c0.2,0,0.4,0,0.7,0.1c0.2,0,0.5,0.1,0.7,0.2c0.7,0.3,1.3,0.8,1.8,1.4C164.3,5.3,164.5,6.1,164.5,6.8z"/>
				<path id="Path_317" class="st2" d="M87.5,20.5H3.4C1.5,20.3,0,18.8,0,16.8c0-0.1,0-0.1,0-0.2V6.8c0-0.1,0-0.1,0-0.2
					C0,4.8,1.3,3.3,3,3c0.1,0,0.3,0,0.4,0h73.8l0,0C78.3,8.2,81.1,15.3,87.5,20.5z"/>
				<g id="Group_94" transform="translate(57.664 0.008)">
					<rect id="Rectangle_63" x="86" y="3" class="st2" width="1.8" height="17.4"/>
					<rect id="Rectangle_64" x="80" y="3" class="st2" width="1.8" height="17.4"/>
					<rect id="Rectangle_65" x="72.7" y="3" class="st2" width="1.8" height="17.4"/>
					<rect id="Rectangle_66" x="61.6" y="3" class="st2" width="1.8" height="17.4"/>
					<rect id="Rectangle_67" x="49.9" y="3" class="st2" width="1.8" height="17.4"/>
					<rect id="Rectangle_68" x="31.9" y="3" class="st2" width="1.8" height="17.4"/>
					<rect id="Rectangle_69" x="15" y="3" class="st2" width="1.8" height="17.4"/>
					<rect id="Rectangle_70" x="0" y="3" class="st2" width="1.8" height="17.4"/>
					<rect id="Rectangle_71" x="91.7" y="3" class="st2" width="1.8" height="17.4"/>
					<rect id="Rectangle_72" x="95.5" y="3" class="st2" width="1.8" height="17.4"/>
					<rect id="Rectangle_73" x="99.2" y="3" class="st2" width="1.8" height="17.4"/>
					<path id="Path_318" class="st2" d="M103.7,3.1v17.3c-0.2,0-0.4,0.1-0.7,0.1h-1V3h1.1C103.3,3,103.5,3,103.7,3.1z"/>
					<path id="Path_319" class="st2" d="M106.2,4.7v14.1c-0.4,0.6-1.1,1.1-1.8,1.4V3.3C105.2,3.5,105.8,4,106.2,4.7z"/>
				</g>
			</g>
			<g id="Group_97" transform="translate(183.981 747.956)">
				<path id="Path_320" class="st1" d="M164.5,6.8v9.9c0,0.8-0.2,1.5-0.7,2.1c-0.4,0.6-1.1,1.1-1.8,1.4c-0.2,0.1-0.5,0.2-0.7,0.2
					c-0.1,0-0.1,0-0.2,0s-0.1,0-0.2,0h-0.1c-0.1,0-0.1,0-0.2,0H3.7c-2,0-3.7-1.6-3.8-3.6c0-0.1,0-0.1,0-0.2V6.8c0-0.1,0-0.1,0-0.2
					C0.1,4.6,1.8,3,3.8,3h156.9c0.1,0,0.1,0,0.2,0c0.2,0,0.3,0,0.5,0.1c0.2,0,0.5,0.1,0.7,0.2c0.1,0,0.2,0.1,0.3,0.1
					s0.1,0.1,0.2,0.1l0,0c0.1,0,0.1,0.1,0.2,0.1l0,0c0.1,0,0.1,0.1,0.2,0.1c0.1,0.1,0.3,0.2,0.4,0.3l0.1,0.1l0,0c0,0,0,0,0.1,0.1
					l0,0l0.1,0.1c0.1,0.1,0.1,0.1,0.2,0.2C164.3,5.3,164.5,6.1,164.5,6.8z"/>
				<path id="Path_321" class="st2" d="M87.5,20.5H3.4C1.5,20.3,0,18.8,0,16.8c0-0.1,0-0.1,0-0.2V6.8c0-0.1,0-0.1,0-0.2
					C0,4.7,1.5,3.1,3.4,3h73.8c0,0.1,0.1,0.3,0.1,0.4C78.5,8.5,81.2,15.4,87.5,20.5L87.5,20.5z"/>
				<g id="Group_96" transform="translate(57.664 0.008)">
					<rect id="Rectangle_74" x="86" y="3" class="st2" width="1.8" height="17.4"/>
					<rect id="Rectangle_75" x="80" y="3" class="st2" width="1.8" height="17.4"/>
					<rect id="Rectangle_76" x="72.7" y="3" class="st2" width="1.8" height="17.4"/>
					<rect id="Rectangle_77" x="61.6" y="3" class="st2" width="1.8" height="17.4"/>
					<rect id="Rectangle_78" x="49.9" y="3" class="st2" width="1.8" height="17.4"/>
					<rect id="Rectangle_79" x="31.9" y="3" class="st2" width="1.8" height="17.4"/>
					<rect id="Rectangle_80" x="15" y="3" class="st2" width="1.8" height="17.4"/>
					<rect id="Rectangle_81" x="0" y="3" class="st2" width="1.8" height="17.4"/>
					<rect id="Rectangle_82" x="91.7" y="3" class="st2" width="1.8" height="17.4"/>
					<rect id="Rectangle_83" x="95.5" y="3" class="st2" width="1.8" height="17.4"/>
					<rect id="Rectangle_84" x="99.2" y="3" class="st2" width="1.8" height="17.4"/>
					<path id="Path_322" class="st2" d="M103.7,3.1v17.3c-0.2,0-0.4,0.1-0.7,0.1h-1V3h1.1C103.3,3,103.5,3,103.7,3.1z"/>
					<path id="Path_323" class="st2" d="M106.2,4.7v14.1c-0.4,0.6-1.1,1.1-1.8,1.4V3.3C105.2,3.6,105.8,4,106.2,4.7z"/>
				</g>
			</g>
			<g id="Group_99" transform="translate(205.27 730.913)">
				<path id="Path_324" class="st1" d="M164.5,6.8v9.9c0,0.8-0.2,1.5-0.7,2.1c-0.4,0.6-1.1,1.1-1.8,1.4c-0.2,0.1-0.5,0.2-0.7,0.2
					s-0.4,0.1-0.7,0.1H3.7c-0.6,0-1.2-0.1-1.7-0.4c-1.2-0.6-2-1.7-2.1-3c0-0.1,0-0.1,0-0.2s0-0.1,0-0.2V6.8c0-0.1,0-0.1,0-0.2
					C0.1,4.8,1.5,3.3,3.3,3c0.1,0,0.3,0,0.4,0h156.9c0.2,0,0.4,0,0.7,0.1c0.2,0,0.5,0.1,0.7,0.2c0.7,0.3,1.3,0.8,1.8,1.4
					C164.3,5.3,164.5,6.1,164.5,6.8z"/>
				<path id="Path_325" class="st2" d="M87.5,20.5H3.4c-0.5,0-1.1-0.1-1.5-0.4c-1.1-0.6-1.8-1.8-1.9-3C0,17,0,17,0,16.9s0-0.1,0-0.2
					V6.8c0-0.1,0-0.1,0-0.2C0,4.8,1.3,3.4,3,3c0.1,0,0.3,0,0.4,0h73.8l0,0C78.3,8,81,14.9,87,20C87.1,20.2,87.3,20.3,87.5,20.5z"/>
				<g id="Group_98" transform="translate(57.663 0.009)">
					<rect id="Rectangle_85" x="86" y="3" class="st2" width="1.8" height="17.4"/>
					<rect id="Rectangle_86" x="80" y="3" class="st2" width="1.8" height="17.4"/>
					<rect id="Rectangle_87" x="72.7" y="3" class="st2" width="1.8" height="17.4"/>
					<rect id="Rectangle_88" x="61.6" y="3" class="st2" width="1.8" height="17.4"/>
					<rect id="Rectangle_89" x="49.9" y="3" class="st2" width="1.8" height="17.4"/>
					<rect id="Rectangle_90" x="31.9" y="3" class="st2" width="1.8" height="17.4"/>
					<rect id="Rectangle_91" x="15" y="3" class="st2" width="1.8" height="17.4"/>
					<rect id="Rectangle_92" x="0" y="3" class="st2" width="1.8" height="17.4"/>
					<rect id="Rectangle_93" x="91.7" y="3" class="st2" width="1.8" height="17.4"/>
					<rect id="Rectangle_94" x="95.5" y="3" class="st2" width="1.8" height="17.4"/>
					<rect id="Rectangle_95" x="99.2" y="3" class="st2" width="1.8" height="17.4"/>
					<path id="Path_326" class="st2" d="M103.7,3.1v17.3c-0.2,0-0.4,0.1-0.7,0.1h-1V3h1.1C103.3,3,103.5,3,103.7,3.1z"/>
					<path id="Path_327" class="st2" d="M106.2,4.7v14.1c-0.4,0.6-1.1,1.1-1.8,1.4V3.3C105.2,3.6,105.8,4,106.2,4.7z"/>
				</g>
			</g>
			<g id="Group_101" transform="translate(193.734 713.492)">
				<path id="Path_328" class="st1" d="M164.5,6.8v9.9c0,0.8-0.2,1.5-0.7,2.1c-0.4,0.6-1.1,1.1-1.8,1.4c-0.2,0.1-0.5,0.2-0.7,0.2
					c-0.1,0-0.1,0-0.2,0H161h-0.1c-0.1,0-0.1,0-0.2,0H3.8c-2,0-3.7-1.6-3.8-3.6c0-0.1,0-0.1,0-0.2V6.8c0-0.1,0-0.1,0-0.2
					C0.1,4.6,1.8,3,3.8,3h156.9c0.2,0,0.4,0,0.7,0.1c0.2,0,0.5,0.1,0.7,0.2c0.7,0.3,1.3,0.8,1.8,1.4C164.3,5.3,164.5,6.1,164.5,6.8z
					"/>
				<path id="Path_329" class="st2" d="M87.5,20.5H3.4C1.5,20.3,0,18.7,0,16.8c0-0.1,0-0.1,0-0.2V6.8c0-0.1,0-0.1,0-0.2
					C0,4.7,1.5,3.1,3.4,3h73.8C78.3,8.1,81.1,15.2,87.5,20.5C87.4,20.4,87.5,20.5,87.5,20.5z"/>
				<g id="Group_100" transform="translate(57.663 0.008)">
					<rect id="Rectangle_96" x="86" y="3" class="st2" width="1.8" height="17.4"/>
					<rect id="Rectangle_97" x="80" y="3" class="st2" width="1.8" height="17.4"/>
					<rect id="Rectangle_98" x="72.7" y="3" class="st2" width="1.8" height="17.4"/>
					<rect id="Rectangle_99" x="61.6" y="3" class="st2" width="1.8" height="17.4"/>
					<rect id="Rectangle_100" x="49.9" y="3" class="st2" width="1.8" height="17.4"/>
					<rect id="Rectangle_101" x="31.9" y="3" class="st2" width="1.8" height="17.4"/>
					<rect id="Rectangle_102" x="15" y="3" class="st2" width="1.8" height="17.4"/>
					<rect id="Rectangle_103" x="0" y="3" class="st2" width="1.8" height="17.4"/>
					<rect id="Rectangle_104" x="91.7" y="3" class="st2" width="1.8" height="17.4"/>
					<rect id="Rectangle_105" x="95.5" y="3" class="st2" width="1.8" height="17.4"/>
					<rect id="Rectangle_106" x="99.2" y="3" class="st2" width="1.8" height="17.4"/>
					<path id="Path_330" class="st2" d="M103.7,3.1v17.3c-0.2,0-0.4,0.1-0.7,0.1h-1V3h1.1C103.3,3,103.5,3,103.7,3.1z"/>
					<path id="Path_331" class="st2" d="M106.2,4.7v14.1c-0.4,0.6-1.1,1.1-1.8,1.4V3.3C105.2,3.6,105.8,4,106.2,4.7z"/>
				</g>
			</g>
			<path id="Path_332" class="st2" d="M261.7,749.4l12.5-3.8l-2.1-11.7c0,0-9.4-7.6-10.9-17.5l-61.9,15.4v35.3H215v14h59.5v-12.9
				C274.4,768.4,265.9,766.7,261.7,749.4z"/>
			<path id="Path_333" class="st21" d="M341.7,572.5c0,0,60.3,48.3,81.5,118.5C423.3,691,408.8,637.3,341.7,572.5z"/>
			<path id="Path_334" class="st21" d="M365.7,628.6c0,0,30.1,79.9,30.7,136.8C396.3,765.5,405,726.6,365.7,628.6z"/>
			<path id="Path_335" class="st21" d="M345.8,624.2c0,0,14.3,56.9,15.4,79.3C361.2,703.4,362,672.9,345.8,624.2z"/>
			<path id="Path_336" class="st21" d="M143.7,372.9c0,0,5.9,0.3,8.8,2.1C152.5,375,148.2,378.3,143.7,372.9z"/>
		</g>
	</g>
</g>
</svg>
