<?xml version="1.0" encoding="utf-8"?>
<!-- Generator: Adobe Illustrator 25.2.0, SVG Export Plug-In . SVG Version: 6.00 Build 0)  -->
<svg version="1.1" id="Layer_1" xmlns="http://www.w3.org/2000/svg" xmlns:xlink="http://www.w3.org/1999/xlink" x="0px" y="0px"
	 viewBox="0 0 1920 1080" style="enable-background:new 0 0 1920 1080;" xml:space="preserve">
<style type="text/css">
	.st0{fill:#0B0A18;}
	.st1{fill:#BFD34B;}
	.st2{fill:#869309;}
	.st3{fill:#A4B739;}
	.st4{fill:#FD5E5A;}
	.st5{fill:#662D91;}
	.st6{fill:#D04C72;}
	.st7{fill:#DD1964;}
	.st8{fill:#593960;}
	.st9{fill:#32233D;}
	.st10{fill:#E87F38;}
	.st11{fill:#D35E0F;}
	.st12{fill:#599C3F;}
	.st13{fill:#30830F;}
	.st14{fill:#3F3E63;}
	.st15{fill:#934E03;}
	.st16{fill:#E2882D;}
	.st17{fill:#841240;}
	.st18{fill:#B21F62;}
	.st19{fill:#031907;}
	.st20{fill:#FC7575;}
	.st21{fill:#FB8603;}
	.st22{fill:#FBC802;}
	.st23{fill:#112E1C;}
	.st24{fill:#ED7600;}
	.st25{fill:#EFB706;}
	.st26{opacity:0.37;fill:#ED7600;enable-background:new    ;}
	.st27{fill:#FFEDDF;}
	.st28{fill:#B9BCFC;}
	.st29{opacity:0.13;fill:#593960;enable-background:new    ;}
	.st30{fill:#FC9797;}
	.st31{fill:#ED9AB2;}
	.st32{fill:#F4C2D1;}
	.st33{fill:#FFD078;}
	.st34{fill:#FF8E1D;}
	.st35{fill:#18287D;}
	.st36{fill:#0F194E;}
</style>
<g id="Layer_1_1_">
	<g id="Group_14" transform="translate(12)">
		<path id="Path_1" class="st0" d="M470.9,451.5c0,0-18.8,1.3-22.6,17.4c-3.8,16.1-7.9,38.9-4.2,50.7c3.7,11.8,3,27.7,5.1,33.9
			c1.5,4.1,3.9,7.8,7,10.9l-14.3,4.2l-6.8-25.3l-0.8,20.5l-21-4.1l5.9-13.1c0,0-4.1,7.5-12,10.9l-7.7-9.3c0,0,15.7,3.2,22.6-30.5
			c6.9-33.8,11.6-51.5,21.2-61.4c7.6-8.2,19-11.8,29.9-9.5L470.9,451.5z"/>
		<path id="Path_2" class="st1" d="M775.3,1065.5c0,24.3-185.9,44.1-415.2,44.1s-415.2-19.7-415.2-44.1s185.9-44.1,415.2-44.1
			S775.3,1041.1,775.3,1065.5z"/>
		<path id="Path_3" class="st0" d="M785,1069.4c0,22.2-79.8,40.1-178.2,40.1s-178.2-18-178.2-40.1s79.8-40.1,178.2-40.1
			S785,1047.2,785,1069.4z"/>
		<path id="Path_4" class="st2" d="M268,1039.9c0,0,30.2-101.2,22.3-110.2c-7.9-8.9-33.2,59.8-33.2,59.8s36.8-125.7,19.9-131.9
			s-30.8,109.2-30.8,109.2s4.2-149.1-4.2-158.7c-8.5-9.6-10.9,100.3-10.9,100.3s-1.8-70.8-15.7-70.8s-3.6,112-3.6,112
			s-13.9-87.9-21.7-79c-7.9,8.9,0,101.7,0,101.7s-13.3-56.2-24.1-50.4c-10.9,5.8,11.5,98.5,11.5,98.5s-10.3-41.9-18.7-41.9
			s0,59.9,0,59.9L268,1039.9z"/>
		<path id="Path_5" class="st3" d="M265.7,1041.1c-0.9-4-3.3-8.4-9.3-8.7c-7.6-0.4-11.2,4.2-12.8,7.3c2.3-6.1,6.7-20,0.4-20
			c-4.2,0-9.4,6.1-13.4,11.8c0.7-7.7,0.5-15.9-2.7-19.5c-5.4-6.1-9,10.4-10.3,17.7c1.4-9.2,4.9-35.2-0.5-41.3
			c-6.6-7.6-14.5,24.7-14.5,24.7s9.3-51.9,5.4-56.3c-3.8-4.4-17.4,32.3-17.4,32.3s7.1-57,0-57s-13.4,60.4-13.4,60.4
			s-4.5-62.9-13.3-72.8c-8.8-9.9,7.9,114,6,116.1c0,0-13.9-150.5-22.9-147c-4.1,1.5-1.6,27.6,2.4,55.9c-2.4-7.6-5-12.6-7.9-12.6
			c-11.8,0,9.7,94.1,9.7,98.2s-12.1-76.9-24.2-71.2c-8.7,4.1,2.3,46.6,9.1,70.2c-0.7-0.1-1.3-0.2-2-0.3c-7.6-0.4-11.2,4.2-12.8,7.3
			c2.2-6.1,6.7-20,0.4-20c-4.2,0-9.4,6.1-13.4,11.8c0.7-7.7,0.5-15.9-2.7-19.5c-5.4-6.1-9,10.4-10.3,17.7c1.4-9.3,4.9-35.2-0.5-41.3
			c-6.6-7.6-14.5,24.7-14.5,24.7s9.3-51.9,5.4-56.3c-3.9-4.4-17.4,32.3-17.4,32.3s7.1-57,0-57s-13.4,60.4-13.4,60.4
			s-4.6-62.9-13.3-72.8c-8.8-9.9,7.8,114,6,116.1c0,0-13.9-150.5-22.9-147c-4.1,1.5-1.6,27.6,2.4,55.9c-2.4-7.6-5-12.6-7.9-12.6
			c-11.8,0,9.7,94.1,9.7,98.2S16.8,950,4.7,955.7c-4.2,2-3.8,12.7-1.6,25.9c-1.4-1.6-3.2-2.7-5.3-3.1c-2.2-2-4.6-2.8-7.3-2.1
			c-17,4.9,24.3,60.2,27.7,64.7L265.7,1041.1L265.7,1041.1z"/>
		<path id="Path_6" class="st4" d="M408.6,667c-14.6-11.5-6.3-45.1-4.6-46.7l-24.8-2.5c0,0-12,17.1-6.1,37.2
			c5.9,20.1,20.8,32.7,37.7,39.6c6.1,2.6,11.9,5.7,17.5,9.3l12.2-7.7C432.7,689,423.7,678.9,408.6,667z"/>
		<g id="Group_1" transform="translate(575.6 11.755)">
			<path id="Path_7" class="st5" d="M-144.5,464.4c-2.3,0-4.5-0.3-6.7-1c-1.5-0.5-2.8-1.6-3.5-3.1c-2.1-4.7,1.5-13.1,4.6-20.5
				c1.1-2.6,2.2-5.1,2.9-7.3c3.2-9.2,20.9-16.7,33.3-16.7c1.3,0,2.6,0.1,3.8,0.3c5.9,1.1,12,1.8,18,2.2l0.2,0.1
				c0.8,0.5,21,11.7,21,23.3c0,11.6-3.7,13.9-3.9,14L-75,456l-0.2-0.4c0-0.1-3.5-5.8-6.6-8.6c-0.4-0.3-0.9-0.4-1.4-0.4
				c-3.4,0-11,3.2-18.4,6.2c-5.6,2.3-11.4,4.7-15.2,5.7c-2,0.5-4.1,1.1-6.4,1.8C-130.1,462.2-137.9,464.4-144.5,464.4z
				 M-113.8,416.7c-12.1,0-29.5,7.4-32.5,16.1c-0.8,2.2-1.8,4.7-2.9,7.4c-3.1,7.2-6.5,15.4-4.6,19.8c0.6,1.3,1.6,2.2,3,2.6
				c2.1,0.7,4.2,1,6.4,1c6.5,0,14.2-2.2,21-4.1c2.3-0.7,4.5-1.3,6.5-1.8c3.8-0.9,9.5-3.3,15.1-5.7c7.4-3.1,15.1-6.3,18.7-6.3
				c0.7-0.1,1.4,0.1,2,0.6c2.8,2.5,5.6,7,6.5,8.4c0.9-0.9,3.1-4.1,3.1-13c0-10.7-19-21.7-20.4-22.5c-6-0.4-12-1.1-18-2.2
				C-111.3,416.8-112.5,416.7-113.8,416.7L-113.8,416.7z"/>
		</g>
		<path id="Path_8" class="st6" d="M416.3,613.8c11.7-10.7,11.3-66.5,4.5-72.7c-6.8-6.1-41.5-45.3-45.4-47
			c-11.3-4.9-36.3,102.4-48,129.4c20,9.7,40.7,8,60.7,16.7C400.3,628.4,411.4,618.2,416.3,613.8z"/>
		<path id="Path_9" class="st7" d="M297.7,757.7l55.3,129c0,0-19.6,43.7-19.6,65s11.9,79.2,11.9,79.2l13.7-1.6c0,0,30-122.7,33-150
			s-57.6-208.4-57.6-208.4L297.7,757.7z"/>
		<path id="Path_10" class="st7" d="M390.4,562.5c-11,10-50.4,55.3-50.4,55.3l0,0c-3.8-1.8-73.2,25.7-85.6,53.4
			c-14.3,32.2,0.7,205.4,0.7,215.8s10,155.3,10,155.3l32.6,7c0,0,6.1-171.5,9.1-186.3c3-14.7,24.1-154.6,37.3-174.8
			c5.5-8.4,16.8-20.8,29.1-33.2l0,0c0,0,12.9-8.7,29.6-17.6c15.8-8.5,37.8-41.9,39.1-43.2C443.2,592.9,390.4,562.5,390.4,562.5z"/>
		<path id="Path_11" class="st8" d="M420.2,535.1c0,0,9,18.3,14.7,33.6s6.9,25.4,6.9,25.4l-10.8,6.3l-3.9-14.3l-11.8-56L420.2,535.1
			z"/>
		<path id="Path_12" class="st9" d="M441.8,594.1l-10.8,6.3l-4.4-16.6l5.8,13.8L441.8,594.1z"/>
		<path id="Path_13" class="st9" d="M436.6,591.2c0,1.2-1,2.2-2.2,2.2s-2.2-1-2.2-2.2s1-2.2,2.2-2.2
			C435.6,588.9,436.6,589.9,436.6,591.2L436.6,591.2z"/>
		<g id="Group_3" transform="translate(806.008 526.025)">
			<rect id="Rectangle_2" x="-113.5" y="367.3" class="st10" width="6.1" height="155.1"/>
			<path id="Path_14" class="st11" d="M-113.5,367.3h6.1v155.1l-2-153.7L-113.5,367.3z"/>
			<path id="Path_15" class="st12" d="M-130.9,333.3c0,0-30.8,17.2-29.8,25.5s4.8,9.2,4.8,9.2s4.1,7.9,11.4,4.4
				C-137.1,368.8-130.9,333.3-130.9,333.3z"/>
			<path id="Path_16" class="st13" d="M-72.4,388.9c0,0-44,0.8-45.2,8.5c-1.2,7.8,2.4,12.6,9.1,12.6c0,0-2.7,2.3,3.4,8.4
				C-89.6,433.7-72.4,388.9-72.4,388.9z"/>
			<path id="Path_17" class="st13" d="M-199.2,415.7c0,0,36.6-22.2,42.4-16.4c5.8,5.7,6,11.6,0.4,15.1c0,0,3.7,0.4,2.5,8.6
				C-156.9,443.5-199.2,415.7-199.2,415.7z"/>
			<path id="Path_18" class="st13" d="M-93.3,403.6c-13,3.8-26.9,11.5-28.2,22.8c-10.1-12.8-25.2-24.2-35.4-35.2
				c-6.1-11.6,1.6-26,10.9-35.6c-9.5,8.7-16.4,21-13.5,32.7c-2.3-2.6-4.2-5.5-5.8-8.5c-8.3-18.1,25-62.2,24.7-62
				c0.2-0.2-1.6,1.8-1.8,2c-43.4,59.2-25.3,64.4,2.1,91.2c-8.4-1.2-18,3.3-23.9,8.3c7-4.9,19.2-9.4,27.3-4.9v-0.1
				c41.3,41.7,11.2,41.8,3,102.1l4.9,0.4c1.4-10.9,6.7-32,15.7-53.4c5.1-12.3,1.7-23.3-5.4-33.5
				C-121.3,417.5-106.4,408.3-93.3,403.6z"/>
			<path id="Path_19" class="st14" d="M-199.2,532.8h134c0,0-15.2-12-24.5-10.4c0,0-10.5-9.6-28-6.2c-5.8-6.8-14.5-10.2-23.3-9.2
				c-8.9,0.9-17,5.5-22.3,12.8C-163.4,519.8-190,514-199.2,532.8z"/>
			<g id="Group_2" transform="translate(61.727 144.62)">
				<path id="Path_20" class="st15" d="M-168.2,301.8c-0.5-0.5-1.4-0.5-1.9,0c-2.6,2.4-6.4-0.5-6.6-0.6c-0.6-0.4-1.4-0.4-1.9,0.1
					c-0.4,0.5-0.4,1.2,0,1.6l0.1,0.1c1.7,1.3,3.8,2,5.9,2.1c1.6,0,3.2-0.6,4.3-1.7C-167.7,303.1-167.6,302.4-168.2,301.8
					C-168.1,301.9-168.1,301.8-168.2,301.8z"/>
				<path id="Path_21" class="st15" d="M-178.7,300.6l-1.4-1.3c-0.4-0.3-9.1-8.2-16.1-9.2c-4.9-0.7-10.2,2.6-12.8,6
					c-2.2,2.9-2.6,5.9-1,8.3c1.1,1.7,3.5,2.3,6.5,2.3c6.7,0,16.5-3.1,21.1-4.8c-3.5,2.1-15.9,10.1-12.6,15.9
					c0.6,1.2,1.8,1.9,3.2,1.9c0.3,0,0.6,0,0.9-0.1c5-1.1,11.3-11.6,11.3-17.2V301L-178.7,300.6z M-207.8,303.4
					c-1.3-2.1,0-4.5,0.9-5.7c2.2-3,6.2-5.1,9.3-5.1c0.3,0,0.6,0,0.9,0.1c4.6,0.6,10.4,5,13.1,7.2
					C-192.9,303.1-205.9,306.2-207.8,303.4z M-191.6,317.5c-0.3,0.1-0.6,0.1-1.1-0.6c-1.7-2.9,4.9-8.4,9.9-11.7
					C-184.2,310.2-189,316.9-191.6,317.5L-191.6,317.5z"/>
			</g>
			<path id="Path_22" class="st16" d="M-115.3,445.6c-0.1,1.4-1.4,2.5-2.9,2.3c-1.2-0.1-2.2-1.1-2.3-2.3c0.1-1.4,1.4-2.5,2.9-2.3
				C-116.4,443.4-115.4,444.4-115.3,445.6z"/>
		</g>
		<g id="Group_4" transform="translate(460.727 332.078)">
			<path id="Path_23" class="st17" d="M-37.6,386.3c-2.9,3.5-5.3,7.2-7.4,11.2l-8-5.5c2-4,4.5-7.8,7.4-11.2
				c15.7-18.9,40.1-26.3,54.5-16.5c1.3,0.9,2.6,2,3.7,3.1C-2.1,361.5-23.4,369.2-37.6,386.3z"/>
			<path id="Path_24" class="st17" d="M-48.6,404.4c3.8-13.2,2.7-29.6-8.2-39.6c-4.6-4-12-7.4-17.3-8.8c-15.6-4.2-26,2.9-34.4,15.3
				c-5.8,9.3-6.6,11.8-8.7,18.2c-0.1,1.3-7,21-4.7,67.4l10.4-0.5c-4.6-27.5-6.4-70.8,14.7-90.8c5.8-5.6,13-7.1,21.2-5
				c18.1,5,24.6,16.3,21,32c-0.9,3.1-2.6,7.7-4,9.3L-48.6,404.4z"/>
			<path id="Path_25" class="st18" d="M-31.2,486.8l4.3,20.7l103.9-49l0,0l7-3.3l25.3,17.8l-14.5-47.9l-13.1,21.1l-81.8,17.7
				L-31.2,486.8z"/>
			<path id="Path_26" class="st17" d="M-49.2,380.5l70.7,48.3l-58,94.4c-2.6,3.2-26.4-9.1-53-27.3c-26.7-18.2-46.1-35.6-43.5-38.7
				L-49.2,380.5z"/>
			<path id="Path_27" class="st18" d="M-49.4,380.4c-3.6,4.4,9.3,18.8,28.8,32.1c19.5,13.4,38.3,20.7,42,16.3
				c3.6-4.4-9.3-18.7-28.8-32.1C-27,383.3-45.7,376.1-49.4,380.4z"/>
			<path id="Path_28" class="st19" d="M-42.3,385.2c-2.6,3.1,7.8,14.2,23.1,24.7c15.4,10.5,29.9,16.5,32.5,13.4s-7.8-14.2-23.1-24.7
				C-25.2,388.1-39.7,382.1-42.3,385.2z"/>
			<path id="Path_29" class="st17" d="M-3.4,426c3.6-2.8,6.9-6,9.8-9.5c14.2-17.1,10.1-42.6-0.3-53.6c1.5,0.6,9.8,4.9,11.2,5.9
				c14.4,9.8,13.2,34.6-2.5,53.5c-3,3.6-6.7,6.5-10.2,9.3L-3.4,426z"/>
		</g>
		<path id="Path_30" class="st20" d="M438.1,507.7c0,0-14.8,18.2-18.7,30c-0.5,1.5-0.8,3.1-0.9,4.7c0,10.7-10.5,10.9-15.3,1.1
			c-4.8-9.8-10.8-32.5-10.8-32.5l41.2-35.2L438.1,507.7z"/>
		<path id="Path_31" class="st4" d="M433.6,475.8l-10.2,8.7c-0.4,11.3,2.3,22.5,7.9,32.3c3.7-5.3,6.8-9.1,6.8-9.1L433.6,475.8z"/>
		<path id="Path_32" class="st20" d="M432,712.6c0,0-8.5-18.1-5.4-17.6s7.3,9.3,7.3,9.3s-3.2-8.7-1.4-11.3
			c1.7-2.6,5.9,10.2,5.9,10.2s-2.6-13,0.3-13.7c3-0.7,6.6,10.1,6.6,10.1s-1.6-11.2,1.1-10.2s11.7,6.9,11.3,13.9
			C457.4,710.2,432,712.6,432,712.6z"/>
		<g id="Group_8" transform="translate(346.505 629.807)">
			<g id="Group_6">
				<path id="Path_33" class="st21" d="M-29.7,324.9c0,0-20.7,88-14,94.2c6.8,6.3,17.3,17.8,31.8,18.9s12.2,12.6,12.2,12.6
					l-53.8-1.5l-4-3.3l-2.1,3l-15.9-1.5c0,0-18.9-105.3-15.4-131.4L-29.7,324.9z"/>
				<path id="Path_34" class="st22" d="M-91,316l61.3,8.9c0,0-0.8,3.6-2.1,9.4c-13.5-2.3-45.8-7.9-59.6-10.3
					C-91.4,321.3-91.3,318.6-91,316z"/>
				<path id="Path_35" class="st23" d="M-96.5,301.9c3.5,4,3.2,8.2,3.4,11.3c-7.2-24.2-22.3-6.9,0,0
					C-125.4,310.9-107.7,289.1-96.5,301.9z"/>
				<path id="Path_36" class="st22" d="M-41.6,431.9c-18.5-10.4-8.5-32.1,1.8-95.8l-4.2,16.6c-0.1,0.4-9.2,42.2-9.1,41.7
					c-1.3,7.8-4,17.1-1.7,25.9c4.7,21,31,19,45.5,26.4c0.4,0,1.7,0.8,2.6-0.7C-6.3,445.3-30.8,438.1-41.6,431.9z"/>
				<g id="Group_5" transform="translate(17.502 15.258)">
					<path id="Path_37" class="st23" d="M-42.5,315.6l-1.1-10.7l-67.8-9.9l-3.5,10.1L-42.5,315.6z"/>
				</g>
			</g>
			<g id="Group_7" transform="translate(42.441 179.526)">
				<path id="Path_38" class="st22" d="M-119.6,265.9l16.6,1.6l2.7-3.8l5.1,4.2l55,1.6l-0.1,3.5l-56.4-1.6l-2.8-2.3l-1.6,2.2
					l-17.6-0.6L-119.6,265.9z"/>
			</g>
		</g>
		<g id="Group_12" transform="translate(438.01 626.297)">
			<g id="Group_10">
				<path id="Path_39" class="st24" d="M-55.8,322.7c0,0-18.5,78.7-12.5,84.3c6,5.6,15.4,15.9,28.4,16.9S-29,435.2-29,435.2
					l-48.1-1.4l-3.5-2.9l-1.9,2.7l-14.2-1.4c0,0-17-94.2-13.8-117.5L-55.8,322.7z"/>
				<path id="Path_40" class="st25" d="M-110.6,314.7l54.8,8c0,0-0.8,3.2-1.9,8.4c-12.1-2-41-7.1-53.3-9.2
					C-111,319.5-110.9,317.1-110.6,314.7z"/>
				<path id="Path_41" class="st23" d="M-115.6,302.1c3.1,3.6,2.8,7.3,3.1,10.1c-6.4-21.7-20-6.2,0,0
					C-141.4,310.2-125.6,290.7-115.6,302.1z"/>
				<path id="Path_42" class="st25" d="M-66.4,418.5c-16.5-9.3-7.6-28.7,1.6-85.7l-3.7,14.8c-0.1,0.3-8.2,37.7-8.2,37.3
					c-1.1,7-3.6,15.3-1.6,23.2c4.2,18.7,27.7,17,40.7,23.6c0.3,0,1.5,0.7,2.3-0.6C-34.8,430.4-56.8,424-66.4,418.5z"/>
				<g id="Group_9" transform="translate(15.648 13.665)">
					<path id="Path_43" class="st23" d="M-67.2,314.4l-1-9.6l-60.6-8.8l-3.1,9L-67.2,314.4z"/>
				</g>
			</g>
			<g id="Group_11" transform="translate(37.98 160.614)">
				<path id="Path_44" class="st22" d="M-136.3,270l14.9,1.4l2.4-3.4l4.6,3.7l49.2,1.4l-0.1,3.1l-50.4-1.4l-2.6-2.1l-1.4,2
					l-15.7-0.5L-136.3,270z"/>
			</g>
		</g>
		<path id="Path_45" class="st8" d="M381.7,496.9l11.2,8.5c0,0,12.4,45.2,12.4,60c0,13.4-12.9,23.5-12.9,23.5l-3.3-18.9l1.3-7.6
			L381.7,496.9z"/>
		<path id="Path_46" class="st20" d="M493.3,446.1c0,0,11.4,11.5,6,22.9c-3.2,6.9-10.4,15.8-15.7,24c-3.5,5.5-7.9,6.3-6.5,14.8
			c0,0,0.8,4.3,0.8,4.8c0,0.6-5.8,1.7-8.8-1c0,0-3.3,0.5-3.3,2.7s-3.6,2-3.6,2s-1,2.2-2.3,2.2c-1.2,0-3.9,0.5-8.3,4.4
			c-3.8,3.4-4.6,5.3-14.3-7c-9.6-12.3-16.5-28.1-10.5-50C432.8,444.2,478.5,436,493.3,446.1z"/>
		<path id="Path_47" class="st0" d="M448.9,450.7c0,0-41.3-2.9-53.6,19.5c-2.9,5.3-16.4,14.6-18.2,28.9c-3.1,25-3.8,57.9,19.5,83
			h15.2l-3.2-16.4l9.9,16.4l9.8-1.7c0,0-15.7-26.1-14.4-39.4c0,0,7.9,30.1,19.5,34.2l13.5-3.1c0,0-31.6-12.5-28.3-43.2
			c2-18.5,3.4-54,16-65.5c8.4-7.7,16.6-8.2,16.6-8.2L448.9,450.7z"/>
		<path id="Path_48" class="st26" d="M493.3,446.1c-10.5-7.2-36.6-5.1-53,4.5c-12.8,0.5-36.3,3.6-45,19.6
			c-2.4,4.3-10.9,10.6-15.5,20.1c-1.3,2.8,47.6,20.8,103.9,2.7c5.2-8.2,12.4-17.2,15.7-24C504.7,457.6,493.3,446.1,493.3,446.1z"/>
		<path id="Path_49" class="st27" d="M354,796.3c0,0,49,41.5,61.2,47.5l42.5-75.3l-42.5,65.7L354,796.3z"/>
		<path id="Path_50" class="st27" d="M538.6,784.2c-23.5,10.5-76.5,37.2-96.7,46.2l7-12C469.4,810.6,514.4,793.4,538.6,784.2z"/>
		<g id="Group_13" transform="translate(765.594 428.542)">
			<path id="Path_51" class="st28" d="M-154.6,343.9c-4-9-27.3-7.9-36.9-7.1C-178,337.6-150.1,354.1-154.6,343.9z"/>
			<path id="Path_52" class="st28" d="M-148.9,362.4c5.9,7.5,12.3,33.4,16.4,24.1C-128.8,378-142.7,366.8-148.9,362.4z"/>
			<path id="Path_53" class="st28" d="M-154.2,411c7.1-3.4-9-22.5-9-22.5S-161.3,414.4-154.2,411z"/>
			<path id="Path_54" class="st28" d="M-174.9,440c11.8,0,0-21.5,0-21.5S-185.1,440-174.9,440z"/>
			<path id="Path_55" class="st28" d="M-159,483c8.2,0,0-15,0-15S-166.2,483-159,483z"/>
			<path id="Path_56" class="st28" d="M-160,552.6c8.2,0,0-15,0-15S-167.1,552.6-160,552.6z"/>
		</g>
		<path id="Path_57" class="st29" d="M329.7,617.6c-0.5,0-1,0.1-1.5,0.1c0.6,32.4,30.4,52.2,40.4,41.9c1.5-1.5,3-3.1,4.5-4.6l0,0
			c0,0,5.7-3.8,14.5-9.1c-16.3-10.7-19.6-38.8-11.1-77.2c9.4-42.6-1.1-72-1.1-74.5C364.8,489.6,342.1,583.7,329.7,617.6z"/>
		<path id="Path_58" class="st20" d="M371.8,663.8c-12-15.6-52.6-75.4-52-77.8c-13.1-6.2-17-6.3-32.7-3.7c-1.7,5.2-2.5,9.3-1.9,11.9
			c3,14.2,51.8,61.8,66.8,75.4c15,13.6,14.1,35,20.4,36.3c6.3,1.4,7.5-2.5,7.5-2.5s2.4,1.4,5.4-1.4c3-2.7,5.7-1.6,7.8-3.5
			c2.1-1.9,2.1-1.4,2.1-3.8C395.3,689.2,383.8,679.4,371.8,663.8z"/>
		<path id="Path_59" class="st30" d="M393.1,698.5c5.2-2.8-0.7-9.5-4.4-13.7c-11.6-13.9-7.9-6.1-31.7-39.2
			c-10.6-15.5-27.3-40-36-56.7c57.4,89.2,75.1,97.5,74.5,106.3c0.1,0.7-0.2,1.5-0.7,2L393.1,698.5z"/>
		<path id="Path_60" class="st4" d="M287.1,582.3c-0.7,2.1-1.3,4.3-1.7,6.5c7.3-0.5,26.2-1.5,35.7,0.1c-0.9-1.6-1.3-2.5-1.3-2.8
			C306.6,579.8,302.7,579.7,287.1,582.3z"/>
		<path id="Path_61" class="st31" d="M376.6,527.5c3.4-10.9,3-22.7-1.2-33.3c0,0-7.2-6.6-31.9,7.6c-20.3,11.7-54.3,56.8-62.1,80.4
			c15,0.7,35.5,3.7,48.6,9.9C335.2,568.4,371.4,544.1,376.6,527.5z"/>
		<path id="Path_62" class="st32" d="M329.9,592.1c1-4.7,2.7-9.2,5.1-13.4c19.3-32.1,45.1-38.9,42.9-70.7c-0.2-4.7-1.1-9.4-2.6-13.9
			c7.7,16.6,2.3,33.3,2.2,33.6l-0.7,1.8C369.4,547.6,337.3,568.4,329.9,592.1z"/>
		<path id="Path_63" class="st24" d="M438.1,437.9c0,0-71.4,16.4-70.1,38.9c1.2,22.7,59.7,18,105.3,8.7s70.7-23.1,82.9-35.6
			c3.6-3.7,6.5-8.9,2.6-13.3c-1.9-2.2-4.8-3.5-7.7-4.6c-18.1-6.5-38.1-2.9-56.7-0.7c-14.1,1.6-28.1,3.3-42.2,5
			C447.6,436.7,442.6,436.9,438.1,437.9z"/>
		<path id="Path_64" class="st33" d="M368.2,473.9c-6,34.1,107.4,12.3,142.9,0.3c15.5-5.2,33-13.1,45-24.4
			c-32.7,35.6-176.7,61.5-187.6,30.5C367.7,477.4,367.8,475.8,368.2,473.9z"/>
		<path id="Path_65" class="st34" d="M499.2,446.8c4-6.8-6.1-21.2-16.8-26.9c-10.7-5.6-46.2,3-55.5,12.9c-9.4,10-14.6,24.4-8.9,30.3
			C431.6,477.3,487.6,466.6,499.2,446.8z"/>
		<path id="Path_66" class="st0" d="M497.6,435.1c-0.1,0.1-0.2,0.3-0.2,0.4c-12,19.9-64,33-81.7,22.8c0.2,1.8,1,3.5,2.2,4.8
			c13.7,14.2,69.7,3.5,81.3-16.3C500.9,443.8,500,439.5,497.6,435.1z"/>
		<path id="Path_67" class="st35" d="M460,514.1c0.5,0.9,1.2,1.7,2.1,2.3c-2-1-3.3-3.1-3.2-5.4c0-0.2,0.2-0.3,0.4-0.2
			c0.1,0,0.2,0.1,0.3,0.3l0,0C459.4,512.1,459.6,513.2,460,514.1z"/>
		<path id="Path_68" class="st36" d="M476.3,497.4c0,0-0.1,2.4-3.1,2.8L476.3,497.4z"/>
		<path id="Path_69" class="st36" d="M468,495.2c0,0,6.1,0,8.5,1.3l4.4,3L468,495.2z"/>
		<path id="Path_70" class="st36" d="M473.2,491.9c0,0,6.9-2.1,9.2-0.6c2.3,1.4-0.1,2.3-0.6,2.3c-0.6,0,0.5-1.2-3.5-1.2
			C474.3,492.4,473.2,491.9,473.2,491.9z"/>
	</g>
</g>
</svg>
