<svg xmlns="http://www.w3.org/2000/svg" width="60.849" height="65.998" viewBox="0 0 60.849 65.998">
  <g id="gain" transform="translate(-12 139)">
    <g id="Group_181" data-name="Group 181" transform="translate(12 -139)">
      <g id="Group_180" data-name="Group 180">
        <g id="Group_179" data-name="Group 179">
          <path id="Path_496" data-name="Path 496" d="M80.148,28.694,69.634,18.18a2.307,2.307,0,0,0-1.36-.655V15.108h2.785a2.3,2.3,0,0,0,1.624-3.921L62.17.673a2.3,2.3,0,0,0-3.249,0L48.407,11.187a2.3,2.3,0,0,0,1.624,3.921h2.785v11.91a19.7,19.7,0,0,0-6.538-.045v-3.36h2.785a2.3,2.3,0,0,0,1.624-3.921l-4.517-4.517A.967.967,0,1,0,44.8,16.541l4.517,4.517a.364.364,0,0,1-.257.621H45.312a.967.967,0,0,0-.967.967v4.74a19.49,19.49,0,0,0-2.919,1.034L34.409,21.4a2.3,2.3,0,0,0-3.249,0l-.276.276H28.036a.363.363,0,0,1-.257-.621L38.293,10.545a.364.364,0,0,1,.514,0l2.8,2.8a.967.967,0,0,0,1.367-1.367l-2.8-2.8a2.3,2.3,0,0,0-3.249,0L26.412,19.692a2.3,2.3,0,0,0,1.624,3.921h.915l-8.3,8.3a2.3,2.3,0,0,0,1.624,3.921h2.785V61.283a2.3,2.3,0,0,0,2.3,2.3H38.217A2.3,2.3,0,0,0,39.4,63.25a19.6,19.6,0,0,0,21.216-.773,2.3,2.3,0,0,0,1.959,1.1H73.441a2.3,2.3,0,0,0,2.3-2.3V32.616h2.785a2.3,2.3,0,0,0,1.624-3.921ZM27.353,61.647a.364.364,0,0,1-.364-.363V34.872a.967.967,0,0,0-.967-.967H22.271a.364.364,0,0,1-.257-.621L32.528,22.77a.363.363,0,0,1,.514,0l6.574,6.574a19.622,19.622,0,0,0-2.517,32.3H27.353Zm22.058,2.418a17.7,17.7,0,1,1,17.7-17.7A17.724,17.724,0,0,1,49.411,64.064ZM78.859,30.458a.346.346,0,0,1-.336.224H74.771a.967.967,0,0,0-.967.967V61.283a.364.364,0,0,1-.364.363H62.578a.364.364,0,0,1-.364-.363c0-.015,0-.029,0-.043A19.617,19.617,0,0,0,68.274,40.9V29.123a.967.967,0,1,0-1.934,0v7.3A19.724,19.724,0,0,0,54.75,27.46V14.141a.967.967,0,0,0-.967-.967H50.031a.364.364,0,0,1-.257-.621L60.288,2.04a.363.363,0,0,1,.514,0L71.316,12.554a.364.364,0,0,1-.257.621H67.307a.967.967,0,0,0-.967.967V24.606a.967.967,0,1,0,1.934,0V19.555L78.78,30.061A.347.347,0,0,1,78.859,30.458Z" transform="translate(-19.973 0)" fill="#dd1964"/>
          <path id="Path_497" data-name="Path 497" d="M142.855,238.548a15.5,15.5,0,0,0-9.16,2.97.967.967,0,1,0,1.136,1.565,13.676,13.676,0,1,1-3,2.974.967.967,0,1,0-1.557-1.147,15.611,15.611,0,1,0,12.575-6.361Z" transform="translate(-113.416 -207.799)" fill="#dd1964"/>
          <path id="Path_498" data-name="Path 498" d="M175.413,297.508a10.793,10.793,0,1,0-10.793-10.793A10.8,10.8,0,0,0,175.413,297.508Zm0-19.652a8.859,8.859,0,1,1-8.859,8.859A8.869,8.869,0,0,1,175.413,277.857Z" transform="translate(-145.975 -240.356)" fill="#dd1964"/>
          <path id="Path_499" data-name="Path 499" d="M217.477,313.873v.764a.967.967,0,1,0,1.934,0v-.764a3.9,3.9,0,0,0,3.459-3.574c0-2.592-2.349-3.207-4.065-3.656-1.6-.42-2.173-.665-2.173-1.206,0-.639.847-1.2,1.812-1.2s1.812.561,1.812,1.2a.967.967,0,0,0,1.934,0,3.292,3.292,0,0,0-2.779-3.027v-.781a.967.967,0,1,0-1.934,0v.781a3.292,3.292,0,0,0-2.779,3.027c0,2.13,2.09,2.677,3.617,3.077,1.966.515,2.621.845,2.621,1.785s-1.141,1.729-2.492,1.729-2.492-.792-2.492-1.729a.967.967,0,0,0-1.934,0A3.9,3.9,0,0,0,217.477,313.873Z" transform="translate(-189.006 -261.907)" fill="#dd1964"/>
        </g>
      </g>
    </g>
  </g>
</svg>
