<svg xmlns="http://www.w3.org/2000/svg" width="62.677" height="62.677" viewBox="0 0 62.677 62.677">
  <path id="Path_741" data-name="Path 741" d="M54.556,15.159a2.222,2.222,0,0,0,1.571-.651l6.154-6.154a1.354,1.354,0,0,0-.872-2.306l-3.275-.206,2.137-2.137a.918.918,0,0,0-1.3-1.3L56.836,4.545,56.63,1.27A1.354,1.354,0,0,0,54.324.4L48.17,6.552a2.222,2.222,0,0,0-.646,1.71l.212,3.37A28.973,28.973,0,0,0,7.535,53.2a.918.918,0,0,0,1.358-1.236A27.146,27.146,0,0,1,47.512,13.869l-4.189,4.189a21.245,21.245,0,0,0-33.258,25.37h0a21.258,21.258,0,0,0,39.721-5.4.918.918,0,1,0-1.8-.373A19.422,19.422,0,0,1,11.7,42.586h0A19.169,19.169,0,0,1,9.547,33.71,19.4,19.4,0,0,1,42.025,19.356l-4.152,4.152a13.564,13.564,0,1,0,1.3,1.3l4.152-4.152A19.338,19.338,0,0,1,48.39,33.6a.918.918,0,0,0,.918.913h.005a.918.918,0,0,0,.913-.923,21.17,21.17,0,0,0-5.6-14.231l4.19-4.19A27.147,27.147,0,0,1,11.9,54.806a.918.918,0,1,0-1.156,1.427A28.97,28.97,0,0,0,57.938,33.71a28.734,28.734,0,0,0-5.7-17.255q-.579-.779-1.2-1.513c3.6.226,3.405.217,3.519.217ZM40.68,33.71a11.725,11.725,0,1,1-4.109-8.9l-4.178,4.178a5.845,5.845,0,1,0,1.3,1.3l4.178-4.178A11.661,11.661,0,0,1,40.68,33.71Zm-12.361.649a.918.918,0,0,0,1.3,0l2.752-2.752a4.005,4.005,0,1,1-1.3-1.3l-2.752,2.752a.918.918,0,0,0,0,1.3ZM49.357,8.147a.385.385,0,0,1,.112-.3l5.4-5.4.24,3.821-5.519,5.519Zm1.527,4.946L56.4,7.574l3.821.24-5.4,5.4a.384.384,0,0,1-.3.112Z" transform="translate(0 -0.002)" fill="#dd1964"/>
</svg>
