<svg xmlns="http://www.w3.org/2000/svg" width="805.182" height="862.625" viewBox="0 0 805.182 862.625">
  <g id="Group_247" data-name="Group 247" transform="translate(0)">
    <g id="freepik--Plants--inject-5" transform="translate(682.182 557.012)">
      <g id="freepik--plants--inject-5-2" data-name="freepik--plants--inject-5">
        <path id="Path_595" data-name="Path 595" d="M52.386,410.306s2.212-51.743,23.905-80.544,48.281-32.939,61.453-24.827c9.628,5.9,8.337,23.434-8.317,34.823s-48.753,40.579-53.771,59.609Z" transform="translate(-37.052 -301.271)" fill="#37474f"/>
        <path id="Path_596" data-name="Path 596" d="M66.064,394.56a1.353,1.353,0,0,0,1.25-1.413c-2.233-46.95,38.92-76.222,50.125-81.486a1.352,1.352,0,0,0,.655-1.782,1.372,1.372,0,0,0-1.8-.656c-11.492,5.449-53.956,35.622-51.661,83.986a1.352,1.352,0,0,0,1.413,1.27Z" transform="translate(-36.391 -293.063)" fill="#fff"/>
        <path id="Path_597" data-name="Path 597" d="M70.017,360.439a12.289,12.289,0,0,0,8.009-3.114c2.52-2.765,2.315-7.006,3.482-10.57,1.905-5.858,7.682-9.832,13.7-11.082a41.607,41.607,0,0,1,18.272,1.229c12.086,2.97,23.7-4.466,35.806-3.585a24.128,24.128,0,0,1,12.291,3.831,13.072,13.072,0,0,1,5.858,10.98,14.01,14.01,0,0,1-5,9.2,42.129,42.129,0,0,1-9.177,5.736l-10.631,5.428a18.757,18.757,0,0,0-5.019,3.277,14.153,14.153,0,0,0-3.708,11.328c.819,4.1,4.1,7.211,5.142,11.225,1.291,5.264-1.926,10.9-6.555,13.745a26.832,26.832,0,0,1-15.732,3.073c-5.428-.307-10.8-1.393-16.224-1.5a19.113,19.113,0,0,0-10.57,2.315,19.6,19.6,0,0,0-7.436,10.8,28.656,28.656,0,0,1-3.318,7.907,15.306,15.306,0,0,1-7.149,5.019,24.464,24.464,0,0,1-16.9,0c-4.486-1.721-6.678-6.78-8.358-11.164a38.911,38.911,0,0,1-2.356-14.339,91.576,91.576,0,0,1,8.337-36.339c2.52-5.244,6.145-10.488,11.717-12.291A35.278,35.278,0,0,1,70.017,360.439Z" transform="translate(-44.44 -267.75)" fill="#455a64"/>
        <path id="Path_598" data-name="Path 598" d="M52.026,412.16a1.187,1.187,0,0,0,1.127-.8c12.639-36.237,72.432-67.762,94.228-71.388a1.194,1.194,0,0,0-.389-2.356c-22.287,3.687-83.269,35.909-96.276,72.945a1.188,1.188,0,0,0,.7,1.524l.033.012A1.3,1.3,0,0,0,52.026,412.16Z" transform="translate(-38.084 -263.181)" fill="#fff"/>
        <path id="Path_599" data-name="Path 599" d="M104.468,370.811a1.188,1.188,0,0,0,.717-2.048A60.128,60.128,0,0,0,71.959,358.09h0a1.209,1.209,0,0,0,0,2.4,58.975,58.975,0,0,1,31.812,10.242A1.229,1.229,0,0,0,104.468,370.811Z" transform="translate(-36.775 -241.701)" fill="#fff"/>
      </g>
    </g>
    <g id="freepik--Page--inject-5" transform="translate(179.694 0)">
      <path id="Path_600" data-name="Path 600" d="M611.639,763.363a9.94,9.94,0,0,0,4.343-7.846V328.646a10.236,10.236,0,0,0-4.629-8.009L109.16,30.682a8.665,8.665,0,0,0-13.274,7.661V465.235a10.236,10.236,0,0,0,4.63,8.009L602.708,763.2A9.937,9.937,0,0,0,611.639,763.363Z" transform="translate(-95.866 -29.35)" fill="#455a64"/>
      <path id="Path_601" data-name="Path 601" d="M95.88,582.4h.184a1.635,1.635,0,0,0,.451.184h.348a2.919,2.919,0,0,0,.635.143,1.486,1.486,0,0,0,.43.1l.7.1a8.966,8.966,0,0,0,5.326-.922,9.854,9.854,0,0,0,4.322-7.825V202.17l-8.685,5.019V579.326c0,2.048-1.045,3.318-2.561,3.318a2.062,2.062,0,0,1-.615,0h0A1.909,1.909,0,0,1,95.88,582.4Z" transform="translate(411.843 151.84)" fill="#dd1964"/>
      <path id="Path_602" data-name="Path 602" d="M95.88,582.4h.184a1.635,1.635,0,0,0,.451.184h.348a2.919,2.919,0,0,0,.635.143,1.486,1.486,0,0,0,.43.1l.7.1a8.966,8.966,0,0,0,5.326-.922,9.854,9.854,0,0,0,4.322-7.825V202.17l-8.685,5.019V579.326c0,2.048-1.045,3.318-2.561,3.318a2.062,2.062,0,0,1-.615,0h0A1.909,1.909,0,0,1,95.88,582.4Z" transform="translate(411.843 151.84)" fill="#e0e0e0" opacity="0.81" style="isolation: isolate"/>
      <path id="Path_603" data-name="Path 603" d="M95.87,207.189l8.685-5.019v82.654l-8.685,5.06Z" transform="translate(415.581 151.84)" fill="#dd1964"/>
      <path id="Path_604" data-name="Path 604" d="M95.87,207.189l8.685-5.019v82.654l-8.685,5.06Z" transform="translate(415.581 151.84)" opacity="0.15" style="isolation: isolate"/>
      <path id="Path_605" data-name="Path 605" d="M95.866,178.249A9.522,9.522,0,0,1,97.2,182.8V237.53l8.685-5.019V177.8a4.98,4.98,0,0,0,0-.553,9.9,9.9,0,0,0-.184-1.147,11.859,11.859,0,0,0-1.147-2.868Z" transform="translate(414.254 121.498)" fill="#263238"/>
      <path id="Path_606" data-name="Path 606" d="M100.11,35.437v24.7L468.233,272.665c2.54,1.475,4.609.266,4.609-2.663v-9.361c0-2.929,2.048-4.1,4.629-2.663l112.11,64.751a10.236,10.236,0,0,1,4.629,8.009v9.341a10.241,10.241,0,0,0,4.609,8.009l12.721,7.415V330.923a10.241,10.241,0,0,0-4.609-8.009L104.719,32.774C102.179,31.3,100.11,32.487,100.11,35.437Z" transform="translate(-100.089 -26.423)" fill="#37474f"/>
      <path id="Path_607" data-name="Path 607" d="M100.11,448a10.238,10.238,0,0,0,4.629,7.989L606.952,745.942c2.54,1.454,4.609.266,4.609-2.683V341.173l-12.721-7.333c-2.54-1.475-6.678-23.885-9.238-25.36L479.376,244.835c-2.561-1.475-8.583,15.076-11.123,13.6L100.13,45.81V448Z" transform="translate(-100.11 -12.092)" fill="#dd1964"/>
      <path id="Path_608" data-name="Path 608" d="M100.11,448a10.238,10.238,0,0,0,4.629,7.989L606.952,745.942c2.54,1.454,4.609.266,4.609-2.683V341.173l-12.721-7.333c-2.54-1.475-6.678-23.885-9.238-25.36L479.376,244.835c-2.561-1.475-8.583,15.076-11.123,13.6L100.13,45.81V448Z" transform="translate(-100.11 -12.092)" fill="#fff" opacity="0.9" style="isolation: isolate"/>
      <g id="Group_243" data-name="Group 243" transform="translate(0 33.718)" opacity="0.4">
        <path id="Path_609" data-name="Path 609" d="M102.179,49.354V448a8.193,8.193,0,0,0,3.605,6.145L607.977,744.16a2.05,2.05,0,0,0,1.045.348c.471,0,.492-1.024.492-1.25v-401l-11.7-6.76c-1.8-1.045-2.95-4.629-5.531-13.847a68.715,68.715,0,0,0-3.851-11.594L479.11,246.945a45.648,45.648,0,0,0-3.523,5.613c-2.97,5.2-4.609,7.907-6.985,7.907a2.918,2.918,0,0,1-1.372-.348L102.179,49.354M100.13,45.81,468.253,258.334a.715.715,0,0,0,.348,0c2.581,0,7.825-13.786,10.427-13.786a.715.715,0,0,1,.348,0L589.6,308.4c2.56,1.475,6.7,23.885,9.238,25.36l12.721,7.415V743.258c0,2.048-1.045,3.3-2.54,3.3a4.336,4.336,0,0,1-2.048-.615L104.739,455.987A10.238,10.238,0,0,1,100.11,448V45.81Z" transform="translate(-100.11 -45.81)" fill="#dd1964"/>
      </g>
      <path id="Path_610" data-name="Path 610" d="M611.541,355.74v82.7L100.11,143.2V60.48Z" transform="translate(-100.089 3.288)" fill="#dd1964"/>
      <path id="Path_611" data-name="Path 611" d="M100.11,45.81V75.86l511.431,295.26V341.173l-9.484-5.49c-2.54-1.475-3.4-3.728-4.609-8.009l-3.237-11.184c-1-3.892-2.048-6.535-4.629-8.009L479.356,244.835c-2.561-1.475-4.568-1.639-6.514,1.577l-3.953,7.169c-1.434,2.52-2.171,3.994-4.711,2.52Z" transform="translate(-100.089 -12.092)" fill="#f0f0f0"/>
      <path id="Path_612" data-name="Path 612" d="M342.187,41.714c-3.216-1.844-5.818-.348-5.818,3.359a12.861,12.861,0,0,0,5.818,10.078c3.2,1.844,5.8.348,5.8-3.359A12.906,12.906,0,0,0,342.187,41.714Z" transform="translate(-320.495 -17.214)" fill="#dd1964"/>
      <path id="Path_613" data-name="Path 613" d="M331.957,47.6c-3.2-1.844-5.8-.348-5.8,3.359a12.9,12.9,0,0,0,5.8,10.078c3.216,1.844,5.818.348,5.818-3.359A12.861,12.861,0,0,0,331.957,47.6Z" transform="translate(-289.37 -11.039)" fill="#dd1964"/>
      <path id="Path_614" data-name="Path 614" d="M321.747,53.494c-3.2-1.844-5.818-.348-5.818,3.359a12.927,12.927,0,0,0,5.818,10.078c3.216,1.864,5.818.348,5.818-3.359A12.861,12.861,0,0,0,321.747,53.494Z" transform="translate(-258.205 -4.864)" fill="#dd1964"/>
      <path id="Path_615" data-name="Path 615" d="M106.53,192.34l7.251,4.1-2.765-5.305a1.378,1.378,0,0,1,0-1.311c.2-.246.574,0,.819.389l3.933,7.579h0a1.676,1.676,0,0,1,0,.287h0a3.084,3.084,0,0,1,0,.389,1.648,1.648,0,0,1,0,.348h0a.441.441,0,0,1,0,.164h0l-3.933,3.032a.37.37,0,0,1-.389,0,1.484,1.484,0,0,1-.43-.574,1.326,1.326,0,0,1,0-1.229l2.765-2.048-7.251-4.1a1.533,1.533,0,0,1-.594-1.25C105.936,192.34,106.2,192.176,106.53,192.34Z" transform="translate(383.741 138.789)" fill="#455a64" opacity="0.5" style="isolation: isolate"/>
      <path id="Path_616" data-name="Path 616" d="M122.507,193.4l-7.251-4.1,2.765-2.048c.246-.184.266-.737,0-1.229s-.574-.758-.819-.574l-3.933,3.032h0a.4.4,0,0,0-.123.143h0a.8.8,0,0,0,0,.328,1.241,1.241,0,0,0,0,.389v.1a1.859,1.859,0,0,0,.123.287h0l3.933,7.5a1.079,1.079,0,0,0,.389.451.308.308,0,0,0,.43,0,1.314,1.314,0,0,0,0-1.311l-2.765-5.326,7.251,4.2c.328.184.574,0,.574-.574A1.517,1.517,0,0,0,122.507,193.4Z" transform="translate(361.7 134.249)" fill="#455a64" opacity="0.5" style="isolation: isolate"/>
      <path id="Path_617" data-name="Path 617" d="M121.48,179.248c0-.43.43-.369.615.1l1,2.438c1.7-.184,3.749,1.454,5.142,4.4,1.782,3.79,1.782,8.194,0,10.017a2.581,2.581,0,0,1-3.278.2,8.924,8.924,0,0,1-3.257-3.953,1.248,1.248,0,0,1,0-1.27c.246-.225.615,0,.84.471,1.331,2.827,3.523,4.1,4.855,2.806s1.352-4.65,0-7.5c-.942-2.048-2.315-3.216-3.523-3.277l.758,1.823c.184.471,0,.922-.287.717l-2.97-1.925a1.006,1.006,0,0,1-.328-.819Z" transform="translate(338.986 127.504)" fill="#455a64" opacity="0.5" style="isolation: isolate"/>
      <path id="Path_618" data-name="Path 618" d="M163.454,153.441l-2.642-5.613a1.72,1.72,0,0,1,0-1.741c.307-.287.819,0,1.127.656l2.642,5.592,2.663-2.54c.307-.307.819,0,1.127.656a1.72,1.72,0,0,1,0,1.741l-2.642,2.54,2.642,5.633a1.72,1.72,0,0,1,0,1.741.451.451,0,0,1-.574,0,1.35,1.35,0,0,1-.553-.676l-2.663-5.613-2.642,2.561a.428.428,0,0,1-.553,0,1.487,1.487,0,0,1-.574-.676,1.72,1.72,0,0,1,0-1.741Z" transform="translate(218.988 92.924)" fill="#455a64" opacity="0.5" style="isolation: isolate"/>
      <path id="Path_619" data-name="Path 619" d="M554.533,314.32v-9.341a10.241,10.241,0,0,0-4.65-7.989L134.359,57.324c-2.561-1.475-4.629-.287-4.629,2.663V69.2a10.235,10.235,0,0,0,4.629,8.009L549.883,317C552.464,318.478,554.533,317.269,554.533,314.32Z" transform="translate(-103.756 -0.684)" fill="#fff"/>
      <path id="Path_620" data-name="Path 620" d="M339.373,75.325a.8.8,0,0,0,.328,0,1.085,1.085,0,0,0,.574-1.209l-.451-3.872h0l1.885-1.352a1,1,0,0,0,.41-.86,1.926,1.926,0,0,0-.7-1.475l-2.7-2.048a.611.611,0,0,1-.184-.307l-1.209-3.974a1.555,1.555,0,0,0-1.209-1.168.944.944,0,0,0-.881.533h0l-1.086,2.335-2.458-.942a.9.9,0,0,0-1.024.225,1.515,1.515,0,0,0,0,1.659l2.048,3.687a.8.8,0,0,1,0,.328l-.471,3.339a1.846,1.846,0,0,0,.533,1.5,1.046,1.046,0,0,0,.9.369l2.438-.307,2.356,3.155A1.186,1.186,0,0,0,339.373,75.325Zm1.557-7.518-1.885,1.352a1.148,1.148,0,0,0-.389,1.106l.225,3.2-2.048-2.581a1.21,1.21,0,0,0-1.045-.512l-2.438.307a.759.759,0,0,1,0-.492l.471-3.339a1.86,1.86,0,0,0-.225-1.065l-2.048-3.687,2.253.86a.881.881,0,0,0,1.159-.453l.008-.018,1-2.048h0l1.209,3.974a1.763,1.763,0,0,0,.615.922l2.7,2.048A.862.862,0,0,1,340.929,67.807Z" transform="translate(-302.439 1.799)" fill="#e0e0e0"/>
      <g id="Group_244" data-name="Group 244" transform="translate(5.967 44.662)" opacity="0.5">
        <path id="Path_621" data-name="Path 621" d="M353.561,61.86a1.6,1.6,0,0,0,.8-2.991l-12.987-7.5a1.6,1.6,0,0,0-1.618,2.765l13.007,7.518A1.6,1.6,0,0,0,353.561,61.86Z" transform="translate(-338.962 -51.153)" fill="#455a64"/>
        <path id="Path_622" data-name="Path 622" d="M353.448,65.5a1.617,1.617,0,0,0,1.393-.8,1.6,1.6,0,0,0-.58-2.184l-.014-.008L341.259,55a1.618,1.618,0,0,0-1.618,2.786l13.007,7.5A1.615,1.615,0,0,0,353.448,65.5Z" transform="translate(-338.848 -47.279)" fill="#455a64"/>
        <path id="Path_623" data-name="Path 623" d="M353.565,69.19a1.617,1.617,0,0,0,1.393-.8,1.577,1.577,0,0,0-.569-2.157l-.025-.014L341.376,58.7a1.6,1.6,0,1,0-1.618,2.765l13.007,7.518A1.6,1.6,0,0,0,353.565,69.19Z" transform="translate(-338.965 -43.468)" fill="#455a64"/>
      </g>
      <path id="Path_624" data-name="Path 624" d="M95.87,192.508v30.05l8.685-5.019V187.51Z" transform="translate(415.581 136.47)" fill="#e0e0e0"/>
      <path id="Path_625" data-name="Path 625" d="M252.184,296.311,110.74,214.64V445.231l141.854,81.445Z" transform="translate(237.083 164.914)" fill="#dd1964" opacity="0.1" style="isolation: isolate"/>
      <path id="Path_626" data-name="Path 626" d="M368.979,258.813,198.345,160.3c-3.441-2.048-6.145-.492-6.145,3.339a13.6,13.6,0,0,0,6.145,10.57L369,273.828c3.421,2.048,6.145.41,6.145-3.544v-.717A13.768,13.768,0,0,0,368.979,258.813Z" transform="translate(-52.333 106.996)" fill="#dd1964" opacity="0.15" style="isolation: isolate"/>
      <path id="Path_627" data-name="Path 627" d="M478.98,306.262,196.625,143.248c-2.458-1.413-4.445-.41-4.445,2.233a9.5,9.5,0,0,0,4.445,7.374L478.98,315.869c2.438,1.413,4.425.41,4.425-2.233A9.52,9.52,0,0,0,478.98,306.262Z" transform="translate(-160.552 89.392)" fill="#dd1964" opacity="0.1" style="isolation: isolate"/>
      <path id="Path_628" data-name="Path 628" d="M478.98,315.682,196.625,152.668c-2.458-1.413-4.445-.41-4.445,2.233a9.5,9.5,0,0,0,4.445,7.374L478.98,325.289c2.438,1.413,4.425.41,4.425-2.253A9.525,9.525,0,0,0,478.98,315.682Z" transform="translate(-160.552 99.269)" fill="#dd1964" opacity="0.1" style="isolation: isolate"/>
      <path id="Path_629" data-name="Path 629" d="M478.98,325.091,196.625,162.078c-2.458-1.413-4.445-.41-4.445,2.253a9.5,9.5,0,0,0,4.445,7.354L478.98,334.658c2.438,1.413,4.425.41,4.425-2.253A9.568,9.568,0,0,0,478.98,325.091Z" transform="translate(-160.552 109.135)" fill="#dd1964" opacity="0.1" style="isolation: isolate"/>
      <path id="Path_630" data-name="Path 630" d="M478.98,334.512,196.625,171.5c-2.458-1.413-4.445-.41-4.445,2.233a9.5,9.5,0,0,0,4.445,7.374L478.98,344.119c2.438,1.413,4.425.41,4.425-2.233A9.52,9.52,0,0,0,478.98,334.512Z" transform="translate(-160.552 119.011)" fill="#dd1964" opacity="0.1" style="isolation: isolate"/>
      <path id="Path_631" data-name="Path 631" d="M393.622,319.21,196.6,204.5c-2.438-1.413-4.425-.41-4.425,2.253A9.525,9.525,0,0,0,196.6,214.1L393.622,328.817c2.438,1.413,4.425.41,4.425-2.253A9.525,9.525,0,0,0,393.622,319.21Z" transform="translate(-75.194 153.609)" fill="#dd1964" opacity="0.1" style="isolation: isolate"/>
      <path id="Path_632" data-name="Path 632" d="M478.98,362.762,196.625,199.748c-2.458-1.413-4.445-.41-4.445,2.233a9.5,9.5,0,0,0,4.445,7.374L478.98,372.369c2.438,1.413,4.425.41,4.425-2.233A9.52,9.52,0,0,0,478.98,362.762Z" transform="translate(-160.552 148.629)" fill="#dd1964" opacity="0.1" style="isolation: isolate"/>
      <path id="Path_633" data-name="Path 633" d="M478.98,372.182,196.625,209.168c-2.458-1.413-4.445-.41-4.445,2.233a9.5,9.5,0,0,0,4.445,7.374L478.98,381.789c2.438,1.413,4.425.41,4.425-2.253A9.525,9.525,0,0,0,478.98,372.182Z" transform="translate(-160.552 158.505)" fill="#dd1964" opacity="0.1" style="isolation: isolate"/>
      <path id="Path_634" data-name="Path 634" d="M478.98,381.591,196.625,218.578c-2.458-1.413-4.445-.41-4.445,2.253a9.5,9.5,0,0,0,4.445,7.354L478.98,391.219c2.438,1.413,4.425.41,4.425-2.253A9.569,9.569,0,0,0,478.98,381.591Z" transform="translate(-160.552 168.371)" fill="#dd1964" opacity="0.1" style="isolation: isolate"/>
      <path id="Path_635" data-name="Path 635" d="M300.388,338.569,196.615,278.018c-2.438-1.413-4.425-.41-4.425,2.253a9.525,9.525,0,0,0,4.425,7.354l103.753,60.551c2.438,1.413,4.425.41,4.425-2.233A9.522,9.522,0,0,0,300.388,338.569Z" transform="translate(18.04 230.689)" fill="#dd1964" opacity="0.1" style="isolation: isolate"/>
    </g>
    <g id="freepik--character-3--inject-5" transform="translate(0 251.228)">
      <path id="Path_636" data-name="Path 636" d="M371.846,299.645c-15.015-48.712-29.62-80.81-14.728-90.745h0c13.847,2.581,20.054,9.443,23,27.715,3.093,19.153,9.525,45.864,13.274,61.268a182.339,182.339,0,0,0,13.827,37.22,7.888,7.888,0,0,0,4.1,3.585c4.629,1.823,6.842,4.1,10.611,6.883,2.97,2.048,5.142,2.335,5,3.216a3.891,3.891,0,0,1-4.629,2.868,28.108,28.108,0,0,1-6.453-2.048,32.17,32.17,0,0,0,8.071,11.8c7.272,6.145,6.145,12.147-5.51,12.844-4.1.246-13.868-3.564-22.86-18.866a152.767,152.767,0,0,1-8.009-17.637C381.269,322.055,374.857,309.478,371.846,299.645Z" transform="translate(-251.044 -92.332)" fill="#ffa8a7"/>
      <path id="Path_637" data-name="Path 637" d="M370.54,208.625s11.553-.594,18.559,7.129,15.158,53.853,15.158,53.853-7.661,10.529-27.859,6.145Z" transform="translate(-267.068 -92.631)" fill="#dd1964"/>
      <path id="Path_638" data-name="Path 638" d="M370.54,208.625s11.553-.594,18.559,7.129,15.158,53.853,15.158,53.853-7.661,10.529-27.859,6.145Z" transform="translate(-267.068 -92.631)" opacity="0.3" style="isolation: isolate"/>
      <rect id="Rectangle_142" data-name="Rectangle 142" width="15.507" height="27.654" transform="translate(49.373 443.251)" fill="#ffa8a7"/>
      <path id="Path_639" data-name="Path 639" d="M379.21,382.632l15.507.574.778-29.272-16.285-.553Z" transform="translate(-276.066 59.145)" fill="#ffa8a7"/>
      <path id="Path_640" data-name="Path 640" d="M375.827,251.594c0,15.425,2.274,139.559,2.274,139.559-.348,4.445-4.343,12.639-3.482,29.682,1.168,23.147,2.745,83.986,2.745,83.986a19.686,19.686,0,0,0,17.268.369S409.3,420.9,412.064,397.934c2.438-20.013,6.555-87.447,6.555-87.447l8.4,78.393a96.228,96.228,0,0,0-1.926,25.687c.737,10.611,5.715,65.9,5.715,65.9a20.487,20.487,0,0,0,17.9,1.413s8.829-83.248,9.013-93c.2-11.1-5.162-137.47-5.162-137.47Z" transform="translate(-328.646 -47.763)" fill="#37474f"/>
      <path id="Path_641" data-name="Path 641" d="M412.919,379.193v-2.315c1.5.676,4.937,14.339,11.082,20.238,4.9,4.629,11.574,10,13.274,15.179s-9.3,8.378-13.868,7.538c-5.305-.983-14.523-4.875-16.818-8.5s-3.4-8.931-5.285-11.574-6.145-5.592-7.21-8.665c-.574-1.68,0-5.367.881-8.48s1.5-6,2.438-5.736v1.762a11.932,11.932,0,0,0,7.743,2.745C407.429,381.447,412.94,380.976,412.919,379.193Z" transform="translate(-348.039 83.764)" fill="#263238"/>
      <path id="Path_642" data-name="Path 642" d="M381.87,366.029c.8,0,1.454,1.209,3.237,3.216a34.03,34.03,0,0,0,9.115,6.842c5.818,3.032,17.1,7.682,22.225,10.078,3.175,1.5,3.032,5.51-.266,7.8s-11.266,3.933-20.832,1.7c-5.2-1.209-12-6.145-16.285-5.961s-12.291.225-15.507-2.048-1.905-7.129-1-11.307c.983-4.548,2.192-11.656,3.646-11.348v1.577c1.864,2.929,11.492,4.1,15.589,2.048Z" transform="translate(-263.055 71.323)" fill="#263238"/>
      <path id="Path_643" data-name="Path 643" d="M383.05,286.865a56.846,56.846,0,0,0,21.59-12.905s-4.1,8.194-16.551,15.691l2.643,70.015Z" transform="translate(-293.077 -24.121)" fill="#263238"/>
      <path id="Path_644" data-name="Path 644" d="M387.34,212.506s-12.127,1.127-11.266,24.233l2.683,36.872v55.307c11.41,12.926,61.965,11.963,79.274-1.045,0,0-1.946-65.406-3.114-90.581-.84-17.883-4.957-26.9-22.533-28.862l-21.611.942Z" transform="translate(-332.088 -92.825)" fill="#dd1964"/>
      <path id="Path_645" data-name="Path 645" d="M389.19,216.34l2.786,19.419,6.473-.123-7.313,1.168Z" transform="translate(-299.463 -84.532)" opacity="0.3" style="isolation: isolate"/>
      <path id="Path_646" data-name="Path 646" d="M379.035,197.309a23.6,23.6,0,0,0,23.086,24.069c12.762,0,22.533-10.8,23.106-24.049,1-23.5-10.344-24.069-23.106-24.069A23.6,23.6,0,0,0,379.035,197.309Z" transform="translate(-305.49 -129.698)" fill="#263238"/>
      <path id="Path_647" data-name="Path 647" d="M403.46,190.81s3.544,17.33,4.957,20.177a7.5,7.5,0,0,0,4.343,3.646l-.246-12.188Z" transform="translate(-343.005 -111.298)" fill="#263238"/>
      <path id="Path_648" data-name="Path 648" d="M411.861,178.707s-2.54-.635-5.244,3.585c-2.315,3.605-2.847,11.717.8,21.242l6.657.8Z" transform="translate(-347.022 -124.022)" fill="#263238"/>
      <path id="Path_649" data-name="Path 649" d="M395.956,209.782c-1.332.84-3.237-1.844-4.9-3.646s-7.026-4.24-9.73,1.639,2.376,13.95,6.616,15.343c7.313,2.4,8.4-2.5,8.4-2.5l.574,27.449c9.689,15.015,31.669,14.462,23.762-.717v-8.358a44.7,44.7,0,0,0,9.853.533c5.367-.881,8.747-5.285,10.386-11.348,2.622-9.73,3.605-17.575,1.393-36.728-2.458-21-25.892-21.181-38.572-12.8S395.956,209.782,395.956,209.782Z" transform="translate(-326.898 -129.471)" fill="#ffa8a7"/>
      <path id="Path_650" data-name="Path 650" d="M399.706,209.459a35.124,35.124,0,0,0,9.484,11.9,26.812,26.812,0,0,0,11.492,4.875,25.445,25.445,0,0,0-8.194,9.115c-2.438,5.326-19.5-9.361-19.337-19.788,0,0,2.663-10.467,6.35-11.123Z" transform="translate(-329.808 -97.008)" fill="#263238"/>
      <path id="Path_651" data-name="Path 651" d="M387.483,225.166s5.264-2.6,2.909-11.348V205.46l2.315.307a20.33,20.33,0,0,1,5.531,9.607c.533,2.4,1.844,14.523-.471,16.92S392.215,225.821,387.483,225.166Z" transform="translate(-296.609 -95.939)" fill="#263238"/>
      <path id="Path_652" data-name="Path 652" d="M392.072,191.154a3.352,3.352,0,0,0-1.8.1c-2.048.9-2.417,7.088-2.765,8.87-1.168,6-2.151,16.183-4.4,16.224-.676,0-3.237-4.4-4.9-5.981-2.315-2.192.676-21.98.676-21.98a9.647,9.647,0,0,1,2.212-10.017c4.1-4.752,10.693-5.818,16.654-6.145,7.026-.389,14.155.143,21.078-1.393a56.051,56.051,0,0,1,6.616-1.413.766.766,0,0,1,.594,0c.225.184.184.533.123.819a22.026,22.026,0,0,1-2.171,5.94,53.316,53.316,0,0,0,12.127-2.4,1.154,1.154,0,0,1,.7,0c.471.143.553.758.512,1.25-.266,4.957-2.622,12.454-6.657,15.363a23.283,23.283,0,0,1-12,3.79C407.8,194.6,401.126,192.3,392.072,191.154Z" transform="translate(-314.041 -133.786)" fill="#263238"/>
      <path id="Path_653" data-name="Path 653" d="M413.71,182.851l-8.091-4.527A4.385,4.385,0,0,1,411.4,176.1c.123.055.244.115.36.18A5.142,5.142,0,0,1,413.71,182.851Z" transform="translate(-348.871 -127.121)" fill="#263238"/>
      <path id="Path_654" data-name="Path 654" d="M413.72,211s-11.983-2.52-16.183-4.834a14.183,14.183,0,0,1-5.8-5.981,19.9,19.9,0,0,0,3.3,7.047c3.052,4.1,18.682,7.088,18.682,7.088Z" transform="translate(-319.957 -101.474)" fill="#f28f8f"/>
      <path id="Path_655" data-name="Path 655" d="M397.932,191.022a2.4,2.4,0,1,1-2.4-2.622,2.477,2.477,0,0,1,2.4,2.554Z" transform="translate(-307.057 -113.825)" fill="#263238"/>
      <path id="Path_656" data-name="Path 656" d="M400.515,185.5l-5.141,2.95a3.279,3.279,0,0,1,1.045-4.22,2.8,2.8,0,0,1,3.876.852A2.717,2.717,0,0,1,400.515,185.5Z" transform="translate(-313.431 -118.665)" fill="#263238"/>
      <path id="Path_657" data-name="Path 657" d="M389.748,198.12l5.49,2.048a2.868,2.868,0,0,1-3.55,1.962c-.059-.016-.119-.037-.178-.057A3.236,3.236,0,0,1,389.748,198.12Z" transform="translate(-297.071 -103.634)" fill="#f28f8f"/>
      <path id="Path_658" data-name="Path 658" d="M386.788,188.272,382.1,184.5a2.766,2.766,0,0,1,3.82-.838,2.657,2.657,0,0,1,.277.2A3.32,3.32,0,0,1,386.788,188.272Z" transform="translate(-273.853 -119.247)" fill="#263238"/>
      <path id="Path_659" data-name="Path 659" d="M388.381,190.672a2.479,2.479,0,0,1-2.372,2.581h-.025a2.6,2.6,0,0,1,0-5.2A2.54,2.54,0,0,1,388.381,190.672Z" transform="translate(-277.514 -114.192)" fill="#263238"/>
      <path id="Path_660" data-name="Path 660" d="M385.32,188.35l.287,15.179,8.624-1.987Z" transform="translate(-287.317 -113.877)" fill="#f28f8f"/>
      <path id="Path_661" data-name="Path 661" d="M437.419,196.388c-3.462-4.589-10.467,5.592-13.7,12.618s-3.3,11-.635,13.786,7.682,1.106,12.7-5.551S439.406,199.768,437.419,196.388Z" transform="translate(-405.764 -106.654)" fill="#dd1964"/>
      <path id="Path_662" data-name="Path 662" d="M437.419,196.388c-3.462-4.589-10.467,5.592-13.7,12.618s-3.3,11-.635,13.786,7.682,1.106,12.7-5.551S439.406,199.768,437.419,196.388Z" transform="translate(-405.764 -106.654)" opacity="0.5" style="isolation: isolate"/>
      <path id="Path_663" data-name="Path 663" d="M416.563,243.079c12.29,28.678,29.395,44.84,37.076,63.3,10.058-.676,17.9-24.991,10.406-35.376,0,0-29.456-31.894-32.119-44.43-2.376-11.123-5.551-29.477-5.285-38.92a6.532,6.532,0,0,1,1.823-4.1c3.093-3.339,3.093-6,5.08-9.669,1.536-2.868,3.237-3.933,2.745-4.588a3.708,3.708,0,0,0-5.019-.369,19.549,19.549,0,0,0-3.79,3.646,21,21,0,0,1,1.741-10.775c3.421-7.743,2.581-11.676-7.845-8.931-6.555,1.741-10.652,7.19-11.635,22.9a155.6,155.6,0,0,0-.123,19.644c1.147,12.106,1.864,24.724,3.359,34.823A52.59,52.59,0,0,0,416.563,243.079Z" transform="translate(-409.366 -151.994)" fill="#ffa8a7"/>
      <path id="Path_664" data-name="Path 664" d="M448.784,225.462l-25.974-29.7s3.093,7.231-3.667,17.78-10.775,8.706-10.775,8.706,15.343,22.389,19.44,29.887,8.378,13.827,8.378,13.827a4.939,4.939,0,0,0,4.855,2.642C444.851,268.6,454.95,251.682,448.784,225.462Z" transform="translate(-391.033 -106.108)" fill="#dd1964"/>
      <path id="Path_665" data-name="Path 665" d="M448.784,225.462l-25.974-29.7s3.093,7.231-3.667,17.78-10.775,8.706-10.775,8.706,15.343,22.389,19.44,29.887,8.378,13.827,8.378,13.827a4.939,4.939,0,0,0,4.855,2.642C444.851,268.6,454.95,251.682,448.784,225.462Z" transform="translate(-391.033 -106.108)" opacity="0.3" style="isolation: isolate"/>
    </g>
    <g id="freepik--character-2--inject-5" transform="translate(222.65 320.825)">
      <path id="Path_666" data-name="Path 666" d="M309.929,242.85,297.7,259.135l13.151,15.056,16.94-19.808Z" transform="translate(-264.044 -126.335)" fill="#f28f8f"/>
      <path id="Path_667" data-name="Path 667" d="M341.747,224.77c-10.672.492-15.752,2.048-21.345,8.726s-33.533,47.052-33.533,47.052,4.937,13.847,15.752,12.659l19.644-20.259Z" transform="translate(-255.816 -145.291)" fill="#455a64"/>
      <path id="Path_668" data-name="Path 668" d="M277.576,389.89a79.247,79.247,0,0,1,1.229,12.864c.143,7.784,1.577,10.57,1.762,16.961.225,7.313-1.045,10.058-4.1,14.155s-10.754,7.845-14.052.9-2.868-11.492-1.8-18.682,1.229-11.512,1.844-17.166c.574-5,1.229-8.788,1.229-8.788Z" transform="translate(-139.286 27.826)" fill="#263238"/>
      <path id="Path_669" data-name="Path 669" d="M259.57,360.241l25.708-.471c-.389,17.166-3.114,45.721-3.564,61.8,0,3.032,0,23.536-1.065,29.784-1.721,9.361-12.823,8.091-13.417,2.5s.717-29.559.676-32.037c.1-10.242-4.732-37.24-7.272-55.779C260.512,365.034,259.693,361.02,259.57,360.241Z" transform="translate(-143.424 -3.753)" fill="#ffbda7"/>
      <path id="Path_670" data-name="Path 670" d="M337.009,383.38s1.311,0,1.536,1.147.307,3.318.84,5.449a30.758,30.758,0,0,1,.9,10.242c-.43,2.4-5.9,5.961-9.648,6.6s-9.013,4.322-11.942,7.088a28.686,28.686,0,0,1-16.613,6.514c-6.145,0-10.59-2.048-12.639-5.408s1.864-3.749,8.993-8.378l5.551-3.605c11.287-7.374,15.425-11.328,18.62-18.7Z" transform="translate(-258.616 21)" fill="#263238"/>
      <path id="Path_671" data-name="Path 671" d="M312.211,404.171c.184-5.326-2.52-44.451-2.52-44.451l22.1,2.5c-5.244,31.177-5.654,41.808-5.06,46.356h0a4.421,4.421,0,0,1,.143,1.291c0,6.145-6.862,9.341-12.291,13.376-2.048,1.6-7.518,6.514-13.868,8.665-4.1,1.413-11.7,2.048-12.659-.553,6.473-4.957,15.322-11.43,20.484-17.1C311.084,411.5,312.027,409.456,312.211,404.171Z" transform="translate(-248.3 -3.805)" fill="#ffbda7"/>
      <path id="Path_672" data-name="Path 672" d="M338.192,275.331c12.045,26.343-.451,119.1-.451,119.1.369,4.281,5.264,12.68,7.067,31.5,2.151,22.2-3.953,81.712-3.953,81.712a14.342,14.342,0,0,1-14.339.307s-15.548-87.427-18.436-109.509c-2.438-19.3-7.108-61.7-7.108-61.7L287.7,398.319a114.547,114.547,0,0,1,4.22,19.05c1.25,12.987-11.41,78.229-11.41,78.229a17.919,17.919,0,0,1-14.339-.287s-5.592-84.272-6.78-99.922c-2.048-26.3,5.019-108.341,9.832-123.909Z" transform="translate(-202.3 -96.319)" fill="#dd1964"/>
      <path id="Path_673" data-name="Path 673" d="M338.192,275.331c12.045,26.343-.451,119.1-.451,119.1.369,4.281,5.264,12.68,7.067,31.5,2.151,22.2-3.953,81.712-3.953,81.712a14.342,14.342,0,0,1-14.339.307s-15.548-87.427-18.436-109.509c-2.438-19.3-7.108-61.7-7.108-61.7L287.7,398.319a114.547,114.547,0,0,1,4.22,19.05c1.25,12.987-11.41,78.229-11.41,78.229a17.919,17.919,0,0,1-14.339-.287s-5.592-84.272-6.78-99.922c-2.048-26.3,5.019-108.341,9.832-123.909Z" transform="translate(-202.3 -96.319)" opacity="0.5" style="isolation: isolate"/>
      <path id="Path_674" data-name="Path 674" d="M308.612,321.226,304.7,296.768s-16.551-3.421-24.069-10.488a42.773,42.773,0,0,0,19.583,13.008l4.4,18.846-7.7,57.008Z" transform="translate(-209.898 -80.802)" opacity="0.2" style="isolation: isolate"/>
      <path id="Path_675" data-name="Path 675" d="M281.887,249.288,265.5,253.549v-34.68h0c9.054-2.356,16.387,2.868,16.387,11.676Z" transform="translate(-152.181 -152.07)" fill="#dd1964"/>
      <path id="Path_676" data-name="Path 676" d="M281.887,249.288,265.5,253.549v-34.68h0c9.054-2.356,16.387,2.868,16.387,11.676Z" transform="translate(-152.181 -152.07)" opacity="0.6" style="isolation: isolate"/>
      <path id="Path_677" data-name="Path 677" d="M296.2,257.727l5.879-.123c17.944-.43,32.16-15.9,31.771-34.577h0c0-20.361-15.773-36.872-35.315-37.056h0c-19.542-.1-35.479,16.387-35.581,36.667v2.048C263.448,243.388,278.3,258.116,296.2,257.727Z" transform="translate(-198.943 -185.97)" fill="#dd1964"/>
      <path id="Path_678" data-name="Path 678" d="M296.2,257.727l5.879-.123c17.944-.43,32.16-15.9,31.771-34.577h0c0-20.361-15.773-36.872-35.315-37.056h0c-19.542-.1-35.479,16.387-35.581,36.667v2.048C263.448,243.388,278.3,258.116,296.2,257.727Z" transform="translate(-198.943 -185.97)" opacity="0.6" style="isolation: isolate"/>
      <path id="Path_679" data-name="Path 679" d="M262.547,191.864a4.446,4.446,0,0,1,5.361-3.284c.107.027.211.055.313.088l-1.577,6.145a4.1,4.1,0,0,1,1.188-1.024,4.364,4.364,0,0,1,5.947,1.649c.072.129.139.262.2.4l-7.989,4.691a4.857,4.857,0,0,1-.533-2.6A5.06,5.06,0,0,1,262.547,191.864Z" transform="translate(-137.819 -183.363)" fill="#dd1964"/>
      <path id="Path_680" data-name="Path 680" d="M262.547,191.864a4.446,4.446,0,0,1,5.361-3.284c.107.027.211.055.313.088l-1.577,6.145a4.1,4.1,0,0,1,1.188-1.024,4.364,4.364,0,0,1,5.947,1.649c.072.129.139.262.2.4l-7.989,4.691a4.857,4.857,0,0,1-.533-2.6A5.06,5.06,0,0,1,262.547,191.864Z" transform="translate(-137.819 -183.363)" opacity="0.6" style="isolation: isolate"/>
      <path id="Path_681" data-name="Path 681" d="M314.371,226.508a150.451,150.451,0,0,1,16.387,3.155c-6.35,15.568,3.605,39.617,3.605,39.617l-9.4,28.944c6.493,13.294,11.84,19.89,14.052,30.726-5.981,11.676-48.2,22.819-75.689,1.536,0,0,.881-29.559,4.384-46.786-8.993-17.555-7.538-22.717-5.695-28.842,4.281-14.237,12.926-19.706,23.229-29.743l6.145-.655Z" transform="translate(-199.331 -145.616)" fill="#37474f"/>
      <path id="Path_682" data-name="Path 682" d="M292.391,302.081c-5.1-5.224-15.916-6.719-15.916-6.719l9.935-5.654,11.1-26.814a61.474,61.474,0,0,1-6.7-29.518l6.391-1.536c-.778,14.2,5.654,29.723,5.654,29.723l-9.4,28.944c6.494,13.294,11.84,19.89,14.052,30.726-4.1,7.989-25.175,15.732-46.889,12.987C289.708,332.254,297.287,307.14,292.391,302.081Z" transform="translate(-167.806 -137.878)" fill="#263238"/>
      <path id="Path_683" data-name="Path 683" d="M283.538,281.993l-1.188-.123A7.212,7.212,0,0,1,283.538,281.993Z" transform="translate(-188.348 -85.425)" fill="#e6e6e6"/>
      <path id="Path_684" data-name="Path 684" d="M275.093,194.83c-3.523,3.236-7.927,10.242-7.579,30.726.307,17.412,5.695,21.734,8.419,22.983s7.948.533,13.048-.328v7.211s-6.719,7.456-6.309,12.291,9.587,6.78,16.2,2.048a61.862,61.862,0,0,0,12.291-12.393v-21.9s2.991,3.052,8.194-1.536c4.1-3.81,5.654-10.242,2.4-13.724a7.17,7.17,0,0,0-11.656,2.356,66.532,66.532,0,0,1-22.451-6.473A22.225,22.225,0,0,1,275.093,194.83Z" transform="translate(-197.887 -176.681)" fill="#ffbda7"/>
      <path id="Path_685" data-name="Path 685" d="M282.34,208.969a2.048,2.048,0,1,0,2.212-2.048A2.171,2.171,0,0,0,282.34,208.969Z" transform="translate(-191.226 -164.005)" fill="#263238"/>
      <path id="Path_686" data-name="Path 686" d="M290.139,215l-5.469,1.782a2.807,2.807,0,0,0,3.372,2.1c.057-.014.115-.031.172-.047A3.155,3.155,0,0,0,290.139,215Z" transform="translate(-199.823 -155.534)" fill="#f79776"/>
      <path id="Path_687" data-name="Path 687" d="M291.66,205.921l4.978-1.7a2.435,2.435,0,0,0-2.933-1.811,2.012,2.012,0,0,0-.242.07A2.909,2.909,0,0,0,291.66,205.921Z" transform="translate(-220.333 -168.803)" fill="#263238"/>
      <path id="Path_688" data-name="Path 688" d="M277.656,207.42v7.354a3.462,3.462,0,0,1-3.6-3.314c0-.07,0-.139,0-.209A3.809,3.809,0,0,1,277.656,207.42Z" transform="translate(-165.464 -163.481)" fill="#dd1964"/>
      <path id="Path_689" data-name="Path 689" d="M277.656,207.42v7.354a3.462,3.462,0,0,1-3.6-3.314c0-.07,0-.139,0-.209A3.809,3.809,0,0,1,277.656,207.42Z" transform="translate(-165.464 -163.481)" opacity="0.6" style="isolation: isolate"/>
      <path id="Path_690" data-name="Path 690" d="M290.908,208.665a2.233,2.233,0,0,0,2.048,2.4,2.273,2.273,0,1,0-2.042-2.485Z" transform="translate(-217.78 -164.419)" fill="#263238"/>
      <path id="Path_691" data-name="Path 691" d="M294,206.12l.041,14.257-6.637-2.192Z" transform="translate(-209.191 -164.844)" fill="#f79776"/>
      <path id="Path_692" data-name="Path 692" d="M275.5,225.281c5.387-.7,16.387-3.953,18.211-8.5a11.873,11.873,0,0,1-3.913,5.8c-3.318,2.929-14.339,6.145-14.339,6.145Z" transform="translate(-184.407 -153.668)" fill="#f79776"/>
      <path id="Path_693" data-name="Path 693" d="M287.643,261s-13.151,18.682-15.4,21.119-3.81,1.618-6.248.533a69.009,69.009,0,0,0-9.136-2.97c-4.1-1-4.875,2.7-.9,5.346,2.868,1.926,6.145,2.745,4.793,4.322a30.439,30.439,0,0,1-9.587,5.879c-9.71,3.831-8.952,5.756-7.17,8.89,1.557,2.745,6.145,8.644,23.434,1.68,7.17-2.888,17.248-11.062,22-16.387C296.288,281.812,307,268.19,307,268.19Z" transform="translate(-131 -107.306)" fill="#ffbda7"/>
      <path id="Path_694" data-name="Path 694" d="M245.882,226.67c4.752.307,13.7,1.454,24.929,20.1,9.853,16.387,25.114,38.531,27.941,46.458,1.147,3.216-3.318,9.873-9.074,16.695-7.845-.348-14.995-5.777-18.7-10.119a36.542,36.542,0,0,1,3.605-6.575l-23.024-26.261s-8.747-8.009-10.57-18.436C239.02,237.219,239.635,228.329,245.882,226.67Z" transform="translate(-116.975 -143.299)" fill="#455a64"/>
      <path id="Path_695" data-name="Path 695" d="M293.48,243.93l56.762,14.953L365.871,323.1,311.9,307.431Z" transform="translate(-293.48 -125.203)" fill="#dd1964"/>
      <path id="Path_696" data-name="Path 696" d="M293.48,243.93l56.762,14.953L365.871,323.1,311.9,307.431Z" transform="translate(-293.48 -125.203)" opacity="0.25" style="isolation: isolate"/>
      <g id="Group_245" data-name="Group 245" transform="translate(14.626 164.202)" opacity="0.1">
        <path id="Path_697" data-name="Path 697" d="M327.32,266.13a11.206,11.206,0,0,1-10.611,6.35l-.41-1.413Z" transform="translate(-316.3 -266.13)"/>
      </g>
      <g id="Group_246" data-name="Group 246" transform="translate(16.618 125.843)" opacity="0.1">
        <path id="Path_698" data-name="Path 698" d="M309.156,250.489l-.471-2.171c-.266-1.188,3.073-1.25,7.436,0l8.378,2.048c4.363,1.147,8.194,3.032,8.378,4.22l.451,2.171Z" transform="translate(-308.67 -247.404)"/>
      </g>
      <path id="Path_699" data-name="Path 699" d="M308.183,246.439c-.164-.758,1.188-.963,3.011-.451l3.318.922s-.983-4.691,6.35-3.052a11.555,11.555,0,0,1,8.972,6.965l3.523,1c2.048.553,3.728,1.6,3.953,2.335l.43,1.352-29.252-7.7Z" transform="translate(-295.442 -125.643)" fill="#37474f"/>
      <path id="Path_700" data-name="Path 700" d="M312.163,246.521c2.663.656,3.79,1,4.1,2.847s.655,3.646.655,3.646l12.926,3.421s-.635-2.663-.84-3.687.246-1.68,2.315-1.127l.164-.819L311.2,245.62Z" transform="translate(-295.386 -123.431)" fill="#37474f"/>
      <path id="Path_701" data-name="Path 701" d="M309.536,250.579l-.471-2.171c-.266-1.188,3.073-1.25,7.436,0l8.378,2.048c4.363,1.147,8.194,3.032,8.378,4.22l.451,2.171Z" transform="translate(-293.21 -121.466)" fill="#37474f"/>
      <path id="Path_702" data-name="Path 702" d="M319.975,254.648s2.048,7.272,2.6,8.993,6.862,4.855,11.021,6,8.747,2.5,6.76,8.337c-1.8,5.387-8.685,6.616-12.168,6.453s-8.3-3.482-10.242-8.87c-2.4-6.883-1.106-14.216-2.048-18.231S317.885,252.252,319.975,254.648Z" transform="translate(-313.993 -115.293)" fill="#ffbda7"/>
    </g>
    <g id="freepik--character-1--inject-5" transform="translate(439.896 390.08)">
      <path id="Path_703" data-name="Path 703" d="M169.689,257.146c7.784-7.846,10.57-4.793,11.553,3.81a38.2,38.2,0,0,0,2.6,10.508,19.411,19.411,0,0,1,1.454-5.182,3.789,3.789,0,0,1,4.629-2.274c.758.307-.184,2.048,0,5.469.143,4.261,1.536,6.616.533,11.143a7.314,7.314,0,0,0,.758,5c4.1,7.784,17.6,22.164,27.06,32.529l35.95-32.468c12.291-11.062,16.265-16.039,28.125-15.24a32.068,32.068,0,0,0-10.078,6.145c-5.51,4.65-4.2,31.259-4.2,31.259s-40.8,29.252-45.065,32.037c-.615.41-1.25.778-1.864,1.127a10.078,10.078,0,0,1-12.291-2.356c-8.706-9.955-21.406-29.559-28.678-39.739a123.54,123.54,0,0,1-8.87-15.445C164.015,268.986,164.814,262.063,169.689,257.146Z" transform="translate(-165.93 -185.346)" fill="#914f4e"/>
      <path id="Path_704" data-name="Path 704" d="M219.817,261.169a20.487,20.487,0,0,0-16.387,4.1c-7.006,5.326-36.872,32.775-36.872,32.775s-.819,14.523,14.339,23.168L217.5,295.4Z" transform="translate(-104.664 -176.73)" fill="#dd1964"/>
      <path id="Path_705" data-name="Path 705" d="M219.817,261.169a20.487,20.487,0,0,0-16.387,4.1c-7.006,5.326-36.872,32.775-36.872,32.775s-.819,14.523,14.339,23.168L217.5,295.4Z" transform="translate(-104.664 -176.73)" opacity="0.3" style="isolation: isolate"/>
      <rect id="Rectangle_143" data-name="Rectangle 143" width="15.507" height="27.654" transform="translate(150.488 412.105)" fill="#914f4e"/>
      <path id="Path_706" data-name="Path 706" d="M184.265,435.222l-15.507.553L167.98,406.5l16.285-.553Z" transform="translate(-72.042 -24.591)" fill="#914f4e"/>
      <path id="Path_707" data-name="Path 707" d="M221.913,304.175c0,15.425-2.274,139.58-2.274,139.58.348,4.425,4.343,12.618,3.482,29.661-1.168,23.168-2.745,83.986-2.745,83.986a19.727,19.727,0,0,1-17.268.348s-14.667-84.293-17.453-107.235c-2.417-20.034-6.534-87.468-6.534-87.468l-8.4,78.414a96.079,96.079,0,0,1,1.925,25.667c-.737,10.611-5.715,65.9-5.715,65.9a20.485,20.485,0,0,1-17.924,1.434s-8.808-83.269-8.993-93c-.2-11.1,5.162-137.49,5.162-137.49Z" transform="translate(-53.727 -131.51)" fill="#37474f"/>
      <path id="Path_708" data-name="Path 708" d="M164.586,431.742v-2.294c-1.5.676-4.937,14.339-11.082,20.218-4.9,4.65-11.574,10.017-13.274,15.2s9.3,8.358,13.868,7.518c5.305-.983,14.523-4.875,16.818-8.481s3.4-8.952,5.285-11.594,6.145-5.592,7.21-8.665a20.476,20.476,0,0,0-.881-8.48c-.717-2.847-1.5-5.982-2.438-5.715v1.762a12.054,12.054,0,0,1-7.764,2.724C170.076,434.016,164.566,433.545,164.586,431.742Z" transform="translate(-14.099 0.028)" fill="#263238"/>
      <path id="Path_709" data-name="Path 709" d="M202.522,418.62c-.8,0-1.454,1.209-3.237,3.216a34.019,34.019,0,0,1-9.115,6.821c-5.818,3.032-17.1,7.7-22.225,10.1-3.2,1.5-3.032,5.51.266,7.784s11.266,3.933,20.833,1.721c5.2-1.229,12-6.145,16.387-5.961s12.291.2,15.507-2.048,1.905-7.149,1-11.307c-.983-4.568-2.212-11.676-3.646-11.369v1.577c-1.864,2.95-11.492,4.1-15.589,2.048Z" transform="translate(-105.97 -12.414)" fill="#263238"/>
      <path id="Path_710" data-name="Path 710" d="M183.14,339.435a56.846,56.846,0,0,1-21.59-12.905s4.1,8.194,16.551,15.691l-2.643,70.036Z" transform="translate(-57.746 -107.858)" fill="#263238"/>
      <path id="Path_711" data-name="Path 711" d="M209.524,265.086s12.127,1.106,11.266,24.233l-2.683,36.872.246,55.308c-11.389,12.926-61.965,11.983-79.274-1.045,0,0,1.782-65.406,2.95-90.581.84-17.883,4.957-26.9,22.533-28.862l21.631.942Z" transform="translate(-49.409 -176.551)" fill="#dd1964"/>
      <path id="Path_712" data-name="Path 712" d="M170.709,268.92l-2.786,19.419-6.494-.123,7.333,1.147Z" transform="translate(-45.069 -168.257)" opacity="0.3" style="isolation: isolate"/>
      <path id="Path_713" data-name="Path 713" d="M163.076,342.041c-6.289-50.6-20.771-75.792-38.408-78.7l1.25,32.365a285.659,285.659,0,0,1,16.8,53.566c2.315,12.454,5,34.106,4.3,44.738a7.952,7.952,0,0,1-2.253,4.978c-3.482,3.544-4.527,6.616-6.862,10.611-1.844,3.134-3.728,4.24-3.236,5a3.913,3.913,0,0,0,5.408.7,29.383,29.383,0,0,0,5.039-4.527,32.013,32.013,0,0,1-2.54,14.073c-4.1,8.521-3.441,13.008,7.989,10.488,7.169-1.557,12.291-9.115,14.339-26.752a154.461,154.461,0,0,0,.348-19.788C164.469,371.927,164.326,352.16,163.076,342.041Z" transform="translate(35.529 -174.108)" fill="#914f4e"/>
      <path id="Path_714" data-name="Path 714" d="M127.073,262.93c9.156,0,17.514,1.577,24.171,14.339,6.371,12.291,11.266,38.285,13.745,46.786,0,0-13.376,7.907-25.687,7.7l-8.665-30.071S124.778,287.655,127.073,262.93Z" transform="translate(32.121 -174.537)" fill="#dd1964"/>
      <path id="Path_715" data-name="Path 715" d="M127.073,262.93c9.156,0,17.514,1.577,24.171,14.339,6.371,12.291,11.266,38.285,13.745,46.786,0,0-13.376,7.907-25.687,7.7l-8.665-30.071S124.778,287.655,127.073,262.93Z" transform="translate(32.121 -174.537)" opacity="0.3" style="isolation: isolate"/>
      <path id="Path_716" data-name="Path 716" d="M200.471,249.818a23.106,23.106,0,1,1-23.086-24.048A23.6,23.6,0,0,1,200.471,249.818Z" transform="translate(-60.184 -213.497)" fill="#263238"/>
      <path id="Path_717" data-name="Path 717" d="M156.43,243.38s-3.544,17.33-4.957,20.177a7.579,7.579,0,0,1-4.363,3.667l.266-12.291Z" transform="translate(-1.456 -195.034)" fill="#263238"/>
      <path id="Path_718" data-name="Path 718" d="M148.039,231.272s2.622-.533,5.244,3.564c2.315,3.605,2.827,11.717-.8,21.242l-6.657.8Z" transform="translate(2.49 -207.753)" fill="#263238"/>
      <path id="Path_719" data-name="Path 719" d="M191.422,262.387c1.331.84,3.237-1.844,4.9-3.626s7.026-4.261,9.71,1.639-2.356,13.95-6.6,15.322c-7.313,2.4-8.4-2.5-8.4-2.5l-.574,27.469c-9.689,14.994-31.669,14.462-23.762-.737v-8.419a44.7,44.7,0,0,1-9.853.533c-5.367-.86-8.747-5.285-10.386-11.348-2.622-9.73-3.605-17.576-1.393-36.708,2.438-20.976,25.851-21.2,38.51-12.905S191.422,262.387,191.422,262.387Z" transform="translate(-45.113 -213.243)" fill="#914f4e"/>
      <path id="Path_720" data-name="Path 720" d="M169.525,262.029a35.122,35.122,0,0,1-9.484,11.9,27.083,27.083,0,0,1-11.492,4.9,25.51,25.51,0,0,1,8.194,9.1c2.417,5.346,19.5-9.341,19.337-19.767,0,0-2.683-10.468-6.35-11.143Z" transform="translate(-24.056 -180.744)" fill="#263238"/>
      <path id="Path_721" data-name="Path 721" d="M173.608,277.788s-5.264-2.622-2.909-11.369V258l-2.315.307a20.331,20.331,0,0,0-5.531,9.607c-.533,2.4-1.844,14.523.471,16.92S168.9,278.484,173.608,277.788Z" transform="translate(-49.135 -179.706)" fill="#263238"/>
      <path id="Path_722" data-name="Path 722" d="M201.574,271.279c.676,0,3.237-4.4,4.9-5.981,2.315-2.192-.676-22-.676-22a9.708,9.708,0,0,0-2.212-10.017c-3.175-3.626-8.46-4.1-17.473-5.49a94.125,94.125,0,0,1-10.693-1.946,62.882,62.882,0,0,1-10.693-5.2,5.365,5.365,0,0,0-3.605-.819,3.5,3.5,0,0,0-2.315,2.622,10.772,10.772,0,0,0,0,3.626,5.879,5.879,0,0,0-8.3.287,8.481,8.481,0,0,0-1.311,8.767,15.691,15.691,0,0,0,6.145,6.9c11.328,7.661,24.7,5.531,37.4,4.1a3.164,3.164,0,0,1,1.8.123c2.048.9,2.417,7.067,2.765,8.849C198.338,261.037,199.321,271.238,201.574,271.279Z" transform="translate(-55.265 -219.779)" fill="#263238"/>
      <path id="Path_723" data-name="Path 723" d="M145.84,235.425l8.071-4.527a4.362,4.362,0,0,0-5.746-2.247,4.026,4.026,0,0,0-.4.2A5.143,5.143,0,0,0,145.84,235.425Z" transform="translate(4.689 -210.862)" fill="#263238"/>
      <path id="Path_724" data-name="Path 724" d="M152.67,263.536s11.983-2.52,16.183-4.834a14.055,14.055,0,0,0,5.8-5.981,19.9,19.9,0,0,1-3.3,7.047c-3.052,4.1-18.682,7.108-18.682,7.108Z" transform="translate(-31.065 -185.242)" fill="#783736"/>
      <path id="Path_725" data-name="Path 725" d="M158.941,243.139a2.5,2.5,0,0,0,2.393,2.6h0a2.54,2.54,0,0,0,2.4-2.622,2.4,2.4,0,1,0-4.793-.008v.029Z" transform="translate(-32.994 -197.825)" fill="#263238"/>
      <path id="Path_726" data-name="Path 726" d="M156.587,237.674l5.142,2.95a3.277,3.277,0,0,0-1.188-4.261,2.828,2.828,0,0,0-3.845,1.094C156.657,237.529,156.62,237.6,156.587,237.674Z" transform="translate(-26.522 -202.766)" fill="#263238"/>
      <path id="Path_727" data-name="Path 727" d="M168.271,250.69l-5.49,2.151a2.846,2.846,0,0,0,3.521,1.952c.07-.02.139-.043.207-.068A3.236,3.236,0,0,0,168.271,250.69Z" transform="translate(-45.58 -187.37)" fill="#783736"/>
      <path id="Path_728" data-name="Path 728" d="M170.587,240.5,176,237.874a2.765,2.765,0,0,0-3.542-1.659,2.548,2.548,0,0,0-.289.123A3.318,3.318,0,0,0,170.587,240.5Z" transform="translate(-68.647 -202.72)" fill="#263238"/>
      <path id="Path_729" data-name="Path 729" d="M168.925,243.221a2.417,2.417,0,0,0,4.814.445,2.3,2.3,0,0,0,0-.445,2.479,2.479,0,0,0-2.372-2.581h-.025A2.518,2.518,0,0,0,168.925,243.221Z" transform="translate(-63.441 -197.907)" fill="#263238"/>
      <path id="Path_730" data-name="Path 730" d="M173.51,240.99l-.266,15.179L164.62,254.2Z" transform="translate(-54.404 -197.54)" fill="#783736"/>
      <path id="Path_731" data-name="Path 731" d="M163.377,239.469a6,6,0,1,1,0,12h-1.086a6,6,0,0,1,0-12Zm7.108,6a7.169,7.169,0,0,0-7.088-7.231h-1.106a7.231,7.231,0,0,0,0,14.339h1.086A7.149,7.149,0,0,0,170.485,245.471Z" transform="translate(-33.722 -200.423)" fill="#263238"/>
      <path id="Path_732" data-name="Path 732" d="M173.917,239.469a6,6,0,0,1,0,12h-1.086a6,6,0,0,1,0-12Zm7.088,6a7.169,7.169,0,0,0-7.088-7.231h-1.086a7.231,7.231,0,0,0,0,14.339h1.086a7.15,7.15,0,0,0,7.047-7.108Z" transform="translate(-65.831 -200.423)" fill="#263238"/>
      <path id="Path_733" data-name="Path 733" d="M170.888,242.7a4.693,4.693,0,0,0-3.749-1.946,3.79,3.79,0,0,0-3.257,1.27l-.963-.737a4.829,4.829,0,0,1,4.281-1.741,5.78,5.78,0,0,1,4.711,2.52Z" transform="translate(-49.324 -199.086)" fill="#263238"/>
      <rect id="Rectangle_144" data-name="Rectangle 144" width="12.209" height="1.209" transform="translate(136.108 43.552)" fill="#263238"/>
    </g>
  </g>
</svg>
