<?xml version="1.0" encoding="utf-8"?>
<!-- Generator: Adobe Illustrator 25.2.0, SVG Export Plug-In . SVG Version: 6.00 Build 0)  -->
<svg version="1.1" id="Layer_1" xmlns="http://www.w3.org/2000/svg" xmlns:xlink="http://www.w3.org/1999/xlink" x="0px" y="0px"
	 viewBox="0 0 1920 1080" style="enable-background:new 0 0 1920 1080;" xml:space="preserve">
<style type="text/css">
	.st0{opacity:0.5;fill:#F6FBFF;}
	.st1{fill:#FFCD76;}
	.st2{fill:#A7C7FF;}
	.st3{fill:#FFBF65;}
	.st4{fill:#73B471;}
	.st5{fill:#5E9F5C;}
	.st6{fill:#2C5CA8;}
	.st7{fill:#FFF2E7;}
	.st8{fill:#F89B31;}
	.st9{fill:#FDDBBA;}
	.st10{fill:#F4CBAA;}
	.st11{fill:#F28018;}
	.st12{fill:#25468F;}
	.st13{fill:#A9C2FF;}
	.st14{fill:#F6FBFF;}
	.st15{fill:#F4BB6B;}
	.st16{fill:#D29F7E;}
	.st17{fill:#FFE5D4;}
	.st18{opacity:0.6;fill:#F6FBFF;}
	.st19{fill:#78A2FA;}
	.st20{fill:#FF912B;}
	.st21{fill:#FFFFFF;}
	.st22{fill:#FFAE73;}
	.st23{fill:#2A3967;}
	.st24{fill:#E9AC55;}
	.st25{fill:#1E3865;}
	.st26{fill:#F99352;}
	.st27{fill:#FC7600;}
	.st28{fill:#FFF1E7;}
	.st29{fill:#9BC8FF;}
	.st30{fill:#65A3FF;}
</style>
<g>
	<path class="st0" d="M456.7,534.3c0,0,11.1-31.1,37.7-27.7c0,0,38.6-51.9,79.8-6.9c0,0,43.8-11.1,76.2,9.6
		c21.6,13.9,28.8,28.4,28.8,28.4L456.7,534.3z"/>
	<path class="st0" d="M295.6,425.6c0,0,13.5-37.7,45.7-33.5c0,0,46.8-62.8,96.7-8.4c0,0,53.1-13.5,92.3,11.7
		c26.2,16.8,34.8,34.4,34.8,34.4L295.6,425.6z"/>
	<path class="st0" d="M747.2,393.2c0,0,17.9-33,60.7-29.4c0,0,62.1-55,128.4-7.3c0,0,70.4-11.8,122.6,10.2
		c34.8,14.7,46.3,30.1,46.3,30.1L747.2,393.2z"/>
	<path class="st1" d="M1337.7,1081.4H760.3l-240.7-0.2H84.3c0,0-0.3-0.4-0.7-1.3c-0.3-0.6-0.8-1.5-1.4-2.5l-0.2-0.3c0,0,0,0,0-0.2
		c0,0-0.2-0.2-0.2-0.3c-1-1.3-1.7-2.7-2.6-4.5c-0.5-0.8-1-1.8-1.7-2.7c0-0.2,0-0.2,0-0.3c-0.2-0.2-0.2-0.2-0.2-0.2
		c-3.3-5.7-7.4-13.1-12.1-22.1c-0.4-0.8-0.9-1.6-1.3-2.5c-2.4-6.8-4.9-14.4-7.7-22.7c-6.5-20.3-14.1-45-21.4-73
		c-2.9-11-5.8-22.5-8.5-34.5c-1.6-6.9-3.2-14.1-4.7-21.4c-0.4-2.1-0.9-4.3-1.3-6.4c-2.8-13.6-5.5-27.7-7.9-42
		c-4.7-28.1-8.4-57.3-10.5-87c187,9.6,547.4,35,818.5,95.5c382.5,85.4,477.1,99.2,639.1,114.6
		C1549.9,976.1,1446.4,1033,1337.7,1081.4z"/>
	<g>
		<polygon class="st2" points="1010.2,708.2 996.6,973.3 1010.2,973.3 1016.3,708.2 		"/>
		<polygon class="st2" points="1011.3,684.2 1014.7,700.5 1076.4,627.3 		"/>
		<polygon class="st2" points="1033.4,703.8 1016.8,702.6 1069.9,782.2 		"/>
		<polygon class="st2" points="999.4,716.8 1009.1,703.2 913.5,707.5 		"/>
		
			<ellipse transform="matrix(0.9239 -0.3827 0.3827 0.9239 -191.7598 441.0827)" class="st2" cx="1012.9" cy="702.6" rx="7.5" ry="7.5"/>
	</g>
	<path class="st3" d="M969.8,935.9c0,0-494.8-135.7-650.8-149.3s-6.6,18.3-6.6,18.3S735.9,916.2,835,962.1
		C934.1,1008.1,969.8,935.9,969.8,935.9z"/>
	<path class="st3" d="M818.9,1044.1c0,0-427.8-205.3-567.6-243.8c-139.7-38.5-9,15.3-9,15.3s366.9,171.4,449.5,229.4
		C774.4,1103.1,818.9,1044.1,818.9,1044.1z"/>
	<g>
		<polygon class="st2" points="663.1,757.8 652,974.9 663.1,974.9 668.1,757.8 		"/>
		<polygon class="st2" points="664,738.2 666.8,751.6 717.3,691.6 		"/>
		<polygon class="st2" points="682.1,754.2 668.5,753.2 712,818.4 		"/>
		<polygon class="st2" points="654.3,764.9 662.2,753.8 583.9,757.3 		"/>
		<path class="st2" d="M659.2,753.2c0-3.4,2.7-6.1,6.1-6.1c3.4,0,6.1,2.7,6.1,6.1c0,3.4-2.7,6.1-6.1,6.1
			C661.9,759.3,659.2,756.6,659.2,753.2z"/>
	</g>
	<g>
		<path class="st4" d="M1981,920.7c-1.1,13.2-2.9,27-5.4,41.3c-0.1,0.3-0.1,0.6-0.2,1c-1.3,7.3-2.8,14.8-4.5,22.3
			c-1.6,7.8-3.6,16.1-5.9,24.4c-1,4-2.2,8.1-3.3,12.1c-3.6,12.8-7.8,26-12.8,39.6c-1.6,4.5-3.1,9.2-4.8,13.7
			c-0.4,1.4-0.9,2.8-1.5,4.2H81.4c-0.3-0.9-0.6-2-1-3.5l-0.2-0.4c0,0,0,0,0-0.2c0,0-0.2-0.2-0.2-0.5c-0.7-1.8-1.2-3.8-1.9-6.3
			c-0.3-1.1-0.7-2.5-1.2-3.8c0-0.2,0-0.2,0-0.5c-0.2-0.2-0.2-0.2-0.2-0.2c-2.4-8-5.3-18.4-8.7-31c-2.8-10.4-5.9-22.2-9.2-35.3
			c-7.1-28.4-15.2-63.1-23.1-102.3c-3.1-15.4-6.2-31.6-9.2-48.4c-1.7-9.7-3.5-19.8-5.1-30c170.6,60,609.4,194.8,922.8,119.4
			c56.3-13.5,118.4-25.7,183.6-36.5c14.6-2.4,29.3-4.8,44.1-7.1c169-26.2,353.8-44.3,508.7-56.8h0c1.8-0.1,3.6-0.3,5.3-0.4
			c1.7-0.1,3.5-0.3,5.2-0.4c2.1-0.2,4.2-0.3,6.3-0.5c4.4-0.3,8.7-0.7,13.1-1c0.6,0,1.1-0.1,1.7-0.1c3.3-0.3,6.6-0.5,9.9-0.8
			c12.2-0.9,24.1-1.8,35.8-2.7c2.6-0.2,5.3-0.4,7.8-0.6c2.9-0.2,5.8-0.4,8.6-0.6c3.8-0.3,7.7-0.6,11.4-0.8c2.3-0.2,4.7-0.3,7-0.5
			c4.1-0.3,8.2-0.6,12.3-0.9c2-0.1,4-0.3,6-0.4c2.7-0.2,5.4-0.4,8.1-0.6c0.2,0,0.4,0,0.7,0c4.4-0.3,8.8-0.6,13.1-0.9
			c1.4-0.1,2.7-0.2,4.1-0.3c0.1,0,0.1,0,0.2,0c0.1,0,0.1,0,0.1,0c34.9-2.4,66.3-4.4,93.1-6.1c4.7,5.3,9.2,10.6,13.6,16.2
			c2.2,2.9,4.3,5.8,6.3,8.7c6,8.7,11.4,17.9,15.9,27.6c3.1,6.7,5.9,13.7,8.2,21C1977.6,900.8,1979.7,910.5,1981,920.7z"/>
		<path class="st5" d="M1171.9,892.8c-44.2,23-139.6,81.9-198.2,186.6c-0.4,0.7-0.8,1.5-1.2,2.2l-44.6-2.2l-13.9-0.7
			c1.3-3.5,63.5-90.7,213.8-178.8C1142.4,897.4,1157.1,895.1,1171.9,892.8z"/>
		<path class="st5" d="M1007.5,1078.8c1.4-3.7,73.7-105.4,252.2-197.5l14.1,10.2c0,0-137.3,55.9-211,190L1007.5,1078.8z"/>
		<path class="st5" d="M1136.5,1078.8c1.4-3.7,73.7-105.4,252.2-197.5l14.1,10.2c0,0-137.3,55.9-211,190L1136.5,1078.8z"/>
		<path class="st5" d="M1837.5,824.3c0,0-250.2,23.6-406.4,172.5l-98.6-26.1c2.7-3.7,109.7-80.8,348-134.7h0
			C1737.8,831.3,1790.8,827.5,1837.5,824.3L1837.5,824.3z"/>
		<path class="st5" d="M1966.5,870.6c-112.4,25.1-292.3,82.6-426.8,208.7h-86.1l-63.3-17c4-5.7,175.5-138.6,560.3-219.3
			C1956.6,851.8,1961.9,860.9,1966.5,870.6z"/>
	</g>
	<g>
		<g>
			<path class="st5" d="M991.1,1076.9l1.2-0.3c-0.5-2.1-1.7-44.8,11.7-69.7l-1.1-0.6C989.4,1031.6,990.6,1075.2,991.1,1076.9z"/>
		</g>
		<g>
			<g>
				<path class="st1" d="M1006.3,984.1c0,0,4.2,8.8,1.6,12.8C1005.4,1000.8,1003.3,989.5,1006.3,984.1z"/>
				<path class="st1" d="M1008.9,1021.4c0,0-4.2-8.8-1.6-12.8C1009.8,1004.6,1012,1015.9,1008.9,1021.4z"/>
			</g>
			<g>
				<path class="st1" d="M997.9,986.8c0,0,7.8,5.9,7.4,10.6C1004.8,1002.1,997.7,993,997.9,986.8z"/>
				<path class="st1" d="M1017.4,1018.7c0,0-7.8-5.9-7.4-10.6C1010.5,1003.4,1017.5,1012.4,1017.4,1018.7z"/>
			</g>
			<g>
				<path class="st1" d="M991.7,993.1c0,0,9.6,1.7,11.4,6.1C1004.8,1003.6,994.4,998.8,991.7,993.1z"/>
				<path class="st1" d="M1023.5,1012.7c0,0-9.6-1.7-11.4-6.1C1010.4,1002.2,1020.9,1007.1,1023.5,1012.7z"/>
			</g>
			<g>
				<path class="st1" d="M989.7,1008.6c0,0,7.7-6,12.1-4.4C1006.3,1005.9,995.7,1010.4,989.7,1008.6z"/>
				<path class="st1" d="M1026.3,1001.2c0,0-8.6,4.6-12.7,2.2C1009.5,1001,1020.7,998.4,1026.3,1001.2z"/>
			</g>
			<g>
				<path class="st1" d="M993.9,1015.4c0,0,4.8-8.5,9.5-8.7C1008.2,1006.5,1000.2,1014.7,993.9,1015.4z"/>
				<path class="st1" d="M1022.9,991.7c0,0-4.8,8.5-9.5,8.7C1008.7,1000.6,1016.7,992.4,1022.9,991.7z"/>
			</g>
			<g>
				<path class="st1" d="M1000.3,1020.4c0,0,0.6-9.8,4.8-12C1009.2,1006.2,1005.6,1017.1,1000.3,1020.4z"/>
				<path class="st1" d="M1016.2,986.6c0,0-0.6,9.8-4.8,12C1007.2,1000.7,1010.8,989.8,1016.2,986.6z"/>
			</g>
			<path class="st1" d="M989.2,1002.3c0,0,9.2-3.5,12.9-0.6C1005.8,1004.6,994.4,1005.8,989.2,1002.3z"/>
			<path class="st6" d="M1014.4,1002.9c0-3.8-3.1-6.8-6.8-6.8c-3.8,0-6.8,3.1-6.8,6.8c0,3.8,3.1,6.8,6.8,6.8
				C1011.4,1009.7,1014.4,1006.7,1014.4,1002.9z"/>
		</g>
		<path class="st5" d="M993.4,1037.6c0,0,5.9-6,14.1-6.4c8.2-0.4,10.7,0,10.7,0s-5,5.3-11,6.4
			C1001.2,1038.8,993.4,1037.6,993.4,1037.6z"/>
		<path class="st5" d="M994.7,1031.8c-1-0.9-1.8-8.3-8.2-10.1c-6.3-1.8-10.8-2.2-10.8-2.2s5.5,9.6,9.5,11
			C989.2,1031.9,994.7,1031.8,994.7,1031.8z"/>
		<g>
			<path class="st5" d="M959,1076.9l1.4-0.4c-0.6-2.5-2-52.7,13.8-82l-1.3-0.7C957,1023.6,958.5,1074.9,959,1076.9z"/>
		</g>
		<g>
			<g>
				<path class="st1" d="M976.9,967.7c0,0,5,10.4,1.9,15.1C975.9,987.4,973.4,974.1,976.9,967.7z"/>
				<path class="st1" d="M980,1011.6c0,0-5-10.4-1.9-15.1C981.1,991.8,983.6,1005.1,980,1011.6z"/>
			</g>
			<g>
				<path class="st1" d="M967,970.8c0,0,9.2,7,8.7,12.5C975.1,988.8,966.8,978.2,967,970.8z"/>
				<path class="st1" d="M990,1008.4c0,0-9.2-7-8.7-12.5C981.8,990.4,990.2,1001,990,1008.4z"/>
			</g>
			<g>
				<path class="st1" d="M959.7,978.3c0,0,11.3,2,13.4,7.2C975.2,990.7,962.9,985,959.7,978.3z"/>
				<path class="st1" d="M997.2,1001.4c0,0-11.3-2-13.4-7.2C981.8,989,994.1,994.7,997.2,1001.4z"/>
			</g>
			<g>
				<path class="st1" d="M957.4,996.6c0,0,9.1-7.1,14.3-5.1S964.4,998.7,957.4,996.6z"/>
				<path class="st1" d="M1000.4,987.8c0,0-10.2,5.4-15,2.6C980.7,987.6,993.9,984.5,1000.4,987.8z"/>
			</g>
			<g>
				<path class="st1" d="M962.4,1004.5c0,0,5.7-10,11.2-10.3C979.2,994,969.7,1003.7,962.4,1004.5z"/>
				<path class="st1" d="M996.5,976.7c0,0-5.7,10-11.2,10.3C979.8,987.2,989.2,977.5,996.5,976.7z"/>
			</g>
			<g>
				<path class="st1" d="M969.8,1010.4c0,0,0.7-11.5,5.7-14.1C980.4,993.7,976.1,1006.5,969.8,1010.4z"/>
				<path class="st1" d="M988.5,970.6c0,0-0.7,11.5-5.7,14.1C978,987.3,982.3,974.4,988.5,970.6z"/>
			</g>
			<path class="st1" d="M956.8,989.1c0,0,10.8-4.1,15.2-0.7C976.4,991.8,962.9,993.2,956.8,989.1z"/>
			<path class="st6" d="M986.5,989.8c0-4.4-3.6-8-8-8c-4.4,0-8,3.6-8,8c0,4.4,3.6,8,8,8C982.9,997.9,986.5,994.3,986.5,989.8z"/>
		</g>
		<path class="st5" d="M959.6,1050.9c0,0,7-7.1,16.6-7.6c9.6-0.5,12.6,0,12.6,0s-5.9,6.3-13,7.6
			C968.7,1052.3,959.6,1050.9,959.6,1050.9z"/>
		<path class="st5" d="M961,1044.1c-1.2-1.1-2.1-9.7-9.6-11.9c-7.5-2.2-12.8-2.6-12.8-2.6s6.5,11.2,11.2,12.9
			C954.5,1044.2,961,1044.1,961,1044.1z"/>
		<g>
			<path class="st5" d="M997.7,1076.9l0.8-0.2c-0.3-1.5-1.2-31.6,8.3-49.2l-0.8-0.4C996.5,1044.9,997.4,1075.7,997.7,1076.9z"/>
		</g>
		<g>
			<g>
				<path class="st1" d="M1008.4,1011.4c0,0,3,6.2,1.2,9C1007.8,1023.2,1006.3,1015.2,1008.4,1011.4z"/>
				<path class="st1" d="M1010.3,1037.7c0,0-3-6.2-1.2-9C1010.9,1025.9,1012.4,1033.9,1010.3,1037.7z"/>
			</g>
			<g>
				<path class="st1" d="M1002.5,1013.3c0,0,5.5,4.2,5.2,7.5C1007.4,1024.1,1002.4,1017.7,1002.5,1013.3z"/>
				<path class="st1" d="M1016.3,1035.8c0,0-5.5-4.2-5.2-7.5S1016.4,1031.4,1016.3,1035.8z"/>
			</g>
			<g>
				<path class="st1" d="M998.1,1017.8c0,0,6.8,1.2,8,4.3C1007.4,1025.2,1000,1021.8,998.1,1017.8z"/>
				<path class="st1" d="M1020.6,1031.6c0,0-6.8-1.2-8-4.3C1011.4,1024.2,1018.7,1027.6,1020.6,1031.6z"/>
			</g>
			<g>
				<path class="st1" d="M996.7,1028.7c0,0,5.5-4.3,8.6-3.1C1008.4,1026.8,1000.9,1030,996.7,1028.7z"/>
				<path class="st1" d="M1022.5,1023.4c0,0-6.1,3.3-9,1.6C1010.7,1023.3,1018.6,1021.5,1022.5,1023.4z"/>
			</g>
			<g>
				<path class="st1" d="M999.7,1033.5c0,0,3.4-6,6.7-6.2C1009.8,1027.2,1004.1,1033,999.7,1033.5z"/>
				<path class="st1" d="M1020.2,1016.8c0,0-3.4,6-6.7,6.2C1010.1,1023.1,1015.8,1017.3,1020.2,1016.8z"/>
			</g>
			<g>
				<path class="st1" d="M1004.2,1037c0,0,0.4-6.9,3.4-8.5C1010.5,1027,1007.9,1034.7,1004.2,1037z"/>
				<path class="st1" d="M1015.4,1013.1c0,0-0.4,6.9-3.4,8.5C1009.1,1023.1,1011.7,1015.4,1015.4,1013.1z"/>
			</g>
			<path class="st1" d="M996.4,1024.3c0,0,6.5-2.5,9.1-0.4C1008.1,1025.9,1000,1026.7,996.4,1024.3z"/>
			<path class="st6" d="M1014.2,1024.7c0-2.7-2.2-4.8-4.8-4.8c-2.7,0-4.8,2.2-4.8,4.8c0,2.7,2.2,4.8,4.8,4.8
				C1012,1029.5,1014.2,1027.3,1014.2,1024.7z"/>
		</g>
		<path class="st5" d="M998,1061.3c0,0,4.2-4.3,10-4.5c5.8-0.3,7.6,0,7.6,0s-3.6,3.8-7.8,4.5C1003.5,1062.1,998,1061.3,998,1061.3z"
			/>
		<path class="st5" d="M998.9,1057.2c-0.7-0.6-1.3-5.8-5.8-7.1c-4.5-1.3-7.7-1.6-7.7-1.6s3.9,6.7,6.7,7.8
			C995,1057.3,998.9,1057.2,998.9,1057.2z"/>
		<g>
			<path class="st5" d="M1044.3,1076.9l1.4-0.4c-0.6-2.5-2-52.7,13.8-82l-1.3-0.7C1042.3,1023.6,1043.8,1074.9,1044.3,1076.9z"/>
		</g>
		<g>
			<g>
				<path class="st1" d="M1062.2,967.7c0,0,5,10.4,1.9,15.1C1061.1,987.4,1058.7,974.1,1062.2,967.7z"/>
				<path class="st1" d="M1065.3,1011.6c0,0-5-10.4-1.9-15.1C1066.4,991.8,1068.9,1005.1,1065.3,1011.6z"/>
			</g>
			<g>
				<path class="st1" d="M1052.3,970.8c0,0,9.2,7,8.7,12.5C1060.4,988.8,1052.1,978.2,1052.3,970.8z"/>
				<path class="st1" d="M1075.3,1008.4c0,0-9.2-7-8.7-12.5C1067.1,990.4,1075.5,1001,1075.3,1008.4z"/>
			</g>
			<g>
				<path class="st1" d="M1045,978.3c0,0,11.3,2,13.4,7.2C1060.4,990.7,1048.2,985,1045,978.3z"/>
				<path class="st1" d="M1082.5,1001.4c0,0-11.3-2-13.4-7.2C1067.1,989,1079.4,994.7,1082.5,1001.4z"/>
			</g>
			<g>
				<path class="st1" d="M1042.7,996.6c0,0,9.1-7.1,14.3-5.1C1062.2,993.4,1049.7,998.7,1042.7,996.6z"/>
				<path class="st1" d="M1085.7,987.8c0,0-10.2,5.4-15,2.6C1066,987.6,1079.2,984.5,1085.7,987.8z"/>
			</g>
			<g>
				<path class="st1" d="M1047.7,1004.5c0,0,5.7-10,11.2-10.3C1064.4,994,1055,1003.7,1047.7,1004.5z"/>
				<path class="st1" d="M1081.8,976.7c0,0-5.7,10-11.2,10.3C1065,987.2,1074.5,977.5,1081.8,976.7z"/>
			</g>
			<g>
				<path class="st1" d="M1055.1,1010.4c0,0,0.7-11.5,5.7-14.1C1065.7,993.7,1061.4,1006.5,1055.1,1010.4z"/>
				<path class="st1" d="M1073.8,970.6c0,0-0.7,11.5-5.7,14.1C1063.3,987.3,1067.6,974.4,1073.8,970.6z"/>
			</g>
			<path class="st1" d="M1042.1,989.1c0,0,10.8-4.1,15.2-0.7C1061.7,991.8,1048.2,993.2,1042.1,989.1z"/>
			<circle class="st6" cx="1063.8" cy="989.8" r="8"/>
		</g>
		<path class="st5" d="M1047.1,1030.7c0,0,7-7.1,16.6-7.6c9.6-0.5,12.6,0,12.6,0s-5.9,6.3-13,7.6
			C1056.2,1032,1047.1,1030.7,1047.1,1030.7z"/>
		<path class="st5" d="M1048.5,1023.8c-1.2-1.1-2.1-9.7-9.6-11.9c-7.5-2.2-12.8-2.6-12.8-2.6s6.5,11.2,11.2,12.9
			C1042.1,1023.9,1048.5,1023.8,1048.5,1023.8z"/>
		<g>
			<path class="st5" d="M1018.5,1076.9l1.4-0.4c-0.6-2.7-2-57,13.8-88.7l-1.3-0.7C1016.5,1019.2,1018,1074.7,1018.5,1076.9z"/>
		</g>
		<g>
			<g>
				<path class="st1" d="M1036.4,958.7c0,0,5,11.3,1.9,16.3C1035.3,980.1,1032.8,965.7,1036.4,958.7z"/>
				<path class="st1" d="M1039.5,1006.2c0,0-5-11.3-1.9-16.3C1040.6,984.9,1043.1,999.3,1039.5,1006.2z"/>
			</g>
			<g>
				<path class="st1" d="M1026.5,962.1c0,0,9.2,7.5,8.7,13.5C1034.6,981.6,1026.3,970.1,1026.5,962.1z"/>
				<path class="st1" d="M1049.4,1002.8c0,0-9.2-7.5-8.7-13.5C1041.3,983.3,1049.6,994.8,1049.4,1002.8z"/>
			</g>
			<g>
				<path class="st1" d="M1019.2,970.2c0,0,11.3,2.2,13.4,7.8C1034.6,983.6,1022.3,977.4,1019.2,970.2z"/>
				<path class="st1" d="M1056.7,995.2c0,0-11.3-2.2-13.4-7.8C1041.3,981.8,1053.6,988,1056.7,995.2z"/>
			</g>
			<g>
				<path class="st1" d="M1016.8,990c0,0,9.1-7.7,14.3-5.6C1036.3,986.5,1023.9,992.3,1016.8,990z"/>
				<path class="st1" d="M1059.9,980.5c0,0-10.2,5.9-15,2.8C1040.1,980.2,1053.3,976.9,1059.9,980.5z"/>
			</g>
			<g>
				<path class="st1" d="M1021.9,998.5c0,0,5.7-10.9,11.2-11.1C1038.6,987.2,1029.2,997.7,1021.9,998.5z"/>
				<path class="st1" d="M1056,968.5c0,0-5.7,10.9-11.2,11.1C1039.2,979.8,1048.7,969.3,1056,968.5z"/>
			</g>
			<g>
				<path class="st1" d="M1029.3,1005c0,0,0.7-12.4,5.7-15.3C1039.9,986.9,1035.6,1000.8,1029.3,1005z"/>
				<path class="st1" d="M1048,961.9c0,0-0.7,12.4-5.7,15.3C1037.4,979.9,1041.8,966,1048,961.9z"/>
			</g>
			<path class="st1" d="M1016.3,982c0,0,10.8-4.5,15.2-0.8C1035.8,984.8,1022.4,986.4,1016.3,982z"/>
			<path class="st6" d="M1046,982.7c0-4.8-3.6-8.7-8-8.7c-4.4,0-8,3.9-8,8.7c0,4.8,3.6,8.7,8,8.7
				C1042.4,991.4,1046,987.5,1046,982.7z"/>
		</g>
		<path class="st5" d="M1019,1048.8c0,0,7-7.7,16.6-8.2c9.6-0.5,12.6,0,12.6,0s-5.9,6.8-13,8.2
			C1028.2,1050.2,1019,1048.8,1019,1048.8z"/>
		<path class="st5" d="M1020.5,1041.4c-1.2-1.1-2.1-10.5-9.6-12.9c-7.5-2.3-12.8-2.8-12.8-2.8s6.5,12.2,11.2,14
			C1014,1041.5,1020.5,1041.4,1020.5,1041.4z"/>
		<g>
			<path class="st5" d="M1052.1,1076.9l1-0.3c-0.4-1.8-1.4-37.2,9.7-57.9l-0.9-0.5C1050.7,1039.2,1051.7,1075.5,1052.1,1076.9z"/>
		</g>
		<g>
			<g>
				<path class="st1" d="M1064.8,999.8c0,0,3.5,7.3,1.4,10.6C1064,1013.7,1062.2,1004.3,1064.8,999.8z"/>
				<path class="st1" d="M1066.9,1030.8c0,0-3.5-7.3-1.4-10.6C1067.7,1016.8,1069.5,1026.2,1066.9,1030.8z"/>
			</g>
			<g>
				<path class="st1" d="M1057.7,1002c0,0,6.5,4.9,6.1,8.8C1063.5,1014.7,1057.6,1007.2,1057.7,1002z"/>
				<path class="st1" d="M1074,1028.5c0,0-6.5-4.9-6.1-8.8C1068.2,1015.8,1074.1,1023.3,1074,1028.5z"/>
			</g>
			<g>
				<path class="st1" d="M1052.6,1007.3c0,0,8,1.4,9.4,5.1C1063.5,1016,1054.8,1012,1052.6,1007.3z"/>
				<path class="st1" d="M1079.1,1023.6c0,0-8-1.4-9.4-5.1C1068.2,1014.8,1076.9,1018.9,1079.1,1023.6z"/>
			</g>
			<g>
				<path class="st1" d="M1050.9,1020.2c0,0,6.4-5,10.1-3.6C1064.7,1017.9,1055.9,1021.7,1050.9,1020.2z"/>
				<path class="st1" d="M1081.3,1014c0,0-7.2,3.8-10.6,1.8C1067.4,1013.8,1076.7,1011.7,1081.3,1014z"/>
			</g>
			<g>
				<path class="st1" d="M1054.5,1025.8c0,0,4-7.1,7.9-7.2C1066.3,1018.4,1059.6,1025.2,1054.5,1025.8z"/>
				<path class="st1" d="M1078.6,1006.1c0,0-4,7.1-7.9,7.2C1066.7,1013.5,1073.4,1006.7,1078.6,1006.1z"/>
			</g>
			<g>
				<path class="st1" d="M1059.7,1030c0,0,0.5-8.1,4-10C1067.2,1018.2,1064.2,1027.2,1059.7,1030z"/>
				<path class="st1" d="M1072.9,1001.8c0,0-0.5,8.1-4,10C1065.5,1013.6,1068.5,1004.6,1072.9,1001.8z"/>
			</g>
			<path class="st1" d="M1050.5,1014.9c0,0,7.6-2.9,10.7-0.5C1064.4,1016.8,1054.9,1017.8,1050.5,1014.9z"/>
			<path class="st6" d="M1071.5,1015.4c0-3.1-2.5-5.7-5.7-5.7c-3.1,0-5.7,2.5-5.7,5.7c0,3.1,2.5,5.7,5.7,5.7
				C1069,1021.1,1071.5,1018.6,1071.5,1015.4z"/>
		</g>
		<path class="st5" d="M1052.5,1058.6c0,0,4.9-5,11.7-5.4c6.8-0.3,8.9,0,8.9,0s-4.2,4.4-9.2,5.4
			C1058.9,1059.5,1052.5,1058.6,1052.5,1058.6z"/>
		<path class="st5" d="M1053.5,1053.7c-0.9-0.7-1.5-6.9-6.8-8.4c-5.3-1.5-9-1.8-9-1.8s4.6,7.9,7.9,9.1
			C1048.9,1053.8,1053.5,1053.7,1053.5,1053.7z"/>
		<g>
			<path class="st5" d="M1088.2,1076.9l0.7-0.2c-0.3-1.3-1-26.8,7-41.7l-0.6-0.3C1087.2,1049.8,1088,1075.9,1088.2,1076.9z"/>
		</g>
		<g>
			<g>
				<path class="st1" d="M1097.3,1021.4c0,0,2.5,5.3,1,7.7C1096.8,1031.4,1095.5,1024.6,1097.3,1021.4z"/>
				<path class="st1" d="M1098.9,1043.7c0,0-2.5-5.3-1-7.7C1099.5,1033.7,1100.7,1040.4,1098.9,1043.7z"/>
			</g>
			<g>
				<path class="st1" d="M1092.3,1023c0,0,4.7,3.5,4.4,6.3C1096.4,1032.2,1092.2,1026.7,1092.3,1023z"/>
				<path class="st1" d="M1104,1042.1c0,0-4.7-3.5-4.4-6.3C1099.8,1032.9,1104.1,1038.3,1104,1042.1z"/>
			</g>
			<g>
				<path class="st1" d="M1088.6,1026.8c0,0,5.8,1,6.8,3.7C1096.4,1033.1,1090.2,1030.2,1088.6,1026.8z"/>
				<path class="st1" d="M1107.7,1038.5c0,0-5.8-1-6.8-3.7C1099.8,1032.2,1106.1,1035.1,1107.7,1038.5z"/>
			</g>
			<g>
				<path class="st1" d="M1087.4,1036.1c0,0,4.6-3.6,7.3-2.6C1097.3,1034.5,1091,1037.1,1087.4,1036.1z"/>
				<path class="st1" d="M1109.3,1031.6c0,0-5.2,2.8-7.6,1.3C1099.2,1031.5,1105.9,1029.9,1109.3,1031.6z"/>
			</g>
			<g>
				<path class="st1" d="M1089.9,1040.1c0,0,2.9-5.1,5.7-5.2C1098.5,1034.8,1093.7,1039.7,1089.9,1040.1z"/>
				<path class="st1" d="M1107.3,1026c0,0-2.9,5.1-5.7,5.2C1098.8,1031.3,1103.6,1026.4,1107.3,1026z"/>
			</g>
			<g>
				<path class="st1" d="M1093.7,1043.1c0,0,0.4-5.8,2.9-7.2C1099.1,1034.6,1096.9,1041.2,1093.7,1043.1z"/>
				<path class="st1" d="M1103.2,1022.9c0,0-0.4,5.8-2.9,7.2C1097.9,1031.4,1100.1,1024.8,1103.2,1022.9z"/>
			</g>
			<path class="st1" d="M1087.1,1032.3c0,0,5.5-2.1,7.7-0.4C1097.1,1033.7,1090.2,1034.4,1087.1,1032.3z"/>
			<circle class="st6" cx="1098.1" cy="1032.7" r="4.1"/>
		</g>
		<path class="st5" d="M1089.6,1053.4c0,0,3.5-3.6,8.4-3.9c4.9-0.2,6.4,0,6.4,0s-3,3.2-6.6,3.9
			C1094.3,1054.1,1089.6,1053.4,1089.6,1053.4z"/>
		<path class="st5" d="M1090.4,1049.9c-0.6-0.5-1.1-4.9-4.9-6c-3.8-1.1-6.5-1.3-6.5-1.3s3.3,5.7,5.7,6.6
			C1087.1,1050,1090.4,1049.9,1090.4,1049.9z"/>
		<g>
			<path class="st5" d="M1069.1,1076.9l0.8-0.2c-0.3-1.5-1.2-31.5,8.3-49.1l-0.8-0.4C1067.8,1045,1068.7,1075.7,1069.1,1076.9z"/>
		</g>
		<g>
			<g>
				<path class="st1" d="M1079.8,1011.6c0,0,3,6.2,1.2,9C1079.1,1023.4,1077.6,1015.4,1079.8,1011.6z"/>
				<path class="st1" d="M1081.6,1037.8c0,0-3-6.2-1.2-9C1082.3,1026,1083.8,1034,1081.6,1037.8z"/>
			</g>
			<g>
				<path class="st1" d="M1073.8,1013.5c0,0,5.5,4.2,5.2,7.5C1078.7,1024.2,1073.7,1017.9,1073.8,1013.5z"/>
				<path class="st1" d="M1087.6,1035.9c0,0-5.5-4.2-5.2-7.5C1082.7,1025.1,1087.7,1031.5,1087.6,1035.9z"/>
			</g>
			<g>
				<path class="st1" d="M1069.5,1017.9c0,0,6.8,1.2,8,4.3C1078.7,1025.3,1071.4,1021.9,1069.5,1017.9z"/>
				<path class="st1" d="M1091.9,1031.7c0,0-6.8-1.2-8-4.3C1082.7,1024.3,1090,1027.7,1091.9,1031.7z"/>
			</g>
			<g>
				<path class="st1" d="M1068.1,1028.9c0,0,5.4-4.2,8.6-3.1C1079.7,1026.9,1072.3,1030.1,1068.1,1028.9z"/>
				<path class="st1" d="M1093.8,1023.6c0,0-6.1,3.2-9,1.6C1082,1023.5,1089.9,1021.6,1093.8,1023.6z"/>
			</g>
			<g>
				<path class="st1" d="M1071.1,1033.6c0,0,3.4-6,6.7-6.1C1081.1,1027.3,1075.5,1033.1,1071.1,1033.6z"/>
				<path class="st1" d="M1091.5,1017c0,0-3.4,6-6.7,6.1C1081.5,1023.2,1087.1,1017.4,1091.5,1017z"/>
			</g>
			<g>
				<path class="st1" d="M1075.5,1037.1c0,0,0.4-6.9,3.4-8.4C1081.8,1027.1,1079.3,1034.8,1075.5,1037.1z"/>
				<path class="st1" d="M1086.7,1013.3c0,0-0.4,6.9-3.4,8.4C1080.4,1023.3,1083,1015.6,1086.7,1013.3z"/>
			</g>
			<path class="st1" d="M1067.7,1024.4c0,0,6.4-2.5,9.1-0.4C1079.4,1026,1071.4,1026.8,1067.7,1024.4z"/>
			<path class="st6" d="M1085.5,1024.8c0-2.7-2.1-4.8-4.8-4.8s-4.8,2.1-4.8,4.8c0,2.7,2.1,4.8,4.8,4.8S1085.5,1027.5,1085.5,1024.8z
				"/>
		</g>
		<path class="st5" d="M1069.4,1061.4c0,0,4.2-4.2,9.9-4.5c5.8-0.3,7.5,0,7.5,0s-3.5,3.7-7.8,4.5
			C1074.8,1062.2,1069.4,1061.4,1069.4,1061.4z"/>
		<path class="st5" d="M1070.2,1057.3c-0.7-0.6-1.3-5.8-5.7-7.1c-4.5-1.3-7.6-1.5-7.6-1.5s3.9,6.7,6.7,7.7
			C1066.4,1057.4,1070.2,1057.3,1070.2,1057.3z"/>
		<g>
			<path class="st5" d="M1092.2,1076.9l0.5-0.1c-0.2-0.9-0.7-18.9,5-29.4l-0.5-0.2C1091.5,1057.8,1092,1076.2,1092.2,1076.9z"/>
		</g>
		<g>
			<g>
				<path class="st1" d="M1098.6,1037.7c0,0,1.8,3.7,0.7,5.4C1098.2,1044.8,1097.3,1040,1098.6,1037.7z"/>
				<path class="st1" d="M1099.7,1053.5c0,0-1.8-3.7-0.7-5.4C1100.1,1046.4,1101,1051.2,1099.7,1053.5z"/>
			</g>
			<g>
				<path class="st1" d="M1095.1,1038.9c0,0,3.3,2.5,3.1,4.5C1098,1045.3,1095,1041.5,1095.1,1038.9z"/>
				<path class="st1" d="M1103.3,1052.3c0,0-3.3-2.5-3.1-4.5C1100.4,1045.9,1103.4,1049.7,1103.3,1052.3z"/>
			</g>
			<g>
				<path class="st1" d="M1092.4,1041.5c0,0,4.1,0.7,4.8,2.6C1098,1046,1093.6,1043.9,1092.4,1041.5z"/>
				<path class="st1" d="M1105.9,1049.8c0,0-4.1-0.7-4.8-2.6C1100.4,1045.4,1104.8,1047.4,1105.9,1049.8z"/>
			</g>
			<g>
				<path class="st1" d="M1091.6,1048.1c0,0,3.3-2.5,5.1-1.8C1098.6,1046.9,1094.1,1048.8,1091.6,1048.1z"/>
				<path class="st1" d="M1107.1,1044.9c0,0-3.7,1.9-5.4,0.9C1100,1044.9,1104.7,1043.8,1107.1,1044.9z"/>
			</g>
			<g>
				<path class="st1" d="M1093.4,1050.9c0,0,2-3.6,4-3.7C1099.4,1047.2,1096,1050.7,1093.4,1050.9z"/>
				<path class="st1" d="M1105.7,1041c0,0-2,3.6-4,3.7C1099.6,1044.7,1103,1041.2,1105.7,1041z"/>
			</g>
			<g>
				<path class="st1" d="M1096.1,1053.1c0,0,0.3-4.1,2-5.1C1099.9,1047.1,1098.3,1051.7,1096.1,1053.1z"/>
				<path class="st1" d="M1102.8,1038.8c0,0-0.3,4.1-2,5.1C1099,1044.8,1100.5,1040.1,1102.8,1038.8z"/>
			</g>
			<path class="st1" d="M1091.4,1045.4c0,0,3.9-1.5,5.4-0.3C1098.4,1046.4,1093.6,1046.9,1091.4,1045.4z"/>
			<path class="st6" d="M1102.1,1045.7c0-1.6-1.3-2.9-2.9-2.9c-1.6,0-2.9,1.3-2.9,2.9c0,1.6,1.3,2.9,2.9,2.9
				C1100.8,1048.6,1102.1,1047.3,1102.1,1045.7z"/>
		</g>
		<path class="st5" d="M1092.4,1067.6c0,0,2.5-2.5,6-2.7c3.5-0.2,4.5,0,4.5,0s-2.1,2.2-4.7,2.7
			C1095.7,1068.1,1092.4,1067.6,1092.4,1067.6z"/>
		<path class="st5" d="M1092.9,1065.1c-0.4-0.4-0.8-3.5-3.4-4.3c-2.7-0.8-4.6-0.9-4.6-0.9s2.3,4,4,4.6
			C1090.6,1065.2,1092.9,1065.1,1092.9,1065.1z"/>
		<g>
			<path class="st5" d="M1120.1,1076.9l0.8-0.2c-0.3-1.5-1.2-31.5,8.3-49.1l-0.8-0.4C1118.9,1045,1119.8,1075.7,1120.1,1076.9z"/>
		</g>
		<g>
			<g>
				<path class="st1" d="M1130.8,1011.6c0,0,3,6.2,1.2,9C1130.2,1023.4,1128.7,1015.4,1130.8,1011.6z"/>
				<path class="st1" d="M1132.7,1037.8c0,0-3-6.2-1.2-9C1133.3,1026,1134.8,1034,1132.7,1037.8z"/>
			</g>
			<g>
				<path class="st1" d="M1124.9,1013.5c0,0,5.5,4.2,5.2,7.5C1129.7,1024.2,1124.7,1017.9,1124.9,1013.5z"/>
				<path class="st1" d="M1138.6,1035.9c0,0-5.5-4.2-5.2-7.5C1133.7,1025.1,1138.7,1031.5,1138.6,1035.9z"/>
			</g>
			<g>
				<path class="st1" d="M1120.5,1017.9c0,0,6.8,1.2,8,4.3C1129.7,1025.3,1122.4,1021.9,1120.5,1017.9z"/>
				<path class="st1" d="M1142.9,1031.7c0,0-6.8-1.2-8-4.3C1133.7,1024.3,1141.1,1027.7,1142.9,1031.7z"/>
			</g>
			<g>
				<path class="st1" d="M1119.1,1028.9c0,0,5.4-4.2,8.6-3.1C1130.8,1026.9,1123.3,1030.1,1119.1,1028.9z"/>
				<path class="st1" d="M1144.9,1023.6c0,0-6.1,3.2-9,1.6C1133,1023.5,1140.9,1021.6,1144.9,1023.6z"/>
			</g>
			<g>
				<path class="st1" d="M1122.1,1033.6c0,0,3.4-6,6.7-6.1C1132.1,1027.3,1126.5,1033.1,1122.1,1033.6z"/>
				<path class="st1" d="M1142.5,1017c0,0-3.4,6-6.7,6.1C1132.5,1023.2,1138.1,1017.4,1142.5,1017z"/>
			</g>
			<g>
				<path class="st1" d="M1126.6,1037.1c0,0,0.4-6.9,3.4-8.4C1132.9,1027.1,1130.3,1034.8,1126.6,1037.1z"/>
				<path class="st1" d="M1137.7,1013.3c0,0-0.4,6.9-3.4,8.4C1131.4,1023.3,1134,1015.6,1137.7,1013.3z"/>
			</g>
			<path class="st1" d="M1118.8,1024.4c0,0,6.4-2.5,9.1-0.4C1130.5,1026,1122.4,1026.8,1118.8,1024.4z"/>
			<path class="st6" d="M1136.5,1024.8c0-2.7-2.1-4.8-4.8-4.8c-2.7,0-4.8,2.1-4.8,4.8c0,2.7,2.1,4.8,4.8,4.8
				C1134.4,1029.6,1136.5,1027.5,1136.5,1024.8z"/>
		</g>
		<path class="st5" d="M1121.7,1049.3c0,0,4.2-4.2,9.9-4.5s7.5,0,7.5,0s-3.5,3.7-7.8,4.5C1127.2,1050.1,1121.7,1049.3,1121.7,1049.3
			z"/>
		<path class="st5" d="M1122.6,1045.1c-0.7-0.6-1.3-5.8-5.7-7.1c-4.5-1.3-7.6-1.5-7.6-1.5s3.9,6.7,6.7,7.7
			C1118.7,1045.2,1122.6,1045.1,1122.6,1045.1z"/>
		<g>
			<path class="st5" d="M1104.6,1076.9l0.8-0.2c-0.3-1.6-1.2-34.1,8.3-53.1l-0.8-0.4C1103.4,1042.4,1104.3,1075.6,1104.6,1076.9z"/>
		</g>
		<g>
			<g>
				<path class="st1" d="M1115.4,1006.2c0,0,3,6.7,1.2,9.8C1114.7,1019,1113.2,1010.4,1115.4,1006.2z"/>
				<path class="st1" d="M1117.2,1034.6c0,0-3-6.7-1.2-9.8C1117.9,1021.8,1119.3,1030.5,1117.2,1034.6z"/>
			</g>
			<g>
				<path class="st1" d="M1109.4,1008.3c0,0,5.5,4.5,5.2,8.1C1114.3,1019.9,1109.3,1013,1109.4,1008.3z"/>
				<path class="st1" d="M1123.1,1032.6c0,0-5.5-4.5-5.2-8.1C1118.3,1020.9,1123.3,1027.8,1123.1,1032.6z"/>
			</g>
			<g>
				<path class="st1" d="M1105.1,1013.1c0,0,6.8,1.3,8,4.7C1114.3,1021.1,1106.9,1017.4,1105.1,1013.1z"/>
				<path class="st1" d="M1127.5,1028c0,0-6.8-1.3-8-4.7C1118.3,1020,1125.6,1023.7,1127.5,1028z"/>
			</g>
			<g>
				<path class="st1" d="M1103.7,1024.9c0,0,5.4-4.6,8.6-3.3C1115.3,1022.8,1107.9,1026.3,1103.7,1024.9z"/>
				<path class="st1" d="M1129.4,1019.2c0,0-6.1,3.5-9,1.7C1117.6,1019.1,1125.5,1017.1,1129.4,1019.2z"/>
			</g>
			<g>
				<path class="st1" d="M1106.7,1030c0,0,3.4-6.5,6.7-6.6C1116.7,1023.3,1111,1029.5,1106.7,1030z"/>
				<path class="st1" d="M1127.1,1012c0,0-3.4,6.5-6.7,6.6C1117,1018.8,1122.7,1012.5,1127.1,1012z"/>
			</g>
			<g>
				<path class="st1" d="M1111.1,1033.9c0,0,0.4-7.4,3.4-9.1C1117.4,1023.1,1114.8,1031.4,1111.1,1033.9z"/>
				<path class="st1" d="M1122.3,1008.1c0,0-0.4,7.4-3.4,9.1C1116,1018.9,1118.6,1010.6,1122.3,1008.1z"/>
			</g>
			<path class="st1" d="M1103.3,1020.1c0,0,6.4-2.7,9.1-0.5C1115,1021.8,1107,1022.7,1103.3,1020.1z"/>
			<path class="st6" d="M1121.1,1020.6c0-2.9-2.1-5.2-4.8-5.2c-2.7,0-4.8,2.3-4.8,5.2s2.1,5.2,4.8,5.2
				C1118.9,1025.8,1121.1,1023.4,1121.1,1020.6z"/>
		</g>
		<path class="st5" d="M1105,1060.1c0,0,4.2-4.6,9.9-4.9c5.8-0.3,7.5,0,7.5,0s-3.5,4.1-7.8,4.9C1110.4,1061,1105,1060.1,1105,1060.1
			z"/>
		<path class="st5" d="M1105.8,1055.7c-0.7-0.7-1.3-6.3-5.7-7.7c-4.5-1.4-7.6-1.7-7.6-1.7s3.9,7.3,6.7,8.4
			C1101.9,1055.7,1105.8,1055.7,1105.8,1055.7z"/>
		<g>
			<path class="st5" d="M1124.8,1076.9l0.6-0.2c-0.2-1.1-0.8-22.3,5.8-34.6l-0.5-0.3C1123.9,1054.4,1124.5,1076.1,1124.8,1076.9z"/>
		</g>
		<g>
			<g>
				<path class="st1" d="M1132.3,1030.8c0,0,2.1,4.4,0.8,6.4C1131.9,1039.1,1130.8,1033.5,1132.3,1030.8z"/>
				<path class="st1" d="M1133.6,1049.3c0,0-2.1-4.4-0.8-6.4C1134.1,1041,1135.1,1046.6,1133.6,1049.3z"/>
			</g>
			<g>
				<path class="st1" d="M1128.1,1032.1c0,0,3.9,2.9,3.7,5.3C1131.6,1039.7,1128,1035.2,1128.1,1032.1z"/>
				<path class="st1" d="M1137.8,1048c0,0-3.9-2.9-3.7-5.3C1134.4,1040.4,1137.9,1044.9,1137.8,1048z"/>
			</g>
			<g>
				<path class="st1" d="M1125,1035.3c0,0,4.8,0.9,5.7,3C1131.6,1040.5,1126.4,1038.1,1125,1035.3z"/>
				<path class="st1" d="M1140.9,1045c0,0-4.8-0.9-5.7-3C1134.4,1039.8,1139.6,1042.2,1140.9,1045z"/>
			</g>
			<g>
				<path class="st1" d="M1124.1,1043c0,0,3.8-3,6-2.2C1132.3,1041.6,1127,1043.9,1124.1,1043z"/>
				<path class="st1" d="M1142.2,1039.3c0,0-4.3,2.3-6.3,1.1C1133.9,1039.2,1139.5,1037.9,1142.2,1039.3z"/>
			</g>
			<g>
				<path class="st1" d="M1126.2,1046.3c0,0,2.4-4.2,4.7-4.3S1129.3,1046,1126.2,1046.3z"/>
				<path class="st1" d="M1140.6,1034.6c0,0-2.4,4.2-4.7,4.3S1137.5,1034.9,1140.6,1034.6z"/>
			</g>
			<g>
				<path class="st1" d="M1129.3,1048.8c0,0,0.3-4.9,2.4-6C1133.8,1041.8,1132,1047.2,1129.3,1048.8z"/>
				<path class="st1" d="M1137.2,1032c0,0-0.3,4.9-2.4,6C1132.8,1039.1,1134.6,1033.6,1137.2,1032z"/>
			</g>
			<path class="st1" d="M1123.8,1039.8c0,0,4.5-1.7,6.4-0.3S1126.4,1041.6,1123.8,1039.8z"/>
			<path class="st6" d="M1136.4,1040.1c0-1.9-1.5-3.4-3.4-3.4c-1.9,0-3.4,1.5-3.4,3.4s1.5,3.4,3.4,3.4
				C1134.8,1043.5,1136.4,1042,1136.4,1040.1z"/>
		</g>
		<path class="st5" d="M1125,1066c0,0,2.9-3,7-3.2s5.3,0,5.3,0s-2.5,2.6-5.5,3.2C1128.8,1066.5,1125,1066,1125,1066z"/>
		<path class="st5" d="M1125.6,1063c-0.5-0.4-0.9-4.1-4.1-5c-3.2-0.9-5.4-1.1-5.4-1.1s2.7,4.8,4.7,5.5
			C1122.8,1063.1,1125.6,1063,1125.6,1063z"/>
	</g>
	<g>
		<g>
			<path class="st7" d="M148.5,756.6v323.8H77.1c0-0.1-0.1-0.2-0.1-0.3c0-0.1-0.1-0.1-0.1-0.2c-0.2-0.6-0.6-1.5-1-2.5l-0.2-0.3
				c0,0,0,0,0-0.2c0,0-0.2-0.2-0.2-0.3c-0.6-1.3-1.1-2.7-1.8-4.5c-0.3-0.8-0.6-1.8-1.1-2.7c0-0.2,0-0.2,0-0.3
				c-0.2-0.2-0.2-0.2-0.2-0.2c-2.2-5.7-4.9-13.1-8.1-22.1c-0.3-0.8-0.6-1.6-0.9-2.5c-2.4-6.8-4.9-14.4-7.7-22.7
				c-1.3-3.9-2.6-8-3.9-12.3c-5.5-17.7-11.6-38.2-17.5-60.7c-2.9-11-5.8-22.5-8.5-34.5c-1.6-6.9-3.2-14.1-4.7-21.4
				c-0.4-2.1-0.9-4.3-1.3-6.4c-2.8-13.6-5.5-27.7-7.9-42c-3.2-18.8-5.9-38.2-7.9-57.8c-1-9.6-1.9-19.4-2.6-29.1c0-0.3,0-0.5-0.1-0.8
				H148.5z"/>
			<polygon class="st8" points="89.8,622.1 165.5,777.9 395.4,777.9 275.5,622.7 			"/>
			<polygon class="st9" points="386.3,777.9 379.5,769 266.4,622.7 80.7,622.1 148.5,761.6 148.5,1080.5 379.5,1080.5 379.5,777.9 
							"/>
			<path class="st10" d="M264.6,700h4.4c16.5,0,29.9,13.4,29.9,29.9v75.2h-63.3V729C235.6,713,248.6,700,264.6,700z"/>
			<path class="st8" d="M276.1,622.1l-0.5,0.7l-4.5,6L163,772.9l-10.2,13.7H4.2c-1-9.6-1.9-19.4-2.6-29.1c0-0.3,0-0.5-0.1-0.8
				c0-0.3,0-0.5-0.1-0.8c-0.9-13.8-1.5-27.6-1.7-41.5L71,622.1h30.2l105.5,0L276.1,622.1z"/>
		</g>
		<g>
			<polygon class="st8" points="291.5,821.4 345.4,932.3 509.1,932.3 423.7,821.8 			"/>
			<g>
				<polygon class="st9" points="504.2,932.3 418.8,821.8 286.6,821.4 340.5,932.3 340.8,932.3 340.8,1080.2 504.2,1080.5 
					504.2,932.3 				"/>
				<rect x="202.5" y="932.3" class="st7" width="138.3" height="147.8"/>
				<polygon class="st8" points="187.3,938.9 335.9,938.9 423.7,821.8 379.5,821.8 277.7,821.8 				"/>
				<path class="st10" d="M389.3,957v123.5h68.8V958.1c0-10.2-4.4-19.4-11.3-25.8c-6.2-5.7-14.5-9.2-23.6-9.2
					c-9,0-17.2,3.5-23.2,9.2C393.4,938.5,389.3,947.2,389.3,957z"/>
				<path class="st10" d="M431.5,883.4c0-4.3-3.5-7.7-7.7-7.7c-4.3,0-7.7,3.5-7.7,7.7c0,4.3,3.5,7.7,7.7,7.7
					C428,891.1,431.5,887.7,431.5,883.4z"/>
				<polygon class="st11" points="187.3,938.9 215.5,938.9 379.5,821.8 277.7,821.8 				"/>
			</g>
		</g>
	</g>
	<g>
		<polygon class="st12" points="161.4,731.3 25.6,731.3 97.3,643.5 233.1,643.5 		"/>
		<g>
			<polygon class="st13" points="214.6,666.6 78.8,666.6 79.6,665.6 215.4,665.6 			"/>
			<polygon class="st13" points="129.2,643.5 57.5,731.3 56.5,731.3 128.1,643.5 			"/>
			<polygon class="st13" points="165.2,643.5 93.5,731.3 92.5,731.3 164.1,643.5 			"/>
			<polygon class="st13" points="199.8,643.5 128.1,731.3 127.1,731.3 198.7,643.5 			"/>
			<polygon class="st13" points="196.8,687.9 61,687.9 61.9,686.9 197.7,686.9 			"/>
			<polygon class="st13" points="178.1,710.9 42.3,710.9 43.1,709.9 178.9,709.9 			"/>
			<g>
				<polygon class="st13" points="106.6,670.4 105.8,666.2 113.5,662 114.3,666.2 				"/>
				<polygon class="st13" points="142.2,670.4 141.4,666.2 149.1,662 149.9,666.2 				"/>
				<polygon class="st13" points="177.3,670.4 176.5,666.2 184.2,662 185,666.2 				"/>
			</g>
			<g>
				<polygon class="st13" points="89.3,691.6 88.5,687.4 96.2,683.2 96.9,687.4 				"/>
				<polygon class="st13" points="124.9,691.6 124.1,687.4 131.8,683.2 132.5,687.4 				"/>
				<polygon class="st13" points="160,691.6 159.2,687.4 166.9,683.2 167.7,687.4 				"/>
			</g>
			<g>
				<polygon class="st13" points="70.5,714.6 69.7,710.4 77.4,706.2 78.2,710.4 				"/>
				<polygon class="st13" points="106.1,714.6 105.3,710.4 113,706.2 113.8,710.4 				"/>
				<polygon class="st13" points="141.3,714.6 140.5,710.4 148.2,706.2 148.9,710.4 				"/>
			</g>
		</g>
	</g>
	<path class="st14" d="M1924.5,304.4c-0.1,3.4-0.2,6.8-0.3,10.2c-0.7,14.6-2.5,29.7-5.3,45.4l-212.5-2.8c0,0,19.2-45.4,65.2-40.3
		c0,0,66.8-75.7,137.9-10.1C1909.5,306.8,1915.1,305.6,1924.5,304.4z"/>
	<path class="st14" d="M975.5,196.3c0,0,10-24,33.8-21.3c0,0,34.6-39.9,71.4-5.3c0,0,39.2-8.6,68.2,7.4
		c19.3,10.7,25.7,21.9,25.7,21.9L975.5,196.3z"/>
	<path class="st14" d="M174.6,544.3c0,0,10.6-25.6,36.1-22.8c0,0,36.9-42.7,76.3-5.7c0,0,41.9-9.2,72.9,7.9
		c20.7,11.4,27.5,23.4,27.5,23.4L174.6,544.3z"/>
	<path class="st14" d="M119.1,466c0,0,8.1-19.6,27.6-17.4c0,0,28.3-32.7,58.4-4.4c0,0,32-7,55.8,6.1c15.8,8.7,21,17.9,21,17.9
		L119.1,466z"/>
	<path class="st5" d="M1835.2,964.6c-1,10.1-2.7,20.7-5.2,31.7c-0.1,0.2-0.1,0.5-0.2,0.7c-56.2,20.3-114,47.3-165.6,83h-139.4
		C1545.1,1067,1643.6,1012.5,1835.2,964.6z"/>
	<g>
		<g>
			<path class="st15" d="M1538.7,935c0,0,106.9-9.4,136,0c29.1,9.4,43.6,53,39.5,84.8c-4.2,31.8-13.8,58.8-32.5,58.1
				c-18.7-0.7-150.9,0-150.9,0L1538.7,935z"/>
			<path class="st15" d="M1560.5,933.4c0,0,22.6-4.2,38-5.8c0,0-12.1,2.5-13.6,3.7c0,0,32.9-5,44.9-3.7c12,1.2,28.4,3.2,28.4,3.2
				l18.3-1.2c0,0-15.2,1.8-14.4,2.1c0.8,0.2,14.9,2,19.4,4.8c0,0,14,4.4,17,7c0,0-11.2-5.7-15.6-5.3c0,0,25.4,17.6,25.4,34.3
				s-109.1-25.2-109.1-25.2L1560.5,933.4z"/>
		</g>
		<g>
			<path class="st1" d="M1554,934.2c0,0-42.6-3.2-69.6,31c-27,34.3-5.2,113.6,30.1,113.9c35.3,0.3,78.8-5.1,88.2-51.2
				C1612.1,981.8,1592.4,935.3,1554,934.2z"/>
			<path class="st1" d="M1466.8,1002.5c0,0,15.2-17.5,16.8-22.4l2.3,4.8L1466.8,1002.5z"/>
			<path class="st1" d="M1477.8,976.6c0,0,1.9-12.6,7.5-17.2c0,0-5,8.4-3.7,15.5C1482.9,981.9,1477.8,976.6,1477.8,976.6z"/>
			<path class="st1" d="M1485.3,1065.5c0.3,0.7-8.2-23-5.4-27.5l1.6,0C1481.5,1038,1482.6,1058.9,1485.3,1065.5z"/>
			<path class="st1" d="M1478.5,1034.7c0,0-6.3-2.1-9.9,0c0,0,5.9-1.6,9.5,1.8C1481.6,1040,1478.5,1034.7,1478.5,1034.7z"/>
		</g>
		<g>
			<path class="st15" d="M1537.1,1077.9c-9.8,0-21.6-1.7-31.6-7.8c-10.9-6.7-18-17.4-21.1-31.9c-5.3-24.7-2.7-44.9,7.8-60.2
				c9.8-14.3,26.4-23.6,48-26.9c14.5-2.2,27.1,2.5,36.4,13.6c13.4,16.1,17.3,43.2,9.4,66.1c-5.6,16.1-20.5,26.1-39.8,26.6
				c-0.6,0-1.1,0-1.7,0c-19.5,0-37.1-10-43.1-24.6c-6.2-14.9-5.8-29.6,0.9-41.2c6.8-11.8,19.8-19.4,36.4-21.6
				c15-1.9,23.2,5.1,27.3,11.3c8,12,8,31.5,2.6,40.9c-5.2,9.1-19.5,16-32,15.6c-9-0.3-15.8-4.5-19.3-11.7
				c-4.5-9.3-4.2-18.9,0.8-26.3c4-6,10.5-9.6,16.5-9.3c6.9,0.4,9.8,6.1,10.2,10.9c0.4,4.2-1.1,9-4.6,9.8c-6.5,1.5-8.8-2-8.9-2.2
				c0,0-3.5-5.8,0.9-6.6c5-1,3.7,2.9,3.7,2.9c0.1,0.1-1.2,5.3,3.9,4.1c2.1-0.5,3.5-4,3.2-7.9c-0.4-4.3-2.8-9-8.6-9.3
				c-5.4-0.3-11.2,3.1-14.9,8.5c-4.6,6.9-4.9,15.9-0.7,24.6c4.1,8.5,11.9,10.5,17.8,10.7c11.8,0.4,25.5-6.2,30.3-14.7
				c4.5-7.9,5.7-26.6-2.6-39c-5.6-8.3-14.4-11.9-25.6-10.5c-16.1,2.1-28.5,9.4-35.1,20.7c-6.5,11.1-6.7,25.2-0.8,39.6
				c5.9,14.4,23.7,24.1,43.1,23.5c18.6-0.5,32.9-10,38.2-25.4c7.7-22.3,4-48.7-9.1-64.3c-6.2-7.4-17.2-15.7-34.8-13
				c-21.1,3.2-37.2,12.3-46.8,26.1c-10.2,14.8-12.7,34.6-7.5,58.8c3,14,9.9,24.4,20.3,30.7c21.1,12.9,54.4,5.1,54.7,5l-3.8,2
				C1557.2,1075.6,1548.5,1077.9,1537.1,1077.9z"/>
		</g>
	</g>
	<g>
		<g>
			<path class="st15" d="M1727.1,885.5c0,0,143.8-12.6,182.9,0c39.1,12.6,58.6,71.2,53,114.1c-5.6,42.8-18.6,79.1-43.7,78.2
				c-25.1-0.9-202.9,0-202.9,0L1727.1,885.5z"/>
			<path class="st15" d="M1756.5,883.3c0,0,30.4-5.7,51.1-7.8c0,0-16.3,3.3-18.3,5c0,0,44.2-6.7,60.3-5c16.1,1.6,38.2,4.4,38.2,4.4
				l24.6-1.6c0,0-20.5,2.5-19.4,2.8c1.1,0.3,20,2.6,26.1,6.5c0,0,18.8,5.9,22.8,9.5c0,0-15-7.6-20.9-7.1c0,0,34.1,23.7,34.2,46.2
				c0.1,22.5-146.6-33.9-146.6-33.9L1756.5,883.3z"/>
		</g>
		<g>
			<path class="st1" d="M1747.7,884.4c0,0-57.2-4.4-93.5,41.7c-36.3,46.1-7,152.7,40.5,153.1c47.5,0.4,105.9-6.9,118.6-68.8
				C1825.9,948.4,1799.3,885.9,1747.7,884.4z"/>
			<path class="st1" d="M1630.5,976.3c0,0,20.5-23.6,22.6-30.1l3.1,6.5L1630.5,976.3z"/>
			<path class="st1" d="M1645.3,941.4c0,0,2.6-16.9,10-23.1c0,0-6.8,11.3-5,20.8C1652,948.5,1645.3,941.4,1645.3,941.4z"/>
			<path class="st1" d="M1655.3,1061c0.4,0.9-11-30.9-7.3-37l2.2,0C1650.2,1024,1651.7,1052.2,1655.3,1061z"/>
			<path class="st1" d="M1646.2,1019.6c0,0-8.5-2.8-13.3,0c0,0,7.9-2.2,12.7,2.5C1650.4,1026.8,1646.2,1019.6,1646.2,1019.6z"/>
		</g>
		<g>
			<path class="st15" d="M1725,1077.6c-13.2,0-29-2.2-42.5-10.5c-14.6-8.9-24.2-23.4-28.4-42.9c-7.2-33.2-3.7-60.4,10.5-81
				c13.2-19.2,35.5-31.7,64.5-36.1c19.6-3,36.5,3.3,49,18.3c18,21.6,23.2,58.1,12.6,88.8c-7.5,21.7-27.5,35.1-53.6,35.8
				c-0.7,0-1.5,0-2.2,0c-26.2,0-49.9-13.4-58-33.1c-8.3-20.1-7.8-39.7,1.2-55.3c9.2-15.8,26.6-26.1,48.9-29
				c20.2-2.6,31.1,6.8,36.7,15.2c10.8,16.1,10.8,42.3,3.5,54.9c-7,12.2-26.2,21.6-43,21c-12.1-0.4-21.3-6-26-15.7
				c-6-12.5-5.6-25.4,1.1-35.4c5.4-8.1,14.1-13,22.1-12.5c9.3,0.5,13.2,8.2,13.8,14.7c0.5,5.7-1.4,12-6.1,13.1
				c-8.7,2-11.8-2.7-11.9-2.9c0,0-4.7-7.8,1.1-8.9c6.7-1.3,4.9,3.9,4.9,3.9c0.1,0.1-1.7,7.2,5.3,5.5c2.9-0.7,4.7-5.3,4.3-10.6
				c-0.5-5.8-3.8-12.1-11.5-12.5c-7.2-0.4-15.1,4.1-20,11.5c-6.2,9.3-6.5,21.3-0.9,33c5.5,11.4,16,14.1,23.9,14.4
				c15.9,0.5,34.2-8.3,40.8-19.8c6.1-10.6,7.7-35.7-3.4-52.4c-7.5-11.2-19.4-16.1-34.4-14.1c-21.6,2.8-38.3,12.7-47.1,27.8
				c-8.7,14.9-9.1,33.8-1.1,53.2c8,19.4,31.8,32.4,57.9,31.6c25-0.7,44.2-13.5,51.4-34.2c10.4-29.9,5.3-65.5-12.2-86.5
				c-8.3-10-23.2-21.1-46.8-17.4c-28.3,4.3-50.1,16.5-62.9,35.1c-13.7,20-17.1,46.6-10.1,79.1c4.1,18.8,13.3,32.7,27.3,41.3
				c28.4,17.4,73.1,6.9,73.5,6.7l-5.1,2.7C1752,1074.6,1740.3,1077.6,1725,1077.6z"/>
		</g>
	</g>
	<g>
		<path class="st16" d="M650.2,940.9c0,0-24.7,95.2-22.5,102.7c2.2,7.5,14.6,33.1,14.6,33.1h-11.9c0,0-4.8-2.4-4.6-8.3
			c0.2-5.9-16.5-28.9-16.5-28.9s6.6-36.6,0-51C581,926.6,628.3,927.2,650.2,940.9z"/>
		<path class="st16" d="M776.9,973.9c0,0-7.1,51.2-7.5,54.3c-0.4,3.1-3.7,7.1-3.5,12.2c0.2,5.1,2,22.4,7.5,26.8
			c5.5,4.3,6.1,9.6,6.1,9.6h-15c0,0-2.6-5.1-2.2-8.7c0.4-3.5-4.1-7.3-4.3-14.6c-0.2-7.3,0-20.9-2-25.6s-1.4-37.2-7.9-44.5
			C741.7,976.2,776.9,973.9,776.9,973.9z"/>
		<path class="st10" d="M614.3,956.8c-0.2,2.4-0.2,4.6-0.2,6.8c0.4,55.4,55.2,38.8,57.2,37.3c2.1-1.5,5.9-1.3,5.9-1.3
			c27.4,10.9,65.8,0.9,73.8-2.4c8-3.3,29.2,4.8,39,4.1c4-0.3,7.3-4.5,9.8-9.7c3.6-7.4,5.6-16.9,5.9-20.2c0.2-1.9,2.7-9,6.1-17.8
			c1.4-3.4,2.9-7.2,4.6-11c0.3-0.7,0.6-1.4,0.9-2c-0.8-0.9-1.5-1.9-2.3-2.8c-4.3-5.7-7.3-12.4-10.7-19c-3.4-7-7.1-14.2-12.5-20.6
			c-8.1-2.5-17.6,2-21.6,1.8c-4.6-0.2-9.2-1-13.3-1.6c-1.7-0.3-3.3-0.6-4.7-0.8c-8.1-1.2-57.4,5.1-92.2,6.1
			c-7.2,0.2-13.7,0.2-19.1-0.2c-0.4,0-0.8-0.1-1.2-0.1c-14.6-0.8-22.3,0.1-26.3,1.4c-4.5,1.4-4.6,3.1-4.6,3.1
			C594.8,921.3,614.3,956.8,614.3,956.8z"/>
		<path class="st10" d="M794.9,973.9c0,0-7.1,51.2-7.5,54.3c-0.4,3.1-3.7,7.1-3.5,12.2c0.2,5.1,2,22.4,7.5,26.8
			c5.5,4.3,6.1,9.6,6.1,9.6h-15c0,0-2.6-5.1-2.2-8.7s-4.1-7.3-4.3-14.6c-0.2-7.3,0-20.9-2-25.6s-1.4-37.2-7.9-44.5
			C759.6,976.2,794.9,973.9,794.9,973.9z"/>
		<path class="st10" d="M665.6,962.2c0,0-19.9,73.9-17.7,81.4c2.2,7.5,14.6,33.1,14.6,33.1h-11.9c0,0-4.8-2.4-4.6-8.3
			c0.2-5.9-16.5-28.9-16.5-28.9s-1.4-41.7-11.2-54.1C608.4,973.1,643.7,948.5,665.6,962.2z"/>
		<g>
			<path class="st10" d="M868.5,981.2c0.8,1.1,1.5,1.9,1.5,1.9c0.1,0,1.6,0.3,3.5,0.2c1.5-0.1,3.3-0.4,4.8-1.3
				c1-0.6,1.8-1.5,2.3-2.8c0,0-0.7-1.7-4.2-2.2c-2.6-0.3-5.2-2.2-7.4-2.4h0c-0.8-0.1-1.5,0-2.2,0.5
				C865.2,976.2,867,979.2,868.5,981.2z"/>
			<path class="st10" d="M872.3,988.1c0.1,0,1.3,0.2,3,0.2c2.6,0,6.2-0.6,7.7-4.1c0,0-0.7-1.7-4.2-2.2c-0.1,0-0.3,0-0.4-0.1
				c-2.3-0.4-4.5-1.8-6.5-2.2c-1-0.2-1.9-0.1-2.7,0.4c-0.4,0.3-0.6,0.6-0.6,1.1C868.2,983.6,872.3,988.1,872.3,988.1z"/>
			<path class="st10" d="M791.1,913.4c1,25.4,5.7,73.9,8.6,78.2c7.2,0.3,12.9,1,17.6,2c14.6,3,18.7,8.5,20.1,11.1
				c2.6,5.2,14.8,17.1,16.9,17.5c2.2,0.4,3.5,3.3,5.8,7.9c2.2,4.6,6.6,5,10.2,5.2c3.7,0.2,6.7-4.2,6.7-5.3c0.1-1.1-1.9-4.6-1.5-9.1
				c0.2-4.6-2.7-18.1-0.2-21.8c1.5-2.4,0.7-7.4-0.2-10.8c-0.5-2-1-3.4-1-3.4c-0.2-0.5-0.4-1.1-0.7-1.6c-0.5-1.1-1.1-2.3-1.7-3.6
				c-0.7-1.5-1.7-3.3-2.8-5.1c-4.4-7.8-11-18-19.6-28.6c-8.6-10.7-19.2-21.8-31.7-31.6c-7.9-6.2-16.6-11.8-25.9-16.3
				C791,898.4,790.8,904.5,791.1,913.4z"/>
		</g>
		<path class="st12" d="M779.8,961.3c-0.5-1.3-0.2-23.6-16.3-28.1c-16.1-4.6-24.9,2.5-44.9-5.6c-20.1-8.1-41.2-14.8-43.3-6
			c-2.1,8.8,1.8,33.4,0,44.7c-1.8,11.3,36.3,15.2,51.9,8.3C742.8,967.7,785.4,975.8,779.8,961.3z"/>
		<path class="st12" d="M608.6,907.8c0,0-10.4,8.9-12.2,24.7c-1.8,15.8,3.2,85.4,3.2,85.4l4-0.2l4.3-76.9L608.6,907.8z"/>
		<path class="st12" d="M604.3,1026.7c0,0-8.7-9.3-3.3-11.4c5.4-2.1,3.3,4.2,3.3,6.7S604.3,1026.7,604.3,1026.7z"/>
		<path class="st17" d="M613.2,904.7c10.1,5,21.2,9.5,27.8,9.7c14.4,0.2,49.4-8.1,63.6-8.9c14.2-0.9,71.9,12.4,85.5,8.1
			c0.3-0.2,0.7-0.2,1.1-0.2c3-0.2,7.6,1.9,13.2,5.3c3.2,2,6.7,4.5,10.3,7.2c23.7,17.9,54.4,48.6,54.4,48.6c-4.4-7.8-11-18-19.6-28.6
			c-8.6-10.7-19.2-21.8-31.7-31.6c-7.9-6.2-16.6-11.8-25.9-16.3c-8.1-2.5-17.6,2-21.6,1.8c-4.6-0.2-9.2-1-13.3-1.6
			c-1.7-0.3-3.3-0.6-4.7-0.8c-8.1-1.2-57.4,5.1-92.2,6.1c-7.2,0.2-13.7,0.2-19.1-0.2c-0.4,0-0.8-0.1-1.2-0.1
			C625,902.5,617.3,903.4,613.2,904.7z"/>
		<path class="st12" d="M659.9,903.5c6.3,5.1,18.4,7.2,35.4,4c20.8-3.9,25.7,5.3,42.9,6c15.2,0.6,18.1-12.2,18.6-15.3
			c-1.7-0.3-3.3-0.5-4.7-0.8C744,896.2,694.7,902.5,659.9,903.5z"/>
		<path class="st12" d="M815,937.7c0.3,1.6,0.8,3.3,1.4,4.9c0.7,1.8,1.6,3.5,2.7,5.3c9.2,14.6,0.5,32.2-1.6,45.7
			c14.6,3,18.7,8.5,20.1,11.1c2.6,5.2,14.8,17.1,16.9,17.5c2.2,0.4,3.5,3.3,5.8,7.9c2.2,4.6,6.6,5,10.2,5.2c3.7,0.2,6.7-4.2,6.7-5.3
			c0.1-1.1-1.9-4.6-1.5-9.1c0.2-4.6-2.7-18.1-0.2-21.8c1.5-2.4,0.7-7.4-0.2-10.8c2.6,0,6.3-0.6,7.7-4.1c0,0-0.7-1.8-4.2-2.3h-0.4
			c1-0.6,1.8-1.5,2.4-2.8c0,0-0.7-1.7-4.2-2.2c-2.6-0.3-5.2-2.1-7.4-2.4c-4.4-7.8-11-18-19.6-28.6c-8.6-10.7-19.2-21.8-31.7-31.6
			c-1.3,3.3-2.5,7.2-3.1,11.5C814.2,929.6,814.2,933.7,815,937.7z"/>
		<path class="st12" d="M614.3,956.8c-0.2,2.4-0.2,4.6-0.2,6.7c17.9,13.2,49.2,6.6,51.5-9.4c2.7-18.4-22-20.9-20.1-36.1
			c0.7-6.2-2.2-11.1-5.9-14.8c-30.6-1.8-30.9,4.5-30.9,4.5C594.8,921.4,614.3,956.8,614.3,956.8z"/>
	</g>
	<g>
		<path class="st18" d="M1067.3,733.6H474.7c-32.9,0-59.6-26.7-59.6-59.6V319.8c0-32.9,26.7-59.6,59.6-59.6h592.7
			c32.9,0,59.6,26.7,59.6,59.6V674C1127,706.9,1100.3,733.6,1067.3,733.6z"/>
		<g>
			<path class="st19" d="M675.7,414.3c0,56.6-45.9,102.4-102.4,102.4s-102.4-45.9-102.4-102.4c0-56.6,45.9-102.4,102.4-102.4
				c6.4,0,12.7,0.6,18.8,1.7c-12.8,46.6-29.8,108.3-30.9,112.1c2.1-3.3,64.4-31.3,106.9-50.1C673,387.6,675.7,400.7,675.7,414.3z"/>
			<path class="st20" d="M673.8,364.5C636.3,381.1,574,408.8,572,412c1.1-3.7,18.3-66.2,29.8-108.2
				C633.8,312.6,660,335.1,673.8,364.5z"/>
		</g>
		<g>
			<path class="st13" d="M922.5,291.2c0-4.7,3.8-8.5,8.5-8.5c4.7,0,8.5,3.8,8.5,8.5s-3.8,8.5-8.5,8.5
				C926.3,299.7,922.5,295.9,922.5,291.2z"/>
			<path class="st13" d="M966.7,291.2c0-4.7,3.8-8.5,8.5-8.5c4.7,0,8.5,3.8,8.5,8.5s-3.8,8.5-8.5,8.5
				C970.5,299.7,966.7,295.9,966.7,291.2z"/>
			
				<ellipse transform="matrix(0.7071 -0.7071 0.7071 0.7071 93.0784 807.1184)" class="st20" cx="1020.8" cy="291.2" rx="8.5" ry="8.5"/>
		</g>
		<g>
			<g>
				<path class="st13" d="M658.5,698.4H460.3v-63.1h198.2V698.4z M462.7,695.9H656v-58.2H462.7V695.9z"/>
			</g>
			<g>
				<rect x="474.6" y="652.2" class="st13" width="76.7" height="5"/>
				<rect x="559.4" y="652.2" class="st13" width="54.4" height="5"/>
				<rect x="474.6" y="666.5" class="st13" width="42.3" height="5"/>
				<rect x="524.1" y="666.5" class="st13" width="54.4" height="5"/>
				<rect x="584.1" y="666.5" class="st13" width="54.4" height="5"/>
			</g>
		</g>
		<g>
			<g>
				<path class="st13" d="M907.3,666.5h-98.1v-31.2h98.1V666.5z M810.4,665.3h95.7v-28.8h-95.7V665.3z"/>
			</g>
			<g>
				<rect x="816.3" y="643.7" class="st13" width="38" height="2.5"/>
				<rect x="858.2" y="643.7" class="st13" width="26.9" height="2.5"/>
				<rect x="816.3" y="650.7" class="st13" width="20.9" height="2.5"/>
				<rect x="840.7" y="650.7" class="st13" width="26.9" height="2.5"/>
				<rect x="870.5" y="650.7" class="st13" width="26.9" height="2.5"/>
			</g>
		</g>
		<g>
			<g>
				<path class="st13" d="M1024.3,666.5h-98.1v-31.2h98.1V666.5z M927.4,665.3h95.7v-28.8h-95.7V665.3z"/>
			</g>
			<g>
				<rect x="933.3" y="643.7" class="st13" width="38" height="2.5"/>
				<rect x="975.2" y="643.7" class="st13" width="26.9" height="2.5"/>
				<rect x="933.3" y="650.7" class="st13" width="20.9" height="2.5"/>
				<rect x="957.8" y="650.7" class="st13" width="26.9" height="2.5"/>
				<rect x="987.5" y="650.7" class="st13" width="26.9" height="2.5"/>
			</g>
		</g>
		<g>
			<g>
				<path class="st13" d="M907.3,527.6h-98.1v-31.2h98.1V527.6z M810.4,526.4h95.7v-28.8h-95.7V526.4z"/>
			</g>
			<g>
				<rect x="816.3" y="504.8" class="st13" width="38" height="2.5"/>
				<rect x="858.2" y="504.8" class="st13" width="26.9" height="2.5"/>
				<rect x="816.3" y="511.9" class="st13" width="20.9" height="2.5"/>
				<rect x="840.7" y="511.9" class="st13" width="26.9" height="2.5"/>
				<rect x="870.5" y="511.9" class="st13" width="26.9" height="2.5"/>
			</g>
		</g>
		<g>
			<g>
				<path class="st13" d="M1024.3,527.6h-98.1v-31.2h98.1V527.6z M927.4,526.4h95.7v-28.8h-95.7V526.4z"/>
			</g>
			<g>
				<rect x="933.3" y="504.8" class="st13" width="38" height="2.5"/>
				<rect x="975.2" y="504.8" class="st13" width="26.9" height="2.5"/>
				<rect x="933.3" y="511.9" class="st13" width="20.9" height="2.5"/>
				<rect x="957.8" y="511.9" class="st13" width="26.9" height="2.5"/>
				<rect x="987.5" y="511.9" class="st13" width="26.9" height="2.5"/>
			</g>
		</g>
		<g>
			<g>
				<path class="st13" d="M907.3,406.7h-98.1v-31.2h98.1V406.7z M810.4,405.5h95.7v-28.8h-95.7V405.5z"/>
			</g>
			<g>
				<rect x="816.3" y="383.9" class="st13" width="38" height="2.5"/>
				<rect x="858.2" y="383.9" class="st13" width="26.9" height="2.5"/>
				<rect x="816.3" y="391" class="st13" width="20.9" height="2.5"/>
				<rect x="840.7" y="391" class="st13" width="26.9" height="2.5"/>
				<rect x="870.5" y="391" class="st13" width="26.9" height="2.5"/>
			</g>
		</g>
		<g>
			<g>
				<path class="st13" d="M1024.3,406.7h-98.1v-31.2h98.1V406.7z M927.4,405.5h95.7v-28.8h-95.7V405.5z"/>
			</g>
			<g>
				<rect x="933.3" y="383.9" class="st13" width="38" height="2.5"/>
				<rect x="975.2" y="383.9" class="st13" width="26.9" height="2.5"/>
				<rect x="933.3" y="391" class="st13" width="20.9" height="2.5"/>
				<rect x="957.8" y="391" class="st13" width="26.9" height="2.5"/>
				<rect x="987.5" y="391" class="st13" width="26.9" height="2.5"/>
			</g>
		</g>
		<g>
			<g>
				<path class="st20" d="M744.5,356c0-6.1,5-11.1,11.1-11.1c6.1,0,11.1,5,11.1,11.1c0,6.1-5,11.1-11.1,11.1
					C749.5,367.1,744.5,362.1,744.5,356z"/>
				<g>
					<path class="st20" d="M756,339.8h-0.3c-1.2,0-2.2-1-2.2-2.2v-20c0-1.2,1-2.2,2.2-2.2h0.3c1.2,0,2.2,1,2.2,2.2v20
						C758.2,338.8,757.2,339.8,756,339.8z"/>
					<path class="st20" d="M756,397.2h-0.3c-1.2,0-2.2-1-2.2-2.2v-20c0-1.2,1-2.2,2.2-2.2h0.3c1.2,0,2.2,1,2.2,2.2v20
						C758.2,396.3,757.2,397.2,756,397.2z"/>
					<g>
						<path class="st20" d="M768.9,366.6l0.6-0.9c0.6-0.8,1.7-1,2.5-0.4l16.7,12.2c0.8,0.6,1,1.7,0.4,2.5l-0.6,0.9
							c-0.6,0.8-1.7,1-2.5,0.4l-16.7-12.2C768.5,368.5,768.4,367.4,768.9,366.6z"/>
						<path class="st20" d="M722.5,332.7l0.6-0.9c0.6-0.8,1.7-1,2.5-0.4l16.7,12.2c0.8,0.6,1,1.7,0.4,2.5l-0.6,0.9
							c-0.6,0.8-1.7,1-2.5,0.4l-16.7-12.2C722.1,334.6,721.9,333.5,722.5,332.7z"/>
					</g>
					<g>
						<path class="st20" d="M742.9,367l0.7,0.8c0.7,0.7,0.6,1.9-0.1,2.5L728,384.1c-0.7,0.7-1.9,0.6-2.5-0.1l-0.7-0.8
							c-0.7-0.7-0.6-1.9,0.1-2.5l15.4-13.8C741.1,366.2,742.2,366.3,742.9,367z"/>
						<path class="st20" d="M785.7,328.7l0.7,0.8c0.7,0.7,0.6,1.9-0.1,2.5l-15.4,13.8c-0.7,0.7-1.9,0.6-2.5-0.1l-0.7-0.8
							c-0.7-0.7-0.6-1.9,0.1-2.5l15.4-13.8C783.9,327.9,785.1,328,785.7,328.7z"/>
					</g>
					<g>
						<path class="st20" d="M738.8,355.3l0,1.1c0,1-0.8,1.8-1.8,1.8l-20.7-0.2c-1,0-1.8-0.8-1.8-1.8l0-1.1c0-1,0.8-1.8,1.8-1.8
							l20.7,0.2C738,353.5,738.8,354.3,738.8,355.3z"/>
						<path class="st20" d="M796.2,356.3l0,0.3c0,1.2-1,2.1-2.2,2.1l-20-0.2c-1.2,0-2.1-1-2.1-2.2l0-0.3c0-1.2,1-2.1,2.2-2.1l20,0.2
							C795.3,354.1,796.2,355.1,796.2,356.3z"/>
					</g>
				</g>
			</g>
			<g>
				<g>
					<path class="st13" d="M1030.4,363.1H809.1v-17.9h221.2V363.1z M811.2,361h217v-13.7h-217V361z"/>
				</g>
				<rect x="810.2" y="346.2" class="st13" width="171.7" height="15.8"/>
			</g>
		</g>
		<g>
			<path class="st13" d="M740.5,480.4c0-14.5,22.2-41.8,22.2-41.8s22.2,27.3,22.2,41.8s-10,26.2-22.2,26.2
				C750.5,506.6,740.5,494.9,740.5,480.4z"/>
			<g>
				<g>
					<path class="st20" d="M1030.4,481.6H809.1v-17.9h221.2V481.6z M811.2,479.5h217v-13.7h-217V479.5z"/>
				</g>
				<rect x="810.2" y="464.7" class="st20" width="104.9" height="15.8"/>
			</g>
		</g>
		<g>
			<path class="st13" d="M772.2,623.3v-58h-12.5v58c-4.1,2.2-7,6.6-7,11.6c0,7.3,5.9,13.2,13.2,13.2c7.3,0,13.2-5.9,13.2-13.2
				C779.2,629.9,776.4,625.6,772.2,623.3z"/>
			<g>
				<g>
					<path class="st13" d="M1030.4,615.7H809.1v-17.9h221.2V615.7z M811.2,613.6h217v-13.7h-217V613.6z"/>
				</g>
				<rect x="810.2" y="598.8" class="st13" width="144" height="15.8"/>
			</g>
			<path class="st20" d="M757.4,634.9c0-4.7,3.8-8.6,8.6-8.6c4.7,0,8.6,3.8,8.6,8.6c0,4.7-3.8,8.6-8.6,8.6
				C761.2,643.5,757.4,639.7,757.4,634.9z"/>
			<rect x="763.2" y="604.2" class="st20" width="5.1" height="26.9"/>
		</g>
		<g>
			<rect x="461.5" y="587.3" class="st13" width="20.7" height="28.7"/>
			<rect x="496.9" y="568.2" class="st13" width="20.7" height="47.8"/>
			<rect x="532.3" y="552.6" class="st20" width="20.7" height="63.4"/>
			<rect x="567.7" y="565.3" class="st13" width="20.7" height="50.7"/>
			<rect x="603.1" y="538.3" class="st13" width="20.7" height="77.7"/>
			<rect x="638.5" y="524.4" class="st20" width="20.7" height="91.6"/>
		</g>
		<rect x="524.1" y="459.6" class="st21" width="43.6" height="4"/>
		<rect x="524.1" y="468.8" class="st21" width="66.8" height="4"/>
		<rect x="601.5" y="338.6" class="st21" width="43.6" height="4"/>
		<rect x="601.5" y="347.8" class="st21" width="27.3" height="4"/>
	</g>
	<g>
		<path class="st22" d="M1455,427.9c0,0,82.7,94,111.6,152c0,0-34.7,75.6-147.2,136.9c0,0-5-1.1-12.6-6.5
			c-11.9-8.5,1.3-14.7,3.9-16.4c28.5-18.5,78.4-98.1,79.8-105c1.4-6.9-62.5-68.9-81.9-91.8C1389.2,474.2,1424.8,416.1,1455,427.9z"
			/>
		<path class="st22" d="M1238.9,425.3c0,0-108.3,103.1-133.3,100.3c-25-2.7-123-26.4-123-26.4l-8.2,18.8c0,0,98.3,57.7,145.5,56.9
			c47.2-0.8,109-45.8,109-45.8L1238.9,425.3z"/>
		<path class="st23" d="M1317.5,289.7c0,0,0.5,11.6-6.4,13.9c-7,2.3,7.2,27.3,6.1,44.2c-1.1,16.9-8.6,23.7-8.6,23.7s3.6-9.3,1.6-15
			c0,0,0.3,12-8.4,18c-8.7,6-6.4,11.2-6.4,11.2s-19.7-5.9-20.3-20.7c0,0-0.8,6.7-0.2,9.5c0,0-17-12.8-17.8-27.5
			c-0.8-14.7,13.4-27.2,19.9-27.4c6.5-0.2,20.9-12.9,20.5-17.7C1297.1,296.8,1317.5,289.7,1317.5,289.7z"/>
		<ellipse transform="matrix(0.55 -0.8352 0.8352 0.55 387.46 1239.4969)" class="st24" cx="1343.9" cy="260.2" rx="37.8" ry="97"/>
		<path class="st25" d="M1362.9,827.9c-12.4,65.7-28.4,155.2-40.7,225.2c-1.5,8.3-2.9,16.2-4.2,23.9c-0.3,1.8-0.6,3.5-0.9,5.2
			h-123.2c-0.2-1.8-0.3-3.5-0.5-5.2c-5.5-59.6-4.8-112.3-1.3-156c1.3-17,3.1-32.6,5-46.8c8.1-83.8,10.8-119.2,11.7-131l0.2-2.6
			c0-0.2,0-0.3,0-0.4l0-0.4c0-0.2,0-0.4,0-0.6l0-0.5c0-0.2,0-0.3,0-0.3l42,12.5l20.5,6.1l4.8,15.4l9.7,30.8l70.3,22.7L1362.9,827.9z
			"/>
		<path class="st12" d="M1443.7,844.5c-2.1,34.2-5.6,154.6-9.5,232.5c-0.1,1.8-0.2,3.5-0.3,5.2h-127.7c-0.4-1.7-0.8-3.5-1.2-5.2
			c-13.6-61-24.7-129.5-32.6-185c-1.4,0.1-16-99.3-52.5-143c-0.3-0.4-0.4-0.7-0.2-0.9c1.8-2.3,25,1.7,25,1.7c2,0.5,4.1,0.9,6.3,1.2
			c17.5,2.4,43-1.5,68.3-7.4c0,0,0,0,0,0c6.8-1.6,13.6-3.3,20.3-5.1c18.7-5.1,36-10.7,48.4-14.9c3.1-1,5.8-2,8.2-2.8
			c1.9-0.7,3.6-1.3,5.1-1.8c0,0,0,0,0,0c3.4-1.2,5.4-2,5.4-2s0.9,0.8,2.3,2.3c4.9,5.2,16.5,19.4,25.1,44.1
			C1441,783.3,1445.9,810,1443.7,844.5z"/>
		<path class="st23" d="M1288.1,208.8l80.4,122c0,0,9.2-18,19.4-11.5c15.9,10.1,50.1-24.4,43-73c-0.5-3.2-1-6.2-1.6-9.1
			c-16-23.1-33.9-48.8-46.6-66.9C1345.7,147.9,1288.1,208.8,1288.1,208.8z"/>
		<path class="st22" d="M1252.8,455.3c11.3,10.3,25.9,19.5,44.8,26.7c71,26.9,107.5-31.2,123.9-72.3c-9.2-7.1-18.5-9.6-23.8-11
			c-4.2-1.1-8.5-2-12.5-2.8c-2.1-0.4-3.9-1.6-5.1-3.4c-6.8-10.2-13.6-36.1-11.2-72.5l-3.6,0.5l-59.9,8c0,0,0.1,18.7-0.9,36.3
			c-0.5,7.5-1.2,14.8-2.2,20.4c-1,5.3-5.3,9.3-10.7,9.8l0,0c0,0,0,0,0,0.1C1290.7,396,1270.2,421.3,1252.8,455.3z"/>
		<path class="st26" d="M1305.5,328.4c0,0,0.2,18.7-0.9,36.3c33.2,1.2,52.6-27.9,60.8-44.2L1305.5,328.4z"/>
		<path class="st22" d="M1293.3,344.3c0,0,78.3,6.3,81.4-42.5c3.2-48.8,15.4-80.9-34.5-86.9c-49.8-6.1-60.8,11.9-65.8,28
			C1269.5,258.8,1273.1,341.4,1293.3,344.3z"/>
		<path class="st23" d="M1278.6,215.8c13-13.9,22-10.1,26.8-5.4c44.3-20.8,69.7,15.7,69.7,15.7c3,35.4,27,57,27,57
			s-14.8,7.9-47.2-2.6c-9.9-3.2-18.4-10.9-25.5-20.1c11.9,23.2,29,40.4,29,40.4c-38.2-20.7-50.5-76.4-51.7-82.3
			c-5.1,4-15.1,12.7-18.5,21.7c-4.7,12.2-8.1,37.7-15.5,36.3C1272.7,276.6,1259,236.6,1278.6,215.8z"/>
		<path class="st15" d="M1432.6,270.3c0,0,36.4-72.5-14.5-101.1c-50.9-28.6-88.1-17.4-116.1,17.6L1432.6,270.3z"/>
		<path class="st20" d="M1434.7,539.9c2.8,2.9,4.5,4.5,4.5,4.5c59.3-7.4,62.1-68.3,62.1-68.3s-46.4-61.2-89.7-74.7
			c-10.5-3.3-26.4-5.7-26.4-5.7c-13.6,11.2-29.2,27.7-43.9,41.1c-16.9,15.4-46.1,20.7-56.9-6.7c-4.3-11,6.1-33.7,7.1-35.4
			c0,0,0-0.1,0-0.1c-1.1,0.1-2.2,0.2-3.3,0.2c-5.3,0.4-10.1,1.1-14.4,1.5c-21.1,2.1-50.4,16.1-109.4,90.8c0,0,31.9,39.4,64.3,41.7
			c-1.3,62.4,5.4,164,5.4,164c-14.2,27.8,196.1,92.3,205.2,65.7c13.6-20.8,0-60.5-11.7-91c-2.9-7.4-3.5-15.4-6.1-21.1
			c-1.6-3.7-3-7.5-3.9-11.4c-2.4-9.7-2.7-20-0.7-29.9C1422,581.3,1428.7,558.8,1434.7,539.9z"/>
		<path class="st1" d="M1436.6,261c-1.5-1.6-3.1-3.2-4.7-4.7l0,0c-15.7-15.3-35.7-31-58.7-45.4c-18.5-11.5-36.9-20.9-54.2-28h0
			c-3.4-1.4-6.8-2.7-10.1-3.9c-39.6-14.5-71.5-15.6-81.2-0.1c-10.2,16.3,7.1,46.7,40.8,77.6l0,0c0-0.3-0.1-0.5-0.1-0.8
			c0-0.3,0-0.5-0.1-0.8c0-0.3-0.1-0.6-0.1-0.9c0-0.2,0-0.5-0.1-0.7c0-0.4,0-0.8-0.1-1.2c0-0.5-0.1-1-0.1-1.5c0-0.1,0-0.1,0-0.2
			c0-0.4,0-0.7,0-1.1V249c0-0.2,0-0.5,0-0.7c0-0.9,0-1.7,0-2.6c0-0.3,0-0.6,0-0.9c0-0.2,0-0.3,0-0.5c0-0.3,0-0.6,0.1-0.9
			c0-0.5,0.1-1.1,0.1-1.6c0-0.5,0.1-1,0.1-1.6c0,0,0-0.1,0-0.1c0-0.2,0-0.4,0.1-0.6c0-0.1,0-0.2,0-0.4c0.1-0.4,0.1-0.7,0.1-1.1
			c0.1-0.6,0.2-1.2,0.3-1.8c0-0.1,0-0.2,0.1-0.3c0.1-0.7,0.3-1.4,0.4-2.1c0.1-0.3,0.2-0.7,0.2-1c0,0,0-0.1,0-0.1
			c-3.6-7.6-4.3-14.2-1.3-18.9c3.4-5.5,11.2-7.7,21.7-7c0,0,0,0,0,0c0.3,0,0.6,0,0.9,0.1h0c3.9,0.3,8.1,1,12.7,2h0
			c1.1,0.2,2.1,0.5,3.2,0.8c4,1,8.2,2.4,12.5,3.9h0.1c13,4.7,27.2,11.6,41.6,20.6c6,3.7,11.6,7.6,16.9,11.5h0c0.5,0.4,1,0.8,1.6,1.2
			c24.4,18.5,40.5,38.3,42.3,52.1c0.5,3.6,0,6.9-1.7,9.5c-0.1,0.2-0.3,0.4-0.4,0.6c0,0,0,0.1-0.1,0.1c-1.1,1.5-2.5,2.7-4.2,3.6
			c0,0,0,0,0,0c-0.2,0.1-0.5,0.3-0.7,0.4c0,0,0,0,0,0c-1.8,0.9-3.9,1.5-6.2,1.9c0,0,0,0,0,0s0,0,0,0c-0.2,0.2-0.5,0.4-0.7,0.5
			c-0.2,0.1-0.3,0.3-0.5,0.4c-0.2,0.1-0.3,0.2-0.5,0.4c-0.1,0-0.1,0.1-0.2,0.1c-0.3,0.2-0.6,0.4-0.9,0.6c-0.5,0.3-0.9,0.6-1.4,0.8
			c-0.2,0.1-0.5,0.3-0.7,0.4c-0.2,0.1-0.5,0.2-0.7,0.4c-0.3,0.2-0.6,0.3-0.9,0.4c-0.1,0.1-0.2,0.1-0.3,0.2c-0.1,0.1-0.2,0.1-0.3,0.1
			c0,0,0,0,0,0c0,0-0.1,0-0.1,0c-0.1,0.1-0.3,0.1-0.4,0.2c-0.2,0.1-0.4,0.2-0.6,0.2c-0.3,0.1-0.5,0.2-0.8,0.3
			c-0.2,0.1-0.5,0.2-0.7,0.2c0,0,0,0-0.1,0c-0.2,0.1-0.4,0.1-0.6,0.1c-0.1,0-0.1,0-0.2,0.1c-0.2,0-0.4,0.1-0.6,0.1
			c-0.2,0-0.5,0.1-0.7,0.1c-0.1,0-0.3,0-0.4,0.1c-0.2,0-0.3,0-0.5,0.1c-0.2,0-0.4,0-0.6,0.1c-0.1,0-0.2,0-0.3,0h-0.1
			c-0.1,0-0.1,0-0.2,0h-0.1c-0.1,0-0.1,0-0.2,0c-0.6,0-1.1,0-1.7-0.1c-0.6-0.1-1.1-0.2-1.6-0.3c-0.3-0.1-0.5-0.2-0.8-0.2
			c-0.2-0.1-0.4-0.1-0.6-0.2c-0.1-0.1-0.3-0.1-0.4-0.2c-0.1-0.1-0.2-0.1-0.3-0.2c-0.1,0-0.2-0.1-0.3-0.2c-0.2-0.1-0.4-0.2-0.6-0.3
			c-0.4-0.3-0.8-0.5-1.2-0.6c-0.1-0.1-0.3-0.1-0.4-0.2c-0.1,0-0.1,0-0.2-0.1c-0.2-0.1-0.4-0.1-0.6-0.2c-0.8-0.2-1.5-0.3-2.3-0.3
			c0,0,0,0,0,0h-0.1c0,0-0.1,0-0.1,0h-0.1c-0.1,0-0.2,0-0.3,0c-0.1,0-0.1,0-0.2,0c-0.2,0-0.3,0-0.5,0.1c0,0,0,0-0.1,0
			c-0.1,0-0.1,0-0.2,0c-0.1,0-0.3,0-0.4,0.1c-0.1,0-0.2,0.1-0.4,0.1c-0.1,0-0.3,0.1-0.4,0.1c-0.1,0-0.2,0.1-0.3,0.1
			c-0.1,0-0.3,0.1-0.4,0.2c0,0,0,0,0,0c-0.1,0-0.2,0.1-0.3,0.1c-0.1,0.1-0.2,0.1-0.3,0.1c-0.1,0.1-0.2,0.1-0.4,0.2l-0.3,0.2
			c-0.1,0.1-0.2,0.1-0.3,0.2c-0.1,0.1-0.2,0.1-0.3,0.2c-0.1,0.1-0.2,0.1-0.3,0.2c-0.1,0.1-0.2,0.1-0.3,0.2c-0.2,0.1-0.4,0.3-0.6,0.5
			c-0.1,0.1-0.2,0.2-0.3,0.3c-0.1,0.1-0.2,0.2-0.3,0.3c-0.2,0.2-0.4,0.4-0.6,0.5c-0.2,0.2-0.4,0.4-0.6,0.6c-0.1,0.1-0.2,0.2-0.3,0.3
			c-0.1,0.1-0.2,0.2-0.3,0.3c-0.1,0.1-0.2,0.2-0.3,0.3h0c3.8,1.6,7.6,3,11.3,4.4c11.9,4.3,23.1,7.4,33.1,9.2
			c23.4,4.2,40.9,1.5,47.6-9.3C1474.9,313.1,1462.7,287.9,1436.6,261z"/>
		<path class="st27" d="M1389.7,671.8c30.3,9.7,16.1-6.9,39.5-5.2c-2.9-7.4-5-14.2-7.6-19.9c-1.6-3.7-3-7.5-3.9-11.4
			c-2.4-9.7-2.7-20-0.7-29.9c5.4-26.4,11.3-45.7,17.7-65.5c-6.7-17.6-35.2,11.2-35.2,11.2s-26.4,27.8-19.5,75
			C1386.4,670.2,1363.5,663.5,1389.7,671.8z"/>
		<path class="st12" d="M1411.6,401.6c0,0-48.9,31.2-61.4,97.1l-14.8-4.7c0,0,6.2-47.5,62.8-95.8c0,0,4.3,0.8,5.7,1.2
			C1405.8,399.9,1411.6,401.6,1411.6,401.6z"/>
		<path class="st12" d="M1238.9,500.3l15.5,1c-3.1-57.1,25.6-96.1,34-106.3c-5.3,0.4-10.1,0.9-14.4,1.5
			C1242.5,444.5,1238.9,500.3,1238.9,500.3z"/>
		<path class="st12" d="M1348.7,535.2c1-4.1,10.4-43.6,10.4-43.6s2.2-12.4-19.5-13.6c-21.7-1.2-98.8-5.3-98.8-5.3
			s-10.5,6.3-10.7,19.3c-0.2,13-10.6,87.4-10.6,87.4l-10.8,163.7l235,101.3c0,0,16.1-82.7-1.9-140.4c-10.5-33.6-24.1-68.7-24.1-68.7
			S1334.1,597.4,1348.7,535.2z"/>
		<g>
			<g>
				<path class="st27" d="M1350.8,492.9c1.1-3.4-0.8-7.1-4.2-8.2c-3.4-1.1-7.1,0.8-8.2,4.2c-1.1,3.4,0.8,7.1,4.2,8.2
					C1346,498.2,1349.7,496.3,1350.8,492.9z"/>
				<path class="st20" d="M1349.7,492.6c1.1-3.4-0.8-7.1-4.2-8.2c-3.4-1.1-7.1,0.8-8.2,4.2c-1.1,3.4,0.8,7.1,4.2,8.2
					C1344.9,497.9,1348.6,496,1349.7,492.6z"/>
			</g>
			<path class="st12" d="M1347.5,490.6c0-0.5-0.4-0.9-0.9-0.9c-0.5,0-0.9,0.4-0.9,0.9c0,0.5,0.4,0.9,0.9,0.9
				C1347.1,491.5,1347.5,491.1,1347.5,490.6z"/>
			<path class="st12" d="M1341.3,490.6c0-0.5-0.4-0.9-0.9-0.9c-0.5,0-0.9,0.4-0.9,0.9c0,0.5,0.4,0.9,0.9,0.9
				C1340.9,491.6,1341.3,491.1,1341.3,490.6z"/>
		</g>
		<g>
			<g>
				<path class="st27" d="M1255.2,484.7c1.1-3.4-0.8-7.1-4.2-8.2c-3.4-1.1-7.1,0.8-8.2,4.2c-1.1,3.4,0.8,7.1,4.2,8.2
					C1250.5,490,1254.1,488.1,1255.2,484.7z"/>
				<path class="st20" d="M1254.1,484.3c1.1-3.4-0.8-7.1-4.2-8.2c-3.4-1.1-7.1,0.8-8.2,4.2c-1.1,3.4,0.8,7.1,4.2,8.2
					C1249.4,489.6,1253,487.7,1254.1,484.3z"/>
			</g>
			<path class="st12" d="M1251.9,482.4c0-0.5-0.4-0.9-0.9-0.9c-0.5,0-0.9,0.4-0.9,0.9c0,0.5,0.4,0.9,0.9,0.9
				C1251.5,483.3,1251.9,482.9,1251.9,482.4z"/>
			<path class="st12" d="M1245.8,482.4c0-0.5-0.4-0.9-0.9-0.9c-0.5,0-0.9,0.4-0.9,0.9c0,0.5,0.4,0.9,0.9,0.9
				C1245.4,483.3,1245.8,482.9,1245.8,482.4z"/>
		</g>
		<path class="st23" d="M1421.8,299c0,0,0.5,11.6-6.4,13.9c-7,2.3,7.2,27.3,6.1,44.2c-1.1,16.9-8.6,23.7-8.6,23.7s3.6-9.3,1.6-15
			c0,0,0.3,12-8.4,18c-8.7,6-6.4,11.2-6.4,11.2s-19.7-5.9-20.3-20.7c0,0-0.8,6.7-0.2,9.5c0,0-17-12.8-17.8-27.5
			c-0.8-14.7,13.4-27.2,19.9-27.4c6.5-0.2,20.9-12.9,20.5-17.7C1401.4,306.1,1421.8,299,1421.8,299z"/>
		<path class="st28" d="M1317.5,317c0,0-11.7,7.1-20,6.2c-8.2-0.8-12.7-10.7-12.7-10.7S1300.8,310.2,1317.5,317z"/>
		<g>
			<g>
				<path class="st29" d="M1391.4,738.4h-157.1c-6.6,0-14.1-5.3-16.7-11.9l-39.5-97.4c-2.7-6.6,0.5-11.9,7.1-11.9h157.1
					c6.6,0,14.1,5.3,16.7,11.9l39.5,97.4C1401.2,733,1398,738.4,1391.4,738.4z"/>
			</g>
			<g>
				<path class="st30" d="M1382.1,738.4H1225c-6.6,0-14.1-5.3-16.7-11.9l-39.5-97.4c-2.7-6.6,0.5-11.9,7.1-11.9h157.1
					c6.6,0,14.1,5.3,16.7,11.9l39.5,97.4C1391.8,733,1388.6,738.4,1382.1,738.4z"/>
				<g>
					<path class="st12" d="M1184.4,624.7L1184.4,624.7c3,0,6.4,2.4,7.6,5.4l0,0c1.2,3-0.2,5.4-3.2,5.4l0,0c-3,0-6.4-2.4-7.6-5.4l0,0
						C1179.9,627.1,1181.4,624.7,1184.4,624.7z"/>
					<path class="st12" d="M1201.6,626.9L1201.6,626.9c1.7,0,3.8,1.4,4.5,3.2l0,0c0.7,1.7-0.1,3.2-1.9,3.2l0,0
						c-1.7,0-3.8-1.4-4.5-3.2l0,0C1199.1,628.3,1199.9,626.9,1201.6,626.9z"/>
				</g>
			</g>
			<path class="st29" d="M1263.1,674.7c-2.6-6.5,0.5-11.7,6.9-11.7c6.5,0,13.8,5.2,16.4,11.7c2.6,6.5-0.5,11.7-6.9,11.7
				C1273.1,686.4,1265.7,681.1,1263.1,674.7z"/>
		</g>
		<g>
			<path class="st22" d="M1410.1,695.1c0,0-21.6-12.3-26.8-18c-3.4-3.7-3.6,1.1-3.3,2.4c0.4,2.7,0.8,7.9,7,13
				C1395.8,699.7,1410.1,695.1,1410.1,695.1z"/>
			<path class="st22" d="M1410.1,695.1c0,0-39-11.7-47.9-10.7c-9,1-29.5,7.4-31.1,9.1c-1.7,1.7,5.4,3.4,10.8,1.9
				c6.9-2,17.7,0.2,17.7,0.2s-21.8,4.7-27.3,7.1c-0.5,0.2-0.6,1-0.2,1.4c1.3,1,4.7,1.7,9.5,1c6.9-1,19.1-0.8,19.1-0.8l-24.8,5.4
				c-0.3,0.1-0.5,0.3-0.5,0.7c0,1.2,2,2.4,7.8,2.7c4.5,0.2,19.6-2,19.6-2l-13.5,7.1c0,0,3.3,2.3,10.2,0.1c4.7-1.6,18.8-5.1,22.1-4.4
				c3.3,0.7,19.5,6.4,27.2,5.4c7.5-1,10.7-2.4,10.7-2.4L1410.1,695.1z"/>
		</g>
		<g>
			<path class="st22" d="M982.6,499.2c0,0-19.5-20.9-26.7-23.4c-7.2-2.5-32.8-6.8-32.8-6.8s0.1,6.1,11.6,10.4
				c11.5,4.2,13.9,24.1,20.7,29.8c6.8,5.6,24.7,10.5,24.7,10.5L982.6,499.2z"/>
			<path class="st22" d="M974.5,518c0,0-19-0.8-25.2-4.7c-6.2-3.9-16.3-9-14.3-12.1c1.9-3.1,22.9-0.8,22.9-0.8L974.5,518z"/>
			<path class="st22" d="M954.4,479.5C953.4,479,928,462,928,462s-2.1,8,1.6,9.6C933.3,473.2,954.4,479.5,954.4,479.5z"/>
		</g>
		<path class="st22" d="M1518.4,643.6c-22.8,23-54.9,49.3-99,73.3c0,0-5-1.1-12.6-6.5c-11.9-8.5,1.3-14.7,3.9-16.4
			c12.9-8.4,30.3-29.3,45.5-50.4H1518.4z"/>
	</g>
	<path class="st4" d="M267.3,1080.2H76.9c0-0.1-0.1-0.1-0.1-0.2c-0.2-0.6-0.6-1.5-1-2.5l-0.2-0.3c0,0,0,0,0-0.2c0,0-0.2-0.2-0.2-0.3
		c-0.6-1.3-1.1-2.7-1.8-4.5c-0.3-0.8-0.6-1.8-1.1-2.7c0-0.2,0-0.2,0-0.3c-0.2-0.2-0.2-0.2-0.2-0.2c-2.2-5.7-4.9-13.1-8.1-22.1
		c-0.3-0.8-0.6-1.6-0.9-2.5c-2.4-6.8-4.9-14.4-7.7-22.7c-1.3-3.9-2.6-8-3.9-12.3c18.8-5.2,43.4-8.8,65.3-1.7
		c14.2,4.6,23.7,11.4,31.2,18.2c15.1,13.7,21.3,27.3,38.8,22c4.4-1.3,9.6-2.1,15.2-2.3C230.8,1044.2,269.8,1056.1,267.3,1080.2z"/>
</g>
</svg>
