<svg xmlns="http://www.w3.org/2000/svg" xmlns:xlink="http://www.w3.org/1999/xlink" width="934" height="983" viewBox="0 0 934 983">
  <defs>
    <style>
      .cls-1 {
        clip-path: url(#clip-Web_1920_1);
      }

      .cls-10, .cls-13, .cls-14, .cls-16, .cls-17, .cls-2, .cls-21, .cls-23, .cls-24, .cls-4, .cls-5, .cls-6, .cls-9 {
        isolation: isolate;
      }

      .cls-3 {
        fill: #dd1964;
      }

      .cls-10, .cls-16, .cls-4, .cls-5, .cls-7, .cls-9 {
        fill: #fff;
      }

      .cls-24, .cls-4 {
        opacity: 0.5;
      }

      .cls-5 {
        opacity: 0.25;
      }

      .cls-16, .cls-17, .cls-6, .cls-8 {
        opacity: 0.1;
      }

      .cls-9 {
        opacity: 0.6;
      }

      .cls-10, .cls-13, .cls-15 {
        opacity: 0.2;
      }

      .cls-11 {
        fill: #fab27b;
      }

      .cls-12, .cls-17 {
        fill: #263238;
      }

      .cls-14 {
        opacity: 0.3;
      }

      .cls-18 {
        fill: #ed893e;
      }

      .cls-19, .cls-20, .cls-21 {
        fill: #ffeddf;
      }

      .cls-19 {
        opacity: 0.8;
      }

      .cls-22 {
        fill: #ffc3bd;
      }

      .cls-23 {
        opacity: 0.4;
      }

      .cls-25 {
        fill: #ed847e;
      }

      .cls-26 {
        fill: rgba(255,255,255,0);
      }
    </style>
    <clipPath id="clip-Web_1920_1">
      <rect width="934" height="983"/>
    </clipPath>
  </defs>
  <g id="Web_1920_1" data-name="Web 1920 – 1" class="cls-1">
    <rect class="cls-26" width="934" height="983"/>
    <g id="Componente_65_1" data-name="Componente 65 – 1" class="cls-2" transform="translate(68 102.605)">
      <g id="freepik--Data--inject-2" transform="translate(154.833)">
        <path id="Caminho_746" data-name="Caminho 746" class="cls-3" d="M822.447,137.9l-9.355,178.583a16.347,16.347,0,0,0,15.242,17.38c.417.025.836.038,1.256.033h236.086a18.531,18.531,0,0,0,18.3-17.413l9.38-178.583a16.37,16.37,0,0,0-15.3-17.38c-.4-.025-.8-.038-1.2-.033H840.877A18.557,18.557,0,0,0,822.447,137.9Z" transform="translate(-563.067 -41.279)"/>
        <path id="Caminho_747" data-name="Caminho 747" class="cls-4" d="M822.447,137.9l-9.355,178.583a16.347,16.347,0,0,0,15.242,17.38c.417.025.836.038,1.256.033h236.086a18.531,18.531,0,0,0,18.3-17.413l9.38-178.583a16.37,16.37,0,0,0-15.3-17.38c-.4-.025-.8-.038-1.2-.033H840.877A18.557,18.557,0,0,0,822.447,137.9Z" transform="translate(-563.067 -41.279)"/>
        <path id="Caminho_748" data-name="Caminho 748" class="cls-3" d="M929.462,120.491h-5.847A16.371,16.371,0,0,1,940.147,136.7c0,.4-.008.8-.033,1.2l-9.38,178.583a18.531,18.531,0,0,1-18.3,17.413h5.847a18.531,18.531,0,0,0,18.3-17.413L945.96,137.9a16.369,16.369,0,0,0-15.3-17.38C930.265,120.5,929.864,120.486,929.462,120.491Z" transform="translate(-409.821 -41.279)"/>
        <path id="Caminho_749" data-name="Caminho 749" class="cls-3" d="M829.981,128.25l-9.1,173.956h231.332l9.126-173.956Zm228.51,27.963h-26.54l1.373-26.565h26.565ZM939.622,216.588l-1.373,25.828h-25.8l1.347-25.828Zm-25.675-2.923,1.347-25.828h25.828l-1.347,25.828Zm28.6,2.923h25.8L967,242.416H941.173Zm.153-2.923,1.347-25.828h25.828l-1.246,25.929Zm30.1-25.828h25.828l-1.373,25.828H971.424Zm.153-2.923,1.347-25.8h25.828l-1.347,25.8Zm-2.924,0H944.2l1.347-25.8h25.828Zm-28.751,0H915.447l1.347-25.8h25.828Zm-28.751,0H886.7l1.347-25.8H913.87Zm-.153,2.923-1.347,25.828H885.2l1.347-25.828ZM882.2,213.766H856.444l1.347-25.828h25.828Zm0,2.822-1.347,25.828h-25.9l1.347-25.828Zm2.923,0h25.828L909.6,242.416H883.7Zm24.328,28.751-1.373,25.828H882.2l1.373-25.828Zm2.923,0h25.752l-1.347,25.828H910.921Zm28.726,0h25.752L965.5,271.167H939.673Zm28.751,0h25.828l-1.347,25.828h-25.9Zm.152-2.923,1.169-25.828H997.1l-1.347,25.828Zm30.022-25.828h25.828l-1.3,25.93H998.675Zm.153-2.923,1.373-25.828h25.8L1026,213.665Zm1.525-28.751,1.347-25.8h25.828l-1.373,25.8Zm1.5-28.726,1.4-26.565h25.8l-1.373,26.565Zm-2.923,0H974.449l1.4-26.565h25.828Zm-28.751,0H945.748l1.4-26.565h25.828Zm-28.751,0H916.946l1.4-26.565h25.828Zm-28.751,0h-25.8l1.373-26.565h25.828Zm-28.726,0H859.469l1.373-26.565H886.67Zm-.178,2.923-1.347,25.8H857.944l1.373-25.8Zm-30.1,25.8h-26.54l1.347-25.8h26.565Zm-.153,2.923-1.347,25.828H826.981l1.347-25.828Zm-1.5,28.751-1.347,25.828H825.456l1.373-25.828Zm-1.5,28.751-1.347,25.828H823.956l1.347-25.828Zm2.923,0h25.828l-1.373,25.828h-25.8Zm24.3,28.751-1.373,26.54H851.894l1.4-26.54Zm2.923,0h25.828l-1.373,26.54H880.645Zm28.751,0H936.6l-1.4,26.54H909.4Zm28.751,0h25.828l-1.4,26.54H938.122Zm28.751,0h25.777l-1.4,26.54H966.873Zm28.751,0h25.828l-1.4,26.54H995.625Zm.153-2.923,1.348-25.828h25.828L1023,271.167Zm30.1-25.828h26.54l-1.3,25.929h-26.591Zm.152-2.923,1.347-25.828h26.565l-1.373,25.828Zm1.5-28.751,1.347-25.828h26.565l-1.348,25.828Zm1.5-28.751,1.373-25.8h26.54l-1.347,25.8ZM857.918,129.623l-1.373,26.565H829.981l1.4-26.565Zm-34.191,144.57h26.565l-1.4,26.54H822.405Zm200.572,26.54,1.4-26.54h26.54l-1.4,26.54Z" transform="translate(-551.001 -29.311)"/>
        <path id="Caminho_750" data-name="Caminho 750" class="cls-5" d="M829.981,128.25l-9.1,173.956h231.332l9.126-173.956Zm228.51,27.963h-26.54l1.373-26.565h26.565ZM939.622,216.588l-1.373,25.828h-25.8l1.347-25.828Zm-25.675-2.923,1.347-25.828h25.828l-1.347,25.828Zm28.6,2.923h25.8L967,242.416H941.173Zm.153-2.923,1.347-25.828h25.828l-1.246,25.929Zm30.1-25.828h25.828l-1.373,25.828H971.424Zm.153-2.923,1.347-25.8h25.828l-1.347,25.8Zm-2.924,0H944.2l1.347-25.8h25.828Zm-28.751,0H915.447l1.347-25.8h25.828Zm-28.751,0H886.7l1.347-25.8H913.87Zm-.153,2.923-1.347,25.828H885.2l1.347-25.828ZM882.2,213.766H856.444l1.347-25.828h25.828Zm0,2.822-1.347,25.828h-25.9l1.347-25.828Zm2.923,0h25.828L909.6,242.416H883.7Zm24.328,28.751-1.373,25.828H882.2l1.373-25.828Zm2.923,0h25.752l-1.347,25.828H910.921Zm28.726,0h25.752L965.5,271.167H939.673Zm28.751,0h25.828l-1.347,25.828h-25.9Zm.152-2.923,1.169-25.828H997.1l-1.347,25.828Zm30.022-25.828h25.828l-1.3,25.93H998.675Zm.153-2.923,1.373-25.828h25.8L1026,213.665Zm1.525-28.751,1.347-25.8h25.828l-1.373,25.8Zm1.5-28.726,1.4-26.565h25.8l-1.373,26.565Zm-2.923,0H974.449l1.4-26.565h25.828Zm-28.751,0H945.748l1.4-26.565h25.828Zm-28.751,0H916.946l1.4-26.565h25.828Zm-28.751,0h-25.8l1.373-26.565h25.828Zm-28.726,0H859.469l1.373-26.565H886.67Zm-.178,2.923-1.347,25.8H857.944l1.373-25.8Zm-30.1,25.8h-26.54l1.347-25.8h26.565Zm-.153,2.923-1.347,25.828H826.981l1.347-25.828Zm-1.5,28.751-1.347,25.828H825.456l1.373-25.828Zm-1.5,28.751-1.347,25.828H823.956l1.347-25.828Zm2.923,0h25.828l-1.373,25.828h-25.8Zm24.3,28.751-1.373,26.54H851.894l1.4-26.54Zm2.923,0h25.828l-1.373,26.54H880.645Zm28.751,0H936.6l-1.4,26.54H909.4Zm28.751,0h25.828l-1.4,26.54H938.122Zm28.751,0h25.777l-1.4,26.54H966.873Zm28.751,0h25.828l-1.4,26.54H995.625Zm.153-2.923,1.348-25.828h25.828L1023,271.167Zm30.1-25.828h26.54l-1.3,25.929h-26.591Zm.152-2.923,1.347-25.828h26.565l-1.373,25.828Zm1.5-28.751,1.347-25.828h26.565l-1.348,25.828Zm1.5-28.751,1.373-25.8h26.54l-1.347,25.8ZM857.918,129.623l-1.373,26.565H829.981l1.4-26.565Zm-34.191,144.57h26.565l-1.4,26.54H822.405Zm200.572,26.54,1.4-26.54h26.54l-1.4,26.54Z" transform="translate(-551.001 -29.311)"/>
        <path id="Caminho_751" data-name="Caminho 751" class="cls-6" d="M993.826,213.994l-68.459-7.042,64.087-23.794.712-13.372C977.455,150.9,950.94,138.01,919.495,138.01c-45.046,0-82.974,26.489-84.678,59.155v2.822c0,.941-.61,9.609-.661,10.55-1.7,32.692,33.429,59.155,78.5,59.155,36.988,0,69.145-17.795,80.432-42.3Z" transform="translate(-530.62 -14.26)"/>
        <path id="Caminho_752" data-name="Caminho 752" class="cls-6" d="M884.94,183.264l77.331,16.829a45.749,45.749,0,0,0,4.271-16.829v-4.881a41.581,41.581,0,0,0,.559-5.084,44.525,44.525,0,0,0-7.83-27.379L885.55,173.3Z" transform="translate(-452.214 -2.062)"/>
        <path id="Caminho_753" data-name="Caminho 753" class="cls-3" d="M991.6,211.694l-68.383-7.042L987.3,180.858l.712-13.371C975.3,148.6,948.791,135.71,917.345,135.71c-45.046,0-82.974,26.489-84.677,59.155v2.822c0,.941-.61,9.609-.661,10.55-1.7,32.692,33.429,59.155,78.5,59.155,36.988,0,69.146-17.795,80.432-42.3Z" transform="translate(-533.935 -17.807)"/>
        <path id="Caminho_754" data-name="Caminho 754" class="cls-7" d="M913.873,194.885l73.721-27.379c-12.711-18.888-39.225-31.776-70.671-31.776-45.046,0-82.974,26.489-84.678,59.155s33.429,59.155,78.475,59.155c37.013,0,69.171-17.795,80.458-42.326Z" transform="translate(-533.565 -17.776)"/>
        <path id="Caminho_755" data-name="Caminho 755" class="cls-3" d="M882.76,180.948l77.331,16.829a45.745,45.745,0,0,0,4.271-16.829v-4.881a41.642,41.642,0,0,0,.559-5.084,44.517,44.517,0,0,0-7.83-27.353L883.37,171.008Z" transform="translate(-455.576 -5.594)"/>
        <path id="Caminho_756" data-name="Caminho 756" class="cls-7" d="M960.255,187.786a45.535,45.535,0,0,0,4.245-16.829,44.51,44.51,0,0,0-7.779-27.328L883,171.008Z" transform="translate(-455.206 -5.594)"/>
        <path id="Caminho_757" data-name="Caminho 757" class="cls-6" d="M852.483,251.154l6.863-130.664H840.815A18.558,18.558,0,0,0,822.486,137.9l-9.355,178.583a16.347,16.347,0,0,0,15.243,17.38c.417.025.836.038,1.256.033H941.482l1.7-32.259a26.921,26.921,0,0,0-25.271-28.474c-.592-.036-1.185-.053-1.777-.048H841.425A31.019,31.019,0,0,0,852.483,251.154Z" transform="translate(-563.005 -41.278)"/>
        <path id="Caminho_758" data-name="Caminho 758" class="cls-3" d="M724.131,111.919l-9.38,178.608a16.37,16.37,0,0,0,15.3,17.38c.4.025.8.038,1.2.033H967.335a18.558,18.558,0,0,0,18.328-17.413l9.406-178.608a16.324,16.324,0,0,0-15.217-17.355c-.427-.028-.854-.038-1.281-.033H742.434A18.507,18.507,0,0,0,724.131,111.919Z" transform="translate(-714.717 -81.312)"/>
        <path id="Caminho_759" data-name="Caminho 759" class="cls-4" d="M724.131,111.919l-9.38,178.608a16.37,16.37,0,0,0,15.3,17.38c.4.025.8.038,1.2.033H967.335a18.558,18.558,0,0,0,18.328-17.413l9.406-178.608a16.324,16.324,0,0,0-15.217-17.355c-.427-.028-.854-.038-1.281-.033H742.434A18.507,18.507,0,0,0,724.131,111.919Z" transform="translate(-714.717 -81.312)"/>
        <path id="Caminho_760" data-name="Caminho 760" class="cls-3" d="M831.091,94.531h-5.847a16.32,16.32,0,0,1,16.582,16.053c.008.445-.005.89-.033,1.335l-9.355,178.609a18.558,18.558,0,0,1-18.329,17.413h5.847a18.558,18.558,0,0,0,18.329-17.413l9.355-178.609a16.32,16.32,0,0,0-15.214-17.355C831.981,94.534,831.536,94.524,831.091,94.531Z" transform="translate(-561.441 -81.313)"/>
        <path id="Caminho_761" data-name="Caminho 761" class="cls-3" d="M731.666,102.29,722.54,276.221H954l9.1-173.931Zm228.51,27.963H933.611l1.4-26.565h26.565ZM841.282,190.679l-1.347,25.8H814.107l1.347-25.8Zm-25.65-2.923,1.347-25.828h25.828l-1.373,25.828Zm28.573,2.923h25.828l-1.424,25.853H842.858Zm.153-2.923,1.373-25.828h25.8l-1.347,25.828Zm30.1-25.828h25.828l-1.347,25.828H873.109Zm.153-2.923,1.373-25.828H901.81L900.437,159Zm-2.923,0h-25.8l1.347-25.828h25.828Zm-28.726,0H817.132l1.347-25.828h25.828Zm-28.751,0H788.381l1.347-25.828h25.828Zm-.152,2.923-1.373,25.879h-25.8l1.347-25.828Zm-30.1,25.879H758.13l1.347-25.828H785.3Zm-.152,2.923-1.373,25.8H756.757l1.347-25.8Zm2.923,0h25.8l-1.347,25.8H785.356Zm24.3,28.726-1.347,25.828H783.856l1.347-25.828Zm2.923,0h25.828l-1.347,25.828H812.683Zm28.751,0h25.9l-1.347,25.828h-25.9Zm28.751,0h25.828l-1.373,25.828h-25.8Zm.153-2.923,1.347-25.8h25.828l-1.347,25.8Zm30.048-25.8h25.828l-1.347,25.8H900.361Zm.152-2.923,1.347-25.828h25.828l-1.347,25.828Zm1.5-28.751,1.373-25.828h25.8l-1.347,25.828Zm1.525-28.751,1.373-26.565h25.955l-1.4,26.565Zm-2.923,0H876.236l1.373-26.565h25.828Zm-28.751,0H847.383l1.4-26.565h25.8Zm-28.751,0H818.632l1.4-26.565h25.828Zm-28.751,0H789.8l1.4-26.565H817.03Zm-28.751,0H761.129l1.4-26.565h25.828Zm-.152,2.923-1.347,25.828H759.629l1.347-25.828Zm-30,25.828H730.166l1.347-25.828h26.54Zm-.153,2.923-1.347,25.828H728.641l1.347-25.828Zm-1.5,28.751-1.347,25.8H727.141l1.347-25.8Zm-1.5,28.726-1.373,25.828h-26.59l1.347-25.828Zm2.923,0h25.65l-1.347,25.828H755.1Zm24.3,28.751-1.4,26.565H753.579l1.373-26.565Zm2.924,0h25.828l-1.4,26.565H782.3Zm28.751,0h25.828l-1.4,26.565H811.056Zm28.751,0h25.828l-1.4,26.565H839.807Zm28.751,0h25.8l-1.373,26.565H868.61Zm28.726,0h25.8l-1.373,26.565H897.31Zm.153-2.923,1.373-25.828h25.828l-1.373,25.828Zm30.124-25.828h26.54L954.2,245.284H927.586Zm.153-2.923,1.347-25.8h26.539l-1.347,25.8Zm1.5-28.726,1.347-25.828h26.565L957.2,187.807Zm1.5-28.751,1.347-25.828h26.616l-1.347,25.828ZM759.6,103.739l-1.4,26.565h-26.54l1.4-26.565ZM725.489,248.207h26.539l-1.373,26.565H724.091Zm200.572,26.565,1.373-26.565H954l-1.5,26.565Z" transform="translate(-702.652 -69.344)"/>
        <path id="Caminho_762" data-name="Caminho 762" class="cls-5" d="M731.666,102.29,722.54,276.221H954l9.1-173.931Zm228.51,27.963H933.611l1.4-26.565h26.565ZM841.282,190.679l-1.347,25.8H814.107l1.347-25.8Zm-25.65-2.923,1.347-25.828h25.828l-1.373,25.828Zm28.573,2.923h25.828l-1.424,25.853H842.858Zm.153-2.923,1.373-25.828h25.8l-1.347,25.828Zm30.1-25.828h25.828l-1.347,25.828H873.109Zm.153-2.923,1.373-25.828H901.81L900.437,159Zm-2.923,0h-25.8l1.347-25.828h25.828Zm-28.726,0H817.132l1.347-25.828h25.828Zm-28.751,0H788.381l1.347-25.828h25.828Zm-.152,2.923-1.373,25.879h-25.8l1.347-25.828Zm-30.1,25.879H758.13l1.347-25.828H785.3Zm-.152,2.923-1.373,25.8H756.757l1.347-25.8Zm2.923,0h25.8l-1.347,25.8H785.356Zm24.3,28.726-1.347,25.828H783.856l1.347-25.828Zm2.923,0h25.828l-1.347,25.828H812.683Zm28.751,0h25.9l-1.347,25.828h-25.9Zm28.751,0h25.828l-1.373,25.828h-25.8Zm.153-2.923,1.347-25.8h25.828l-1.347,25.8Zm30.048-25.8h25.828l-1.347,25.8H900.361Zm.152-2.923,1.347-25.828h25.828l-1.347,25.828Zm1.5-28.751,1.373-25.828h25.8l-1.347,25.828Zm1.525-28.751,1.373-26.565h25.955l-1.4,26.565Zm-2.923,0H876.236l1.373-26.565h25.828Zm-28.751,0H847.383l1.4-26.565h25.8Zm-28.751,0H818.632l1.4-26.565h25.828Zm-28.751,0H789.8l1.4-26.565H817.03Zm-28.751,0H761.129l1.4-26.565h25.828Zm-.152,2.923-1.347,25.828H759.629l1.347-25.828Zm-30,25.828H730.166l1.347-25.828h26.54Zm-.153,2.923-1.347,25.828H728.641l1.347-25.828Zm-1.5,28.751-1.347,25.8H727.141l1.347-25.8Zm-1.5,28.726-1.373,25.828h-26.59l1.347-25.828Zm2.923,0h25.65l-1.347,25.828H755.1Zm24.3,28.751-1.4,26.565H753.579l1.373-26.565Zm2.924,0h25.828l-1.4,26.565H782.3Zm28.751,0h25.828l-1.4,26.565H811.056Zm28.751,0h25.828l-1.4,26.565H839.807Zm28.751,0h25.8l-1.373,26.565H868.61Zm28.726,0h25.8l-1.373,26.565H897.31Zm.153-2.923,1.373-25.828h25.828l-1.373,25.828Zm30.124-25.828h26.54L954.2,245.284H927.586Zm.153-2.923,1.347-25.8h26.539l-1.347,25.8Zm1.5-28.726,1.347-25.828h26.565L957.2,187.807Zm1.5-28.751,1.347-25.828h26.616l-1.347,25.828ZM759.6,103.739l-1.4,26.565h-26.54l1.4-26.565ZM725.489,248.207h26.539l-1.373,26.565H724.091Zm200.572,26.565,1.373-26.565H954l-1.5,26.565Z" transform="translate(-702.652 -69.344)"/>
        <path id="Caminho_763" data-name="Caminho 763" class="cls-6" d="M912.956,116.18l4.855,5.135-46.394,44.106-27.251-28.751-35.31,33.556L780.639,221.3l-27.251-28.751-29.971,54.3-.687,13.066h6.533L755.574,212.3,782.8,241.048l35.31-63.909L843.3,153.218l27.251,28.726,55.113-52.367,4.855,5.135.966-18.532Z" transform="translate(-702.359 -47.924)"/>
        <path id="Caminho_764" data-name="Caminho 764" class="cls-7" d="M913.1,113.88l4.83,5.135-46.393,44.106-27.251-28.751-35.31,33.556L780.759,219,753.508,190.27l-29.972,54.274-.686,13.092h6.533L755.694,210l27.226,28.751,35.31-63.909,25.193-23.947,27.251,28.751,55.113-52.367,4.855,5.135.966-18.532Z" transform="translate(-702.174 -51.471)"/>
        <path id="Caminho_765" data-name="Caminho 765" class="cls-3" d="M769.563,200.656l-8.135,155.323a14.211,14.211,0,0,0,13.265,15.1c.358.023.714.033,1.073.028h205.3a16.116,16.116,0,0,0,15.914-15.126l8.16-155.323a14.235,14.235,0,0,0-13.318-15.1c-.348-.023-.7-.033-1.045-.028H785.5A16.141,16.141,0,0,0,769.563,200.656Z" transform="translate(-642.729 59.02)"/>
        <path id="Caminho_766" data-name="Caminho 766" class="cls-4" d="M769.563,200.656l-8.135,155.323a14.211,14.211,0,0,0,13.265,15.1c.358.023.714.033,1.073.028h205.3a16.116,16.116,0,0,0,15.914-15.126l8.16-155.323a14.235,14.235,0,0,0-13.318-15.1c-.348-.023-.7-.033-1.045-.028H785.5A16.141,16.141,0,0,0,769.563,200.656Z" transform="translate(-642.729 59.02)"/>
        <path id="Caminho_767" data-name="Caminho 767" class="cls-3" d="M862.605,185.531h-5.084a14.236,14.236,0,0,1,14.391,14.081c0,.348-.005.7-.028,1.045l-8.16,155.323A16.116,16.116,0,0,1,847.81,371.1h5.084a16.116,16.116,0,0,0,15.914-15.126l8.16-155.323a14.235,14.235,0,0,0-13.318-15.1C863.3,185.536,862.953,185.528,862.605,185.531Z" transform="translate(-509.472 59.02)"/>
        <path id="Caminho_768" data-name="Caminho 768" class="cls-3" d="M776.131,192.28,768.2,343.535H969.459l7.906-151.255Zm198.691,24.353H951.74l1.195-23.082h23.21ZM871.46,269.179l-1.195,22.447H847.819l1.169-22.447Zm-22.345-2.542,1.195-22.447h22.447l-1.169,22.447ZM874,269.179h22.447l-1.17,22.447H872.808Zm.127-2.542L875.3,244.19h22.447l-1.169,22.447Zm26.158-22.447H922.76l-1.195,22.447H899.119Zm.153-2.542,1.169-22.472h22.447l-1.169,22.472Zm-2.542,0H875.426l1.195-22.472h22.447Zm-25.014,0H850.437l1.169-22.472h22.472Zm-24.989,0H825.448l1.169-22.472h22.421Zm-.127,2.542-1.195,22.447H824.126L825.3,244.19Zm-26.184,22.447H799.137l1.169-22.447h22.447Zm0,2.542-1.169,22.447H797.943l1.195-22.447Zm2.542,0H846.5l-1.169,22.447H822.881Zm21.15,24.989-1.322,22.472H821.508l1.17-22.472Zm2.542,0h22.447L869.1,316.64H846.5Zm24.989,0h22.447l-1.169,22.472H871.638Zm24.989,0h22.421l-1.195,22.472H896.576Zm.153-2.542,1.169-22.447h22.447L920.4,291.626Zm26.158-22.447H946.58l-1.195,22.447H922.76Zm0-2.542L925.3,244.19h22.447l-1.169,22.447Zm1.322-24.989,1.169-22.472h22.472l-1.195,22.472Zm1.322-25.014,1.195-23.082h22.447L949.2,216.633Zm-2.542,0H901.737l1.22-23.082H925.3Zm-25.014,0H876.748l1.195-23.082h22.472Zm-24.989,0H851.759l1.195-23.082H875.4Zm-24.989,0H826.745l1.22-23.082h22.447Zm-25.014,0H801.756l1.195-23.082h22.472Zm0,2.542-1.169,22.472H800.561l1.195-22.472Zm-26.184,22.472H774.809l1.17-22.472h23.108Zm0,2.542-1.169,22.447H773.742l1.195-22.447Zm-1.3,24.989-1.195,22.447H772.445l1.169-22.447ZM795.4,294.168l-1.169,22.472H771.123l1.195-22.472Zm2.542,0h22.447L819.22,316.64H796.773Zm21.15,25.014-1.22,23.082H795.426l1.195-23.082Zm2.542,0h22.32l-1.195,23.082H820.288Zm24.989,0h22.447l-1.195,23.082H845.429Zm24.989,0h22.472l-1.22,23.082H870.418Zm25.014,0h22.447l-1.195,23.082H895.407Zm24.989,0h22.447l-1.195,23.082h-22.65Zm.127-2.542,1.195-22.472h22.447l-1.17,22.472Zm26.184-22.472h23.082L969.84,316.64H946.758Zm.127-2.542,1.195-22.447h23.082l-1.169,22.447Zm1.322-24.989,1.169-22.447h23.082l-1.169,22.447Zm1.3-24.989,1.195-22.472H974.95L973.6,241.648Zm-149.984-48.1-1.195,23.082H776.411l1.195-23.082ZM770.742,319.182h23.082l-1.195,23.082H769.547Zm174.414,23.082,1.195-23.082h23.108l-1.22,23.082Z" transform="translate(-632.24 69.43)"/>
        <path id="Caminho_769" data-name="Caminho 769" class="cls-5" d="M776.131,192.28,768.2,343.535H969.459l7.906-151.255Zm198.691,24.353H951.74l1.195-23.082h23.21ZM871.46,269.179l-1.195,22.447H847.819l1.169-22.447Zm-22.345-2.542,1.195-22.447h22.447l-1.169,22.447ZM874,269.179h22.447l-1.17,22.447H872.808Zm.127-2.542L875.3,244.19h22.447l-1.169,22.447Zm26.158-22.447H922.76l-1.195,22.447H899.119Zm.153-2.542,1.169-22.472h22.447l-1.169,22.472Zm-2.542,0H875.426l1.195-22.472h22.447Zm-25.014,0H850.437l1.169-22.472h22.472Zm-24.989,0H825.448l1.169-22.472h22.421Zm-.127,2.542-1.195,22.447H824.126L825.3,244.19Zm-26.184,22.447H799.137l1.169-22.447h22.447Zm0,2.542-1.169,22.447H797.943l1.195-22.447Zm2.542,0H846.5l-1.169,22.447H822.881Zm21.15,24.989-1.322,22.472H821.508l1.17-22.472Zm2.542,0h22.447L869.1,316.64H846.5Zm24.989,0h22.447l-1.169,22.472H871.638Zm24.989,0h22.421l-1.195,22.472H896.576Zm.153-2.542,1.169-22.447h22.447L920.4,291.626Zm26.158-22.447H946.58l-1.195,22.447H922.76Zm0-2.542L925.3,244.19h22.447l-1.169,22.447Zm1.322-24.989,1.169-22.472h22.472l-1.195,22.472Zm1.322-25.014,1.195-23.082h22.447L949.2,216.633Zm-2.542,0H901.737l1.22-23.082H925.3Zm-25.014,0H876.748l1.195-23.082h22.472Zm-24.989,0H851.759l1.195-23.082H875.4Zm-24.989,0H826.745l1.22-23.082h22.447Zm-25.014,0H801.756l1.195-23.082h22.472Zm0,2.542-1.169,22.472H800.561l1.195-22.472Zm-26.184,22.472H774.809l1.17-22.472h23.108Zm0,2.542-1.169,22.447H773.742l1.195-22.447Zm-1.3,24.989-1.195,22.447H772.445l1.169-22.447ZM795.4,294.168l-1.169,22.472H771.123l1.195-22.472Zm2.542,0h22.447L819.22,316.64H796.773Zm21.15,25.014-1.22,23.082H795.426l1.195-23.082Zm2.542,0h22.32l-1.195,23.082H820.288Zm24.989,0h22.447l-1.195,23.082H845.429Zm24.989,0h22.472l-1.22,23.082H870.418Zm25.014,0h22.447l-1.195,23.082H895.407Zm24.989,0h22.447l-1.195,23.082h-22.65Zm.127-2.542,1.195-22.472h22.447l-1.17,22.472Zm26.184-22.472h23.082L969.84,316.64H946.758Zm.127-2.542,1.195-22.447h23.082l-1.169,22.447Zm1.322-24.989,1.169-22.447h23.082l-1.169,22.447Zm1.3-24.989,1.195-22.472H974.95L973.6,241.648Zm-149.984-48.1-1.195,23.082H776.411l1.195-23.082ZM770.742,319.182h23.082l-1.195,23.082H769.547Zm174.414,23.082,1.195-23.082h23.108l-1.22,23.082Z" transform="translate(-632.24 69.43)"/>
        <g id="Grupo_272" data-name="Grupo 272" class="cls-8" transform="translate(150.73 266.794)">
          <path id="Caminho_770" data-name="Caminho 770" d="M785.933,284.246H774.01l2.669-51.046h11.948Z" transform="translate(-774.01 -134.261)"/>
          <path id="Caminho_771" data-name="Caminho 771" d="M796.238,288.243H784.29L788,217.7h11.923Z" transform="translate(-758.157 -158.164)"/>
          <path id="Caminho_772" data-name="Caminho 772" d="M806.6,276.062H794.65l3.432-65.612H810.03Z" transform="translate(-742.181 -169.344)"/>
          <path id="Caminho_773" data-name="Caminho 773" d="M816.233,282.858H804.31l3.661-69.908h11.923Z" transform="translate(-727.284 -165.489)"/>
          <path id="Caminho_774" data-name="Caminho 774" d="M826.488,276.764H814.54l3.737-71.2H830.2Z" transform="translate(-711.508 -176.885)"/>
          <path id="Caminho_775" data-name="Caminho 775" d="M836.053,283.231H824.13l3.813-72.781h11.923Z" transform="translate(-696.72 -169.344)"/>
          <path id="Caminho_776" data-name="Caminho 776" d="M846.322,279.206H834.4l4.118-78.526h11.922Z" transform="translate(-680.882 -184.411)"/>
          <path id="Caminho_777" data-name="Caminho 777" d="M856.452,276.7H844.53l4.321-82.415h11.923Z" transform="translate(-665.261 -194.28)"/>
        </g>
        <path id="Caminho_778" data-name="Caminho 778" class="cls-7" d="M785.058,282.246H773.11L775.8,231.2h11.923Z" transform="translate(-624.668 129.449)"/>
        <path id="Caminho_779" data-name="Caminho 779" class="cls-7" d="M795.322,286.243H783.4l3.686-70.543h11.948Z" transform="translate(-608.799 105.546)"/>
        <path id="Caminho_780" data-name="Caminho 780" class="cls-7" d="M805.683,274.062H793.76l3.432-65.612h11.922Z" transform="translate(-592.823 94.366)"/>
        <path id="Caminho_781" data-name="Caminho 781" class="cls-7" d="M815.358,280.858H803.41l3.66-69.908h11.948Z" transform="translate(-577.942 98.221)"/>
        <path id="Caminho_782" data-name="Caminho 782" class="cls-7" d="M825.573,274.764H813.65l3.737-71.2h11.922Z" transform="translate(-562.151 86.825)"/>
        <path id="Caminho_783" data-name="Caminho 783" class="cls-7" d="M835.178,281.231H823.23l3.813-72.781h11.948Z" transform="translate(-547.377 94.366)"/>
        <path id="Caminho_784" data-name="Caminho 784" class="cls-7" d="M845.448,277.206H833.5l4.118-78.526h11.948Z" transform="translate(-531.54 79.299)"/>
        <path id="Caminho_785" data-name="Caminho 785" class="cls-7" d="M855.578,274.7H843.63l4.321-82.415H859.9Z" transform="translate(-515.918 69.43)"/>
        <path id="Caminho_786" data-name="Caminho 786" class="cls-3" d="M891.561,112.715l-2.745,52.495a4.806,4.806,0,0,0,4.517,5.077c.112.008.226.01.338.008h55.621a5.465,5.465,0,0,0,5.389-5.084l2.745-52.495a4.779,4.779,0,0,0-4.464-5.074c-.122-.008-.244-.013-.366-.01H896.924A5.466,5.466,0,0,0,891.561,112.715Z" transform="translate(-446.251 -61.11)"/>
        <path id="Caminho_787" data-name="Caminho 787" class="cls-9" d="M891.561,112.715l-2.745,52.495a4.806,4.806,0,0,0,4.517,5.077c.112.008.226.01.338.008h55.621a5.465,5.465,0,0,0,5.389-5.084l2.745-52.495a4.779,4.779,0,0,0-4.464-5.074c-.122-.008-.244-.013-.366-.01H896.924A5.466,5.466,0,0,0,891.561,112.715Z" transform="translate(-446.251 -61.11)"/>
        <path id="Caminho_788" data-name="Caminho 788" class="cls-3" d="M919.972,107.62H915.9a4.78,4.78,0,0,1,4.84,4.718c0,.122,0,.244-.01.366L917.989,165.2a5.465,5.465,0,0,1-5.389,5.084h4.067a5.465,5.465,0,0,0,5.389-5.084L924.8,112.7a4.779,4.779,0,0,0-4.464-5.074C920.216,107.623,920.094,107.618,919.972,107.62Z" transform="translate(-409.559 -61.125)"/>
        <path id="Caminho_789" data-name="Caminho 789" class="cls-10" d="M919.972,107.62H915.9a4.78,4.78,0,0,1,4.84,4.718c0,.122,0,.244-.01.366L917.989,165.2a5.465,5.465,0,0,1-5.389,5.084h4.067a5.465,5.465,0,0,0,5.389-5.084L924.8,112.7a4.779,4.779,0,0,0-4.464-5.074C920.216,107.623,920.094,107.618,919.972,107.62Z" transform="translate(-409.559 -61.125)"/>
        <path id="Caminho_790" data-name="Caminho 790" class="cls-3" d="M894.87,121.419a9.1,9.1,0,0,1,9.073-9.129c.094,0,.188,0,.282,0a8.971,8.971,0,0,1,9.274,8.661c.008.155.008.31.005.465a9.33,9.33,0,0,1-18.634,0Zm28.726-3.534,3.559,2.034-24.328,26.9-3.559-2.085Zm-16.524,3.534a2.924,2.924,0,1,0,0,.051v-.051Zm6.965,20.744a9.329,9.329,0,1,1,9.53,9.124l-.175,0a9.127,9.127,0,0,1-9.352-8.895c0-.109,0-.221,0-.333Zm12.2,0a2.873,2.873,0,1,0-5.745,0,2.822,2.822,0,0,0,2.692,2.946c.051,0,.1,0,.155,0a2.9,2.9,0,0,0,2.9-2.893c0-.053,0-.1-.005-.158Z" transform="translate(-436.901 -53.926)"/>
        <path id="Caminho_791" data-name="Caminho 791" class="cls-3" d="M833.564,101.163,831.5,140.185a3.584,3.584,0,0,0,3.348,3.806c.086.005.175.008.262.008H876.5a4.042,4.042,0,0,0,3.991-3.813l2.059-39.021a3.584,3.584,0,0,0-3.348-3.806c-.086-.005-.175-.008-.262-.008H837.555A4.042,4.042,0,0,0,833.564,101.163Z" transform="translate(-534.629 -76.962)"/>
        <path id="Caminho_792" data-name="Caminho 792" class="cls-9" d="M833.564,101.163,831.5,140.185a3.584,3.584,0,0,0,3.348,3.806c.086.005.175.008.262.008H876.5a4.042,4.042,0,0,0,3.991-3.813l2.059-39.021a3.584,3.584,0,0,0-3.348-3.806c-.086-.005-.175-.008-.262-.008H837.555A4.042,4.042,0,0,0,833.564,101.163Z" transform="translate(-534.629 -76.962)"/>
        <path id="Caminho_793" data-name="Caminho 793" class="cls-3" d="M854.665,97.35H851.64a3.584,3.584,0,0,1,3.617,3.551c0,.086,0,.175-.008.262l-2.059,39.021A4.042,4.042,0,0,1,849.2,144h3.025a4.042,4.042,0,0,0,3.991-3.813l2.059-39.021a3.584,3.584,0,0,0-3.348-3.806C854.841,97.353,854.752,97.35,854.665,97.35Z" transform="translate(-507.329 -76.962)"/>
        <path id="Caminho_794" data-name="Caminho 794" class="cls-10" d="M854.665,97.35H851.64a3.584,3.584,0,0,1,3.617,3.551c0,.086,0,.175-.008.262l-2.059,39.021A4.042,4.042,0,0,1,849.2,144h3.025a4.042,4.042,0,0,0,3.991-3.813l2.059-39.021a3.584,3.584,0,0,0-3.348-3.806C854.841,97.353,854.752,97.35,854.665,97.35Z" transform="translate(-507.329 -76.962)"/>
        <path id="Caminho_795" data-name="Caminho 795" class="cls-3" d="M865.014,119.82H854.846v10.168h-8.9V119.82H835.78v-8.872h10.168V100.78h8.9v10.168h10.168Z" transform="translate(-528.024 -71.673)"/>
        <path id="Caminho_796" data-name="Caminho 796" class="cls-3" d="M864.977,213.493l-2.034,39.047a3.585,3.585,0,0,0,3.376,3.783c.076.005.155.005.234.005h41.386a4.042,4.042,0,0,0,3.991-3.788l2.059-39.047a3.584,3.584,0,0,0-3.348-3.806c-.086-.005-.176-.008-.262-.008H868.994A4.067,4.067,0,0,0,864.977,213.493Z" transform="translate(-486.144 96.263)"/>
        <path id="Caminho_797" data-name="Caminho 797" class="cls-9" d="M864.977,213.493l-2.034,39.047a3.585,3.585,0,0,0,3.376,3.783c.076.005.155.005.234.005h41.386a4.042,4.042,0,0,0,3.991-3.788l2.059-39.047a3.584,3.584,0,0,0-3.348-3.806c-.086-.005-.176-.008-.262-.008H868.994A4.067,4.067,0,0,0,864.977,213.493Z" transform="translate(-486.144 96.263)"/>
        <path id="Caminho_798" data-name="Caminho 798" class="cls-3" d="M886.105,209.68H883.08a3.584,3.584,0,0,1,3.617,3.551c0,.086,0,.175-.008.262l-2.059,39.047a4.042,4.042,0,0,1-3.991,3.788h3.025a4.042,4.042,0,0,0,3.991-3.788l2.059-39.047a3.584,3.584,0,0,0-3.348-3.806C886.281,209.683,886.192,209.68,886.105,209.68Z" transform="translate(-458.845 96.263)"/>
        <path id="Caminho_799" data-name="Caminho 799" class="cls-10" d="M886.105,209.68H883.08a3.584,3.584,0,0,1,3.617,3.551c0,.086,0,.175-.008.262l-2.059,39.047a4.042,4.042,0,0,1-3.991,3.788h3.025a4.042,4.042,0,0,0,3.991-3.788l2.059-39.047a3.584,3.584,0,0,0-3.348-3.806C886.281,209.683,886.192,209.68,886.105,209.68Z" transform="translate(-458.845 96.263)"/>
        <path id="Caminho_800" data-name="Caminho 800" class="cls-3" d="M893.988,225.982H867.83V217.11h26.158Z" transform="translate(-478.599 107.721)"/>
        <path id="Caminho_801" data-name="Caminho 801" class="cls-3" d="M760.125,205.944l-2.771,52.494a4.828,4.828,0,0,0,4.568,5.077c.1.005.191.008.287.008h55.647a5.412,5.412,0,0,0,5.364-5.084l2.771-52.494a4.828,4.828,0,0,0-4.568-5.077c-.1-.005-.191-.008-.287-.008H765.489A5.412,5.412,0,0,0,760.125,205.944Z" transform="translate(-648.976 82.661)"/>
        <path id="Caminho_802" data-name="Caminho 802" class="cls-9" d="M760.125,205.944l-2.771,52.494a4.828,4.828,0,0,0,4.568,5.077c.1.005.191.008.287.008h55.647a5.412,5.412,0,0,0,5.364-5.084l2.771-52.494a4.828,4.828,0,0,0-4.568-5.077c-.1-.005-.191-.008-.287-.008H765.489A5.412,5.412,0,0,0,760.125,205.944Z" transform="translate(-648.976 82.661)"/>
        <path id="Caminho_803" data-name="Caminho 803" class="cls-3" d="M788.457,200.854h-4.067a4.831,4.831,0,0,1,4.863,4.8c0,.1,0,.191-.008.287l-2.771,52.494a5.412,5.412,0,0,1-5.364,5.084h4.068a5.412,5.412,0,0,0,5.364-5.084l3-52.469a4.829,4.829,0,0,0-4.535-5.107A4.388,4.388,0,0,0,788.457,200.854Z" transform="translate(-612.331 82.641)"/>
        <path id="Caminho_804" data-name="Caminho 804" class="cls-10" d="M788.457,200.854h-4.067a4.831,4.831,0,0,1,4.863,4.8c0,.1,0,.191-.008.287l-2.771,52.494a5.412,5.412,0,0,1-5.364,5.084h4.068a5.412,5.412,0,0,0,5.364-5.084l3-52.469a4.829,4.829,0,0,0-4.535-5.107A4.388,4.388,0,0,0,788.457,200.854Z" transform="translate(-612.331 82.641)"/>
        <path id="Caminho_805" data-name="Caminho 805" class="cls-3" d="M780.821,244.335v4.322h-3.457v-4.271a12.329,12.329,0,0,1-11.414-7.931l6.762-3.94a6.151,6.151,0,0,0,4.652,4.118V229.87a1.847,1.847,0,0,1-.636-.254c-4.271-1.7-9.355-4.118-9.355-10.677a10.168,10.168,0,0,1,9.99-10.168V204.5h3.457v4.372a11.671,11.671,0,0,1,9.66,7.118l-6.609,3.864a4.8,4.8,0,0,0-3.025-3.178v6.609c4.271,1.83,10.041,3.457,10.041,10.6C790.863,240.039,786.643,243.648,780.821,244.335Zm-3.457-22.65V216.6a2.544,2.544,0,0,0-2.135,2.542C775.229,219.905,775.661,220.693,777.364,221.685Zm5.643,12.3c0-1.22-.712-1.957-2.186-2.695v5.237a2.542,2.542,0,0,0,2.186-2.542Z" transform="translate(-635.709 88.275)"/>
        <path id="Caminho_806" data-name="Caminho 806" class="cls-3" d="M782.253,92.381h39.86c1.958,0,2.237-3.051.254-3.051h-39.86C780.55,89.33,780.271,92.381,782.253,92.381Z" transform="translate(-612.661 -89.33)"/>
        <path id="Caminho_807" data-name="Caminho 807" class="cls-3" d="M803.6,92.381h11.465c1.957,0,2.237-3.051.254-3.051H803.985c-1.983,0-2.237,3.051-.28,3.051Z" transform="translate(-579.559 -89.33)"/>
        <path id="Caminho_808" data-name="Caminho 808" class="cls-3" d="M858.916,263.26h-39.86c-1.983,0-2.237,3.05-.279,3.05h39.86C860.593,266.31,860.873,263.26,858.916,263.26Z" transform="translate(-556.32 178.889)"/>
        <path id="Caminho_809" data-name="Caminho 809" class="cls-3" d="M820.245,263.26H808.805c-1.983,0-2.237,3.05-.28,3.05H819.99C821.948,266.31,822.2,263.26,820.245,263.26Z" transform="translate(-572.126 178.889)"/>
      </g>
      <g id="freepik--character-2--inject-2" transform="translate(437.48 274.47)">
        <path id="Caminho_810" data-name="Caminho 810" class="cls-11" d="M895.758,406.491l-2.771,21.1L870.21,426.4l1.475-23.286Z" transform="translate(-740.576 121.083)"/>
        <path id="Caminho_811" data-name="Caminho 811" class="cls-3" d="M870.18,416.2c-2.949,0-6-.661-6.965-1.932a2.136,2.136,0,0,1,0-2.542,3.058,3.058,0,0,1,1.8-1.3c3.991-.991,12.2,3.915,12.711,4.118a.559.559,0,0,1,.254.61.534.534,0,0,1-.458.432A39.1,39.1,0,0,1,870.18,416.2Zm-3.686-4.7a4.054,4.054,0,0,0-1.093.127,1.656,1.656,0,0,0-1.119.763c-.432.686-.28,1.042-.127,1.22,1.067,1.576,7.092,1.729,11.516,1.271A25.825,25.825,0,0,0,866.494,411.5Z" transform="translate(-752.011 132.168)"/>
        <path id="Caminho_812" data-name="Caminho 812" class="cls-3" d="M873.483,418.976a.258.258,0,0,1-.229,0c-2.822-1.322-8.44-6.609-7.881-9.279,0-.636.559-1.424,2.11-1.525a4.1,4.1,0,0,1,3.127,1.017c3,2.542,3.508,9,3.534,9.279a.634.634,0,0,1-.254.508A.562.562,0,0,1,873.483,418.976Zm-5.643-9.762h-.305c-1.017,0-1.093.458-1.144.61-.178,1.6,3.508,5.72,6.406,7.626a13.427,13.427,0,0,0-3-7.372,3,3,0,0,0-1.957-.737Z" transform="translate(-748.094 128.859)"/>
        <path id="Caminho_813" data-name="Caminho 813" class="cls-12" d="M891.6,411.129l26.006.508a2.06,2.06,0,0,1,2.008,1.678l4.3,21.252a3.481,3.481,0,0,1-2.7,4.121,3.4,3.4,0,0,1-.735.074c-9.355-.356-17.795-1.017-29.361-1.22-13.778-.28-10.321,1.449-26.514,1.347-9.762,0-11.338-11.185-7.194-11.643,18.99-2.008,21.074-7.626,28.5-14.337A8.39,8.39,0,0,1,891.6,411.129Z" transform="translate(-763.622 133.426)"/>
        <path id="Caminho_814" data-name="Caminho 814" class="cls-13" d="M870.49,415.363h23.692l1.144-8.872-24.073-3.381Z" transform="translate(-740.144 121.083)"/>
        <path id="Caminho_815" data-name="Caminho 815" class="cls-12" d="M878.211,337.07,868.78,502.256h34.776L931.087,337.07Z" transform="translate(-742.781 19.242)"/>
        <path id="Caminho_816" data-name="Caminho 816" class="cls-14" d="M878.211,337.07,868.78,502.256h34.776L931.087,337.07Z" transform="translate(-742.781 19.242)"/>
        <path id="Caminho_817" data-name="Caminho 817" class="cls-3" d="M909.688,401H867.794a9.046,9.046,0,0,0,1.144,10.168l40.5.458S913.17,409.135,909.688,401Z" transform="translate(-745.938 117.829)"/>
        <path id="Caminho_818" data-name="Caminho 818" class="cls-11" d="M925.675,238.68l-1.525,18.2,28.065-1.093-1.754-21.938Z" transform="translate(-657.395 -139.934)"/>
        <path id="Caminho_819" data-name="Caminho 819" class="cls-12" d="M943.62,244.61s18.888,0,36.4,58.163c2.771,9.152,12.94,36,12.94,36l-42.936-5.084-4.144-47.41Z" transform="translate(-627.37 -123.341)"/>
        <path id="Caminho_820" data-name="Caminho 820" class="cls-3" d="M928.7,238.384c-.61-1.754-14.21,1.4-30.353,7.067s-28.726,11.668-28.116,13.422,14.21-1.4,30.353-7.042S929.312,240.164,928.7,238.384Z" transform="translate(-740.573 -133.69)"/>
        <path id="Caminho_821" data-name="Caminho 821" class="cls-3" d="M885.28,240.321l4.321-1.271,1.957,5.567-4.169,1.7Z" transform="translate(-717.336 -131.915)"/>
        <path id="Caminho_822" data-name="Caminho 822" class="cls-4" d="M885.28,240.321l4.321-1.271,1.957,5.567-4.169,1.7Z" transform="translate(-717.336 -131.915)"/>
        <path id="Caminho_823" data-name="Caminho 823" class="cls-3" d="M900.589,239.441c1.169-3.356-13.3.966-14.134,1.271s-1.474-1.271-.457-1.6,18.608-6.152,16.193.763C901.86,240.864,900.233,240.458,900.589,239.441Z" transform="translate(-717.037 -135.84)"/>
        <g id="Grupo_273" data-name="Grupo 273" class="cls-15" transform="translate(168.437 100.666)">
          <path id="Caminho_824" data-name="Caminho 824" d="M900.589,239.441c1.169-3.356-13.3.966-14.134,1.271s-1.474-1.271-.457-1.6,18.608-6.152,16.193.763C901.86,240.864,900.233,240.458,900.589,239.441Z" transform="translate(-885.474 -236.505)"/>
        </g>
        <path id="Caminho_825" data-name="Caminho 825" class="cls-11" d="M900.973,305.169l-5.9-26.158L903.439,265a6.48,6.48,0,0,0,.89-3.991l-.509-4.728a6.658,6.658,0,0,1,.382-3l1.093-2.822a6.454,6.454,0,0,0-1.856-7.245l-1.6-1.347a6.4,6.4,0,0,0-5.872-1.322c-6.2,1.754-19.04,7.067-22.345,21.455l5.084,17.439,6.609,31.09Z" transform="translate(-735.317 -129.957)"/>
        <path id="Caminho_826" data-name="Caminho 826" class="cls-3" d="M897.942,270.859v-12A37.045,37.045,0,0,0,875.8,272.486l3.686,11.77Z" transform="translate(-731.955 -101.366)"/>
        <path id="Caminho_827" data-name="Caminho 827" class="cls-12" d="M917.48,254.218A25.95,25.95,0,0,1,938.2,241.075c14.312-.686,34.369,0,34.369,0l3.483,17.312Z" transform="translate(-667.68 -129.263)"/>
        <path id="Caminho_828" data-name="Caminho 828" class="cls-12" d="M896.4,433.631s9.685-116.3,22.879-155.755,38.132-34.624,68.637-33.937,40.826,2.771,45,19.4-14.541,150.9-14.541,150.9l-4.22,33.225Z" transform="translate(-700.188 -125.212)"/>
        <path id="Caminho_829" data-name="Caminho 829" class="cls-16" d="M896.4,433.631s9.685-116.3,22.879-155.755,38.132-34.624,68.637-33.937,40.826,2.771,45,19.4-14.541,150.9-14.541,150.9l-4.22,33.225Z" transform="translate(-700.188 -125.212)"/>
        <path id="Caminho_830" data-name="Caminho 830" class="cls-12" d="M979.256,244.23c-10.7,0-22.167,1.7-47.639,56.359-4.729,10.168-9.152,18.379-14.744,19.6s-16.4-29.768-16.4-29.768-13.143-.915-24.226,13.854c0,0,6,54.452,35.31,54.452s54.858-37.369,63.756-56.308S1003.915,244.357,979.256,244.23Z" transform="translate(-731.262 -123.927)"/>
        <path id="Caminho_831" data-name="Caminho 831" class="cls-17" d="M979.256,244.23c-10.7,0-22.167,1.7-47.639,56.359-4.729,10.168-9.152,18.379-14.744,19.6s-16.4-29.768-16.4-29.768-13.143-.915-24.226,13.854c0,0,6,54.452,35.31,54.452s54.858-37.369,63.756-56.308S1003.915,244.357,979.256,244.23Z" transform="translate(-731.262 -123.927)"/>
        <path id="Caminho_832" data-name="Caminho 832" class="cls-13" d="M924.45,245.478a15.579,15.579,0,0,0,10.4-7.626l-3.839-2.542-5.8,1.119Z" transform="translate(-656.932 -137.683)"/>
        <path id="Caminho_833" data-name="Caminho 833" class="cls-12" d="M918.93,216.641c-.585,1.5-.28,3,.712,3.381s2.39-.534,2.923-2.008.305-3-.712-3.381S919.565,215.166,918.93,216.641Z" transform="translate(-665.901 -169.703)"/>
        <path id="Caminho_834" data-name="Caminho 834" class="cls-18" d="M926.69,217.59l-12.1,8.8a11.413,11.413,0,0,0,9.1,4.423Z" transform="translate(-672.137 -165.009)"/>
        <path id="Caminho_835" data-name="Caminho 835" class="cls-11" d="M983.405,245.564c-7.067,20.108-9.635,28.8-23.21,36.454-19.218,6.355-44.258-1.347-43.5-23.159.686-19.625,12.126-49.164,35.056-51.91A29.666,29.666,0,0,1,984.8,232.37,28.452,28.452,0,0,1,983.405,245.564Z" transform="translate(-668.909 -181.772)"/>
        <path id="Caminho_836" data-name="Caminho 836" class="cls-12" d="M922,210.342a.842.842,0,0,1,.432.661,6.609,6.609,0,0,0,3.05,5.237.838.838,0,0,1,.356,1.118.891.891,0,0,1-1.195.331,8.166,8.166,0,0,1-3.915-6.533.816.816,0,0,1,.7-.91l.084-.005h0A1.083,1.083,0,0,1,922,210.342Z" transform="translate(-662.672 -176.344)"/>
        <path id="Caminho_837" data-name="Caminho 837" class="cls-12" d="M929.089,262.833l-6.1-5.669a46.268,46.268,0,0,0,6.889-20.54s-18.583-20.057-2.136-23.464c0,0,1.322-23.133,16.6-9.126,0,0,12.711-17.795,16.473,2.847,0,0,11.007-3.94,4.525,6.355,0,0,24.252-.712,14.541,10.423,0,0,29.641,24.4,4.042,43.9,0,0,9.584,4.067,5.974,8.186s-8.389-3.788-8.389-3.788,8.211,16.956-10.372,18.1c0,0-.509,10.855-15.253,6.965,0,0-3.661-5.084-13.27-2.364C942.613,294.66,944.24,278.34,929.089,262.833Z" transform="translate(-662.334 -196.906)"/>
        <path id="Caminho_838" data-name="Caminho 838" class="cls-11" d="M931.173,219.706a16.478,16.478,0,0,0-8.516,9.406c-1.881,5.466,3.076,8.541,8.516,7.321,4.932-1.119,11.8-5.338,11.312-10.982S936.1,217.444,931.173,219.706Z" transform="translate(-660.325 -163.058)"/>
        <path id="Caminho_839" data-name="Caminho 839" class="cls-12" d="M1022,320.437S895.433,300.1,879.494,350.942,838.82,474.819,838.82,474.819l29.692,14.49s48.554-89.838,52.164-105.777l68.84.737,24.633-30.505Z" transform="translate(-788.983 -12.603)"/>
        <path id="Caminho_840" data-name="Caminho 840" class="cls-11" d="M866.379,392.016l-9.685,18.964-21.074-8.745L844.8,380.78Z" transform="translate(-793.917 86.648)"/>
        <path id="Caminho_841" data-name="Caminho 841" class="cls-3" d="M834.887,392.3c-2.771-1.068-5.466-2.542-5.923-4.194a2.11,2.11,0,0,1,.915-2.262,2.846,2.846,0,0,1,2.11-.61c4.118.381,10.168,7.753,10.5,8.084a.587.587,0,0,1,0,.636.639.639,0,0,1-.61.28A42.4,42.4,0,0,1,834.887,392.3Zm-1.907-5.694a5.487,5.487,0,0,0-1.068-.254,1.627,1.627,0,0,0-1.322.356c-.636.508-.61.89-.534,1.119.483,1.83,6.1,3.991,10.448,5.084a26.658,26.658,0,0,0-7.525-6.2Z" transform="translate(-804.268 93.483)"/>
        <path id="Caminho_842" data-name="Caminho 842" class="cls-3" d="M836.953,396.292a.359.359,0,0,1-.2-.127c-2.212-2.186-5.745-9.024-4.347-11.363.305-.585,1.017-1.144,2.542-.737a4.191,4.191,0,0,1,2.542,2.008c1.957,3.406.28,9.635.2,9.94a.56.56,0,0,1-.407.381A.663.663,0,0,1,836.953,396.292Zm-2.034-11.109-.305-.127c-.966-.28-1.169,0-1.271.2-.712,1.449,1.373,6.559,3.533,9.228a13.207,13.207,0,0,0-.381-7.931,3.074,3.074,0,0,0-1.576-1.373Z" transform="translate(-799.369 91.498)"/>
        <path id="Caminho_843" data-name="Caminho 843" class="cls-12" d="M860.333,388.324l24.353,9.2a2.033,2.033,0,0,1,1.322,2.237l-3.076,21.481a3.481,3.481,0,0,1-3.915,2.974,3.24,3.24,0,0,1-.712-.178c-8.719-3.457-16.346-6.889-27.277-11.007-12.888-4.855-10.168-2.084-25.421-7.626-9.177-3.3-6.914-14.338-2.847-13.372,18.557,4.449,22.421-.2,31.649-3.966A8.3,8.3,0,0,1,860.333,388.324Z" transform="translate(-819.215 97.229)"/>
        <path id="Caminho_844" data-name="Caminho 844" class="cls-13" d="M858.564,401.651l4.932-9.635L841.913,380.78l-4.423,10.372Z" transform="translate(-791.034 86.648)"/>
        <path id="Caminho_845" data-name="Caminho 845" class="cls-3" d="M877.262,396.817,840.3,377.09a9.073,9.073,0,0,0-3.838,9.609l35.589,19.422S876.576,405.612,877.262,396.817Z" transform="translate(-792.979 80.957)"/>
        <path id="Caminho_846" data-name="Caminho 846" class="cls-19" d="M972.277,529.236l-15.99-176.041a3.154,3.154,0,0,0-3.3-2.669h-6.406a3.079,3.079,0,0,0-3.3,2.834,3.668,3.668,0,0,0-.005.369l22.371,176.041a3.178,3.178,0,0,0,3.3,2.542h0a3.077,3.077,0,0,0,3.32-2.812C972.274,529.414,972.277,529.324,972.277,529.236Z" transform="translate(-627.911 39.978)"/>
        <path id="Caminho_847" data-name="Caminho 847" class="cls-19" d="M914.815,529.739,937.186,353.7a3.073,3.073,0,0,0-2.936-3.208,2.963,2.963,0,0,0-.368.005H927.5a3.153,3.153,0,0,0-3.33,2.669L908.18,529.205a3.077,3.077,0,0,0,3.04,3.112c.1,0,.193,0,.29-.01h0A3.178,3.178,0,0,0,914.815,529.739Z" transform="translate(-683.022 39.932)"/>
        <path id="Caminho_849" data-name="Caminho 849" class="cls-20" d="M943.836,529.236,935.2,433.829l-7.3-80.634a3.152,3.152,0,0,0-3.33-2.669h-6.381a3.078,3.078,0,0,0-3.3,2.834,3.563,3.563,0,0,0-.005.369l4.3,33.975,1.526,12.047,16.464,129.944a3.2,3.2,0,0,0,3.33,2.542h0a3.077,3.077,0,0,0,3.32-2.812C943.831,529.363,943.833,529.3,943.836,529.236Z" transform="translate(-668.073 39.978)"/>
        <path id="Caminho_851" data-name="Caminho 851" class="cls-21" d="M886.4,529.739,908.775,353.7a3.073,3.073,0,0,0-2.936-3.208,2.967,2.967,0,0,0-.369.005h-6.406a3.154,3.154,0,0,0-3.3,2.669L879.77,529.205a3.077,3.077,0,0,0,3.04,3.112c.1,0,.193,0,.29-.01h0A3.178,3.178,0,0,0,886.4,529.739Z" transform="translate(-721.003 39.775)"/>
        <path id="Caminho_853" data-name="Caminho 853" class="cls-21" d="M880.87,346.9h183.364v1.087c0,6.9-2.7,14.831-7.339,14.831h-168c-4.638,0-7.895-7.936-7.895-14.831V346.9Z" transform="translate(-722.104 29.274)"/>
        <path id="Caminho_854" data-name="Caminho 854" class="cls-20" d="M1078.358,274.09h-16.346a63.121,63.121,0,0,0-59.968,43.445L969,418.126A40.9,40.9,0,0,1,930.1,446.292H877.633a12.89,12.89,0,0,0-12.863,12.888h227.468a44.715,44.715,0,0,0,44.614-42.047l4.525-76.263a63.12,63.12,0,0,0-59.353-66.674Q1080.193,274.09,1078.358,274.09Z" transform="translate(-748.965 -77.88)"/>
      </g>
      <g id="freepik--character-1--inject-2" transform="translate(0 106.088)">
        <path id="Caminho_855" data-name="Caminho 855" class="cls-22" d="M677.577,299.951l2.542,34.9s-18.3,58.621-20.337,122.733c-2.059,62.027-2.542,109.9-2.542,109.9l22.625,1.449L714.692,346.5l7.067-48.427Z" transform="translate(-648.519 126.482)"/>
        <path id="Caminho_856" data-name="Caminho 856" class="cls-12" d="M688.167,141.158s15.049-5.745,22.65,8.44c0,0-17.795-4.118-23.387,4.347Z" transform="translate(-601.962 -117.268)"/>
        <path id="Caminho_857" data-name="Caminho 857" class="cls-16" d="M688.167,141.158s15.049-5.745,22.65,8.44c0,0-17.795-4.118-23.387,4.347Z" transform="translate(-601.962 -117.268)"/>
        <path id="Caminho_858" data-name="Caminho 858" class="cls-22" d="M778.43,185.89l-9.812,10.016c-8.694,1.576-10.168,14.058-10.168,14.058-1.983,1.195-16.651,13.346-21.049,16.32l8.414,9.635A182.483,182.483,0,0,1,764.067,219.4s22.142-10.016,26.082-14.083,0-18.151,0-18.151Z" transform="translate(-524.903 -46.512)"/>
        <path id="Caminho_859" data-name="Caminho 859" class="cls-12" d="M797.9,217.557c-14.744,8.9-36.556,22.6-36.556,22.6a484.311,484.311,0,0,0-31.446-37.5,98.129,98.129,0,0,0-23.845-19.65v41.945c10.169,10.4,42.072,41.894,55.621,41.894,11.16,0,33.759-22.015,46.775-35.717Z" transform="translate(-573.248 -50.953)"/>
        <path id="Caminho_860" data-name="Caminho 860" class="cls-23" d="M727.337,232.072c-6.279-12.99-14.566-39.682-14.566-39.682L707,202.813l2.186,12.253C713.889,219.769,720.346,226,727.337,232.072Z" transform="translate(-571.784 -36.488)"/>
        <path id="Caminho_861" data-name="Caminho 861" class="cls-22" d="M694.93,309.956l6.355,29.234s-6.991,69.908,4.449,130.919,13.346,98.507,13.346,98.507l25.421-2.542-7.626-220.528.636-48.936Z" transform="translate(-590.397 124.23)"/>
        <path id="Caminho_862" data-name="Caminho 862" class="cls-3" d="M676.767,207.926a869.824,869.824,0,0,0,16.447,113.836S654.447,393.576,658.9,497.167c0,0,39.4,15.253,144.265,0L789.814,321.126s4.449-113.759-7.626-126.47c-10.7-11.262-57.325-26.006-93.016-8.44A22.448,22.448,0,0,0,676.767,207.926Z" transform="translate(-646.514 -58.532)"/>
        <path id="Caminho_863" data-name="Caminho 863" class="cls-3" d="M685.18,233.11s31.141,5.415,53.054,0v13.346s-16.295,2.364-53.054,0Z" transform="translate(-605.432 26.307)"/>
        <path id="Caminho_864" data-name="Caminho 864" class="cls-24" d="M685.18,233.11s31.141,5.415,53.054,0v13.346s-16.295,2.364-53.054,0Z" transform="translate(-605.432 26.307)"/>
        <path id="Caminho_865" data-name="Caminho 865" class="cls-7" d="M693.48,238.244A6.277,6.277,0,0,1,699,232.219c3.813-.712,14.338-.508,14.49,7.626s1.754,13.982-6.177,14.465-14.134,1.068-13.905-5.084h14.363l-.127-12.075Z" transform="translate(-592.76 24.528)"/>
        <path id="Caminho_866" data-name="Caminho 866" class="cls-22" d="M678,162.07c4.118,11.77,9.507,32.412,5.084,44.334a6.509,6.509,0,0,0,2.542,7.753c8.974,6.482,23.565,11.719,34.547,10.55,14.109-1.525,10.422-11.516,6.838-16.981-.966-1.474-2.542-3.534-4.195-3.839-13.854-2.339-16.473-12.711-15.405-23.26Z" transform="translate(-616.505 -83.245)"/>
        <path id="Caminho_867" data-name="Caminho 867" class="cls-13" d="M683.512,165.07l17.439,10.88a43.884,43.884,0,0,0,0,7.753,21.424,21.424,0,0,1-17.439-9.914C681.6,169.976,682.088,165.756,683.512,165.07Z" transform="translate(-609.941 -78.618)"/>
        <path id="Caminho_868" data-name="Caminho 868" class="cls-22" d="M676.6,174.535c5.084,18.1,7.143,28.955,18.43,36.352,17.007,11.185,37.852-2.161,38.132-21.379.356-17.413-8.008-44.029-27.557-47.461a25.65,25.65,0,0,0-29.132,32.488Z" transform="translate(-620.468 -114.75)"/>
        <path id="Caminho_869" data-name="Caminho 869" class="cls-25" d="M691.86,153.55a54.031,54.031,0,0,0,9.914,11.211,8.9,8.9,0,0,1-6.864,2.9Z" transform="translate(-595.131 -96.383)"/>
        <path id="Caminho_870" data-name="Caminho 870" class="cls-12" d="M685.361,155.813a.705.705,0,0,1-.458,0,.914.914,0,0,1-.458-1.195,9,9,0,0,1,6.381-5.084.917.917,0,0,1,1.017.763.89.89,0,0,1-.745,1.014l-.018,0h0A7.147,7.147,0,0,0,686,155.457.871.871,0,0,1,685.361,155.813Z" transform="translate(-606.681 -102.587)"/>
        <path id="Caminho_871" data-name="Caminho 871" class="cls-12" d="M701.212,150.3a.815.815,0,0,1-.864,0,7.12,7.12,0,0,0-6.406-.483.915.915,0,0,1-1.22-.407.864.864,0,0,1,.356-1.169l.051-.025a8.893,8.893,0,0,1,8.084.559.84.84,0,0,1,.351,1.134l-.02.036h0A.909.909,0,0,1,701.212,150.3Z" transform="translate(-593.959 -105.716)"/>
        <path id="Caminho_872" data-name="Caminho 872" class="cls-7" d="M684.155,177.2l35.92,23.286v-21l6,1.373a3.409,3.409,0,0,1,2.542,2.542,139.529,139.529,0,0,1,3.356,28.878s-3-13.041-11.261-7.957c0,0-8.821-7.3-15.812,5.084,0,0-16.93-7.3-20.744-16.193s-6.355-13.7-6.355-13.7Z" transform="translate(-616.813 -59.913)"/>
        <path id="Caminho_873" data-name="Caminho 873" class="cls-12" d="M703.137,177.2a812.337,812.337,0,0,1,18.379,117.776c4.093,58.9,4.932,76.7-18.379,74.153s-42.352-5.516-38.971-13.982,16.092-27.556,15.253-37.293-8.9-85.567-9.812-97.058S661.625,184.318,703.137,177.2Z" transform="translate(-638.439 -59.913)"/>
        <path id="Caminho_874" data-name="Caminho 874" class="cls-14" d="M713.6,232.983c-.356-5.211-.814-10.423-1.322-15.583L668.91,230.111c.686,6.533,1.3,12.406,1.754,16.93l28.98-7.779-.33-2.186,14.465-2.161C713.677,234.178,713.651,233.619,713.6,232.983Z" transform="translate(-630.522 2.08)"/>
        <path id="Caminho_875" data-name="Caminho 875" class="cls-12" d="M695.6,178.1s18.634,36.479,19.9,96.32-1.373,91.694,9.736,93.55,13.575-5.745,13.575-5.745-3.3-32.514-3.3-40.47,3.508-55.926,0-90.245,0-32.183-5.77-36.022A158.117,158.117,0,0,0,695.6,178.1Z" transform="translate(-589.363 -58.525)"/>
        <path id="Caminho_876" data-name="Caminho 876" class="cls-23" d="M671.678,259.536,683.143,194s-9.457,9.609-16.473,16.956C668.017,224.251,670.051,243.19,671.678,259.536Z" transform="translate(-633.977 -34.005)"/>
        <path id="Caminho_877" data-name="Caminho 877" class="cls-22" d="M717.416,209.35c-4.042.864-25.573,14.617-25.573,14.617s-11.694,3.534-17.083,4.525l5.694,13.066c4.677-2.085,14.82-5.084,14.82-5.084s8.618-.28,11.49-.864c0,0,8.313,2.288,13.194-.864s7.626-10.906,7.626-10.906S721.433,208.511,717.416,209.35Z" transform="translate(-621.501 -10.385)"/>
        <path id="Caminho_878" data-name="Caminho 878" class="cls-12" d="M707.6,270.294c-11.49,2.135-25.726,2.39-25.726.508,0-2.873,10.906-38.894,16.829-52.113,3.788-8.465,15.583-29.565,2.542-36.962-6.915-3.94-28.548-1.195-38.716,43.623s-5.491,61.011,4.347,68c10.346,7.347,33.708-1.347,46.393-6.991Z" transform="translate(-649.153 -54.906)"/>
        <path id="Caminho_879" data-name="Caminho 879" class="cls-12" d="M687.383,155.608c.3,1.525,1.347,2.542,2.339,2.39s1.551-1.576,1.246-3.1-1.347-2.542-2.313-2.364S687.1,154.083,687.383,155.608Z" transform="translate(-602.144 -97.984)"/>
        <path id="Caminho_880" data-name="Caminho 880" class="cls-12" d="M694.092,154.3c.305,1.5,1.347,2.542,2.313,2.39s1.551-1.576,1.271-3.1-1.347-2.542-2.313-2.39S693.914,152.775,694.092,154.3Z" transform="translate(-591.745 -100.032)"/>
        <path id="Caminho_881" data-name="Caminho 881" class="cls-12" d="M694.4,152.324l3.432-1.754S696.51,153.773,694.4,152.324Z" transform="translate(-591.214 -100.979)"/>
        <path id="Caminho_882" data-name="Caminho 882" class="cls-12" d="M687.67,153.644l3.432-1.754S689.78,155.093,687.67,153.644Z" transform="translate(-601.592 -98.943)"/>
        <path id="Caminho_883" data-name="Caminho 883" class="cls-12" d="M698.208,165.654a19.607,19.607,0,0,0,3.2-.28.582.582,0,0,0,.458-.661h0a.585.585,0,0,0-.636-.458,15.252,15.252,0,0,1-13.193-3.686.587.587,0,0,0-.814,0,.561.561,0,0,0-.023.791l.023.023A15.892,15.892,0,0,0,698.208,165.654Z" transform="translate(-602.547 -85.812)"/>
        <path id="Caminho_884" data-name="Caminho 884" class="cls-12" d="M698.606,207.167s4.347-2.11,4.245-11.77a27.967,27.967,0,0,0,.661-27.785s20.972-1.627,25.421-9.635,15.558-8.338,15.558-8.338-2.542-9.533-21.4-5.491a27.965,27.965,0,0,1,14.643-4.678S726.315,128.9,709.308,138.3a12.048,12.048,0,0,1,8.16-6.66S695,126.328,677.2,147.885c-13.982,16.93-2.542,23.565-2.542,23.565s-11.389-1.754-9,13.626l4.6-7.245S666.6,187.593,677.4,198.4,698.606,207.167,698.606,207.167Z" transform="translate(-636.042 -131.062)"/>
        <path id="Caminho_885" data-name="Caminho 885" class="cls-22" d="M675.431,170.488a17.794,17.794,0,0,0,12.532,5.364c6.279,0,7.626-6,4.627-11.033-2.822-4.55-9.482-10.016-15.1-7.626S671.389,166.293,675.431,170.488Z" transform="translate(-624.562 -91.662)"/>
        <path id="Caminho_886" data-name="Caminho 886" class="cls-12" d="M687.341,402.246l-26.946.534a2.162,2.162,0,0,0-2.085,1.729l-4.423,22.04a3.608,3.608,0,0,0,2.771,4.271h.763c9.711-.356,18.354-1.068,30.505-1.3,14.261-.254,10.677,1.525,27.455,1.424,10.168,0,11.745-11.592,7.448-12.075-19.676-2.085-21.837-7.957-29.539-14.846A8.612,8.612,0,0,0,687.341,402.246Z" transform="translate(-653.809 287.092)"/>
        <path id="Caminho_887" data-name="Caminho 887" class="cls-12" d="M734.976,402.246l-26.946.534a2.162,2.162,0,0,0-2.085,1.729l-4.449,22.04a3.608,3.608,0,0,0,2.8,4.271h.763c9.711-.356,18.354-1.068,30.505-1.3,14.287-.254,10.7,1.525,27.48,1.424,10.168,0,11.745-11.592,7.448-12.075-19.676-2.085-21.837-7.957-29.539-14.846A8.664,8.664,0,0,0,734.976,402.246Z" transform="translate(-580.389 287.092)"/>
      </g>
    </g>
  </g>
</svg>
