<svg xmlns="http://www.w3.org/2000/svg" width="38.484" height="69" viewBox="0 0 38.484 69">
  <path id="Path_486" data-name="Path 486" d="M309,48.082h10.212a1.011,1.011,0,0,0,0-2.022H309a1.011,1.011,0,0,0,0,2.022Z" transform="translate(-281.741 -39.853)" fill="#dd1964"/>
  <path id="Path_487" data-name="Path 487" d="M309,82.711h5.106a1.011,1.011,0,1,0,0-2.022H309a1.011,1.011,0,0,0,0,2.022Z" transform="translate(-281.741 -69.814)" fill="#dd1964"/>
  <path id="Path_488" data-name="Path 488" d="M319.216,115.689H309a1.011,1.011,0,0,0,0,2.022h10.212a1.011,1.011,0,0,0,0-2.022Z" transform="translate(-281.742 -100.098)" fill="#dd1964"/>
  <path id="Path_489" data-name="Path 489" d="M309,152.339h5.106a1.011,1.011,0,1,0,0-2.022H309a1.011,1.011,0,0,0,0,2.022Z" transform="translate(-281.741 -130.059)" fill="#dd1964"/>
  <path id="Path_490" data-name="Path 490" d="M319.216,184.8H309a1.011,1.011,0,0,0,0,2.022h10.212a1.011,1.011,0,0,0,0-2.022Z" transform="translate(-281.742 -159.897)" fill="#dd1964"/>
  <path id="Path_491" data-name="Path 491" d="M309,221.454h5.106a1.011,1.011,0,1,0,0-2.022H309a1.011,1.011,0,1,0,0,2.022Z" transform="translate(-281.741 -189.859)" fill="#dd1964"/>
  <path id="Path_492" data-name="Path 492" d="M319.216,254.568H309a1.011,1.011,0,0,0,0,2.022h10.212a1.011,1.011,0,1,0,0-2.022Z" transform="translate(-281.742 -220.26)" fill="#dd1964"/>
  <path id="Path_493" data-name="Path 493" d="M314.109,289.2H309a1.011,1.011,0,0,0,0,2.022h5.106a1.011,1.011,0,1,0,0-2.022Z" transform="translate(-281.741 -250.222)" fill="#dd1964"/>
  <path id="Path_494" data-name="Path 494" d="M135.351,42.486V16.31a1.011,1.011,0,1,0-2.022,0V43.052a1.011,1.011,0,0,0,.5.873,12.422,12.422,0,0,1,6.138,10.686,12.367,12.367,0,1,1-18.6-10.686,1.011,1.011,0,0,0,.5-.873V7.749a5.728,5.728,0,1,1,11.455,0v3.866a1.011,1.011,0,1,0,2.022,0V7.749a7.749,7.749,0,1,0-15.5,0V42.486A14.4,14.4,0,0,0,127.4,69h.207a14.389,14.389,0,0,0,14.386-14.389A14.454,14.454,0,0,0,135.351,42.486Z" transform="translate(-113.214)" fill="#dd1964"/>
  <path id="Path_495" data-name="Path 495" d="M149.369,73.521a5.071,5.071,0,0,0,2.5-4.364V65.873a1.011,1.011,0,0,0-2.022,0v3.284a3.043,3.043,0,0,1-1.5,2.618,10.354,10.354,0,0,0,5.061,19.285h.138A10.345,10.345,0,0,0,163.9,80.716a10.394,10.394,0,0,0-5.137-8.941,3.043,3.043,0,0,1-1.5-2.618v-35.3a3.706,3.706,0,1,0-7.412,0v27.28a1.011,1.011,0,0,0,2.022,0V45.315h3.369V69.157a5.071,5.071,0,0,0,2.5,4.364,8.365,8.365,0,0,1,4.135,7.2,8.324,8.324,0,1,1-12.513-7.2Zm2.5-30.227V33.854a1.685,1.685,0,1,1,3.369,0v9.439Z" transform="translate(-139.17 -26.085)" fill="#dd1964"/>
</svg>
