<svg id="diamond" xmlns="http://www.w3.org/2000/svg" width="72.038" height="72.03" viewBox="0 0 72.038 72.03">
  <g id="Group_263" data-name="Group 263" transform="translate(0 12.1)">
    <g id="Group_262" data-name="Group 262">
      <path id="Path_742" data-name="Path 742" d="M71.807,104.256,60.271,86.665A1.407,1.407,0,0,0,59.1,86.03H13a1.407,1.407,0,0,0-1.175.633L.268,104.2a1.407,1.407,0,0,0,.08,1.753l5.857,6.687a1.407,1.407,0,1,0,2.117-1.854l-3.813-4.353H23.433L32.943,138.9,22.2,126.631a1.407,1.407,0,1,0-2.117,1.854l14.884,17a1.406,1.406,0,0,0,2.117,0l15.847-18.1a1.407,1.407,0,0,0-2.117-1.853L39.1,138.9l9.509-32.464H67.529l-8.749,9.992A1.407,1.407,0,1,0,60.9,118.28l10.792-12.326A1.407,1.407,0,0,0,71.807,104.256ZM4.02,103.621,12.995,90l8.934,13.623ZM15.6,88.844H33.418L24.51,102.427ZM36.023,90l8.931,13.618H27.092Zm0,49.4-9.658-32.973H45.681Zm11.536-36.945L38.628,88.844H56.49Zm2.605,1.159L59.1,90l8.931,13.618Z" transform="translate(0 -86.03)" fill="#dd1964"/>
    </g>
  </g>
  <g id="Group_265" data-name="Group 265" transform="translate(4.733 38.019)">
    <g id="Group_264" data-name="Group 264">
      <path id="Path_743" data-name="Path 743" d="M51.02,278.228a6.589,6.589,0,0,1-6.582-6.582,1.407,1.407,0,0,0-2.814,0,6.589,6.589,0,0,1-6.582,6.582,1.407,1.407,0,1,0,0,2.814,6.589,6.589,0,0,1,6.582,6.582,1.407,1.407,0,0,0,2.814,0,6.589,6.589,0,0,1,6.582-6.582,1.407,1.407,0,0,0,0-2.814Zm-7.988,4.455a9.469,9.469,0,0,0-3.048-3.048,9.467,9.467,0,0,0,3.048-3.048,9.469,9.469,0,0,0,3.048,3.048A9.469,9.469,0,0,0,43.031,282.683Z" transform="translate(-33.636 -270.24)" fill="#dd1964"/>
    </g>
  </g>
  <g id="Group_267" data-name="Group 267" transform="translate(57.969)">
    <g id="Group_266" data-name="Group 266">
      <path id="Path_744" data-name="Path 744" d="M424.672,5.654a4.225,4.225,0,0,1-4.221-4.221,1.407,1.407,0,0,0-2.814,0,4.225,4.225,0,0,1-4.221,4.221,1.407,1.407,0,0,0,0,2.814,4.225,4.225,0,0,1,4.221,4.221,1.407,1.407,0,0,0,2.814,0,4.225,4.225,0,0,1,4.221-4.221,1.407,1.407,0,0,0,0-2.814Zm-5.627,2.818a7.1,7.1,0,0,0-1.411-1.411,7.1,7.1,0,0,0,1.411-1.411,7.1,7.1,0,0,0,1.411,1.411A7.088,7.088,0,0,0,419.044,8.472Z" transform="translate(-412.01 -0.027)" fill="#dd1964"/>
    </g>
  </g>
  <g id="Group_269" data-name="Group 269" transform="translate(54.27 46.77)">
    <g id="Group_268" data-name="Group 268">
      <path id="Path_745" data-name="Path 745" d="M388.117,332.853a1.406,1.406,0,1,0,.412.995A1.411,1.411,0,0,0,388.117,332.853Z" transform="translate(-385.716 -332.441)" fill="#dd1964"/>
    </g>
  </g>
</svg>
