<?xml version="1.0" encoding="utf-8"?>
<!-- Generator: Adobe Illustrator 25.2.0, SVG Export Plug-In . SVG Version: 6.00 Build 0)  -->
<svg version="1.1" id="Layer_1" xmlns="http://www.w3.org/2000/svg" xmlns:xlink="http://www.w3.org/1999/xlink" x="0px" y="0px"
	 viewBox="0 0 231.3 76.8" style="enable-background:new 0 0 231.3 76.8;" xml:space="preserve">
<style type="text/css">
	.st0{fill:#346222;}
	.st1{fill:#A0124C;}
	.st2{fill:#DD1964;}
	.st3{fill:#7AA927;}
	.st4{fill:#7AA926;}
	.st5{fill:#79A926;}
	.st6{fill:#D97E3B;}
	.st7{fill:#79A826;}
	.st8{fill:#D87E3B;}
	.st9{fill:#D77C3B;}
	.st10{fill:#E0353C;}
	.st11{fill:#B21454;}
	.st12{fill:#356121;}
	.st13{fill:#76181E;}
	.st14{fill:#5D8C1F;}
	.st15{fill:#366121;}
	.st16{fill:#76171E;}
	.st17{fill:#FFEDDF;}
	.st18{fill:#0B0A18;}
	.st19{enable-background:new    ;}
</style>
<g id="Layer_6_copy" transform="translate(0 -44.199)">
	<g id="Group_30" transform="translate(11.053 44.199)">
		<g id="Group_29" transform="translate(0 0)">
			<g id="Path_138">
				<path class="st0" d="M2.2,37.8c-0.4-1.4-0.4-2.9-0.1-4.3C2.7,30.6,4,28,5.8,25.7c1-1.3,2.1-2.5,3.2-3.8c0.4-0.5,1.1-0.6,1.6-0.2
					l0.1,0.1c0.2-0.5,0.5-1,0.7-1.5c0.7-1.3,1.5-2.6,2.2-4c0.1-0.2,0.2-0.3,0.2-0.5c0.3-2.4,0.5-4.9,0.8-7.3s0.6-4.7,0.8-7.1
					c0.1-0.6,0.4-1.1,0.8-1.5h0.4c1.1,0.7,2,1.7,2.6,2.9c0.7,1.3,1.4,2.6,2.1,3.9c0.1-0.1,0.1-0.1,0.1-0.2c0.6-0.9,1.2-1.9,1.7-2.8
					C23.6,3.2,24,3,24.6,3.2c0.5,0.3,0.8,0.8,0.7,1.4C25.2,6.2,25,7.7,25,9.3c-0.1,2.4,0.2,4.9,0.8,7.2c0,0.1,0.1,0.2,0.1,0.3
					c0.2-0.6,0.3-1.1,0.5-1.6c0.1-0.3,0.3-0.5,0.5-0.7c0.4-0.3,1-0.3,1.3,0.1c0,0.1,0.1,0.1,0.1,0.2c1.6,3.3,3.4,6.5,4.7,9.9
					c0.2,0.5,0.4,1,0.6,1.5c0-0.1,0-0.2,0-0.3c0.1-0.2,0.2-0.5,0.4-0.5c0.2-0.1,0.5,0,0.7,0.2c0.3,0.3,0.6,0.7,0.8,1.1
					c1.9,3.2,3.3,6.7,4,10.3c0.4,2.2,0.7,4.4,1,6.6c0,0.2,0,0.3,0,0.5c-0.5-0.4-0.7-0.4-1.1,0.1c-0.1-0.6-0.2-1.2-0.2-1.8
					c-0.1-0.8-0.4-1.6-0.9-2.2c0-0.2-0.1-0.3-0.1-0.5c-0.2-0.9-0.4-1.7-0.5-2.6L37.6,37l0,0c0-0.1,0-0.2,0-0.3
					c-0.5-1.8-1.1-3.6-1.6-5.4c-0.2-0.6-0.5-1.3-0.7-1.9c-0.1,0.5,0,0.9,0,1.4c-0.1,1.5-0.2,3.1-0.3,4.6L34.6,37
					c-0.1,0.2-0.2,0.4-0.3,0.7c0-0.5-0.1-1-0.1-1.4c-0.2-1.4-0.5-2.8-0.8-4.1L33,30.7c-0.2-0.9-0.4-1.8-0.7-2.6
					c-1-3.2-2.2-6.4-3.6-9.4c-0.3-0.6-0.6-1.2-0.8-1.8c-0.2,0.2-0.3,0.4-0.3,0.7c-0.2,1.4-0.5,2.7-0.6,4.1s-0.1,2.8-0.1,4.2
					c0.1,1.6,0.3,3.3,0.5,4.9l-0.1,1l0.2,0.1l0,0H27c-0.1-0.1-0.3-0.2-0.3-0.4c-0.1-0.5-0.2-1.1-0.2-1.6c-0.2-1.5-0.4-3-0.6-4.5
					c-0.1-1.1-0.1-2.2-0.1-3.3c0-0.2,0-0.5-0.1-0.7c-0.2-0.5-0.4-1-0.7-1.5v-0.2l0,0c0-0.2-0.1-0.4-0.1-0.6
					c-0.8-2.5-1.3-5.1-1.4-7.7c-0.1-1.4,0-2.8,0.1-4.2c0-0.2,0-0.5,0-0.7c-0.8,1.2-1.5,2.4-2.2,3.7c-1.3,2.6-2.4,5.3-3.2,8.1
					c-0.6,1.9-0.9,3.9-1.1,5.9c-0.1,0.6-0.2,1.2-0.3,1.7c-0.2,0.8-0.4,1.6-0.6,2.4c-0.1,0.2-0.2,0.4-0.3,0.5l-0.2-0.1V28v-0.1
					c0.2-1.2,0.3-2.4,0.5-3.6c0.2-1.7,0.4-3.4,0.6-5.1c0.2-1.3,0.3-2.7,0.5-4c0.1-0.6,0.1-1.2,0.2-1.8c0,0.1-0.1,0.1-0.1,0.2
					c-1.7,3.5-3.5,6.9-5.2,10.4c-0.3,0.6-0.5,1.2-0.8,1.9l0,0L11.3,26c-0.4,0.9-0.8,1.7-1.2,2.6l0,0L10,28.8
					c-0.8,1.8-1.5,3.7-2.3,5.5c0,0.1,0,0.2,0,0.3c0,0.7,0,1.4,0.1,2.1c0.1,0.8,0,1.6-0.3,2.3l-0.1-0.1l0,0C7.1,38.2,7,37.6,7,37
					c-0.1-1-0.2-2.1-0.3-3.1c0-1,0-2,0.1-3c0.1-1.2,0.4-2.5,0.6-3.7c0.1-0.6,0.3-1.2,0.5-1.8l0,0l0,0c0,0-0.1,0-0.1,0.1
					c-1.2,1.6-2.2,3.3-3,5.2c-0.8,1.8-1.2,3.7-1.1,5.6C3.8,37.1,3.9,38,4,38.8c-0.4-0.1-0.6-0.4-0.5-0.7s0-0.6-0.3-0.7
					c-0.2-0.1-0.5-0.1-0.7,0.1C2.4,37.6,2.3,37.7,2.2,37.8z M17.9,15.3c0.7-1.6,1.4-3.3,2.2-5c0.3-0.5,0.3-1.1,0.1-1.6
					c-0.6-1.5-1.2-3-2.1-4.4c-0.3-0.6-0.7-1.1-1.1-1.7c-0.5,4-1,7.9-1.5,11.7c0.8-1,1.4-2,2.1-2.9c0.1-0.1,0.2-0.2,0.4-0.3
					c0.1,0.2,0.2,0.3,0.2,0.5c0,0.5-0.1,1.1-0.1,1.6C18.1,13.8,18,14.6,17.9,15.3L17.9,15.3z"/>
			</g>
			<g id="Path_139">
				<path class="st1" d="M18.5,74.3c-0.6-0.1-1.1-0.2-1.7-0.3c-4.3-0.5-8.3-2.1-11.8-4.6c-0.9-0.7-1.7-1.5-2.5-2.3
					c-0.1-0.1-0.2-0.3-0.3-0.4c0.1-0.3,0.1-0.6,0.5-0.7c0.3-0.1,0.5,0.2,0.7,0.4c0.4,0.5,1,0.8,1.6,0.9l0,0l0.1,0.1
					c0.5,0.3,1,0.6,1.5,0.9C8,69,9.5,69.7,11,70.4c0.5,0.2,1.1,0.4,1.6,0.6c0.8,0.6,1.8,1,2.8,1.2c0.2,0,0.6,0.2,0.6-0.3
					c0.2,0,0.3,0,0.5,0c1,0.1,2,0.3,3,0.3c1.6,0,3.2,0,4.9-0.2c2-0.2,4-0.7,5.9-1.5c1-0.4,1.9-0.9,2.9-1.3c1.3-0.1,2.5-0.6,3.4-1.5
					c0.2-0.2,0.5-0.3,0.8-0.2c0.3,0.1,0.3,0.4,0.3,0.7c-0.9,0.8-1.9,1.6-2.8,2.3c-3.2,1.9-6.7,3.2-10.4,3.6
					c-0.6,0.1-1.2,0.2-1.7,0.3L18.5,74.3z"/>
			</g>
			<g id="Path_140">
				<path class="st1" d="M38.3,60.2c-0.4,0.8-0.7,1.7-1.1,2.5c-0.1,0.2-0.3,0.3-0.5,0.3c-0.5,0.1-0.7,0.3-0.9,0.9
					c-0.1,0.1-0.3,0.2-0.4,0.4c-0.3,0.4-0.7,0.7-1,1.1l0,0c0.1-0.2,0.1-0.4,0.2-0.5c0.8-1.8,1.7-3.7,2.5-5.5c1.1-3,1.7-6.2,1.8-9.4
					c0.1-1.5,0-3.1-0.1-4.6c-0.2-1.7-0.4-3.4-0.6-5.1c0.5,0.6,0.8,1.4,0.9,2.2c0,0.6,0.1,1.2,0.2,1.8c0.4-0.5,0.6-0.5,1.1-0.1
					c0,0.1,0,0.2,0.1,0.3c0.3,3.8,0.1,7.6-0.7,11.3C39.4,57.2,38.8,58.7,38.3,60.2z"/>
			</g>
			<g id="Path_141">
				<path class="st1" d="M3.2,58c-0.5-0.6-1-1.2-1.6-1.8c0-0.1-0.2-0.2-0.3-0.2c-0.6-0.3-1.1-0.8-1.3-1.4c0-0.1,0-0.2,0-0.2
					c0.4-0.4,0.3-1,0.2-1.5c0-1.7-0.1-3.4,0-5.1c0.2-3.4,0.8-6.7,2-9.8c0-0.1,0-0.2,0.1-0.2c0.1-0.1,0.1-0.2,0.2-0.2
					c0.2-0.2,0.5-0.3,0.7-0.1c0.3,0.1,0.4,0.4,0.3,0.7c-0.1,0.3,0.1,0.6,0.4,0.7H4c0,0,0,0,0.1,0c0,0.2,0,0.3,0,0.5
					c-0.4,1.1-0.8,2.2-1.1,3.3c-0.8,2.1-1.1,4.3-1,6.5c0,1.5,0.2,3.1,0.3,4.6c0,0.5,0.2,1.1,0.3,1.6c0.1,0.2,0.1,0.5,0.2,0.7
					C2.9,56.8,3,57.4,3.2,58z"/>
			</g>
			<g id="Path_142">
				<path class="st2" d="M2.5,55.4c-0.1-0.5-0.2-1.1-0.3-1.6c-0.1-1.5-0.2-3-0.3-4.6c-0.1-2.2,0.2-4.5,0.8-6.6
					c0.3-1.1,0.8-2.2,1.1-3.3c0-0.2,0-0.3,0-0.5s0.1-0.3,0.1-0.5c0.2-1,0.8-1.2,1.6-0.6c0.4,0.3,0.7,0.6,1,1C6.8,38.9,7,39,7.2,39.2
					l0.1-0.1c0-0.1,0-0.1,0-0.2v-0.1c0.3-0.7,0.4-1.5,0.3-2.3c0-0.7-0.1-1.4-0.1-2.1c0-0.1,0-0.2,0-0.3c0.8-1.8,1.5-3.7,2.3-5.5
					l0.1-0.2l0,0c0.2-0.2,0.4-0.3,0.6-0.5c0.6-0.7,1.4-1.3,2.3-1.7c0.3-0.2,0.8-0.2,1.1,0.1c0.6,0.6,1.1,1.2,1.7,1.7v0.7l0.2,0.1
					c0.1-0.2,0.2-0.3,0.3-0.5c0.2-0.8,0.4-1.6,0.6-2.4c0-0.1,0.1-0.1,0.1-0.2c0.7-1.4,1.4-2.9,2.2-4.3c0.5-0.8,1-1.5,1.6-2.1
					c0.5-0.6,1.3-0.6,1.9-0.2c0.4,0.3,0.8,0.6,1.1,0.9c0.7,0.7,1.4,1.4,2.1,2.1c0,1.1,0,2.2,0.1,3.3c0.1,1.5,0.4,3,0.6,4.5
					c0.1,0.5,0.1,1.1,0.2,1.6c0,0.1,0.2,0.3,0.3,0.4l0.2-0.3c0.1-0.1,0.2-0.2,0.3-0.3c0.2-0.3,0.4-0.7,0.7-1.1
					c0.5-0.9,1.5-1.2,2.4-0.7c0.1,0,0.1,0.1,0.2,0.1c0.8,0.5,1.5,1.2,1.9,2c0.1,0.2,0.3,0.3,0.5,0.4c0.3,1.4,0.5,2.8,0.8,4.1
					C34,36.5,34,37,34,37.5c0.1-0.3,0.2-0.5,0.3-0.7c0.2-0.2,0.5-0.3,0.7-0.5s0.4-0.3,0.6,0c0.4,0.4,0.8,0.9,1.1,1.3
					c0.5,0.7,0.8,1.4,1.3,2.1c0,0.2,0.1,0.3,0.1,0.5c0.2,1.7,0.4,3.4,0.6,5.1c-0.1,0.1-0.2,0.2-0.2,0.3c0,0.7,0,1.5-0.1,2.2
					c-0.1,0.9-0.2,1.7-0.3,2.6c-0.3,1.8-1,3.5-1.8,5.1c-0.9,1.5-2,2.9-3.3,4l-1.1,0.9c-0.5,0.4-1,0.8-1,0.9
					c-1.4,1.2-2.1,1.8-2.8,2.2c-1.5,1.1-3.4,1.7-5.3,1.6C21.9,65,21,65,20.1,64.9c-0.6,0-1.3-0.1-1.9-0.2c-1-0.1-2.1-0.2-3.1-0.2
					c-0.5-0.9-1-1.8-1.5-2.7c-0.4-0.7-0.6-1.5-0.9-2.2c-0.1-0.3-0.4-0.5-0.6-0.5c-0.3-0.1-0.4,0.2-0.5,0.5c-0.3,1.2-0.6,2.4-0.9,3.7
					c-0.1,0-0.1,0-0.2-0.1c-1.3-0.6-2.5-1.4-3.6-2.4C5.4,59.5,4,57.9,3,56.2C2.9,55.9,2.7,55.7,2.5,55.4z M24.1,36.8l0.2,0.3
					c0.1-0.1,0.1-0.3,0.2-0.4c0-0.4,0.1-0.8,0.1-1.2c0.2-3.1-0.2-6.1-1.1-9.1c-0.5-1.7-1.2-3.3-1.8-4.9c-0.1-0.2-0.3-0.4-0.5-0.4
					c-0.1,0-0.3,0.2-0.4,0.4c-1.1,2-1.9,4.2-2.1,6.5c-0.3,2.5-0.4,4.9-0.6,7.4c0,0.5-0.1,1-0.1,1.5c0,0.1,0.1,0.2,0.1,0.3l0.2-0.2
					c0.4-0.3,0.8-0.6,1.2-1c0.7-0.6,1.6-0.9,2.5-0.8c0.7,0,1.3,0.4,1.6,1C23.7,36.4,23.9,36.6,24.1,36.8L24.1,36.8z"/>
			</g>
			<g id="Path_143">
				<path class="st3" d="M17,24.1c0.2-2,0.5-4,1.1-5.9c0.8-2.8,1.9-5.5,3.2-8.1c0.7-1.3,1.4-2.5,2.2-3.7c0,0.2,0,0.5,0,0.7
					c0,1.4-0.1,2.8-0.1,4.2c0.1,2.6,0.6,5.2,1.4,7.7c0.1,0.2,0.1,0.4,0.1,0.6c-0.1-0.1-0.2-0.2-0.3-0.3c-0.5-0.7-1.1-1.4-1.8-1.9
					c-0.8-0.6-1.9-0.5-2.5,0.3c-0.7,0.9-1.3,1.9-1.7,2.9C18.1,21.9,17.6,23,17,24.1z"/>
			</g>
			<g id="Path_144">
				<path class="st3" d="M27.1,30.5c-0.2-1.6-0.4-3.3-0.5-4.9c-0.1-1.4-0.1-2.8,0.1-4.2c0.1-1.4,0.4-2.7,0.6-4.1
					c0-0.3,0.2-0.5,0.3-0.7c0.3,0.6,0.6,1.2,0.8,1.8c1.4,3.1,2.6,6.2,3.6,9.4c0.3,0.9,0.5,1.8,0.7,2.6c-0.1-0.2-0.2-0.3-0.3-0.5
					c-0.5-0.9-1.1-1.6-1.9-2.2c-0.4-0.4-1.1-0.6-1.6-0.3c-0.3,0.2-0.6,0.4-0.8,0.8C27.7,28.9,27.4,29.7,27.1,30.5z"/>
			</g>
			<g id="Path_145">
				<path class="st4" d="M11.2,25.8c0.3-0.6,0.5-1.3,0.8-1.9c1.7-3.5,3.5-6.9,5.2-10.4c0-0.1,0.1-0.1,0.1-0.2
					c-0.1,0.7-0.1,1.3-0.2,1.8c-0.2,1.3-0.3,2.7-0.5,4c-0.2,1.7-0.4,3.4-0.6,5.1c-0.1,1.2-0.3,2.4-0.5,3.6c0,0,0,0,0-0.1
					c-0.2-1.2-0.8-2.2-1.7-3c-0.4-0.4-1-0.5-1.4-0.1C12,25.1,11.6,25.4,11.2,25.8z"/>
			</g>
			<g id="Path_146">
				<path class="st5" d="M17.9,15.3c0.1-0.7,0.2-1.5,0.2-2.2c0.1-0.5,0.1-1.1,0.1-1.6c0-0.2-0.1-0.3-0.2-0.5
					c-0.1,0.1-0.3,0.2-0.4,0.3c-0.7,1-1.3,2-2.1,2.9c0.5-3.9,1-7.7,1.5-11.7c0.4,0.6,0.8,1.2,1.1,1.7c0.8,1.4,1.5,2.9,2.1,4.4
					c0.2,0.5,0.2,1.1-0.1,1.6C19.3,11.9,18.6,13.6,17.9,15.3z"/>
			</g>
			<g id="Path_147">
				<path class="st4" d="M7.8,25.4c-0.2,0.6-0.4,1.2-0.5,1.8c-0.2,1.2-0.4,2.5-0.6,3.7c-0.1,1-0.1,2-0.1,3S6.8,36,6.9,37
					C7,37.6,7,38.1,7,38.7c-0.3-0.5-0.5-1.1-0.8-1.6s-0.7-1-1.1-1.5c-0.5-0.4-0.8-0.3-1.2,0.2c-0.1,0.1-0.2,0.3-0.4,0.4
					c-0.1-1.9,0.3-3.9,1.1-5.7s1.8-3.6,3-5.2C7.7,25.5,7.8,25.4,7.8,25.4L7.8,25.4z"/>
			</g>
			<g id="Path_148">
				<path class="st6" d="M17,24.1c0.5-1.1,1.1-2.2,1.5-3.4c0.4-1.1,1-2.1,1.7-2.9c0.6-0.8,1.8-0.9,2.5-0.3c0.7,0.5,1.4,1.1,1.8,1.9
					c0.1,0.1,0.2,0.2,0.3,0.3l0,0l0.1,0.1c0.2,0.5,0.5,1,0.7,1.5c0.1,0.2,0.1,0.5,0.1,0.7c-0.7-0.7-1.4-1.4-2.1-2.1
					c-0.3-0.3-0.7-0.6-1.1-0.9c-0.6-0.4-1.4-0.3-1.9,0.2c-0.6,0.7-1.1,1.4-1.6,2.1c-0.8,1.4-1.5,2.9-2.2,4.3c0,0.1-0.1,0.1-0.1,0.2
					C16.8,25.3,16.9,24.7,17,24.1z"/>
			</g>
			<g id="Path_149">
				<path class="st6" d="M27.1,30.4c0.3-0.8,0.6-1.6,1-2.3c0.2-0.3,0.5-0.6,0.8-0.8c0.6-0.2,1.2-0.1,1.6,0.3
					c0.8,0.6,1.4,1.3,1.9,2.2c0.1,0.2,0.2,0.3,0.3,0.5l0.4,1.5c-0.2-0.1-0.3-0.3-0.5-0.4c-0.5-0.8-1.1-1.5-1.9-2s-1.9-0.3-2.5,0.5
					c0,0.1-0.1,0.1-0.1,0.2c-0.2,0.3-0.4,0.7-0.7,1.1c-0.1,0.1-0.2,0.2-0.3,0.3l0,0L27,31.4C27,31.1,27,30.8,27.1,30.4z"/>
			</g>
			<g id="Path_150">
				<path class="st6" d="M11.2,25.8c0.4-0.3,0.8-0.7,1.2-1s1.1-0.3,1.4,0.1c0.9,0.8,1.5,1.8,1.7,3c0,0,0,0,0,0.1v0.1
					c-0.6-0.6-1.2-1.1-1.7-1.7c-0.3-0.3-0.7-0.4-1.1-0.1c-0.9,0.4-1.7,1-2.3,1.7c-0.2,0.2-0.4,0.4-0.6,0.5c0.4-0.9,0.8-1.7,1.2-2.6
					L11.2,25.8L11.2,25.8z"/>
			</g>
			<g id="Path_151">
				<path class="st7" d="M34.8,35.2c0.1-1.5,0.2-3.1,0.3-4.6c0-0.4-0.1-0.9,0-1.4c0.2,0.6,0.5,1.2,0.7,1.9c0.6,1.8,1.1,3.6,1.6,5.4
					c0,0.1,0,0.2,0,0.3c-0.3-0.5-0.6-1-0.9-1.4C35.9,34.7,35.5,34.6,34.8,35.2z"/>
			</g>
			<g id="Path_152">
				<path class="st8" d="M3.7,36.3C3.8,36.2,3.9,36,4,35.9c0.4-0.5,0.7-0.6,1.2-0.2c0.4,0.4,0.8,0.9,1.1,1.5c0.3,0.5,0.6,1,0.8,1.6
					l0,0L7.2,39c0,0.1,0,0.1,0,0.2l-0.1,0.1C7,39,6.8,38.9,6.7,38.7c-0.3-0.3-0.6-0.7-1-1c-0.8-0.7-1.4-0.5-1.6,0.6
					c0,0.2-0.1,0.3-0.1,0.5c0,0,0,0-0.1,0C3.8,38,3.7,37.1,3.7,36.3z"/>
			</g>
			<g id="Path_153">
				<path class="st9" d="M34.8,35.2c0.7-0.5,1.1-0.5,1.7,0.3c0.3,0.4,0.6,0.9,0.9,1.4l0,0l0.1,0.1c0.2,0.9,0.4,1.7,0.5,2.6
					c-0.4-0.7-0.8-1.4-1.3-2.1c-0.3-0.5-0.7-0.9-1.1-1.3c-0.2-0.3-0.4-0.2-0.6,0c-0.2,0.2-0.4,0.4-0.7,0.5L34.8,35.2z"/>
			</g>
			<g id="Path_154">
				<path class="st10" d="M27,31.4l0.2,0.1L27,31.4z"/>
			</g>
			<g id="Path_155">
				<path class="st4" d="M7.2,38.9l-0.1-0.2l0.1,0.1V38.9z"/>
			</g>
			<g id="Path_156">
				<path class="st6" d="M9.9,28.4l-0.1,0.2L9.9,28.4z"/>
			</g>
			<g id="Path_157">
				<path class="st3" d="M25,19.8L25,19.8L25,19.8z"/>
			</g>
			<g id="Path_158">
				<path class="st7" d="M37.5,37L37.5,37L37.5,37z"/>
			</g>
			<g id="Path_159">
				<path class="st4" d="M11.2,25.8l-0.1,0.1L11.2,25.8z"/>
			</g>
			<g id="Path_160">
				<path class="st4" d="M7.8,25.4L7.8,25.4L7.8,25.4L7.8,25.4z"/>
			</g>
			<g id="Path_161">
				<path class="st11" d="M15.1,64.5c1,0.1,2.1,0.2,3.1,0.2c0.6,0.1,1.3,0.1,1.9,0.2c0.9,0.1,1.8,0.1,2.6,0.2
					c1.9,0.1,3.8-0.5,5.3-1.6c1-0.7,1.8-1.5,2.8-2.2c0,0,0.2-0.2,0.5-0.4c0.3-0.3,0.5-0.5,0.7-0.6c0,0,0.3-0.3,1.1-0.9
					c1.2-1.1,2.3-2.4,3.2-3.8c0.9-1.6,1.5-3.3,1.8-5.1c0.2-0.8,0.3-1.7,0.3-2.6c0.1-0.7,0.1-1.5,0.1-2.2c0-0.1,0.2-0.2,0.2-0.3
					c0,1.5,0.1,3.1,0.1,4.6c0,3.2-0.6,6.4-1.8,9.4c-0.8,1.9-1.6,3.7-2.5,5.5c-0.1,0.2-0.1,0.3-0.2,0.5l0,0l0,0
					c0.3-0.4,0.6-0.7,1-1.1c0.1-0.1,0.3-0.2,0.4-0.4l2-1.1c-0.3,1.2-0.8,2.4-1.6,3.4c-0.4,0.5-0.8,1-1.1,1.5l0,0v0.1l0,0l-0.1,0.1
					c-0.5,0.3-1,0.7-1.4,1c-0.1,0.1-0.2,0.2-0.4,0.3c-1,0.4-1.9,0.9-2.9,1.3c-1.9,0.8-3.8,1.3-5.9,1.5c-1.6,0.1-3.2,0.2-4.9,0.2
					c-1,0-2-0.2-3-0.3c-0.2,0-0.3,0-0.5,0l-0.1-0.1c0-0.1,0-0.3-0.1-0.4c-0.2-0.5,0.1-1,0.5-1.2c0.1,0,0.1,0,0.2,0
					c0.6-0.1,1.2-0.1,1.8-0.1c0.8,0,1.5,0.1,2.3,0.2v-0.1l-1.3-0.7l0.4-0.1c-0.1-0.1-0.2-0.2-0.3-0.3c-1-0.9-2-1.7-3-2.7
					C16,65.8,15.5,65.1,15.1,64.5z"/>
			</g>
			<g id="Path_162">
				<path class="st11" d="M2.5,55.4c0.2,0.2,0.4,0.5,0.5,0.7c1.1,1.7,2.4,3.3,3.9,4.6c1.1,0.9,2.3,1.7,3.6,2.4
					c0.1,0,0.1,0.1,0.2,0.1c0,0.8-0.1,1.6-0.1,2.5c0,1.9,0.7,3.8,1.9,5.3c-0.6-0.2-1.1-0.3-1.6-0.6C9.5,69.7,8,69,6.6,68.2
					c-0.5-0.3-1-0.6-1.5-0.9H5l0,0v-0.1L4.9,67l0,0c-0.2-0.5-0.3-1-0.5-1.4c-0.2-0.5,0-1.1,0.5-1.3c0.1-0.1,0.3-0.1,0.4-0.1
					c0.6,0,1.3,0,1.9,0C7.3,64.1,7.3,64,7.4,64l0.3,0.2l0.1-0.1c0-0.2-0.1-0.4-0.2-0.5c-1.2-1.6-2.6-3.2-4-4.8
					c-0.1-0.2-0.3-0.4-0.4-0.6c0-0.1-0.1-0.1-0.1-0.2l0,0c-0.2-0.6-0.3-1.3-0.5-1.9C2.6,55.9,2.6,55.7,2.5,55.4z"/>
			</g>
			<g id="Path_163">
				<path class="st12" d="M12.6,70.9c-1.2-1.5-1.9-3.4-1.9-5.3c0-0.8,0-1.6,0.1-2.5c0.3-1.2,0.6-2.4,0.9-3.7
					c0.1-0.3,0.2-0.6,0.5-0.5s0.5,0.3,0.6,0.5c0.3,0.7,0.5,1.5,0.9,2.2c0.4,0.9,1,1.8,1.5,2.7c0.4,0.6,0.9,1.3,1.4,1.8
					c0.9,0.9,2,1.8,3,2.7c0.1,0.1,0.1,0.1,0.3,0.3l-0.4,0.1l-2-0.9l-0.1-0.1l0,0c0-0.1-0.1-0.1-0.2-0.1c-1.7-1.2-3-2.8-3.8-4.7
					c-0.4-0.8-0.7-1.6-1.1-2.5c-0.4,1.6-0.6,3.3-0.7,4.9c0,1.3,0.4,2.5,1.1,3.5c0.3,0.4,0.7,0.7,1.1,0.9c0.6,0.6,1.2,1.3,2.2,1.2
					l0.1,0.1c-0.1,0.5-0.4,0.3-0.6,0.3C14.4,71.9,13.4,71.5,12.6,70.9z"/>
			</g>
			<g id="Path_164">
				<path class="st0" d="M5,67.3L5,67.3C5.1,67.3,5.1,67.3,5,67.3z"/>
			</g>
			<g id="Path_165">
				<path class="st3" d="M7.5,64c-0.1,0.1-0.1,0.2-0.2,0.2c-0.9-0.4-1.8-0.7-2.7-1.1c-0.7-0.3-1.5,0.1-1.8,0.8
					c0,0.1-0.1,0.2-0.1,0.3c-0.5-0.8-0.9-1.6-1.3-2.4c-0.7-1.8-1.1-3.7-1.3-5.6c-0.1-0.3-0.1-0.6,0-0.8c0.5,0.7,1.1,1.4,1.6,2.1
					c1.2,1.7,2.5,3.3,4,4.7C6.3,62.8,6.9,63.4,7.5,64z"/>
			</g>
			<g id="Path_166">
				<path class="st8" d="M2.7,64.2c0.1-0.8,0.9-1.3,1.6-1.2c0.1,0,0.2,0,0.3,0.1c0.9,0.3,1.8,0.7,2.7,1.1c-0.6,0-1.3,0-1.9,0
					c-0.5,0-1,0.4-1,0.9c0,0.1,0,0.3,0.1,0.4c0.2,0.5,0.3,1,0.5,1.4L2.7,64.2z"/>
			</g>
			<g id="Path_167">
				<path class="st13" d="M3.2,58l0.1,0.2C3.3,58.2,3.2,58.1,3.2,58z"/>
			</g>
			<g id="Path_168">
				<path class="st8" d="M4.9,67L5,67.2C5,67.1,5,67.1,4.9,67z"/>
			</g>
			<g id="Path_169">
				<path class="st14" d="M35,67.8L35,67.8L35,67.8z"/>
			</g>
			<g id="Path_170">
				<path class="st14" d="M34.9,67.9L34.9,67.9L34.9,67.9z"/>
			</g>
			<g id="Path_171">
				<path class="st15" d="M18.2,36.9L18,37.1c0-0.1-0.1-0.2-0.1-0.3c0-0.5,0-1,0.1-1.5c0.2-2.5,0.3-4.9,0.6-7.4
					c0.3-2.3,1-4.5,2.1-6.5c0.1-0.2,0.3-0.4,0.4-0.4c0.2,0.1,0.4,0.2,0.5,0.4c0.6,1.6,1.3,3.2,1.8,4.9c0.9,2.9,1.3,6,1.1,9.1
					c0,0.4-0.1,0.8-0.1,1.2c0,0.1-0.1,0.3-0.2,0.4L24,36.7c0-0.1,0-0.1,0-0.2c0-2-0.1-4.1-0.5-6.1c-0.5-2.8-1.4-5.6-2.5-8.2
					c-0.1,0.2-0.2,0.3-0.2,0.4c-1,2.2-1.6,4.5-1.8,6.9c-0.2,1.1-0.3,2.2-0.4,3.3s-0.2,2.1-0.4,3.2C18.3,36.5,18.2,36.7,18.2,36.9z"
					/>
			</g>
			<g id="Path_172">
				<path class="st6" d="M24.1,36.6c0,0.1,0,0.1,0,0.2c-0.2-0.2-0.4-0.4-0.5-0.6c-0.3-0.6-1-1-1.6-1c-0.9-0.2-1.9,0.1-2.5,0.8
					c-0.4,0.3-0.8,0.7-1.2,1c0-0.2,0.1-0.4,0.1-0.6c0.1-0.2,0.2-0.3,0.2-0.5c0.4-0.7,0.7-1.4,1.1-2.1c0.4-0.6,1.2-0.9,1.9-0.6
					c0.7,0.2,1.2,0.8,1.5,1.4C23.4,35.2,23.7,35.9,24.1,36.6z"/>
			</g>
			<g id="Path_173">
				<path class="st3" d="M17.5,48.9l0.1,0.1L17.5,48.9z"/>
			</g>
			<g id="Path_174">
				<path class="st6" d="M15.9,71.7c-1,0.1-1.6-0.7-2.2-1.2c-0.1-0.2-0.1-0.3-0.2-0.5c-0.2-0.4-0.4-0.8-0.6-1.2
					c-0.2-0.6,0.1-0.9,0.6-1c0.5,0,0.9,0,1.4,0.1c0.8,0.1,1.6,0.4,2.4,0.5l0,0l0.1,0.1l2,0.9l1.3,0.7v0.1c-0.8-0.1-1.5-0.2-2.3-0.2
					c-0.6,0-1.2,0-1.8,0.1c-0.5,0.1-0.9,0.6-0.8,1.1c0,0.1,0,0.1,0,0.2C15.9,71.4,15.9,71.6,15.9,71.7z"/>
			</g>
			<g id="Path_175">
				<path class="st16" d="M34.5,65.4L34.5,65.4L34.5,65.4L34.5,65.4z"/>
			</g>
			<g id="Path_176">
				<path class="st4" d="M17.3,68.4c-0.8-0.2-1.6-0.4-2.4-0.5c-0.5-0.1-0.9-0.1-1.4-0.1c-0.6,0-0.8,0.4-0.6,1
					c0.2,0.4,0.4,0.8,0.6,1.2c0.1,0.1,0.1,0.3,0.2,0.5c-0.4-0.3-0.8-0.6-1.1-0.9c-0.7-1-1.1-2.3-1.1-3.5c0-1.7,0.2-3.3,0.7-4.9
					c0.4,0.9,0.8,1.7,1.1,2.5c0.8,1.9,2.1,3.5,3.8,4.7C17.2,68.3,17.3,68.4,17.3,68.4z"/>
			</g>
			<g id="Path_177">
				<path class="st4" d="M17.4,68.5l-0.1-0.1L17.4,68.5z"/>
			</g>
			<g id="XMLID_8_" transform="translate(18.279 22.382)">
				<g id="Group_25">
					<g id="Path_178">
						<path class="st3" d="M5.3,8.2c0.4,2,0.5,4,0.5,6.1c-0.3-0.7-0.7-1.4-1-2.1c-0.3-0.6-0.9-1.2-1.5-1.4c-0.7-0.3-1.5-0.1-1.9,0.6
							c-0.4,0.6-0.8,1.3-1.1,2c-0.1,0.2-0.2,0.3-0.2,0.5c0.1-1.1,0.2-2.1,0.4-3.2c0.1-1.1,0.2-2.2,0.4-3.3C1,5,1.6,2.6,2.6,0.4
							C2.7,0.3,2.7,0.2,2.8,0C4,2.6,4.8,5.4,5.3,8.2z"/>
					</g>
				</g>
			</g>
			<g id="Path_179">
				<path class="st15" d="M6.9,53.6l-0.2,0.2c0-0.1-0.1-0.2-0.1-0.3c0-0.5,0-1,0.1-1.5c0.2-2.5,0.3-4.9,0.6-7.4
					c0.3-2.3,1-4.5,2.1-6.5c0.1-0.2,0.3-0.4,0.4-0.4c0.2,0.1,0.4,0.2,0.5,0.4c0.6,1.6,1.3,3.2,1.8,4.9c0.9,2.9,1.3,6,1.1,9.1
					c0,0.4-0.1,0.8-0.1,1.2c0,0.1-0.1,0.3-0.2,0.4l-0.2-0.3c0-0.1,0-0.1,0-0.2c0-2-0.1-4.1-0.5-6.1c-0.5-2.8-1.4-5.6-2.5-8.2
					c-0.1,0.2-0.2,0.3-0.2,0.4c-1,2.2-1.6,4.5-1.8,6.9c-0.2,1.1-0.3,2.2-0.4,3.3C7.2,50.8,7.1,51.9,7,53L6.9,53.6z"/>
			</g>
			<g id="Path_180">
				<path class="st6" d="M12.8,53.3c0,0.1,0,0.1,0,0.2c-0.2-0.2-0.4-0.4-0.5-0.6c-0.3-0.6-1-1-1.6-1c-0.9-0.2-1.9,0.1-2.5,0.8
					c-0.4,0.3-0.8,0.7-1.2,1c-0.1-0.3,0-0.5,0-0.7c0.1-0.2,0.2-0.3,0.2-0.5c0.4-0.7,0.7-1.4,1.1-2.1c0.4-0.6,1.2-0.9,1.9-0.6
					c0.7,0.2,1.2,0.8,1.5,1.4C12.1,51.9,12.5,52.6,12.8,53.3z"/>
			</g>
			<g id="XMLID_7_" transform="translate(6.989 39.061)">
				<g id="Group_26">
					<g id="Path_181">
						<path class="st3" d="M5.3,8.2c0.4,2,0.5,4,0.5,6.1c-0.3-0.7-0.7-1.4-1-2.1c-0.3-0.6-0.9-1.2-1.5-1.4c-0.7-0.3-1.5-0.1-1.9,0.6
							c-0.4,0.6-0.8,1.3-1.1,2c-0.1,0.2-0.2,0.3-0.2,0.5c0.1-1.1,0.2-2.1,0.4-3.2c0.1-1.1,0.2-2.2,0.4-3.3C1,5,1.6,2.6,2.6,0.4
							C2.7,0.3,2.7,0.2,2.8,0C3.9,2.6,4.8,5.4,5.3,8.2z"/>
					</g>
				</g>
			</g>
			<g id="Path_182">
				<path class="st15" d="M18.5,61.1l-0.2,0.2c0-0.1-0.1-0.2-0.1-0.3c0-0.5,0-1,0.1-1.5c0.2-2.5,0.3-4.9,0.6-7.4
					c0.3-2.3,1-4.5,2.1-6.5c0.1-0.2,0.3-0.4,0.4-0.4c0.2,0.1,0.4,0.2,0.5,0.4c0.6,1.6,1.3,3.2,1.8,4.9c0.9,2.9,1.3,6,1.1,9.1
					c0,0.4-0.1,0.8-0.1,1.2c0,0.1-0.1,0.3-0.2,0.4L24.4,61c0-0.1,0-0.1,0-0.2c0-2-0.1-4.1-0.5-6.1c-0.5-2.8-1.4-5.6-2.5-8.2
					c-0.1,0.2-0.2,0.3-0.2,0.4c-1,2.2-1.6,4.5-1.8,6.9c-0.2,1.1-0.3,2.2-0.4,3.3s-0.2,2.1-0.4,3.2C18.5,60.7,18.5,60.9,18.5,61.1z"
					/>
			</g>
			<g id="Path_183">
				<path class="st6" d="M24.4,60.9c0,0.1,0,0.1,0,0.2c-0.2-0.2-0.4-0.4-0.5-0.6c-0.3-0.6-1-1-1.6-1c-0.9-0.2-1.9,0.1-2.5,0.8
					c-0.4,0.3-0.8,0.7-1.2,1c0-0.2,0.1-0.4,0.1-0.6c0.1-0.2,0.2-0.3,0.2-0.5c0.4-0.7,0.7-1.4,1.1-2.1c0.4-0.6,1.2-0.9,1.9-0.6
					c0.7,0.2,1.2,0.8,1.5,1.4C23.7,59.4,24,60.2,24.4,60.9z"/>
			</g>
			<g id="XMLID_6_" transform="translate(18.567 46.604)">
				<g id="Group_27">
					<g id="Path_184">
						<path class="st3" d="M5.3,8.2c0.4,2,0.5,4,0.5,6.1c-0.3-0.7-0.7-1.4-1-2.1c-0.3-0.6-0.9-1.2-1.5-1.4c-0.7-0.3-1.5-0.1-1.9,0.6
							c-0.4,0.6-0.8,1.3-1.1,2c-0.1,0.2-0.2,0.3-0.2,0.5c0.1-1.1,0.2-2.1,0.4-3.2c0.1-1.1,0.2-2.2,0.4-3.3C1,5,1.6,2.6,2.6,0.4
							C2.7,0.3,2.7,0.2,2.8,0C4,2.6,4.8,5.4,5.3,8.2z"/>
					</g>
				</g>
			</g>
			<g id="Path_185">
				<path class="st15" d="M27.1,52.3l-0.2,0.2c0-0.1-0.1-0.2-0.1-0.3c0-0.5,0-1,0.1-1.5c0.2-2.5,0.3-4.9,0.6-7.4
					c0.3-2.3,1-4.5,2.1-6.5c0.1-0.2,0.3-0.4,0.4-0.4c0.2,0.1,0.4,0.2,0.5,0.4c0.6,1.6,1.3,3.2,1.8,4.9c0.9,2.9,1.3,6,1.1,9.1
					c0,0.4,0,0.8-0.1,1.2c0,0.1-0.1,0.3-0.2,0.4L33,52.2c0-0.1,0-0.1,0-0.2c0-2-0.1-4.1-0.5-6.1c-0.5-2.8-1.4-5.6-2.5-8.2
					c-0.1,0.2-0.2,0.3-0.2,0.4c-1,2.2-1.6,4.5-1.8,6.9c-0.2,1.1-0.3,2.2-0.4,3.3s-0.2,2.1-0.4,3.2C27.1,51.9,27.1,52.1,27.1,52.3z"
					/>
			</g>
			<g id="Path_186">
				<path class="st6" d="M33,52c0,0.1,0,0.1,0,0.2c-0.2-0.2-0.4-0.4-0.5-0.6c-0.3-0.6-1-1-1.6-1c-0.9-0.2-1.9,0.1-2.5,0.8
					c-0.4,0.3-0.8,0.7-1.2,1c0-0.2,0.1-0.4,0.1-0.6c0.1-0.2,0.2-0.3,0.2-0.5c0.4-0.7,0.7-1.4,1.1-2.1c0.4-0.6,1.2-0.9,1.9-0.6
					c0.7,0.2,1.2,0.8,1.5,1.4C32.3,50.6,32.6,51.3,33,52z"/>
			</g>
			<g id="XMLID_5_" transform="translate(27.157 37.756)">
				<g id="Group_28">
					<g id="Path_187">
						<path class="st3" d="M5.3,8.2c0.4,2,0.5,4,0.5,6.1c-0.3-0.7-0.7-1.4-1-2.1c-0.3-0.6-0.9-1.2-1.5-1.4c-0.7-0.3-1.5-0.1-1.9,0.6
							c-0.4,0.6-0.8,1.3-1.1,2c-0.1,0.2-0.2,0.3-0.2,0.5c0.1-1.1,0.2-2.1,0.4-3.2c0.1-1.1,0.3-2.2,0.4-3.3C1,5,1.6,2.6,2.6,0.4
							C2.7,0.3,2.7,0.2,2.8,0C4,2.6,4.8,5.4,5.3,8.2z"/>
					</g>
				</g>
			</g>
		</g>
		<g id="Path_188">
			<path class="st10" d="M30.5,46.6"/>
		</g>
	</g>
	<g id="Group_31" transform="translate(6.87 56.257)">
		<g id="Path_189">
			<path class="st17" d="M43.1,64.8c-2.4,0.1-5-4.1-5-4.1c-3.6-4.2-9.1-12.1-16.9-24C15.2,27.6,9.6,19,5.6,12.5C3.5,9,2,6.3,1.1,4.4
				c-1.2-2.5-1.4-3.7-0.7-4.2C1-0.3,2,0.1,3.9,1.6c2.3,1.8,3.8,3.2,8.8,8.4l0.2,0.2c-0.2,0.3-0.4,0.5-0.7,0.8
				C9.8,7.8,6.9,5.1,3.7,2.8C2.8,2.1,1.9,1.5,1,1c0,0.2,0,1,1.3,3.5c1,1.9,2.5,4.6,4.6,8c3.9,6.4,9.4,14.8,15.2,23.6
				C29.9,48,35.4,55.8,38.9,60c3,3.6,4,3.9,4.4,3.7s1.5-1.4-0.3-9.9l1-0.2c0.5,2.3,0.8,4.5,1,6.8c0.1,3.5-1,4.1-1.3,4.2
				C43.5,64.7,43.3,64.8,43.1,64.8z"/>
		</g>
	</g>
	<g id="Path_190">
		<path class="st0" d="M53.2,104.1c-0.1,0.5-0.2,0.9-0.4,1.4c-0.7,2.7-2.1,5.1-4.1,6.9c0-0.3,0-0.6-0.3-0.7s-0.6,0-0.8,0.2
			c-0.9,0.9-2.2,1.4-3.4,1.5c0.1-0.1,0.2-0.2,0.4-0.3c0.5-0.3,1-0.7,1.5-1l0.1-0.1l0,0l0.1-0.1l0,0c0.6-0.5,1.2-1,1.8-1.5
			c1-1.1,1.9-2.3,2.6-3.6c0.3-0.5,0.5-1,0.8-1.6l-0.2-0.1L49,107l-2,1.1c0.1-0.6,0.3-0.8,0.9-0.9c0.2,0,0.4-0.2,0.5-0.3
			c0.4-0.8,0.8-1.6,1.1-2.5c0.2-0.1,0.4-0.3,0.6-0.5c0.8-0.9,1.4-1.9,1.8-3.1c0.1-0.3,0.3-0.5,0.7-0.5s0.5,0.3,0.5,0.6
			c0,0.5,0.1,1.1,0.2,1.6c0,0.1,0,0.2,0.1,0.3L53.2,104.1z"/>
	</g>
	<g id="Path_191">
		<path class="st14" d="M46.2,111.9c0.4-0.5,0.8-1,1.1-1.5c0.8-1,1.3-2.1,1.6-3.4l2.3-1.9l0.2,0.1c-0.3,0.5-0.5,1-0.8,1.6
			c-0.7,1.3-1.6,2.5-2.6,3.6C47.4,110.9,46.8,111.4,46.2,111.9z"/>
	</g>
	<g id="Path_192">
		<path class="st0" d="M14.5,110.6c-0.1-0.1-0.2-0.3-0.4-0.4c-0.1,0-0.2,0-0.3,0s-0.2,0-0.3,0.1c-0.2,0.1-0.3,0.3-0.3,0.5
			c-2.1-2.6-3.4-5.7-3.6-9c0-0.1-0.1-0.2-0.1-0.3V98c0.1-0.2,0.1-0.3,0.2-0.5c0.4-0.8,0.7-0.9,1.5-0.5c0.1,0.5,0.2,1-0.2,1.5
			c0,0.1-0.1,0.2,0,0.2c0.2,0.6,0.7,1.1,1.3,1.4c0.1,0.1,0.2,0.1,0.3,0.3c0.5,0.6,1,1.2,1.6,1.8l0,0c0,0.1,0.1,0.1,0.1,0.2
			c0.1,0.2,0.2,0.4,0.4,0.6c1.4,1.6,2.7,3.2,4.1,4.8c-0.1,0.1-0.2,0.2-0.4,0.3c-0.6-0.5-1.1-1.1-1.7-1.6c-1.5-1.4-2.8-3-4-4.7
			c-0.5-0.7-1-1.4-1.6-2.1c0,0.3,0,0.6,0,0.8c0.2,1.9,0.7,3.8,1.3,5.6c0.4,0.8,0.8,1.6,1.3,2.4l1.4,1.8c0,0,0,0.1,0.1,0.1l0,0
			l-0.1,0.1l-0.1,0.1c-0.1,0.1-0.2,0.1-0.3,0.2c0,0,0,0-0.1,0C14.6,110.8,14.5,110.7,14.5,110.6z"/>
	</g>
	<g id="Ellipse_3">
		<circle class="st17" cx="45.4" cy="84.9" r="3.6"/>
	</g>
	<g id="Ellipse_4">
		<circle class="st17" cx="10.2" cy="95.5" r="3.6"/>
	</g>
	<g id="Path_193">
		<path class="st18" d="M9,93.3c-0.1,0.2-0.3,0.2-0.5,0.3C7.9,94,7.9,95,7.7,95c-0.2-0.6-0.1-1.2,0.3-1.7c0.2-0.3,0.7-0.5,0.9-0.4
			C9,93,9.1,93.2,9,93.3z"/>
	</g>
	<g id="Path_194">
		<path class="st18" d="M47.2,85.9C47,86,47,86.2,47,86.4c-0.2,0.7-1.2,0.9-1.2,1c0.6,0.1,1.2-0.1,1.6-0.5c0.2-0.3,0.4-0.8,0.3-0.9
			C47.5,85.8,47.4,85.8,47.2,85.9z"/>
	</g>
	<g id="Group_32" transform="translate(0 87.297)">
		<g id="Path_195">
			<path class="st17" d="M30.2,9.8C23.8,9.8,17,9.5,11.7,9C9,8.7,6.3,8.3,3.7,7.7C1.2,7.1,0.1,6.3,0,5.4C-0.1,4.2,1.3,2.6,11.8,0
				c-0.1,0.4-0.1,0.7-0.2,1.1C2.2,3.3,1,4.6,1,5.3C1.1,6.7,6.6,7.4,11.8,8c6.8,0.6,13.6,0.9,20.4,0.8c6.5-0.1,13-0.4,19.5-1.1
				c9.8-1.2,10-2.5,10-2.5c0-0.3-0.4-0.6-1.7-1.1c-2.7-1.1-5.5-1.9-8.4-2.3c0-0.4-0.1-0.8-0.1-1.1c9.3,2.1,11.3,3.6,11.2,4.6
				c0,0.9-1.8,1.8-3.4,2.2c-2.5,0.6-5,1-7.5,1.3C46.2,9.5,38.9,9.9,32.2,10C31.5,9.8,30.9,9.8,30.2,9.8z"/>
		</g>
	</g>
	<g id="Group_33" transform="translate(3.411 60.213)">
		<g id="Path_196">
			<path class="st17" d="M1.3,58.1L1.3,58.1c-0.5,0-0.9-0.2-1.1-0.5c-0.7-0.8,0.9-3.7,0.9-3.7C2.8,51,5,48.5,7.5,46.2
				c0.2,0.6,0.4,1.1,0.6,1.7c-1.4,1.7-2.7,3.5-4.1,5.4c-0.7,0.9-1.3,1.8-1.9,2.7c1.6-0.6,5.3-2.6,11.1-6.8
				c7.4-5.4,14.4-11.5,20.9-18c5.8-5.9,11.2-12.2,16.1-18.8c4.5-6.1,6-9.2,6.3-10.4c-1,0.5-2,1.1-3,1.8c-3.6,2.3-6.9,5-9.9,8
				l-0.9-1.5c3.1-3.4,6.7-6.3,10.6-8.7C56.1,0,57.4-0.2,58,0.3c0.3,0.3,0.5,0.7,0.5,1.1c0.1,2.4-4.3,8.7-7,12.3
				c-4.9,6.6-10.3,12.9-16.1,18.8C22.4,45.7,5.2,58.1,1.3,58.1z"/>
		</g>
	</g>
	<g class="st19">
		<path class="st2" d="M70.8,86.9h4.9c4.8,0,8.8,2,8.8,7.5c0,4.8-3.9,7.4-8.4,7.4h-5.4L70.8,86.9L70.8,86.9z M74.1,98.8h1.7
			c3,0,5.3-1.2,5.3-4.5c0-2.9-2.3-4.3-5.1-4.3h-1.9V98.8z"/>
		<path class="st2" d="M86.7,86.9h5.8c3,0,5.6,1.1,5.6,4.5c0,2.1-1.1,3.7-3.2,4.1l3.8,6.3h-3.9l-3.1-5.9H90v5.9h-3.3V86.9z M90,93.1
			h1.9c1.2,0,2.8,0,2.8-1.7c0-1.5-1.3-1.7-2.5-1.7H90V93.1z"/>
		<path class="st2" d="M105.2,86.9h2.7l6.5,14.9h-3.7l-1.3-3.1h-5.8l-1.2,3.1h-3.6L105.2,86.9z M106.5,91.3l-1.8,4.6h3.6L106.5,91.3
			z"/>
		<path class="st2" d="M129.4,100.8c-1.9,1-4.1,1.4-6.2,1.4c-4.6,0-8-3-8-7.8s3.4-7.8,8-7.8c2.4,0,4.4,0.5,5.9,1.9l-2.3,2.5
			c-0.9-0.9-2-1.4-3.6-1.4c-2.8,0-4.6,2-4.6,4.8s1.8,4.8,4.6,4.8c1.4,0,2.5-0.4,3.1-0.7V96h-2.7v-3h5.8V100.8z"/>
		<path class="st2" d="M139.5,86.6c4.6,0,8,3,8,7.8s-3.4,7.8-8,7.8s-8-3-8-7.8C131.4,89.6,134.8,86.6,139.5,86.6z M139.5,99.2
			c2.8,0,4.6-2,4.6-4.8s-1.8-4.8-4.6-4.8s-4.6,2-4.6,4.8S136.7,99.2,139.5,99.2z"/>
		<path class="st2" d="M149.7,86.9h4.5l6.3,10.3l0,0V86.9h3.3v14.9h-4.3L153,91.2l0,0v10.6h-3.3V86.9z"/>
		<path class="st2" d="M173.2,86.9h10v3h-6.7v3h6.2v3h-6.2v5.8h-3.3V86.9z"/>
		<path class="st2" d="M185.5,86.9h5.8c3,0,5.6,1.1,5.6,4.5c0,2.1-1.1,3.7-3.2,4.1l3.8,6.3h-3.9l-3.1-5.9h-1.6v5.9h-3.3V86.9H185.5z
			 M188.8,93.1h1.9c1.2,0,2.8,0,2.8-1.7c0-1.5-1.3-1.7-2.5-1.7h-2.1L188.8,93.1L188.8,93.1z"/>
		<path class="st2" d="M211.6,96.1c0,3.5-2.1,6.1-6.3,6.1c-4.1,0-6.3-2.6-6.3-6.1V87h3.3v9c0,1.8,1.3,3.2,3,3.2s3-1.4,3-3.2v-9h3.3
			V96.1z"/>
		<path class="st2" d="M214.6,86.9h3.3v14.9h-3.3V86.9z"/>
		<path class="st2" d="M223.8,89.8h-4.2v-2.9h11.8v2.9H227v12h-3.3v-12H223.8z"/>
	</g>
	<g class="st19">
		<path class="st2" d="M70.6,62.6h10v3h-6.7v3H80v3h-6.2v5.8h-3.3L70.6,62.6L70.6,62.6z"/>
		<path class="st2" d="M82.9,62.6h5.8c3,0,5.6,1,5.6,4.5c0,2.1-1.1,3.7-3.2,4.1l3.8,6.3H91l-3.1-5.9h-1.6v5.9H83L82.9,62.6
			L82.9,62.6z M86.2,68.7h1.9c1.2,0,2.8,0,2.8-1.7c0-1.5-1.3-1.7-2.5-1.7h-2.1v3.4C86.3,68.7,86.2,68.7,86.2,68.7z"/>
		<path class="st2" d="M96.6,62.6h10.1v3h-6.8v2.8h6.4v3h-6.4v3h7.2v3H96.6V62.6z"/>
		<path class="st2" d="M117.1,66.2c-0.5-0.7-1.6-1-2.4-1c-0.9,0-2.2,0.4-2.2,1.5c0,2.7,6.8,1,6.8,6.2c0,3.3-2.7,4.9-5.7,4.9
			c-1.9,0-3.6-0.6-5-1.9l2.3-2.6c0.7,0.9,1.8,1.4,2.9,1.4s2.3-0.5,2.3-1.6c0-2.7-7-1.3-7-6.2c0-3.2,2.8-4.8,5.7-4.8
			c1.7,0,3.3,0.4,4.6,1.6L117.1,66.2z"/>
		<path class="st2" d="M121.8,62.6h3.3v5.5h6.4v-5.5h3.3v14.9h-3.3V71h-6.4v6.4h-3.3C121.8,77.4,121.8,62.6,121.8,62.6z"/>
	</g>
	<g>
		<path class="st17" d="M75.2,106v1.1h-1.6v4.6h-1.4v-4.6h-1.6V106H75.2z"/>
		<path class="st17" d="M80.4,107.1v1.2h1.9v1.1h-1.9v1.3h2.2v1.1H79V106h3.6v1.1H80.4z"/>
		<path class="st17" d="M93.2,106v5.8h-1.4v-3.5l-1.3,3.5h-1.2l-1.3-3.5v3.5h-1.4V106h1.7l1.7,4l1.7-4H93.2z"/>
		<path class="st17" d="M101.5,108.7c-0.2,0.3-0.4,0.5-0.7,0.7c-0.3,0.2-0.7,0.3-1.2,0.3h-0.9v2.1h-1.4V106h2.3
			c0.5,0,0.9,0.1,1.2,0.2c0.3,0.2,0.6,0.4,0.7,0.7c0.2,0.3,0.2,0.6,0.2,1C101.7,108.2,101.7,108.5,101.5,108.7z M100.1,108.4
			c0.1-0.1,0.2-0.3,0.2-0.5s-0.1-0.4-0.2-0.5s-0.3-0.2-0.6-0.2h-0.8v1.4h0.8C99.7,108.5,99.9,108.5,100.1,108.4z"/>
		<path class="st17" d="M106.9,107.1v1.2h1.9v1.1h-1.9v1.3h2.2v1.1h-3.6V106h3.6v1.1H106.9z"/>
		<path class="st17" d="M116,111.7l-1.2-2.2h-0.3v2.2H113V106h2.4c0.5,0,0.9,0.1,1.2,0.2c0.3,0.2,0.6,0.4,0.7,0.7
			c0.2,0.3,0.2,0.6,0.2,0.9c0,0.4-0.1,0.7-0.3,1s-0.6,0.5-1,0.6l1.4,2.3H116z M114.5,108.6h0.9c0.3,0,0.5-0.1,0.6-0.2
			s0.2-0.3,0.2-0.5s-0.1-0.4-0.2-0.5s-0.3-0.2-0.6-0.2h-0.9V108.6z"/>
		<path class="st17" d="M125.2,110.7H123l-0.4,1h-1.5l2.2-5.8h1.7l2.2,5.8h-1.5L125.2,110.7z M124.8,109.6l-0.7-2.1l-0.7,2.1H124.8z
			"/>
		<path class="st17" d="M135,106v1.1h-1.6v4.6H132v-4.6h-1.6V106H135z"/>
		<path class="st17" d="M140.1,106v3.4c0,0.3,0.1,0.6,0.3,0.8c0.2,0.2,0.4,0.3,0.8,0.3s0.6-0.1,0.8-0.3c0.2-0.2,0.3-0.5,0.3-0.8V106
			h1.4v3.4c0,0.5-0.1,0.9-0.3,1.3s-0.5,0.6-0.9,0.8c-0.4,0.2-0.8,0.3-1.3,0.3s-0.9-0.1-1.3-0.3s-0.7-0.4-0.9-0.8s-0.3-0.8-0.3-1.3
			V106H140.1z"/>
		<path class="st17" d="M150.6,111.7l-1.2-2.2h-0.3v2.2h-1.4V106h2.4c0.5,0,0.9,0.1,1.2,0.2c0.3,0.2,0.6,0.4,0.7,0.7
			c0.2,0.3,0.2,0.6,0.2,0.9c0,0.4-0.1,0.7-0.3,1s-0.6,0.5-1,0.6l1.4,2.3H150.6z M149.1,108.6h0.9c0.3,0,0.5-0.1,0.6-0.2
			s0.2-0.3,0.2-0.5s-0.1-0.4-0.2-0.5s-0.3-0.2-0.6-0.2h-0.9V108.6z"/>
		<path class="st17" d="M157.5,107.1v1.2h1.9v1.1h-1.9v1.3h2.2v1.1h-3.6V106h3.6v1.1H157.5z"/>
		<path class="st17" d="M169.4,111.6c-0.3-0.1-0.6-0.3-0.8-0.6c-0.2-0.3-0.3-0.6-0.3-1h1.5c0,0.2,0.1,0.4,0.2,0.5
			c0.1,0.1,0.3,0.2,0.5,0.2s0.4,0,0.5-0.1s0.2-0.2,0.2-0.4c0-0.1,0-0.3-0.1-0.4s-0.2-0.2-0.4-0.2c-0.1-0.1-0.3-0.1-0.6-0.2
			c-0.4-0.1-0.7-0.2-0.9-0.3c-0.2-0.1-0.5-0.3-0.6-0.5c-0.2-0.2-0.3-0.5-0.3-0.9c0-0.5,0.2-1,0.6-1.3c0.4-0.3,0.9-0.5,1.6-0.5
			c0.7,0,1.2,0.2,1.6,0.5c0.4,0.3,0.6,0.7,0.6,1.3h-1.6c0-0.2-0.1-0.3-0.2-0.4c-0.1-0.1-0.3-0.2-0.5-0.2s-0.3,0-0.4,0.1
			c-0.1,0.1-0.2,0.2-0.2,0.4c0,0.2,0.1,0.3,0.3,0.4s0.5,0.2,0.8,0.3c0.4,0.1,0.7,0.2,0.9,0.4c0.2,0.1,0.4,0.3,0.6,0.5
			s0.3,0.5,0.3,0.8s-0.1,0.6-0.3,0.9s-0.4,0.5-0.8,0.6c-0.3,0.2-0.7,0.2-1.2,0.2C170.1,111.8,169.7,111.7,169.4,111.6z"/>
		<path class="st17" d="M177.8,111.4c-0.5-0.3-0.8-0.6-1.1-1.1s-0.4-1-0.4-1.5s0.1-1.1,0.4-1.5c0.3-0.4,0.6-0.8,1.1-1
			c0.5-0.3,1-0.4,1.5-0.4c0.6,0,1.1,0.1,1.5,0.4c0.5,0.3,0.8,0.6,1.1,1s0.4,1,0.4,1.5s-0.1,1.1-0.4,1.5c-0.3,0.5-0.6,0.8-1.1,1.1
			c-0.5,0.3-1,0.4-1.5,0.4S178.3,111.7,177.8,111.4z M180.5,110c0.3-0.3,0.4-0.7,0.4-1.2s-0.1-0.9-0.4-1.2s-0.7-0.5-1.1-0.5
			c-0.5,0-0.9,0.2-1.1,0.5s-0.4,0.7-0.4,1.2s0.1,0.9,0.4,1.2s0.7,0.5,1.1,0.5C179.9,110.5,180.2,110.4,180.5,110z"/>
		<path class="st17" d="M187.6,110.6h1.9v1.1h-3.3V106h1.4L187.6,110.6L187.6,110.6z"/>
		<path class="st17" d="M194.6,106v3.4c0,0.3,0.1,0.6,0.3,0.8c0.2,0.2,0.4,0.3,0.8,0.3s0.6-0.1,0.8-0.3c0.2-0.2,0.3-0.5,0.3-0.8V106
			h1.4v3.4c0,0.5-0.1,0.9-0.3,1.3s-0.5,0.6-0.9,0.8c-0.4,0.2-0.8,0.3-1.3,0.3s-0.9-0.1-1.3-0.3s-0.7-0.4-0.9-0.8s-0.3-0.8-0.3-1.3
			V106H194.6z"/>
		<path class="st17" d="M206.4,106v1.1h-1.6v4.6h-1.4v-4.6h-1.6V106H206.4z"/>
		<path class="st17" d="M211.6,106v5.8h-1.4V106H211.6z"/>
		<path class="st17" d="M216.8,111.4c-0.5-0.3-0.8-0.6-1.1-1.1s-0.4-1-0.4-1.5s0.1-1.1,0.4-1.5c0.3-0.4,0.6-0.8,1.1-1
			c0.5-0.3,1-0.4,1.5-0.4c0.6,0,1.1,0.1,1.5,0.4c0.5,0.3,0.8,0.6,1.1,1s0.4,1,0.4,1.5s-0.1,1.1-0.4,1.5c-0.3,0.5-0.6,0.8-1.1,1.1
			c-0.5,0.3-1,0.4-1.5,0.4S217.3,111.7,216.8,111.4z M219.5,110c0.3-0.3,0.4-0.7,0.4-1.2s-0.1-0.9-0.4-1.2s-0.7-0.5-1.1-0.5
			c-0.5,0-0.9,0.2-1.1,0.5s-0.4,0.7-0.4,1.2s0.1,0.9,0.4,1.2s0.7,0.5,1.1,0.5C218.9,110.5,219.2,110.4,219.5,110z"/>
		<path class="st17" d="M230.5,111.7h-1.4l-2.4-3.6v3.6h-1.4V106h1.4l2.4,3.6V106h1.4V111.7z"/>
	</g>
</g>
</svg>
