<svg xmlns="http://www.w3.org/2000/svg" xmlns:xlink="http://www.w3.org/1999/xlink" width="93" height="112" viewBox="0 0 93 112">
  <defs>
    <clipPath id="clip-Web_1920_1">
      <rect width="93" height="112"/>
    </clipPath>
  </defs>
  <g id="Web_1920_1" data-name="Web 1920 – 1" clip-path="url(#clip-Web_1920_1)">
    <rect width="93" height="112" fill="rgba(255,255,255,0)"/>
    <g id="Group_30" transform="translate(19.058 0.1)">
      <g id="Group_29" transform="translate(0 -0.1)">
        <g id="Path_138" transform="translate(2.607)">
          <path id="Caminho_1" data-name="Caminho 1" d="M2.32,52.289a12.362,12.362,0,0,1-.138-5.944A25.949,25.949,0,0,1,7.3,35.563c1.382-1.8,2.9-3.456,4.423-5.253a1.558,1.558,0,0,1,2.212-.276l.138.138c.276-.691.691-1.382.968-2.073C16,26.3,17.11,24.5,18.078,22.57c.138-.276.276-.415.276-.691.415-3.317.691-6.773,1.106-10.091s.829-6.5,1.106-9.814A3.8,3.8,0,0,1,21.672-.1h.553a10.082,10.082,0,0,1,3.594,4.009l2.9,5.391c.138-.138.138-.138.138-.276.829-1.244,1.659-2.626,2.35-3.87a1.831,1.831,0,0,1,2.073-.691A1.857,1.857,0,0,1,34.251,6.4c-.138,2.212-.415,4.285-.415,6.5a34.4,34.4,0,0,0,1.106,9.952c0,.138.138.276.138.415.276-.829.415-1.521.691-2.212a2.479,2.479,0,0,1,.691-.968,1.292,1.292,0,0,1,1.8.138c0,.138.138.138.138.276,2.212,4.562,4.7,8.985,6.5,13.685l.829,2.073v-.415c.138-.276.276-.691.553-.691a.916.916,0,0,1,.968.276,6.138,6.138,0,0,1,1.106,1.521,44.852,44.852,0,0,1,5.529,14.238c.553,3.041.968,6.082,1.382,9.123V61c-.691-.553-.968-.553-1.521.138a15.231,15.231,0,0,1-.276-2.488,5.953,5.953,0,0,0-1.244-3.041c0-.276-.138-.415-.138-.691a32.917,32.917,0,0,1-.691-3.594l-.138-.138h0v-.415c-.691-2.488-1.521-4.976-2.212-7.464-.276-.829-.691-1.8-.968-2.626a9.057,9.057,0,0,0,0,1.935c-.138,2.073-.276,4.285-.415,6.359l-.553,2.212a6.739,6.739,0,0,0-.415.968c0-.691-.138-1.382-.138-1.935-.276-1.935-.691-3.87-1.106-5.667l-.553-2.073a27.278,27.278,0,0,0-.968-3.594,105.006,105.006,0,0,0-4.976-12.993A19.583,19.583,0,0,1,37.845,23.4a1.255,1.255,0,0,0-.415.968c-.276,1.935-.691,3.732-.829,5.667s-.138,3.87-.138,5.806c.138,2.212.415,4.562.691,6.773l-.138,1.382.276.138H36.6c-.138-.138-.415-.276-.415-.553a12.1,12.1,0,0,1-.276-2.212l-.829-6.22c-.138-1.521-.138-3.041-.138-4.562a2.352,2.352,0,0,0-.138-.968,13.951,13.951,0,0,0-.968-2.073v-.276h0c0-.276-.138-.553-.138-.829A40.123,40.123,0,0,1,31.763,15.8,40.725,40.725,0,0,1,31.9,9.991V9.023c-1.106,1.659-2.073,3.317-3.041,5.114a65.039,65.039,0,0,0-4.423,11.2,40.433,40.433,0,0,0-1.521,8.155c-.138.829-.276,1.659-.415,2.35l-.829,3.317a3.022,3.022,0,0,1-.415.691l-.276-.138V38.6c.276-1.659.415-3.317.691-4.976l.829-7.05c.276-1.8.415-3.732.691-5.529.138-.829.138-1.659.276-2.488,0,.138-.138.138-.138.276-2.35,4.838-4.838,9.538-7.188,14.376-.415.829-.691,1.659-1.106,2.626h0l-.138.138c-.553,1.244-1.106,2.35-1.659,3.594h0l-.138.276c-1.106,2.488-2.073,5.114-3.179,7.6v.415a20.415,20.415,0,0,0,.138,2.9,6.157,6.157,0,0,1-.415,3.179l-.138-.138h0a6.411,6.411,0,0,1-.553-2.626c-.138-1.382-.276-2.9-.415-4.285,0-1.382,0-2.765.138-4.147.138-1.659.553-3.456.829-5.114a16.712,16.712,0,0,1,.691-2.488h0a.135.135,0,0,0-.138.138,33.58,33.58,0,0,0-4.147,7.188,16.862,16.862,0,0,0-1.521,7.741c.138,1.106.276,2.35.415,3.456-.553-.138-.829-.553-.691-.968a.714.714,0,0,0-.415-.968.851.851,0,0,0-.968.138Zm21.7-31.1c.968-2.212,1.935-4.562,3.041-6.911a2.5,2.5,0,0,0,.138-2.212,34.98,34.98,0,0,0-2.9-6.082,22.513,22.513,0,0,0-1.521-2.35Q21.741,11.926,20.7,19.8c1.106-1.382,1.935-2.765,2.9-4.009a1.908,1.908,0,0,1,.553-.415c.138.276.276.415.276.691,0,.691-.138,1.521-.138,2.212a22.754,22.754,0,0,1-.276,2.9Z" transform="translate(-1.886 0.1)" fill="#346222"/>
        </g>
        <g id="Path_139" transform="translate(3.041 91.342)">
          <path id="Caminho_2" data-name="Caminho 2" d="M24.731,77.481c-.829-.138-1.521-.276-2.35-.415A34.87,34.87,0,0,1,6.07,70.707a37.665,37.665,0,0,1-3.456-3.179c-.138-.138-.276-.415-.415-.553.138-.415.138-.829.691-.968.415-.138.691.276.968.553A3.592,3.592,0,0,0,6.07,67.8h0l.138.138,2.073,1.244c1.935.968,4.009,1.935,6.082,2.9.691.276,1.521.553,2.212.829a9.693,9.693,0,0,0,3.87,1.659c.276,0,.829.276.829-.415h.691c1.382.138,2.765.415,4.147.415a56.646,56.646,0,0,0,6.773-.276,28.327,28.327,0,0,0,8.155-2.073c1.382-.553,2.626-1.244,4.009-1.8a7.353,7.353,0,0,0,4.7-2.073,1.075,1.075,0,0,1,1.106-.276c.415.138.415.553.415.968-1.244,1.106-2.626,2.212-3.87,3.179A35.708,35.708,0,0,1,33.025,77.2c-.829.138-1.659.276-2.35.415Z" transform="translate(-2.2 -65.98)" fill="#a0124c"/>
        </g>
        <g id="Path_140" transform="translate(47.551 55.844)">
          <path id="Caminho_3" data-name="Caminho 3" d="M39.791,67.808c-.553,1.106-.968,2.35-1.521,3.456a.76.76,0,0,1-.691.415c-.691.138-.968.415-1.244,1.244-.138.138-.415.276-.553.553-.415.553-.968.968-1.382,1.521h0c.138-.276.138-.553.276-.691,1.106-2.488,2.35-5.114,3.456-7.6A41.652,41.652,0,0,0,40.62,53.708a48.836,48.836,0,0,0-.138-6.359l-.829-7.05A5.953,5.953,0,0,1,40.9,43.341a15.231,15.231,0,0,0,.276,2.488c.553-.691.829-.691,1.521-.138a.508.508,0,0,0,.138.415,53.779,53.779,0,0,1-.968,15.62C41.311,63.661,40.482,65.734,39.791,67.808Z" transform="translate(-34.4 -40.3)" fill="#a0124c"/>
        </g>
        <g id="Path_141" transform="translate(0 51.823)">
          <path id="Caminho_4" data-name="Caminho 4" d="M4.423,65.879c-.691-.829-1.382-1.659-2.212-2.488,0-.138-.276-.276-.415-.276A3.51,3.51,0,0,1,0,61.179V60.9a2.205,2.205,0,0,0,.276-2.073c0-2.35-.138-4.7,0-7.05A44.6,44.6,0,0,1,3.041,38.233c0-.138,0-.276.138-.276.138-.138.138-.276.276-.276a.683.683,0,0,1,.968-.138.714.714,0,0,1,.415.968.786.786,0,0,0,.553.968h.276v.691c-.553,1.521-1.106,3.041-1.521,4.562a22.26,22.26,0,0,0-1.382,8.985c0,2.073.276,4.285.415,6.359a12.448,12.448,0,0,0,.415,2.212c.138.276.138.691.276.968A14.682,14.682,0,0,0,4.423,65.879Z" transform="translate(0 -37.391)" fill="#a0124c"/>
        </g>
        <g id="Path_142" transform="translate(2.6 26.155)">
          <path id="Caminho_5" data-name="Caminho 5" d="M2.737,69.384c-.138-.691-.276-1.521-.415-2.212-.138-2.073-.276-4.147-.415-6.359A28.991,28.991,0,0,1,3.013,51.69c.415-1.521,1.106-3.041,1.521-4.562v-.691c0-.276.138-.415.138-.691.276-1.382,1.106-1.659,2.212-.829A6.553,6.553,0,0,1,8.266,46.3a5.851,5.851,0,0,1,.968.691l.138-.138v-.415a6.157,6.157,0,0,0,.415-3.179c0-.968-.138-1.935-.138-2.9v-.415c1.106-2.488,2.073-5.114,3.179-7.6l.138-.276h0c.276-.276.553-.415.829-.691a9.089,9.089,0,0,1,3.179-2.35,1.257,1.257,0,0,1,1.521.138c.829.829,1.521,1.659,2.35,2.35v.968l.276.138c.138-.276.276-.415.415-.691l.829-3.317c0-.138.138-.138.138-.276.968-1.935,1.935-4.009,3.041-5.944a16.037,16.037,0,0,1,2.212-2.9,1.934,1.934,0,0,1,2.626-.276A14.69,14.69,0,0,1,31.9,20.451l2.9,2.9c0,1.521,0,3.041.138,4.562.138,2.073.553,4.147.829,6.22.138.691.138,1.521.276,2.212,0,.138.276.415.415.553l.276-.415.415-.415c.276-.415.553-.968.968-1.521a2.355,2.355,0,0,1,3.317-.968c.138,0,.138.138.276.138a7.188,7.188,0,0,1,2.626,2.765,1.38,1.38,0,0,0,.691.553c.415,1.935.691,3.87,1.106,5.667a8.5,8.5,0,0,1,.138,1.935,6.739,6.739,0,0,1,.415-.968c.276-.276.691-.415.968-.691s.553-.415.829,0a17.51,17.51,0,0,1,1.521,1.8c.691.968,1.106,1.935,1.8,2.9,0,.276.138.415.138.691l.829,7.05c-.138.138-.276.276-.276.415a22.4,22.4,0,0,1-.138,3.041c-.138,1.244-.276,2.35-.415,3.594a25.187,25.187,0,0,1-2.488,7.05A22.148,22.148,0,0,1,44.9,75.051L43.376,76.3a6.754,6.754,0,0,0-1.382,1.244,28.338,28.338,0,0,1-3.87,3.041A11.5,11.5,0,0,1,30.8,82.792c-1.244-.138-2.488-.138-3.732-.276a16.936,16.936,0,0,1-2.626-.276c-1.382-.138-2.9-.276-4.285-.276L18.08,78.23a28.147,28.147,0,0,1-1.244-3.041,1.021,1.021,0,0,0-.829-.691c-.415-.138-.553.276-.691.691-.415,1.659-.829,3.317-1.244,5.114-.138,0-.138,0-.276-.138a19.55,19.55,0,0,1-4.976-3.317,26.348,26.348,0,0,1-5.391-6.359A4.849,4.849,0,0,0,2.737,69.384ZM32.594,43.673l.276.415c.138-.138.138-.415.276-.553,0-.553.138-1.106.138-1.659A35.351,35.351,0,0,0,31.765,29.3c-.691-2.35-1.659-4.562-2.488-6.773a.918.918,0,0,0-.691-.553c-.138,0-.415.276-.553.553a22.909,22.909,0,0,0-2.9,8.985c-.415,3.456-.553,6.773-.829,10.229,0,.691-.138,1.382-.138,2.073,0,.138.138.276.138.415l.276-.276a14.641,14.641,0,0,0,1.659-1.382,4.551,4.551,0,0,1,3.456-1.106A2.462,2.462,0,0,1,31.9,42.844a3.665,3.665,0,0,0,.691.829Z" transform="translate(-1.881 -18.821)" fill="#dd1964"/>
        </g>
        <g id="Path_143" transform="translate(23.499 8.985)">
          <path id="Caminho_6" data-name="Caminho 6" d="M17,30.866a40.433,40.433,0,0,1,1.521-8.155,65.038,65.038,0,0,1,4.423-11.2c.968-1.8,1.935-3.456,3.041-5.114v.968c0,1.935-.138,3.87-.138,5.806a40.123,40.123,0,0,0,1.935,10.644,1.753,1.753,0,0,1,.138.829l-.415-.415a11.236,11.236,0,0,0-2.488-2.626,2.432,2.432,0,0,0-3.456.415,16.906,16.906,0,0,0-2.35,4.009A39.211,39.211,0,0,1,17,30.866Z" transform="translate(-17 -6.4)" fill="#7aa927"/>
        </g>
        <g id="Path_144" transform="translate(36.678 23.084)">
          <path id="Caminho_7" data-name="Caminho 7" d="M27.316,35.814c-.276-2.212-.553-4.562-.691-6.773a27.193,27.193,0,0,1,.138-5.806c.138-1.935.553-3.732.829-5.667a2.064,2.064,0,0,1,.415-.968,19.583,19.583,0,0,1,1.106,2.488,114.161,114.161,0,0,1,4.976,12.993c.415,1.244.691,2.488.968,3.594-.138-.276-.276-.415-.415-.691a9.311,9.311,0,0,0-2.626-3.041,1.911,1.911,0,0,0-2.212-.415A2.829,2.829,0,0,0,28.7,32.635,22.055,22.055,0,0,0,27.316,35.814Z" transform="translate(-26.534 -16.6)" fill="#7aa927"/>
        </g>
        <g id="Path_145" transform="translate(15.482 18.523)">
          <path id="Caminho_8" data-name="Caminho 8" d="M11.2,30.579c.415-.829.691-1.8,1.106-2.626,2.35-4.838,4.838-9.538,7.188-14.376,0-.138.138-.138.138-.276-.138.968-.138,1.8-.276,2.488-.276,1.8-.415,3.732-.691,5.529l-.829,7.05c-.138,1.659-.415,3.317-.691,4.976V33.2a7,7,0,0,0-2.35-4.147,1.344,1.344,0,0,0-1.935-.138A18.767,18.767,0,0,1,11.2,30.579Z" transform="translate(-11.2 -13.3)" fill="#7aa926"/>
        </g>
        <g id="Path_146" transform="translate(21.425 3.594)">
          <path id="Caminho_9" data-name="Caminho 9" d="M18.817,20.193a22.6,22.6,0,0,0,.276-3.041,11.89,11.89,0,0,0,.138-2.212c0-.276-.138-.415-.276-.691-.138.138-.415.276-.553.415a42.335,42.335,0,0,1-2.9,4.009c.691-5.391,1.382-10.644,2.073-16.173.553.829,1.106,1.659,1.521,2.35A49.047,49.047,0,0,1,22,10.932a2.5,2.5,0,0,1-.138,2.212C20.753,15.493,19.785,17.843,18.817,20.193Z" transform="translate(-15.5 -2.5)" fill="#79a926"/>
        </g>
        <g id="Path_147" transform="translate(4.817 35.11)">
          <path id="Caminho_10" data-name="Caminho 10" d="M9.45,25.438a16.713,16.713,0,0,0-.691,2.488c-.276,1.659-.553,3.456-.829,5.114-.138,1.382-.138,2.765-.138,4.147s.276,2.9.415,4.285a13.411,13.411,0,0,1,.138,2.35c-.415-.691-.691-1.521-1.106-2.212a19.779,19.779,0,0,0-1.521-2.073c-.691-.553-1.106-.415-1.659.276-.138.138-.276.415-.553.553a17.435,17.435,0,0,1,1.521-7.879A37.313,37.313,0,0,1,9.173,25.3c.138.276.276.138.276.138Z" transform="translate(-3.485 -25.3)" fill="#7aa926"/>
        </g>
        <g id="Path_148" transform="translate(23.084 23.795)">
          <path id="Caminho_11" data-name="Caminho 11" d="M17.115,26.771a48.287,48.287,0,0,0,2.073-4.7,12.782,12.782,0,0,1,2.35-4.009,2.446,2.446,0,0,1,3.456-.415,7.552,7.552,0,0,1,2.488,2.626l.415.415h0l.138.138c.276.691.691,1.382.968,2.073a2.352,2.352,0,0,1,.138.968l-2.9-2.9a14.69,14.69,0,0,0-1.521-1.244A2.092,2.092,0,0,0,22.091,20c-.829.968-1.521,1.935-2.212,2.9-1.106,1.935-2.073,4.009-3.041,5.944,0,.138-.138.138-.138.276C16.838,28.429,16.976,27.6,17.115,26.771Z" transform="translate(-16.7 -17.114)" fill="#d97e3b"/>
        </g>
        <g id="Path_149" transform="translate(37.322 37.736)">
          <path id="Caminho_12" data-name="Caminho 12" d="M27.138,31.623a22.055,22.055,0,0,1,1.382-3.179,4.207,4.207,0,0,1,1.106-1.106,2.109,2.109,0,0,1,2.212.415,9.311,9.311,0,0,1,2.626,3.041c.138.276.276.415.415.691l.553,2.073c-.276-.138-.415-.415-.691-.553a8.377,8.377,0,0,0-2.626-2.765,2.619,2.619,0,0,0-3.456.691c0,.138-.138.138-.138.276-.276.415-.553.968-.968,1.521l-.415.415h0L27,33.006A5.185,5.185,0,0,1,27.138,31.623Z" transform="translate(-27 -27.2)" fill="#d97e3b"/>
        </g>
        <g id="Path_150" transform="translate(13.546 34.123)">
          <path id="Caminho_13" data-name="Caminho 13" d="M11.735,26.264c.553-.415,1.106-.968,1.659-1.382a1.469,1.469,0,0,1,1.935.138,7,7,0,0,1,2.35,4.147v.276c-.829-.829-1.659-1.521-2.35-2.35a1.083,1.083,0,0,0-1.521-.138,9.089,9.089,0,0,0-3.179,2.35A3.665,3.665,0,0,1,9.8,30c.553-1.244,1.106-2.35,1.659-3.594l.276-.138Z" transform="translate(-9.8 -24.586)" fill="#d97e3b"/>
        </g>
        <g id="Path_151" transform="translate(48.104 40.501)">
          <path id="Caminho_14" data-name="Caminho 14" d="M34.8,37.494c.138-2.073.276-4.285.415-6.359a9.031,9.031,0,0,1,0-1.935c.276.829.691,1.659.968,2.626.829,2.488,1.521,4.976,2.212,7.464v.415c-.415-.691-.829-1.382-1.244-1.935C36.321,36.8,35.768,36.664,34.8,37.494Z" transform="translate(-34.8 -29.2)" fill="#79a826"/>
        </g>
        <g id="Path_152" transform="translate(5.114 49.145)">
          <path id="Caminho_15" data-name="Caminho 15" d="M3.7,36.624c.138-.138.276-.415.415-.553.553-.691.968-.829,1.659-.276a8.053,8.053,0,0,1,1.521,2.073A11.021,11.021,0,0,1,8.4,40.079h0l.138.276v.276l-.138.138c-.138-.415-.415-.553-.553-.829a13.032,13.032,0,0,0-1.382-1.382c-1.106-.968-1.935-.691-2.212.829,0,.276-.138.415-.138.691H3.976A29.1,29.1,0,0,1,3.7,36.624Z" transform="translate(-3.7 -35.453)" fill="#d87e3b"/>
        </g>
        <g id="Path_153" transform="translate(47.412 48.319)">
          <path id="Caminho_16" data-name="Caminho 16" d="M34.991,35.332c.968-.691,1.521-.691,2.35.415.415.553.829,1.244,1.244,1.935h0l.138.138a32.916,32.916,0,0,1,.691,3.594,33.071,33.071,0,0,0-1.8-2.9,9.517,9.517,0,0,0-1.521-1.8c-.276-.415-.553-.276-.829,0a2.479,2.479,0,0,1-.968.691Z" transform="translate(-34.3 -34.856)" fill="#d77c3b"/>
        </g>
        <g id="Path_154" transform="translate(37.322 43.542)">
          <path id="Caminho_17" data-name="Caminho 17" d="M27,31.4l.276.138Z" transform="translate(-27 -31.4)" fill="#e0353c"/>
        </g>
        <g id="Path_155" transform="translate(9.814 53.633)">
          <path id="Caminho_18" data-name="Caminho 18" d="M7.238,38.976,7.1,38.7l.138.138Z" transform="translate(-7.1 -38.7)" fill="#7aa926"/>
        </g>
        <g id="Path_156" transform="translate(13.546 39.395)">
          <path id="Caminho_19" data-name="Caminho 19" d="M9.938,28.4l-.138.276Z" transform="translate(-9.8 -28.4)" fill="#d97e3b"/>
        </g>
        <g id="Path_157" transform="translate(34.557 27.508)">
          <path id="Caminho_20" data-name="Caminho 20" d="M25,19.8Z" transform="translate(-25 -19.8)" fill="#7aa927"/>
        </g>
        <g id="Path_158" transform="translate(51.836 51.283)">
          <path id="Caminho_21" data-name="Caminho 21" d="M37.5,37Z" transform="translate(-37.5 -37)" fill="#79a826"/>
        </g>
        <g id="Path_159" transform="translate(15.343 35.801)">
          <path id="Caminho_22" data-name="Caminho 22" d="M11.238,25.8l-.138.138Z" transform="translate(-11.1 -25.8)" fill="#7aa926"/>
        </g>
        <g id="Path_160" transform="translate(10.782 35.248)">
          <path id="Caminho_23" data-name="Caminho 23" d="M7.8,25.4Z" transform="translate(-7.8 -25.4)" fill="#7aa926"/>
        </g>
        <g id="Path_161" transform="translate(20.873 62.894)">
          <path id="Caminho_24" data-name="Caminho 24" d="M15.1,71.8c1.382.138,2.9.276,4.285.276.829.138,1.8.138,2.626.276,1.244.138,2.488.138,3.594.276a11.5,11.5,0,0,0,7.326-2.212c1.382-.968,2.488-2.073,3.87-3.041a4.989,4.989,0,0,1,.691-.553A4.41,4.41,0,0,1,38.461,66a15.938,15.938,0,0,1,1.521-1.244A27.01,27.01,0,0,0,44.4,59.5a21.477,21.477,0,0,0,2.488-7.05,15.067,15.067,0,0,0,.415-3.594,22.4,22.4,0,0,0,.138-3.041c0-.138.276-.276.276-.415,0,2.073.138,4.285.138,6.359a35.018,35.018,0,0,1-2.488,12.993c-1.106,2.626-2.212,5.114-3.456,7.6-.138.276-.138.415-.276.691h0a13.765,13.765,0,0,1,1.382-1.521c.138-.138.415-.276.553-.553l2.765-1.521a12.241,12.241,0,0,1-2.212,4.7,19.779,19.779,0,0,0-1.521,2.073h0v.138h0l-.138.138a23.451,23.451,0,0,0-1.935,1.382,1.908,1.908,0,0,1-.553.415c-1.382.553-2.626,1.244-4.009,1.8a27.233,27.233,0,0,1-8.155,2.073c-2.212.138-4.423.276-6.773.276-1.382,0-2.765-.276-4.147-.415h-.691l-.138-.138a.831.831,0,0,0-.138-.553,1.336,1.336,0,0,1,.691-1.659H16.9a15.024,15.024,0,0,1,2.488-.138,24.677,24.677,0,0,1,3.179.276v-.138l-1.8-.968.553-.138-.415-.415c-1.382-1.244-2.765-2.35-4.147-3.732A27.533,27.533,0,0,0,15.1,71.8Z" transform="translate(-15.1 -45.4)" fill="#b21454"/>
        </g>
        <g id="Path_162" transform="translate(3.456 76.717)">
          <path id="Caminho_25" data-name="Caminho 25" d="M2.5,55.4a4.2,4.2,0,0,1,.691.968,29.869,29.869,0,0,0,5.391,6.359,31.168,31.168,0,0,0,4.976,3.317c.138,0,.138.138.276.138,0,1.106-.138,2.212-.138,3.456a11.878,11.878,0,0,0,2.626,7.326,10.477,10.477,0,0,1-2.212-.829c-1.935-.968-4.009-1.935-5.944-3.041L6.094,71.849H5.956v-.138l-.138-.276h0c-.276-.691-.415-1.382-.691-1.935a1.372,1.372,0,0,1,.691-1.8.831.831,0,0,1,.553-.138H9c.138-.138.138-.276.276-.276l.415.276.138-.138a1.056,1.056,0,0,0-.276-.691C7.891,64.523,5.956,62.311,4.021,60.1c-.138-.276-.415-.553-.553-.829,0-.138-.138-.138-.138-.276h0c-.276-.829-.415-1.8-.691-2.626A2.7,2.7,0,0,0,2.5,55.4Z" transform="translate(-2.5 -55.4)" fill="#b21454"/>
        </g>
        <g id="Path_163" transform="translate(14.79 81.528)">
          <path id="Caminho_26" data-name="Caminho 26" d="M13.326,75.495A11.878,11.878,0,0,1,10.7,68.169a30.065,30.065,0,0,1,.138-3.456c.415-1.659.829-3.317,1.244-5.114.138-.415.276-.829.691-.691a1.416,1.416,0,0,1,.829.691,28.148,28.148,0,0,0,1.244,3.041c.553,1.244,1.382,2.488,2.073,3.732a17.11,17.11,0,0,0,1.935,2.488C20.1,70.1,21.62,71.348,23,72.592l.415.415-.553.138L20.1,71.9l-.138-.138h0c0-.138-.138-.138-.276-.138a15.06,15.06,0,0,1-5.253-6.5c-.553-1.106-.968-2.212-1.521-3.456a38.086,38.086,0,0,0-.968,6.773,8.379,8.379,0,0,0,1.521,4.838,4.321,4.321,0,0,0,1.521,1.244c.829.829,1.659,1.8,3.041,1.659l.138.138c-.138.691-.553.415-.829.415A5.8,5.8,0,0,1,13.326,75.495Z" transform="translate(-10.7 -58.88)" fill="#356121"/>
        </g>
        <g id="Path_164" transform="translate(6.911 93.166)">
          <path id="Caminho_27" data-name="Caminho 27" d="M5,67.3Z" transform="translate(-5 -67.3)" fill="#346222"/>
        </g>
        <g id="Path_165" transform="translate(0.035 76.717)">
          <path id="Caminho_28" data-name="Caminho 28" d="M10.358,67.288c-.138.138-.138.276-.276.276-1.244-.553-2.488-.968-3.732-1.521a1.94,1.94,0,0,0-2.488,1.106c0,.138-.138.276-.138.415-.691-1.106-1.244-2.212-1.8-3.317a30.011,30.011,0,0,1-1.8-7.741,1.514,1.514,0,0,1,0-1.106c.691.968,1.521,1.935,2.212,2.9a41.609,41.609,0,0,0,5.529,6.5Z" transform="translate(-0.025 -55.4)" fill="#7aa927"/>
        </g>
        <g id="Path_166" transform="translate(3.732 87.205)">
          <path id="Caminho_29" data-name="Caminho 29" d="M2.7,64.664A1.986,1.986,0,0,1,4.912,63a.508.508,0,0,1,.415.138c1.244.415,2.488.968,3.732,1.521H6.432A1.364,1.364,0,0,0,5.05,65.908a.831.831,0,0,0,.138.553c.276.691.415,1.382.691,1.935Z" transform="translate(-2.7 -62.987)" fill="#d87e3b"/>
        </g>
        <g id="Path_167" transform="translate(4.423 80.311)">
          <path id="Caminho_30" data-name="Caminho 30" d="M3.2,58l.138.276A.483.483,0,0,1,3.2,58Z" transform="translate(-3.2 -58)" fill="#76181e"/>
        </g>
        <g id="Path_168" transform="translate(6.773 92.751)">
          <path id="Caminho_31" data-name="Caminho 31" d="M4.9,67l.138.276C5.038,67.138,5.038,67.138,4.9,67Z" transform="translate(-4.9 -67)" fill="#d87e3b"/>
        </g>
        <g id="Path_169" transform="translate(48.38 93.857)">
          <path id="Caminho_32" data-name="Caminho 32" d="M35,67.8Z" transform="translate(-35 -67.8)" fill="#5d8c1f"/>
        </g>
        <g id="Path_170" transform="translate(48.242 93.996)">
          <path id="Caminho_33" data-name="Caminho 33" d="M34.9,67.9Z" transform="translate(-34.9 -67.9)" fill="#5d8c1f"/>
        </g>
        <g id="Path_171" transform="translate(24.743 29.166)">
          <path id="Caminho_34" data-name="Caminho 34" d="M18.315,42.978l-.276.276c0-.138-.138-.276-.138-.415a10.462,10.462,0,0,1,.138-2.073c.276-3.456.415-6.773.829-10.229a25.411,25.411,0,0,1,2.9-8.985c.138-.276.415-.553.553-.553a1.38,1.38,0,0,1,.691.553c.829,2.212,1.8,4.423,2.488,6.773A34.976,34.976,0,0,1,27.023,40.9c0,.553-.138,1.106-.138,1.659a1.048,1.048,0,0,1-.276.553l-.276-.415v-.276a43.4,43.4,0,0,0-.691-8.432,53.721,53.721,0,0,0-3.456-11.335c-.138.276-.276.415-.276.553a28.628,28.628,0,0,0-2.488,9.538c-.276,1.521-.415,3.041-.553,4.562s-.276,2.9-.553,4.423A3.528,3.528,0,0,1,18.315,42.978Z" transform="translate(-17.9 -21)" fill="#366121"/>
        </g>
        <g id="Path_172" transform="translate(25.296 45.867)">
          <path id="Caminho_35" data-name="Caminho 35" d="M26.317,37.945v.276a3.665,3.665,0,0,1-.691-.829,2.628,2.628,0,0,0-2.212-1.382,3.592,3.592,0,0,0-3.456,1.106c-.553.415-1.106.968-1.659,1.382,0-.276.138-.553.138-.829.138-.276.276-.415.276-.691.553-.968.968-1.935,1.521-2.9a2.174,2.174,0,0,1,2.626-.829,3.578,3.578,0,0,1,2.073,1.935C25.35,36.01,25.764,36.977,26.317,37.945Z" transform="translate(-18.3 -33.082)" fill="#d97e3b"/>
        </g>
        <g id="Path_173" transform="translate(24.19 67.732)">
          <path id="Caminho_36" data-name="Caminho 36" d="M17.5,48.9l.138.138Z" transform="translate(-17.5 -48.9)" fill="#7aa927"/>
        </g>
        <g id="Path_174" transform="translate(17.745 93.857)">
          <path id="Caminho_37" data-name="Caminho 37" d="M17.071,73.191c-1.382.138-2.212-.968-3.041-1.659-.138-.276-.138-.415-.276-.691l-.829-1.659a.952.952,0,0,1,.829-1.382,9.126,9.126,0,0,1,1.935.138c1.106.138,2.212.553,3.317.691h0l.138.138,2.765,1.244,1.8.968v.138a24.677,24.677,0,0,0-3.179-.276,15.025,15.025,0,0,0-2.488.138A1.37,1.37,0,0,0,16.933,72.5v.276C17.071,72.776,17.071,73.053,17.071,73.191Z" transform="translate(-12.837 -67.8)" fill="#d97e3b"/>
        </g>
        <g id="Path_175" transform="translate(47.689 90.54)">
          <path id="Caminho_38" data-name="Caminho 38" d="M34.5,65.4Z" transform="translate(-34.5 -65.4)" fill="#76171e"/>
        </g>
        <g id="Path_176" transform="translate(15.896 84.734)">
          <path id="Caminho_39" data-name="Caminho 39" d="M19.517,71.152a28.311,28.311,0,0,0-3.317-.691,9.126,9.126,0,0,0-1.935-.138c-.829,0-1.106.553-.829,1.382l.829,1.659c.138.138.138.415.276.691a14.69,14.69,0,0,1-1.521-1.244A8.71,8.71,0,0,1,11.5,67.973a22.3,22.3,0,0,1,.968-6.773c.553,1.244,1.106,2.35,1.521,3.456a15.06,15.06,0,0,0,5.253,6.5A.191.191,0,0,1,19.517,71.152Z" transform="translate(-11.5 -61.2)" fill="#7aa926"/>
        </g>
        <g id="Path_177" transform="translate(23.914 94.687)">
          <path id="Caminho_40" data-name="Caminho 40" d="M17.438,68.538,17.3,68.4Z" transform="translate(-17.3 -68.4)" fill="#7aa926"/>
        </g>
        <g id="XMLID_8_" transform="translate(25.405 31.077)">
          <g id="Group_25" transform="translate(0)">
            <g id="Path_178">
              <path id="Caminho_41" data-name="Caminho 41" d="M7.288,11.335a42.528,42.528,0,0,1,.691,8.432c-.415-.968-.968-1.935-1.382-2.9a4.03,4.03,0,0,0-2.073-1.935,2.023,2.023,0,0,0-2.626.829A17.708,17.708,0,0,0,.376,18.523C.238,18.8.1,18.937.1,19.214c.138-1.521.276-2.9.553-4.423.138-1.521.276-3.041.553-4.562A26.177,26.177,0,0,1,3.556.553C3.694.415,3.694.276,3.832,0A46.708,46.708,0,0,1,7.288,11.335Z" transform="translate(-0.1)" fill="#7aa927"/>
            </g>
          </g>
        </g>
        <g id="Path_179" transform="translate(9.123 52.25)">
          <path id="Caminho_42" data-name="Caminho 42" d="M7.015,59.678l-.276.276c0-.138-.138-.276-.138-.415a10.462,10.462,0,0,1,.138-2.073c.276-3.456.415-6.773.829-10.229a25.411,25.411,0,0,1,2.9-8.985c.138-.276.415-.553.553-.553a1.38,1.38,0,0,1,.691.553c.829,2.212,1.8,4.423,2.488,6.773A34.976,34.976,0,0,1,15.723,57.6c0,.553-.138,1.106-.138,1.659a1.048,1.048,0,0,1-.276.553l-.276-.415v-.276a43.4,43.4,0,0,0-.691-8.432,53.721,53.721,0,0,0-3.456-11.335c-.138.276-.276.415-.276.553a28.628,28.628,0,0,0-2.488,9.538c-.276,1.521-.415,3.041-.553,4.562-.138,1.8-.276,3.317-.415,4.838Z" transform="translate(-6.6 -37.7)" fill="#366121"/>
        </g>
        <g id="Path_180" transform="translate(9.615 68.813)">
          <path id="Caminho_43" data-name="Caminho 43" d="M15.034,54.683v.276a3.665,3.665,0,0,1-.691-.829,2.628,2.628,0,0,0-2.212-1.382,3.592,3.592,0,0,0-3.456,1.106c-.553.415-1.106.968-1.659,1.382a2.258,2.258,0,0,1,0-.968c.138-.276.276-.415.276-.691.553-.968.968-1.935,1.521-2.9a2.174,2.174,0,0,1,2.626-.829,3.578,3.578,0,0,1,2.073,1.935A29.249,29.249,0,0,1,15.034,54.683Z" transform="translate(-6.956 -49.682)" fill="#d97e3b"/>
        </g>
        <g id="XMLID_7_" transform="translate(9.799 54.132)">
          <g id="Group_26" transform="translate(0)">
            <g id="Path_181">
              <path id="Caminho_44" data-name="Caminho 44" d="M7.288,11.335a42.528,42.528,0,0,1,.691,8.432c-.415-.968-.968-1.935-1.382-2.9a4.03,4.03,0,0,0-2.073-1.935,2.023,2.023,0,0,0-2.626.829A17.708,17.708,0,0,0,.376,18.523C.238,18.8.1,18.937.1,19.214c.138-1.521.276-2.9.553-4.423.138-1.521.276-3.041.553-4.562A26.177,26.177,0,0,1,3.556.553C3.694.415,3.694.276,3.832,0A53.721,53.721,0,0,1,7.288,11.335Z" transform="translate(-0.1)" fill="#7aa927"/>
            </g>
          </g>
        </g>
        <g id="Path_182" transform="translate(25.158 62.618)">
          <path id="Caminho_45" data-name="Caminho 45" d="M18.615,67.178l-.276.276c0-.138-.138-.276-.138-.415a10.462,10.462,0,0,1,.138-2.073c.276-3.456.415-6.773.829-10.229a25.411,25.411,0,0,1,2.9-8.985c.138-.276.415-.553.553-.553a1.38,1.38,0,0,1,.691.553c.829,2.212,1.8,4.423,2.488,6.773A34.976,34.976,0,0,1,27.323,65.1c0,.553-.138,1.106-.138,1.659a1.048,1.048,0,0,1-.276.553l-.138-.276v-.276a43.4,43.4,0,0,0-.691-8.432A53.721,53.721,0,0,0,22.623,47c-.138.276-.276.415-.276.553a28.628,28.628,0,0,0-2.488,9.538c-.276,1.521-.415,3.041-.553,4.562s-.276,2.9-.553,4.423A3.89,3.89,0,0,0,18.615,67.178Z" transform="translate(-18.2 -45.2)" fill="#366121"/>
        </g>
        <g id="Path_183" transform="translate(25.711 79.457)">
          <path id="Caminho_46" data-name="Caminho 46" d="M26.617,62.245v.276a3.665,3.665,0,0,1-.691-.829,2.628,2.628,0,0,0-2.212-1.382,3.592,3.592,0,0,0-3.456,1.106c-.553.415-1.106.968-1.659,1.382,0-.276.138-.553.138-.829.138-.276.276-.415.276-.691.553-.968.968-1.935,1.521-2.9a2.174,2.174,0,0,1,2.626-.829,3.578,3.578,0,0,1,2.073,1.935C25.65,60.171,26.064,61.277,26.617,62.245Z" transform="translate(-18.6 -57.382)" fill="#d97e3b"/>
        </g>
        <g id="XMLID_6_" transform="translate(25.803 64.558)">
          <g id="Group_27" transform="translate(0)">
            <g id="Path_184">
              <path id="Caminho_47" data-name="Caminho 47" d="M7.288,11.335a42.528,42.528,0,0,1,.691,8.432c-.415-.968-.968-1.935-1.382-2.9a4.03,4.03,0,0,0-2.073-1.935,2.023,2.023,0,0,0-2.626.829A17.708,17.708,0,0,0,.376,18.523C.238,18.8.1,18.937.1,19.214c.138-1.521.276-2.9.553-4.423.138-1.521.276-3.041.553-4.562A26.177,26.177,0,0,1,3.556.553C3.694.415,3.694.276,3.832,0A46.708,46.708,0,0,1,7.288,11.335Z" transform="translate(-0.1)" fill="#7aa927"/>
            </g>
          </g>
        </g>
        <g id="Path_185" transform="translate(37.045 50.453)">
          <path id="Caminho_48" data-name="Caminho 48" d="M27.215,58.378l-.276.276c0-.138-.138-.276-.138-.415a10.462,10.462,0,0,1,.138-2.073c.276-3.456.415-6.773.829-10.229a25.411,25.411,0,0,1,2.9-8.985c.138-.276.415-.553.553-.553a1.38,1.38,0,0,1,.691.553c.829,2.212,1.8,4.423,2.488,6.773A34.976,34.976,0,0,1,35.923,56.3a6.73,6.73,0,0,1-.138,1.659,1.048,1.048,0,0,1-.276.553l-.138-.276v-.276a43.4,43.4,0,0,0-.691-8.432A53.721,53.721,0,0,0,31.223,38.2c-.138.276-.276.415-.276.553a28.628,28.628,0,0,0-2.488,9.538c-.276,1.521-.415,3.041-.553,4.562s-.276,2.9-.553,4.423A3.89,3.89,0,0,0,27.215,58.378Z" transform="translate(-26.8 -36.4)" fill="#366121"/>
        </g>
        <g id="Path_186" transform="translate(37.598 67.155)">
          <path id="Caminho_49" data-name="Caminho 49" d="M35.217,53.345v.276a3.665,3.665,0,0,1-.691-.829,2.628,2.628,0,0,0-2.212-1.382,3.592,3.592,0,0,0-3.456,1.106c-.553.415-1.106.968-1.659,1.382,0-.276.138-.553.138-.829.138-.276.276-.415.276-.691.553-.968.968-1.935,1.521-2.9a2.174,2.174,0,0,1,2.626-.829,3.578,3.578,0,0,1,2.073,1.935C34.25,51.41,34.664,52.377,35.217,53.345Z" transform="translate(-27.2 -48.482)" fill="#d97e3b"/>
        </g>
        <g id="XMLID_5_" transform="translate(37.677 52.328)">
          <g id="Group_28" transform="translate(0)">
            <g id="Path_187">
              <path id="Caminho_50" data-name="Caminho 50" d="M7.288,11.335a42.528,42.528,0,0,1,.691,8.432c-.415-.968-.968-1.935-1.382-2.9a4.03,4.03,0,0,0-2.073-1.935,2.023,2.023,0,0,0-2.626.829A17.708,17.708,0,0,0,.376,18.523C.238,18.8.1,18.937.1,19.214c.138-1.521.276-2.9.553-4.423.138-1.521.415-3.041.553-4.562A26.177,26.177,0,0,1,3.556.553C3.694.415,3.694.276,3.832,0A46.708,46.708,0,0,1,7.288,11.335Z" transform="translate(-0.1)" fill="#7aa927"/>
            </g>
          </g>
        </g>
      </g>
      <g id="Path_188" transform="translate(42.16 64.453)">
        <path id="Caminho_51" data-name="Caminho 51" d="M30.5,46.6" transform="translate(-30.5 -46.6)" fill="#e0353c"/>
      </g>
    </g>
    <g id="Group_31" transform="translate(12.527 18.942)">
      <g id="Path_189" transform="translate(-0.003 -0.004)">
        <path id="Caminho_52" data-name="Caminho 52" d="M55.785,88.277c-3.106.136-6.471-5.585-6.471-5.585C44.654,76.97,37.535,66.208,27.44,50,19.674,37.6,12.426,25.885,7.249,17.03Q3.172,9.878,1.424,6C-.129,2.59-.388.955.518.274,1.3-.407,2.589.138,5.049,2.181,8.025,4.633,9.967,6.54,16.438,13.624l.259.272a6.733,6.733,0,0,1-.906,1.09,51.572,51.572,0,0,0-11-11.171A27.26,27.26,0,0,0,1.3,1.364c0,.272,0,1.362,1.683,4.768C4.272,8.72,6.213,12.4,8.931,17.03,13.979,25.749,21.1,37.192,28.6,49.18,38.7,65.391,45.819,76.017,50.349,81.738c3.883,4.9,5.177,5.313,5.695,5.04s1.941-1.907-.388-13.487l1.294-.272a75.9,75.9,0,0,1,1.294,9.263c.129,4.768-1.294,5.585-1.683,5.722A1.778,1.778,0,0,1,55.785,88.277Z" transform="translate(0.003 0.004)" fill="#0b0a18"/>
      </g>
    </g>
    <g id="Path_190" transform="translate(8.005 -44.099)">
      <path id="Caminho_53" data-name="Caminho 53" d="M53.2,104.1a7.366,7.366,0,0,1-.4,1.4,13.908,13.908,0,0,1-4.1,6.9c0-.3,0-.6-.3-.7a.778.778,0,0,0-.8.2,5.556,5.556,0,0,1-3.4,1.5,1.381,1.381,0,0,1,.4-.3c.5-.3,1-.7,1.5-1l.1-.1h0l.1-.1h0l1.8-1.5a18.311,18.311,0,0,0,2.6-3.6c.3-.5.5-1,.8-1.6l-.2-.1L49,107l-2,1.1a.9.9,0,0,1,.9-.9.85.85,0,0,0,.5-.3,18.887,18.887,0,0,0,1.1-2.5,2.651,2.651,0,0,0,.6-.5,8.718,8.718,0,0,0,1.8-3.1.666.666,0,0,1,.7-.5c.4,0,.5.3.5.6a8.752,8.752,0,0,0,.2,1.6.367.367,0,0,0,.1.3Z" fill="#346222"/>
    </g>
    <g id="Path_191" transform="translate(8.005 -44.099)">
      <path id="Caminho_54" data-name="Caminho 54" d="M46.2,111.9a14.309,14.309,0,0,0,1.1-1.5,8.221,8.221,0,0,0,1.6-3.4l2.3-1.9.2.1c-.3.5-.5,1-.8,1.6a18.311,18.311,0,0,1-2.6,3.6Z" fill="#5d8c1f"/>
    </g>
    <g id="Path_192" transform="translate(8.005 -44.099)">
      <path id="Caminho_55" data-name="Caminho 55" d="M14.5,110.6c-.1-.1-.2-.3-.4-.4h-.3a.367.367,0,0,0-.3.1.55.55,0,0,0-.3.5,15.853,15.853,0,0,1-3.6-9c0-.1-.1-.2-.1-.3V98c.1-.2.1-.3.2-.5.4-.8.7-.9,1.5-.5a1.632,1.632,0,0,1-.2,1.5c0,.1-.1.2,0,.2a2.539,2.539,0,0,0,1.3,1.4c.1.1.2.1.3.3.5.6,1,1.2,1.6,1.8h0c0,.1.1.1.1.2a2.092,2.092,0,0,0,.4.6c1.4,1.6,2.7,3.2,4.1,4.8a1.381,1.381,0,0,1-.4.3c-.6-.5-1.1-1.1-1.7-1.6a30.1,30.1,0,0,1-4-4.7c-.5-.7-1-1.4-1.6-2.1v.8a26.8,26.8,0,0,0,1.3,5.6c.4.8.8,1.6,1.3,2.4l1.4,1.8a.1.1,0,0,0,.1.1h0l-.1.1-.1.1c-.1.1-.2.1-.3.2h-.1A.349.349,0,0,1,14.5,110.6Z" fill="#346222"/>
    </g>
    <g id="Ellipse_3" transform="translate(21.779 -28.813)">
      <circle id="Elipse_1" data-name="Elipse 1" cx="3.6" cy="3.6" r="3.6" transform="translate(41.8 81.3)" fill="#0b0a18"/>
      <g id="Path_193" transform="translate(36.359 -11)">
        <path id="Caminho_56" data-name="Caminho 56" d="M9,93.3c-.1.2-.3.2-.5.3-.6.4-.6,1.4-.8,1.4A1.747,1.747,0,0,1,8,93.3a.942.942,0,0,1,.9-.4C9,93,9.1,93.2,9,93.3Z" fill="#ffeddf"/>
      </g>
    </g>
    <g id="Ellipse_4" transform="translate(25.005 -8.099)">
      <circle id="Elipse_2" data-name="Elipse 2" cx="3.6" cy="3.6" r="3.6" transform="translate(-4.4 80.9)" fill="#0b0a18"/>
    </g>
    <g id="Path_193-2" data-name="Path_193" transform="translate(14.555 -19.073)">
      <path id="Caminho_56-2" data-name="Caminho 56" d="M9,93.3c-.1.2-.3.2-.5.3-.6.4-.6,1.4-.8,1.4A1.747,1.747,0,0,1,8,93.3a.942.942,0,0,1,.9-.4C9,93,9.1,93.2,9,93.3Z" fill="#ffeddf"/>
    </g>
    <g id="Path_194" transform="translate(8.005 -44.099)">
      <path id="Caminho_57" data-name="Caminho 57" d="M47.2,85.9c-.2.1-.2.3-.2.5-.2.7-1.2.9-1.2,1a1.845,1.845,0,0,0,1.6-.5c.2-.3.4-.8.3-.9C47.5,85.8,47.4,85.8,47.2,85.9Z" fill="#0b0a18"/>
    </g>
    <g id="Group_32" transform="translate(8.005 43.198)">
      <g id="Path_195" transform="translate(-5.072 21)">
        <path id="Caminho_58" data-name="Caminho 58" d="M42.46,14.506c-9,0-18.558-.444-26.009-1.184A94.147,94.147,0,0,1,5.2,11.4C1.689,10.509.143,9.325,0,7.993-.139,6.217,1.83,3.849,16.592,0c-.141.592-.141,1.036-.281,1.628C3.095,4.885,1.408,6.809,1.408,7.845c.141,2.072,7.873,3.108,15.184,4a265.5,265.5,0,0,0,28.68,1.184c9.138-.148,18.277-.592,27.415-1.628C86.465,9.621,86.746,7.7,86.746,7.7c0-.444-.562-.888-2.39-1.628a47.107,47.107,0,0,0-11.81-3.4c0-.592-.141-1.184-.141-1.628C85.481,4.145,88.293,6.365,88.152,7.845c0,1.332-2.531,2.664-4.78,3.256a87.742,87.742,0,0,1-10.544,1.924A257.6,257.6,0,0,1,45.272,14.8,9.105,9.105,0,0,0,42.46,14.506Z" transform="translate(0)" fill="#0b0a18"/>
      </g>
    </g>
    <g id="Group_33" transform="translate(14.065 23.019)">
      <g id="Path_196" transform="translate(0.023 0.058)">
        <path id="Caminho_59" data-name="Caminho 59" d="M1.636,81.747h0a1.572,1.572,0,0,1-1.39-.7c-.884-1.126,1.137-5.207,1.137-5.207A46.586,46.586,0,0,1,9.469,65c.253.844.505,1.548.758,2.393-1.769,2.393-3.411,4.926-5.18,7.6-.884,1.267-1.642,2.533-2.4,3.8,2.021-.844,6.7-3.659,14.023-9.57a234.72,234.72,0,0,0,26.4-25.333A247.483,247.483,0,0,0,63.413,17.428C69.1,8.843,70.993,4.48,71.372,2.791a29.626,29.626,0,0,0-3.79,2.533A76.4,76.4,0,0,0,55.075,16.584l-1.137-2.111A64.1,64.1,0,0,1,67.329,2.228C70.866-.023,72.509-.3,73.267.4A2.382,2.382,0,0,1,73.9,1.947c.126,3.378-5.432,12.244-8.843,17.311A247.483,247.483,0,0,1,44.716,45.717C28.292,64.3,6.563,81.747,1.636,81.747Z" transform="translate(-0.023 -0.058)" fill="#0b0a18"/>
      </g>
    </g>
  </g>
</svg>
